<?xml version="1.0" encoding="utf-8"?>
<!-- Generator: Adobe Illustrator 16.0.0, SVG Export Plug-In . SVG Version: 6.00 Build 0)  -->
<!DOCTYPE svg PUBLIC "-//W3C//DTD SVG 1.1//EN" "http://www.w3.org/Graphics/SVG/1.1/DTD/svg11.dtd">
<svg version="1.1" id="Layer_1" xmlns="http://www.w3.org/2000/svg" xmlns:xlink="http://www.w3.org/1999/xlink" x="0px" y="0px"
	 width="612px" height="435.931px" viewBox="0 0 612 435.931" enable-background="new 0 0 612 435.931" xml:space="preserve">
<g>
	<polygon fill="#EDEFF7" points="442.502,273.92 612,435.931 30.023,435.931 192.292,269.229 	"/>
	<g>
		<polygon fill="#EDEFF7" points="486.743,292.843 434.652,292.843 434.652,59.288 486.743,30.773 		"/>
		<g>
			<rect x="230.709" y="59.288" fill="#EDEFF7" width="52.091" height="233.555"/>
			<rect x="238.751" y="59.288" fill="#DDE1F2" width="4.3" height="232.224"/>
			<rect x="254.293" y="59.288" fill="#DDE1F2" width="4.3" height="232.224"/>
			<rect x="268.811" y="59.288" fill="#DDE1F2" width="4.3" height="232.224"/>
		</g>
		<g>
			<rect x="282.8" fill="#EDEFF7" width="52.093" height="233.558"/>
			<g>
				<g>
					<rect x="291.026" y="8.839" fill="#DDE1F2" width="13.16" height="50.448"/>
					<rect x="291.026" y="71.237" fill="#DDE1F2" width="13.16" height="50.447"/>
					<rect x="291.026" y="133.636" fill="#DDE1F2" width="13.16" height="50.448"/>
					<rect x="291.026" y="196.033" fill="#DDE1F2" width="13.16" height="50.447"/>
				</g>
				<g>
					<rect x="312.865" y="8.839" fill="#DDE1F2" width="13.159" height="50.448"/>
					<rect x="312.865" y="71.237" fill="#DDE1F2" width="13.159" height="50.447"/>
					<rect x="312.865" y="133.636" fill="#DDE1F2" width="13.159" height="50.448"/>
					<rect x="312.865" y="196.033" fill="#DDE1F2" width="13.159" height="50.447"/>
				</g>
			</g>
		</g>
		<g>
			<polygon fill="#EDEFF7" points="384.869,309.005 332.777,309.005 332.777,75.449 384.869,91.048 			"/>
			<g>
				<polygon fill="#DDE1F2" points="343.398,302.056 339.253,302.056 339.253,77.519 343.398,78.63 				"/>
				<polygon fill="#DDE1F2" points="356.121,302.056 351.975,302.056 351.975,81.197 356.121,82.439 				"/>
				<rect x="363.555" y="100.427" fill="#DDE1F2" width="13.929" height="13.93"/>
				<rect x="363.555" y="126.671" fill="#DDE1F2" width="13.929" height="13.929"/>
				<rect x="363.555" y="152.914" fill="#DDE1F2" width="13.929" height="13.93"/>
				<rect x="363.555" y="179.157" fill="#DDE1F2" width="13.929" height="13.929"/>
				<rect x="363.555" y="205.402" fill="#DDE1F2" width="13.929" height="13.929"/>
				<rect x="363.555" y="231.645" fill="#DDE1F2" width="13.929" height="13.93"/>
				<rect x="363.555" y="257.889" fill="#DDE1F2" width="13.929" height="13.93"/>
				<rect x="363.555" y="284.132" fill="#DDE1F2" width="13.929" height="13.93"/>
			</g>
		</g>
		<g>
			<polygon fill="#EDEFF7" points="434.652,292.843 382.559,292.843 382.559,59.288 410.564,41.027 434.652,59.288 			"/>
			<rect x="387" y="56.392" fill="#DDE1F2" width="2.167" height="245.664"/>
			<rect x="401.659" y="56.392" fill="#DDE1F2" width="2.169" height="245.664"/>
			<rect x="425.625" y="56.392" fill="#DDE1F2" width="2.168" height="245.664"/>
			<rect x="413.623" y="56.392" fill="#DDE1F2" width="2.169" height="245.664"/>
		</g>
		<g>
			<rect x="442.502" y="67.679" fill="#DDE1F2" width="11.326" height="26.172"/>
			<rect x="442.502" y="103.692" fill="#DDE1F2" width="11.326" height="26.172"/>
			<rect x="442.502" y="139.707" fill="#DDE1F2" width="11.326" height="26.172"/>
			<rect x="442.502" y="175.72" fill="#DDE1F2" width="11.326" height="26.172"/>
			<rect x="442.502" y="211.734" fill="#DDE1F2" width="11.326" height="26.171"/>
			<rect x="442.502" y="247.747" fill="#DDE1F2" width="11.326" height="26.173"/>
			<rect x="464.206" y="67.679" fill="#DDE1F2" width="11.327" height="218.443"/>
		</g>
	</g>
	<g>
		<g>
			<path fill="#BEC7E6" d="M210.38,139.108c0,0,19.342-55.039-20.887-51.945c-40.231,3.095-15.473,42.771-22.436,51.945
				c-6.963,9.174-20.116,0.11-38.685,0c-18.567-0.109-27.077,41.668,7.737,50.178c34.815,8.512,7.738,17.795-10.057,13.926
				c-17.795-3.867-34.042,24.758,9.289,44.874c28.79,13.366,65.388,17.057,95.146,4.468c10.133-4.288,42.336-23.213,28.391-37.856
				c-7.544-7.922-32.876-2.677-22.586-20.735c2.599-4.561,7.065-7.758,11.706-10.214c10.152-5.373,23.925-7.782,21.839-22.159
				c-3.463-23.889-39.336-20.084-55.588-17.175L210.38,139.108z"/>
			
				<line fill="none" stroke="#37424F" stroke-width="1.4919" stroke-miterlimit="10" x1="194.774" y1="133.619" x2="194.774" y2="308.219"/>
		</g>
		<g>
			<path fill="#F26A45" d="M536.072,145.902c0,0,19.342-55.04-20.889-51.945c-40.229,3.095-15.474,42.771-22.437,51.945
				s-20.113,0.11-38.683,0c-18.568-0.11-27.078,41.667,7.736,50.179c34.815,8.51,7.737,17.793-10.059,13.926
				c-17.793-3.869-34.039,24.756,9.289,44.874c28.79,13.364,65.389,17.056,95.146,4.466c10.135-4.287,42.336-23.213,28.393-37.854
				c-7.546-7.924-32.877-2.678-22.588-20.736c2.599-4.562,7.066-7.759,11.706-10.214c10.152-5.374,23.925-7.782,21.841-22.159
				c-3.463-23.889-39.336-20.084-55.59-17.176L536.072,145.902z"/>
			
				<line fill="none" stroke="#37424F" stroke-width="1.4919" stroke-miterlimit="10" x1="520.465" y1="122.395" x2="520.465" y2="296.995"/>
		</g>
	</g>
	<g>
		<g>
			<g>
				<path fill="#374776" d="M512.647,344.572h-309.76c-3.731,0-6.756-3.025-6.756-6.757V137.969c0-3.731,3.025-6.756,6.756-6.756
					h309.76c3.731,0,6.757,3.025,6.757,6.756v199.846C519.404,341.547,516.379,344.572,512.647,344.572z"/>
				<path fill="#EBEDF7" d="M206.043,331.317v-186.85c0-1.916,1.552-3.469,3.468-3.469h296.512c1.914,0,3.469,1.553,3.469,3.469
					v186.85c0,1.916-1.555,3.468-3.469,3.468H209.511C207.595,334.785,206.043,333.233,206.043,331.317z"/>
			</g>
			<g>
				<text transform="matrix(1 0 0 1 296.5459 291.4395)"><tspan x="0" y="0" fill="#374776" font-family="'Quicksand-Bold'" font-size="70.7224" letter-spacing="-6">4</tspan><tspan x="29.489" y="0" fill="#374776" font-family="'Quicksand-Bold'" font-size="70.7224" letter-spacing="-11">0</tspan><tspan x="54.313" y="0" fill="#374776" font-family="'Quicksand-Bold'" font-size="70.7224">4</tspan></text>
				<text transform="matrix(1 0 0 1 305.0527 317.3281)" fill="#BEC7E6" font-family="'Raleway-SemiBold'" font-size="15.8348">Page not fund</text>
				<g>
					<path fill="#BEC7E6" d="M362.345,231.645h-4.524c-13.11,0-23.737-10.629-23.737-23.737v-9.197h47.983
						c2.602,0,4.71,2.109,4.71,4.71v3.793C386.776,220.707,375.838,231.645,362.345,231.645z"/>
					<path fill="#BEC7E6" d="M358.546,209.801h-24.401v-27.693c0-6.738,5.462-12.2,12.201-12.2l0,0c6.738,0,12.2,5.462,12.2,12.2
						V209.801z"/>
					<path fill="#F0B45F" d="M335.429,186.45l-6.672,4.985l7.409,2.787c1.297,0.489,2.663-0.521,2.582-1.902l-0.269-4.452
						C338.39,186.349,336.646,185.541,335.429,186.45z"/>
					<ellipse fill="#252F4F" cx="347.711" cy="183.776" rx="3.893" ry="6.078"/>
					<ellipse fill="#FFFFFF" cx="347.711" cy="183.776" rx="1.906" ry="2.977"/>
					
						<path fill="none" stroke="#FFFFFF" stroke-width="0.1797" stroke-linecap="round" stroke-linejoin="round" stroke-miterlimit="10" d="
						M361.635,225.533h-2.847c-8.243,0-14.928-6.684-14.928-14.927v-5.784h30.177c1.635,0,2.961,1.326,2.961,2.962v2.386
						C376.998,218.655,370.12,225.533,361.635,225.533z"/>
					
						<line fill="none" stroke="#FFFFFF" stroke-width="0.1797" stroke-linecap="round" stroke-linejoin="round" stroke-miterlimit="10" x1="350.119" y1="210.228" x2="350.119" y2="222.444"/>
					
						<line fill="none" stroke="#FFFFFF" stroke-width="0.1797" stroke-linecap="round" stroke-linejoin="round" stroke-miterlimit="10" x1="355.443" y1="212.934" x2="355.443" y2="225.15"/>
					
						<line fill="none" stroke="#FFFFFF" stroke-width="0.1797" stroke-linecap="round" stroke-linejoin="round" stroke-miterlimit="10" x1="360.431" y1="213.733" x2="360.431" y2="225.533"/>
					
						<line fill="none" stroke="#FFFFFF" stroke-width="0.1797" stroke-linecap="round" stroke-linejoin="round" stroke-miterlimit="10" x1="365.305" y1="212.934" x2="365.305" y2="225.15"/>
					
						<line fill="none" stroke="#FFFFFF" stroke-width="0.1797" stroke-linecap="round" stroke-linejoin="round" stroke-miterlimit="10" x1="370.454" y1="210.75" x2="370.454" y2="222.444"/>
				</g>
			</g>
			<g opacity="0.46">
				<defs>
					<path id="SVGID_1_" opacity="0.46" d="M206.043,331.317v-186.85c0-1.916,1.552-3.469,3.468-3.469h296.512
						c1.914,0,3.469,1.553,3.469,3.469v186.85c0,1.916-1.555,3.468-3.469,3.468H209.511
						C207.595,334.785,206.043,333.233,206.043,331.317z"/>
				</defs>
				<clipPath id="SVGID_2_">
					<use xlink:href="#SVGID_1_"  overflow="visible"/>
				</clipPath>
				<g clip-path="url(#SVGID_2_)">
					<g>
						
							<line fill="none" stroke="#7886B3" stroke-width="0.421" stroke-miterlimit="10" x1="422.944" y1="172.056" x2="509.492" y2="172.056"/>
						
							<line fill="none" stroke="#7886B3" stroke-width="0.421" stroke-miterlimit="10" x1="409.015" y1="160.802" x2="509.492" y2="160.802"/>
						
							<line fill="none" stroke="#7886B3" stroke-width="0.421" stroke-miterlimit="10" x1="402.192" y1="147.901" x2="512.145" y2="147.901"/>
						
							<line fill="none" stroke="#7886B3" stroke-width="0.421" stroke-miterlimit="10" x1="430.917" y1="183.149" x2="517.465" y2="183.149"/>
						
							<line fill="none" stroke="#7886B3" stroke-width="0.421" stroke-miterlimit="10" x1="438.891" y1="194.241" x2="525.437" y2="194.241"/>
						
							<line fill="none" stroke="#7886B3" stroke-width="0.421" stroke-miterlimit="10" x1="446.861" y1="205.333" x2="533.409" y2="205.333"/>
						
							<line fill="none" stroke="#7886B3" stroke-width="0.421" stroke-miterlimit="10" x1="454.835" y1="216.426" x2="541.381" y2="216.426"/>
						
							<line fill="none" stroke="#7886B3" stroke-width="0.421" stroke-miterlimit="10" x1="462.808" y1="227.518" x2="549.354" y2="227.518"/>
						
							<line fill="none" stroke="#7886B3" stroke-width="0.421" stroke-miterlimit="10" x1="470.779" y1="238.609" x2="557.327" y2="238.609"/>
						
							<line fill="none" stroke="#7886B3" stroke-width="0.421" stroke-miterlimit="10" x1="478.752" y1="249.701" x2="565.3" y2="249.701"/>
						
							<line fill="none" stroke="#7886B3" stroke-width="0.421" stroke-miterlimit="10" x1="486.726" y1="260.795" x2="573.271" y2="260.795"/>
						
							<line fill="none" stroke="#7886B3" stroke-width="0.421" stroke-miterlimit="10" x1="494.697" y1="271.887" x2="581.245" y2="271.887"/>
						
							<line fill="none" stroke="#7886B3" stroke-width="0.421" stroke-miterlimit="10" x1="502.67" y1="282.979" x2="589.218" y2="282.979"/>
					</g>
					<g>
						
							<line fill="none" stroke="#7886B3" stroke-width="0.421" stroke-miterlimit="10" x1="282.608" y1="172.056" x2="196.06" y2="172.056"/>
						
							<line fill="none" stroke="#7886B3" stroke-width="0.421" stroke-miterlimit="10" x1="296.539" y1="160.802" x2="196.06" y2="160.802"/>
						
							<line fill="none" stroke="#7886B3" stroke-width="0.421" stroke-miterlimit="10" x1="303.359" y1="147.901" x2="193.409" y2="147.901"/>
						
							<line fill="none" stroke="#7886B3" stroke-width="0.421" stroke-miterlimit="10" x1="274.635" y1="183.149" x2="188.089" y2="183.149"/>
						
							<line fill="none" stroke="#7886B3" stroke-width="0.421" stroke-miterlimit="10" x1="266.664" y1="194.241" x2="180.116" y2="194.241"/>
						
							<line fill="none" stroke="#7886B3" stroke-width="0.421" stroke-miterlimit="10" x1="258.69" y1="205.333" x2="172.144" y2="205.333"/>
						
							<line fill="none" stroke="#7886B3" stroke-width="0.421" stroke-miterlimit="10" x1="250.717" y1="216.426" x2="164.171" y2="216.426"/>
						
							<line fill="none" stroke="#7886B3" stroke-width="0.421" stroke-miterlimit="10" x1="242.746" y1="227.518" x2="156.198" y2="227.518"/>
						
							<line fill="none" stroke="#7886B3" stroke-width="0.421" stroke-miterlimit="10" x1="234.772" y1="238.609" x2="148.227" y2="238.609"/>
						
							<line fill="none" stroke="#7886B3" stroke-width="0.421" stroke-miterlimit="10" x1="226.799" y1="249.701" x2="140.253" y2="249.701"/>
						
							<line fill="none" stroke="#7886B3" stroke-width="0.421" stroke-miterlimit="10" x1="218.828" y1="260.795" x2="132.28" y2="260.795"/>
						
							<line fill="none" stroke="#7886B3" stroke-width="0.421" stroke-miterlimit="10" x1="210.855" y1="271.887" x2="124.307" y2="271.887"/>
						
							<line fill="none" stroke="#7886B3" stroke-width="0.421" stroke-miterlimit="10" x1="202.882" y1="282.979" x2="116.334" y2="282.979"/>
					</g>
				</g>
			</g>
			<path fill="#252F4F" d="M391.161,342.753l18.194,44.033c0.879,2.13-0.686,4.47-2.99,4.47H302.69c-2.241,0-3.802-2.222-3.042-4.33
				l15.254-42.354L391.161,342.753z"/>
		</g>
		<polyline fill="none" stroke="#FFFFFF" stroke-width="0.4424" stroke-miterlimit="10" points="385.78,346.99 401.425,382.831 
			324.979,382.831 		"/>
		
			<line fill="none" stroke="#FFFFFF" stroke-width="0.4424" stroke-miterlimit="10" x1="377.832" y1="377.053" x2="324.979" y2="377.053"/>
	</g>
	<g>
		<g>
			<g>
				<g>
					<path fill="#6B7EBE" d="M54.578,384.021c0,0,23.423-54.79,10.225-87.913l-15.339,11.177l10.968-25.386
						c0,0-31.901-31.135-54.565,4.21l18.516,12.95l-22.628-0.43l2.841,20.038l27.142,12.381l-20.384,0.109
						C11.354,331.158,28.029,368.039,54.578,384.021z"/>
					
						<line fill="none" stroke="#486A78" stroke-width="0.8754" stroke-miterlimit="10" x1="38.338" y1="301.902" x2="58.087" y2="403.755"/>
				</g>
				<g>
					<path fill="#6B7EBE" d="M68.237,392.83c0,0,29.012-15.727,34.676-34.645l-10.502-0.424l13.493-7.245
						c0,0-3.138-24.488-25.132-16.942l3.581,11.99l-9.674-7.97l-5.658,9.674l7.523,14.71l-8.886-6.963
						C67.658,355.016,62.21,376.76,68.237,392.83z"/>
					
						<line fill="none" stroke="#486A78" stroke-width="0.4848" stroke-miterlimit="10" x1="89.434" y1="351.599" x2="62.971" y2="402.601"/>
				</g>
				<path fill="#2A3559" d="M92.159,392.774l-12.04,12.039c-2.554,2.555-6.019,3.99-9.631,3.99h-18.38
					c-3.613,0-7.078-1.436-9.631-3.99l-11.775-11.775c-1.442-1.443-0.429-3.908,1.611-3.919l58.213-0.261
					C92.575,388.848,93.606,391.325,92.159,392.774z"/>
			</g>
			<g>
				<path fill="#78CAB8" d="M499.74,365.35c0,0-31.122-72.798-13.585-116.807l20.38,14.85l-14.574-33.729
					c0,0,42.388-41.369,72.502,5.592l-24.601,17.208l30.064-0.57l-3.775,26.623l-36.062,16.451l27.082,0.145
					C557.172,295.112,535.017,344.116,499.74,365.35z"/>
				
					<line fill="none" stroke="#486A78" stroke-width="1.1631" stroke-miterlimit="10" x1="521.318" y1="256.241" x2="495.08" y2="391.57"/>
			</g>
		</g>
		<g>
			<path fill="#78CAB8" d="M481.592,377.053c0,0-38.548-20.893-46.074-46.028l13.954-0.563l-17.928-9.628
				c0,0,4.169-32.537,33.394-22.511l-4.759,15.931l12.854-10.588l7.518,12.854l-9.993,19.546l11.806-9.252
				C482.362,326.813,489.601,355.703,481.592,377.053z"/>
			
				<line fill="none" stroke="#486A78" stroke-width="0.6441" stroke-miterlimit="10" x1="453.428" y1="322.272" x2="488.587" y2="390.038"/>
		</g>
		<path fill="#FDC26B" d="M455.052,382.224l12.817,12.818c2.073,2.071,4.883,3.237,7.813,3.237h30.261
			c2.932,0,5.742-1.166,7.814-3.237l12.536-12.536c3.832-3.834,1.134-10.389-4.288-10.413l-62.612-0.283
			C453.943,371.785,451.198,378.372,455.052,382.224z"/>
	</g>
	<g>
		<g>
			<circle fill="#78CAB8" cx="503.805" cy="83.189" r="21.78"/>
			<g>
				<path fill="none" stroke="#FFFFFF" stroke-width="0.5662" stroke-miterlimit="10" d="M503.802,92.727h-10.906
					c-1.702,0-2.766-1.843-1.914-3.315l5.453-9.445l5.453-9.444c0.852-1.474,2.978-1.474,3.828,0l5.453,9.444l5.452,9.445
					c0.851,1.473-0.214,3.315-1.914,3.315H503.802z"/>
				<g>
					<path fill="#FFFFFF" d="M503.456,85.333l-0.684-11.377c-0.015-0.237,0.175-0.437,0.411-0.437h1.24
						c0.234,0,0.424,0.197,0.411,0.433l-0.555,11.377c-0.011,0.22-0.192,0.392-0.411,0.392l0,0
						C503.65,85.721,503.47,85.551,503.456,85.333z"/>
					<circle fill="#FFFFFF" cx="503.801" cy="87.57" r="1.055"/>
				</g>
			</g>
		</g>
		<g>
			<circle fill="#F26A45" cx="206.042" cy="87.037" r="21.78"/>
			<g>
				<circle fill="#FFFFFF" cx="213.286" cy="82.481" r="10.028"/>
				<circle fill="#F26A45" cx="213.286" cy="82.482" r="8.947"/>
				
					<rect x="195.808" y="82.649" transform="matrix(0.4888 0.8724 -0.8724 0.4888 180.6669 -125.2453)" fill="#FFFFFF" width="2.778" height="17.76"/>
			</g>
		</g>
	</g>
	<g>
		<g>
			
				<line fill="none" stroke="#161D30" stroke-width="0.3469" stroke-linecap="round" stroke-linejoin="round" stroke-miterlimit="10" x1="115.102" y1="173.716" x2="99.856" y2="147.901"/>
			
				<line fill="none" stroke="#161D30" stroke-width="0.3469" stroke-linecap="round" stroke-linejoin="round" stroke-miterlimit="10" x1="135.417" y1="159.615" x2="130.596" y2="131.213"/>
			
				<line fill="none" stroke="#161D30" stroke-width="0.3469" stroke-linecap="round" stroke-linejoin="round" stroke-miterlimit="10" x1="159.541" y1="159.615" x2="168.896" y2="136.035"/>
			
				<line fill="none" stroke="#161D30" stroke-width="0.3469" stroke-linecap="round" stroke-linejoin="round" stroke-miterlimit="10" x1="174.833" y1="164.506" x2="193.409" y2="147.901"/>
		</g>
		<g>
			<g>
				<g>
					<path fill="#F26A45" d="M173.635,185.466c0,0,16.417,18.06,4.637,28.076c0,0,1.921,24.367-31.045,46.876
						c0,0-13.093,48.888-53.64,29.973c0,0-45.462-3.092-32.765-32.915c0,0-9.012-40.54,22.526-46.24c0,0,9.419-22.196,29.899-13.947
						c0,0,4.41-14.329,19.741-4.5C132.988,192.79,148.484,166.32,173.635,185.466z"/>
					<g>
						<path fill="none" stroke="#C35334" stroke-width="0.4424" stroke-miterlimit="10" d="M124.811,204.953
							c0,0-8.118-11.411-18.906,6.131s-26.089,7.083-32.09,24.315c-6,17.231,4.387,24.195-6.301,33.83"/>
						<path fill="none" stroke="#C35334" stroke-width="0.4424" stroke-miterlimit="10" d="M130.596,213.327
							c0,0-0.802-2.54-10.041,10.131c-9.236,12.671-18.489,2.99-22.738,23.081c-4.247,20.091-8.861,36.765-18.682,41.08"/>
						<path fill="none" stroke="#C35334" stroke-width="0.4424" stroke-miterlimit="10" d="M174.198,190.971
							c0,0,2.794,37.838-14.292,48.248c-17.085,10.412-57.897,26.044-63.744,44.48"/>
					</g>
				</g>
				<g>
					<g>
						<g>
							<circle fill="none" stroke="#2A3559" stroke-width="0.51" stroke-miterlimit="10" cx="126.417" cy="391.214" r="5.278"/>
							<circle fill="none" stroke="#2A3559" stroke-width="0.51" stroke-miterlimit="10" cx="141.827" cy="391.214" r="5.278"/>
							<circle fill="none" stroke="#2A3559" stroke-width="0.51" stroke-miterlimit="10" cx="155.112" cy="391.214" r="5.278"/>
						</g>
						<g>
							<rect x="137.059" y="350.952" fill="#C5CEE9" width="9.536" height="37.194"/>
							<rect x="121.139" y="382.831" fill="#C5CEE9" width="39.491" height="5.315"/>
						</g>
					</g>
					<g>
						<g>
							<path fill="#FECB81" d="M164.016,346.594c-4.005,2.219-8.288,3.864-12.729,4.816c-48.327,10.356-84.565-31.16-57.718-84.78
								c28.281-56.487,83.758-19.097,83.758-19.097s13.67,14.106,19.939,34.43c7.085,22.972-3.065,47.913-23.502,59.232
								L164.016,346.594z"/>
						</g>
						<path fill="#FFDDAB" d="M165.949,345.27c-48.324,10.357-84.563-31.159-57.715-84.78c5.787-11.562,12.716-19.187,20.075-24.007
							c-12.558,2.727-25.198,11.088-34.739,30.147c-26.847,53.62,9.391,95.137,57.718,84.78c4.441-0.952,8.724-2.598,12.729-4.816
							l2.781-1.539C166.515,345.119,166.235,345.208,165.949,345.27z"/>
					</g>
				</g>
				<g>
					<path fill="#576DB4" d="M118.944,302.824c0,0-5.912,20.536,13.312,35.133c19.93,15.131,51.039-11.309,51.039-11.309
						l-4.323-31.259L118.944,302.824z"/>
					<path fill="#576DB4" d="M165.585,311.38c0,0,25-1.812,45.49,4.409c6.34,1.925,9.751,8.804,7.59,15.067l-22.738,65.87h-7.751
						c0,0,1.374-37.549,11.184-58.77c0,0-43.449-1.813-44.211-21.878c-0.765-20.066,10.437-6.29,10.437-6.29V311.38z"/>
					<path fill="#6B7EBE" d="M136.432,322.281c0,0,27.239-1.973,48.155,5.274c4.832,1.674,7.343,6.997,5.585,11.8l-20.999,57.371
						h-7.752c0,0-1.024-26.647,8.786-47.868c0,0-43.449-1.813-44.213-21.878c-0.763-20.066,10.438-6.289,10.438-6.289V322.281z"/>
					<path fill="#F26A45" d="M195.928,396.727l12.012,6.317c1.051,0.551,0.657,2.142-0.53,2.142h-13.792l-1.384-4.229v4.229h-3.359
						v-8.459H195.928z"/>
					<path fill="#F26A45" d="M169.154,396.727l12.012,6.317c1.051,0.551,0.657,2.142-0.529,2.142h-13.792l-1.385-4.229v4.229h-3.358
						v-8.459H169.154z"/>
				</g>
				<g>
					<g>
						<path fill="#F8A992" d="M140.525,224.751l-4.101,17.845c0,0,13.112,13.803,24.206,0l-4.035-18.821L140.525,224.751z"/>
						<g>
							<path fill="#FAC0AE" d="M157.508,171l12.434,4.736c0,0,5.328,27.237,0,37.301c-5.328,10.066-10.064,20.131-24.866,16.579
								c-14.802-3.552-17.172-23.091-17.172-23.091s-11.249-3.551-4.736-13.617S132.641,165.081,157.508,171z"/>
							<g>
								<path fill="#F26A45" d="M147.135,170.107c0,0-3.251,14.166,6.193,15.515c0,0,4.565,8.095,14.839,8.095
									c1.349,0,1.349,2.698,4.047,0c0,0,8.095-8.095,1.349-18.888C173.564,174.829,166.574,158.64,147.135,170.107z"/>
								<path fill="#F26A45" d="M149.134,170.188c0,0-8.049-9.391-14.756-4.024c-6.707,5.366-8.049,14.758-8.049,14.758
									s-9.188,2.648-3.253,12.727c0,0,4.595,10.078,9.96,4.713c0,0,9.391-2.684,9.391-13.416c0,0,5.517,1.803,6.783-4.464
									C150.477,174.212,149.134,170.188,149.134,170.188z"/>
								<g>
									<ellipse fill="#161D30" cx="145.738" cy="203.698" rx="1.255" ry="2.511"/>
									<ellipse fill="#161D30" cx="160.796" cy="203.698" rx="1.255" ry="2.511"/>
									
										<path fill="none" stroke="#161D30" stroke-width="0.3469" stroke-linecap="round" stroke-linejoin="round" stroke-miterlimit="10" d="
										M152.013,204.953c0,0,1.254,7.528,6.272,10.038c0,0-1.254,2.509-5.019,0"/>
									
										<path fill="none" stroke="#161D30" stroke-width="0.3469" stroke-linecap="round" stroke-linejoin="round" stroke-miterlimit="10" d="
										M152.293,221.793c0,0-1.927-3.468-8.093-2.312"/>
									<circle fill="none" stroke="#2A3559" stroke-width="0.3469" stroke-miterlimit="10" cx="143.228" cy="203.698" r="6.844"/>
									<circle fill="none" stroke="#2A3559" stroke-width="0.3469" stroke-miterlimit="10" cx="160.201" cy="203.698" r="6.845"/>
								</g>
								
									<path fill="none" stroke="#DC5D3B" stroke-width="0.615" stroke-linecap="round" stroke-linejoin="round" stroke-miterlimit="10" d="
									M145.738,193.452c0,0-5.543-2.209-8.298,3.7"/>
								
									<path fill="none" stroke="#DC5D3B" stroke-width="0.615" stroke-linecap="round" stroke-linejoin="round" stroke-miterlimit="10" d="
									M156.747,193.452c0,0,5.543-2.209,8.298,3.7"/>
							</g>
						</g>
					</g>
					<g>
						<g>
							
								<rect x="208.718" y="211.8" transform="matrix(-0.9798 -0.2001 0.2001 -0.9798 375.2428 482.6945)" fill="#FAC0AE" width="6.593" height="21.167"/>
							<path fill="#FAC0AE" d="M215.639,221.111c0,0,6.601-9.331,6.168-13.583c-0.431-4.25-0.281-13.453-3.173-11.579
								c-2.893,1.872-1.642,11.189-5.087,11.205c-2.008,0.007-5.122,1.159-5.593,1.365c0,0,0.261,2.287,2.811,3.497l-1.73,8.478
								L215.639,221.111z"/>
						</g>
						<path fill="#54C2B5" d="M160.201,239.673l32.922,12.062l14.148-27.886l10.278,1.183l-10.191,32.794
							c-1.904,6.745-8.058,11.404-15.067,11.404h-20.578L160.201,239.673z"/>
						<g>
							<g>
								<path fill="#2A3559" d="M167.164,203.443l68.25-14.627c1.807-0.387,3.484,1.058,3.37,2.901l-1.542,24.596
									c-0.101,1.633-1.582,2.829-3.2,2.583l-66.703-10.083c-1.354-0.205-2.44-1.361-2.375-2.73
									c0.002-0.016,0.002-0.03,0.003-0.046c0.005-0.094,0.05-0.657,0.371-1.273C165.702,204.068,166.398,203.607,167.164,203.443z
									"/>
								
									<ellipse transform="matrix(0.998 0.0625 -0.0625 0.998 13.187 -14.4689)" fill="#171E33" cx="238.032" cy="203.698" rx="11.293" ry="15.685"/>
								
									<ellipse transform="matrix(0.998 0.0625 -0.0625 0.998 13.2037 -14.4862)" fill="#B1BDE1" cx="238.033" cy="203.698" rx="10.038" ry="13.942"/>
								
									<ellipse transform="matrix(0.9981 0.0624 -0.0624 0.9981 13.1759 -14.48)" fill="#CCD4EC" cx="238.403" cy="203.698" rx="8.783" ry="12.199"/>
								
									<ellipse transform="matrix(0.998 0.0626 -0.0626 0.998 13.2198 -14.5486)" fill="#E8EAF1" cx="238.787" cy="203.698" rx="6.926" ry="9.619"/>
							</g>
							<g>
								
									<line fill="none" stroke="#F7F7F7" stroke-width="0.2212" stroke-miterlimit="10" x1="224.746" y1="194.916" x2="172.31" y2="204.953"/>
								
									<line fill="none" stroke="#F7F7F7" stroke-width="0.2212" stroke-miterlimit="10" x1="223.978" y1="198.202" x2="188.106" y2="205.188"/>
							</g>
						</g>
						<g>
							
								<rect x="189.49" y="214.448" transform="matrix(0.9748 0.2232 -0.2232 0.9748 55.0857 -37.3506)" fill="#FAC0AE" width="6.594" height="21.166"/>
							<path fill="#FAC0AE" d="M190.014,222.374c0,0-2.153-11.226,0-14.918c2.151-3.693,5.818-12.134,7.676-9.232
								c1.859,2.901-3.129,10.868,0,12.307c1.826,0.837,4.185,3.172,4.528,3.557c0,0-1.183,1.974-4.005,2.02l-1.93,8.435
								L190.014,222.374z"/>
						</g>
						<g>
							<path fill="#FFFFFF" d="M160.201,239.673l7.493,11.604c2.872,3.361,4.979,7.583,6.112,12.26
								c4.046,16.688,9.488,44.598,9.488,44.598c-3.265,4.216-10.292,12.018-21.879,16.439c-22.003,8.398-41.941-2.451-45.004-4.184
								c2.767-19.184,5.532-38.366,8.298-57.55c1.037-4.234,2.872-8.105,5.358-11.297l6.993-11.457L160.201,239.673z"/>
							<g>
								<path fill="#54C2B5" d="M150.69,253.889c0,0,4.879,61.198,21.62,69.118l12.489-14.915
									c-1.3-11.786-4.035-26.342-9.762-42.307c-3.497-9.74-7.475-18.25-11.39-25.492c-1.37-0.837-2.372-0.236-3.74-1.074
									C159.906,239.219,160.786,250.129,150.69,253.889z"/>
								<path fill="#54C2B5" d="M137.059,240.086c0,0-19.245,41.645-21.957,87.64c0,0,13.746,14.807,29.381,2.604
									c0,0,3.618-62.188,0-76.655L137.059,240.086z"/>
								<path fill="none" stroke="#378F84" stroke-width="0.5204" stroke-miterlimit="10" d="M166.631,251.298
									c0,0,6.347,11.518,11.358,27.091"/>
								<g>
									<path fill="#54C2B5" d="M136.688,240.022c0,0-33.948,16.448-26.842,40.151c7.107,23.704,73.075,31.136,87.844-53.686
										l-9.878,0.318c0,0-11.936,59.602-62.093,45.795C125.718,272.602,152.512,244.752,136.688,240.022z"/>
									<path fill="none" stroke="#378F84" stroke-width="0.5204" stroke-miterlimit="10" d="M112.659,285.193
										c0,0,22.936,25.568,59.28-4.526"/>
									<path fill="none" stroke="#378F84" stroke-width="0.5204" stroke-miterlimit="10" d="M134.71,261.697
										c0,0-8.759,10.622-8.986,10.899c-0.15,0.182,10.171,1.835,10.964,1.953c9.091,1.348,17.419-1.305,24.361-5.384
										c6.424-3.776,12.083-11.482,16.591-17.416"/>
								</g>
								<path fill="#F8A992" d="M159.906,239.219c0,0,0.295,15.011-11.659,15.011c-11.046,0-11.189-14.144-11.189-14.144
									S145.094,230.907,159.906,239.219z"/>
							</g>
						</g>
					</g>
				</g>
			</g>
			<g>
				<g>
					<g>
						<polygon fill="#F0B45F" points="129.923,299.951 84.431,408.799 71.884,408.799 116.12,299.951 						"/>
						
							<line fill="none" stroke="#FFFFFF" stroke-width="0.2212" stroke-miterlimit="10" x1="115.102" y1="311.148" x2="85.801" y2="382.831"/>
						
							<line fill="none" stroke="#FFFFFF" stroke-width="0.2212" stroke-miterlimit="10" x1="116.41" y1="320.39" x2="94.663" y2="372.672"/>
					</g>
					<g>
						<polygon fill="#F0B45F" points="233.57,299.951 277.969,408.799 290.516,408.799 247.373,299.951 						"/>
						
							<line fill="none" stroke="#FFFFFF" stroke-width="0.2212" stroke-miterlimit="10" x1="246.931" y1="311.148" x2="276.231" y2="382.831"/>
						
							<line fill="none" stroke="#FFFFFF" stroke-width="0.2212" stroke-miterlimit="10" x1="245.623" y1="320.39" x2="267.37" y2="372.672"/>
					</g>
				</g>
				<g>
					<rect x="85.801" y="293.568" fill="#FDC26B" width="188.733" height="16.221"/>
					<g>
						
							<line fill="none" stroke="#FFFFFF" stroke-width="0.2212" stroke-miterlimit="10" x1="87.2" y1="299.633" x2="160.292" y2="299.633"/>
						
							<line fill="none" stroke="#FFFFFF" stroke-width="0.2212" stroke-miterlimit="10" x1="92.543" y1="305.555" x2="165.635" y2="305.555"/>
						
							<line fill="none" stroke="#FFFFFF" stroke-width="0.2212" stroke-miterlimit="10" x1="180.098" y1="296.989" x2="253.189" y2="296.989"/>
						
							<line fill="none" stroke="#FFFFFF" stroke-width="0.2212" stroke-miterlimit="10" x1="185.441" y1="302.91" x2="258.533" y2="302.91"/>
					</g>
				</g>
			</g>
		</g>
		<g>
			<path fill="#BEC7E6" d="M273.361,257.146c-1.817,1.223-43.664,0-43.664,0l-14.584,35.515h56.831l12.3-35.515H273.361z"/>
			<rect x="195.638" y="288.181" fill="#BEC7E6" width="42.393" height="4.48"/>
		</g>
	</g>
</g>
</svg>
