<svg xmlns="http://www.w3.org/2000/svg" width="70" height="70" viewBox="0 0 70 70">
  <g id="collaboration" transform="translate(-508 -3389)">
    <circle id="Ellipse_90" data-name="Ellipse 90" cx="35" cy="35" r="35" transform="translate(508 3389)" fill="#6ab811"/>
    <path id="Icon_awesome-handshake" data-name="Icon awesome-handshake" d="M29.469,4.5H23.645a2.168,2.168,0,0,0-1.464.569l-6.664,6.1c-.007.007-.014.02-.02.027a2.7,2.7,0,0,0-.142,3.8,2.827,2.827,0,0,0,3.8.183c.007-.007.02-.007.027-.014L24.6,10.2a1.084,1.084,0,1,1,1.464,1.6L24.3,13.421l9.87,8.013a4.884,4.884,0,0,1,.536.522V8.839L31,5.137A2.154,2.154,0,0,0,29.469,4.5Zm7.41,4.352V24.03A2.167,2.167,0,0,0,39.047,26.2h4.339V8.852ZM40.132,24.03a1.085,1.085,0,1,1,1.085-1.085A1.088,1.088,0,0,1,40.132,24.03ZM0,26.193H4.339a2.167,2.167,0,0,0,2.169-2.169V8.852H0Zm3.254-4.332a1.085,1.085,0,1,1-1.085,1.085A1.088,1.088,0,0,1,3.254,21.861ZM32.8,23.122,22.683,14.906,20.649,16.77a4.88,4.88,0,0,1-6.6-7.193L19.6,4.5H13.917a2.165,2.165,0,0,0-1.532.637l-3.708,3.7V24.017H9.918l6.135,5.552a4.338,4.338,0,0,0,6.1-.63l.014-.014,1.213,1.051a2.519,2.519,0,0,0,3.545-.366l2.129-2.617.366.3a2.166,2.166,0,0,0,3.051-.319l.644-.793a2.173,2.173,0,0,0-.312-3.057Z" transform="translate(521 3406.5)" fill="#fff"/>
  </g>
</svg>
