<svg xmlns="http://www.w3.org/2000/svg" width="70" height="70" viewBox="0 0 70 70">
  <g id="connection" transform="translate(-903 -3125)">
    <circle id="Ellipse_90" data-name="Ellipse 90" cx="35" cy="35" r="35" transform="translate(903 3125)" fill="#9e19df"/>
    <path id="Icon_awesome-link" data-name="Icon awesome-link" d="M21.014,11.928a9.775,9.775,0,0,1,.023,13.807l-.023.024-4.324,4.324A9.78,9.78,0,0,1,2.86,16.252l2.387-2.387A1.029,1.029,0,0,1,7,14.547a11.856,11.856,0,0,0,.623,3.392,1.036,1.036,0,0,1-.243,1.069l-.842.842a4.633,4.633,0,1,0,6.509,6.593l4.324-4.323a4.631,4.631,0,0,0,0-6.552,4.82,4.82,0,0,0-.665-.551,1.032,1.032,0,0,1-.447-.811,2.563,2.563,0,0,1,.753-1.918l1.355-1.355a1.034,1.034,0,0,1,1.324-.111,9.811,9.811,0,0,1,1.32,1.106ZM30.082,2.86a9.791,9.791,0,0,0-13.831,0L11.928,7.184l-.023.024a9.782,9.782,0,0,0,1.344,14.913,1.034,1.034,0,0,0,1.324-.111l1.355-1.355a2.563,2.563,0,0,0,.753-1.918,1.032,1.032,0,0,0-.447-.811,4.82,4.82,0,0,1-.665-.551,4.631,4.631,0,0,1,0-6.552L19.891,6.5A4.633,4.633,0,1,1,26.4,13.093l-.842.842A1.036,1.036,0,0,0,25.315,15a11.856,11.856,0,0,1,.623,3.392,1.029,1.029,0,0,0,1.756.682l2.387-2.387a9.79,9.79,0,0,0,0-13.831Z" transform="translate(922 3144)" fill="#fff"/>
  </g>
</svg>
