<?xml version="1.0" encoding="utf-8"?>
<!-- Generator: Adobe Illustrator 16.0.0, SVG Export Plug-In . SVG Version: 6.00 Build 0)  -->
<!DOCTYPE svg PUBLIC "-//W3C//DTD SVG 1.1//EN" "http://www.w3.org/Graphics/SVG/1.1/DTD/svg11.dtd">
<svg version="1.1" xmlns="http://www.w3.org/2000/svg" xmlns:xlink="http://www.w3.org/1999/xlink" x="0px" y="0px" width="2500px"
	 height="1923.517px" viewBox="0 0 2500 1923.517" enable-background="new 0 0 2500 1923.517" xml:space="preserve">
<g id="BG">
</g>
<g id="elements">
	<g id="dot">
		<path fill="#A5A5A5" d="M1232.732,1883.184c-6.586-0.069-13.273-0.221-19.874-0.45l0.456-13.143
			c6.495,0.226,13.075,0.375,19.556,0.442L1232.732,1883.184z M1252.615,1883.15l-0.18-13.148
			c6.485-0.089,13.055-0.259,19.526-0.505l0.5,13.141C1265.885,1882.888,1259.207,1883.061,1252.615,1883.15z M1192.999,1881.799
			c-6.59-0.391-13.262-0.868-19.831-1.42l1.101-13.104c6.461,0.543,13.025,1.013,19.508,1.396L1192.999,1881.799z
			 M1292.318,1881.641l-0.818-13.125c6.454-0.402,13.017-0.894,19.504-1.459l1.143,13.101
			C1305.552,1880.732,1298.881,1881.231,1292.318,1881.641z M1153.377,1878.472c-6.547-0.712-13.188-1.518-19.737-2.393
			l1.742-13.035c6.444,0.862,12.977,1.654,19.417,2.355L1153.377,1878.472z M1331.93,1878.188l-1.466-13.068
			c6.467-0.726,12.997-1.538,19.41-2.418l1.785,13.029C1345.141,1876.623,1338.502,1877.45,1331.93,1878.188z M1113.966,1873.197
			c-6.531-1.039-13.124-2.172-19.597-3.367l2.388-12.932c6.366,1.176,12.852,2.29,19.275,3.313L1113.966,1873.197z
			 M1371.323,1872.787l-2.107-12.98c6.396-1.038,12.878-2.174,19.264-3.374l2.43,12.924
			C1384.416,1870.577,1377.827,1871.731,1371.323,1872.787z M1074.861,1865.979c-6.471-1.362-13-2.821-19.406-4.337l3.027-12.797
			c6.3,1.49,12.722,2.925,19.087,4.265L1074.861,1865.979z M1410.402,1865.438l-2.748-12.859c6.323-1.352,12.74-2.807,19.072-4.326
			l3.068,12.787C1423.356,1862.585,1416.832,1864.065,1410.402,1865.438z M1036.164,1856.824
			c-6.405-1.686-12.854-3.468-19.167-5.298l3.662-12.631c6.209,1.801,12.551,3.554,18.85,5.211L1036.164,1856.824z
			 M1449.072,1856.161l-3.387-12.707c6.286-1.675,12.623-3.448,18.834-5.271l3.701,12.619
			C1461.906,1852.654,1455.463,1854.458,1449.072,1856.161z M997.968,1845.755c-6.323-2.004-12.698-4.113-18.948-6.269l4.288-12.432
			c6.146,2.12,12.415,4.194,18.633,6.165L997.968,1845.755z M1487.231,1844.967l-4.016-12.522
			c6.176-1.979,12.417-4.066,18.549-6.201l4.324,12.418C1499.854,1840.832,1493.51,1842.954,1487.231,1844.967z M960.242,1832.748
			c-6.19-2.308-12.448-4.731-18.601-7.202l4.901-12.203c6.051,2.431,12.207,4.814,18.294,7.084L960.242,1832.748z
			 M1524.784,1831.888l-4.633-12.307c6.077-2.288,12.206-4.683,18.218-7.118l4.938,12.188
			C1537.194,1827.127,1530.963,1829.563,1524.784,1831.888z M923.232,1817.884c-6.085-2.623-12.211-5.354-18.208-8.117l5.504-11.943
			c5.898,2.718,11.924,5.404,17.91,7.984L923.232,1817.884z M1561.578,1816.983l-5.236-12.063
			c5.928-2.573,11.911-5.261,17.783-7.985l5.535,11.928C1573.689,1811.635,1567.606,1814.366,1561.578,1816.983z M887.027,1801.202
			c-5.947-2.922-11.927-5.953-17.774-9.01l6.092-11.654c5.75,3.007,11.632,5.987,17.481,8.861L887.027,1801.202z M1597.54,1800.295
			l-5.83-11.787c5.812-2.875,11.658-5.856,17.378-8.862l6.118,11.641C1609.392,1794.342,1603.448,1797.373,1597.54,1800.295z
			 M851.712,1782.747c-5.772-3.201-11.592-6.524-17.297-9.875l6.66-11.34c5.613,3.297,11.338,6.565,17.016,9.715L851.712,1782.747z
			 M1632.647,1781.842l-6.404-11.484c5.655-3.154,11.351-6.423,16.927-9.716l6.686,11.324
			C1644.188,1775.313,1638.397,1778.636,1632.647,1781.842z M817.37,1762.574c-5.611-3.485-11.257-7.091-16.781-10.716l7.214-10.994
			c5.434,3.564,10.987,7.111,16.507,10.54L817.37,1762.574z M1666.817,1761.667l-6.963-11.156
			c5.492-3.428,11.021-6.975,16.435-10.542l7.236,10.98C1678.022,1754.576,1672.401,1758.182,1666.817,1761.667z M784.081,1740.735
			c-5.409-3.743-10.868-7.621-16.225-11.525l7.745-10.627c5.271,3.842,10.642,7.656,15.962,11.338L784.081,1740.735z
			 M1699.966,1739.822l-7.504-10.799c5.324-3.7,10.674-7.517,15.902-11.344l7.768,10.611
			C1710.817,1732.182,1705.379,1736.061,1699.966,1739.822z M751.922,1717.288c-5.237-4.019-10.497-8.159-15.634-12.307
			l8.261-10.231c5.054,4.08,10.228,8.153,15.378,12.106L751.922,1717.288z M1732.013,1716.362l-8.027-10.416
			c5.15-3.97,10.309-8.046,15.332-12.117l8.279,10.217C1742.491,1708.184,1737.248,1712.327,1732.013,1716.362z M720.966,1692.295
			c-5.031-4.271-10.079-8.664-15.003-13.058l8.754-9.813c4.845,4.321,9.811,8.644,14.76,12.845L720.966,1692.295z
			 M1762.876,1691.349l-8.528-10.01c4.931-4.201,9.885-8.527,14.724-12.859l8.771,9.797
			C1772.924,1682.681,1767.889,1687.078,1762.876,1691.349z M691.287,1665.819c-4.803-4.501-9.627-9.136-14.339-13.772l9.225-9.372
			c4.636,4.563,9.382,9.121,14.107,13.551L691.287,1665.819z M1792.487,1664.839l-9.01-9.578c4.739-4.458,9.476-9.024,14.078-13.571
			l9.242,9.354C1802.119,1655.666,1797.305,1660.308,1792.487,1664.839z M662.954,1637.927c-4.582-4.738-9.171-9.602-13.641-14.457
			l9.674-8.907c4.397,4.776,8.913,9.562,13.42,14.222L662.954,1637.927z M1820.77,1636.898l-9.469-9.125
			c4.504-4.674,9.012-9.469,13.399-14.251l9.69,8.89C1829.931,1627.273,1825.348,1632.147,1820.77,1636.898z M636.032,1608.687
			c-4.349-4.963-8.692-10.044-12.911-15.104l10.101-8.42c4.149,4.977,8.423,9.976,12.701,14.858L636.032,1608.687z
			 M1847.654,1607.595l-9.906-8.648c4.276-4.898,8.545-9.911,12.688-14.896l10.115,8.402
			C1856.341,1597.521,1852.001,1602.615,1847.654,1607.595z M610.588,1578.171c-4.1-5.171-8.188-10.457-12.149-15.714l10.501-7.914
			c3.897,5.17,7.918,10.371,11.952,15.458L610.588,1578.171z M1873.073,1576.994l-10.32-8.15c4.037-5.111,8.056-10.33,11.944-15.509
			l10.516,7.896C1881.261,1566.495,1877.177,1571.799,1873.073,1576.994z M586.682,1546.453
			c-3.839-5.363-7.661-10.844-11.358-16.287l10.879-7.389c3.637,5.354,7.396,10.745,11.172,16.021L586.682,1546.453z
			 M1896.964,1545.169l-10.708-7.633c3.776-5.297,7.533-10.708,11.169-16.083l10.893,7.367
			C1904.622,1534.284,1900.803,1539.785,1896.964,1545.169z M564.374,1513.608c-3.575-5.554-7.121-11.212-10.538-16.819
			l11.229-6.844c3.361,5.516,6.848,11.082,10.365,16.544L564.374,1513.608z M1919.266,1512.193l-11.072-7.096
			c3.498-5.457,6.985-11.05,10.364-16.621l11.244,6.82C1926.366,1500.96,1922.821,1506.646,1919.266,1512.193z M543.719,1479.72
			c-3.283-5.699-6.543-11.522-9.69-17.311l11.553-6.281c3.096,5.692,6.303,11.422,9.532,17.027L543.719,1479.72z M1939.919,1478.142
			l-11.41-6.539c3.242-5.656,6.448-11.415,9.531-17.118l11.568,6.253C1946.475,1466.535,1943.214,1472.392,1939.919,1478.142z
			 M524.771,1444.869c-2.999-5.856-5.966-11.832-8.819-17.76l11.85-5.703c2.806,5.831,5.725,11.709,8.674,17.469L524.771,1444.869z
			 M1958.864,1443.096l-11.719-5.967c2.938-5.771,5.856-11.685,8.673-17.578l11.865,5.672
			C1964.819,1431.214,1961.852,1437.228,1958.864,1443.096z M507.577,1409.141c-2.702-5.989-5.368-12.101-7.924-18.164l12.117-5.109
			c2.515,5.964,5.137,11.976,7.794,17.867L507.577,1409.141z M1976.056,1407.132l-12.002-5.373
			c2.665-5.954,5.286-12.009,7.79-17.997l12.133,5.074C1981.431,1394.923,1978.766,1401.079,1976.056,1407.132z M492.182,1372.626
			c-2.416-6.151-4.784-12.409-7.038-18.599l12.356-4.5c2.217,6.088,4.546,12.241,6.922,18.292L492.182,1372.626z M1991.44,1370.342
			l-12.256-4.768c2.363-6.074,4.681-12.256,6.887-18.373l12.37,4.462C1996.198,1357.883,1993.843,1364.167,1991.44,1370.342z
			 M478.572,1335.26c-2.103-6.253-4.157-12.62-6.104-18.925l12.564-3.881c1.915,6.201,3.935,12.464,6.003,18.614L478.572,1335.26z
			 M2004.978,1332.812l-12.479-4.15c2.058-6.188,4.064-12.48,5.963-18.703l12.578,3.838
			C2009.109,1320.123,2007.069,1326.521,2004.978,1332.812z M466.84,1297.263c-1.787-6.344-3.521-12.806-5.153-19.206l12.742-3.25
			c1.605,6.296,3.311,12.651,5.068,18.89L466.84,1297.263z M2016.607,1294.705l-12.67-3.523c1.738-6.247,3.422-12.608,5.005-18.906
			l12.754,3.207C2020.086,1281.886,2018.374,1288.354,2016.607,1294.705z M457.013,1258.73c-1.469-6.426-2.88-12.965-4.191-19.438
			l12.888-2.611c1.29,6.365,2.677,12.797,4.123,19.117L457.013,1258.73z M2026.305,1256.14l-12.829-2.889
			c1.426-6.332,2.791-12.769,4.059-19.132l12.896,2.568C2029.143,1243.157,2027.755,1249.701,2026.305,1256.14z M449.116,1219.757
			c-1.149-6.496-2.233-13.098-3.221-19.62l13.002-1.969c0.972,6.415,2.038,12.908,3.168,19.298L449.116,1219.757z
			 M2034.074,1217.139l-12.957-2.248c1.111-6.405,2.155-12.902,3.104-19.31l13.008,1.926
			C2036.266,1204.021,2035.204,1210.626,2034.074,1217.139z M443.16,1180.443c-0.825-6.537-1.582-13.184-2.247-19.755l13.083-1.326
			c0.655,6.466,1.399,13.004,2.211,19.433L443.16,1180.443z M2039.898,1177.805l-13.053-1.604c0.791-6.436,1.514-12.977,2.146-19.44
			l13.088,1.283C2041.436,1164.614,2040.702,1171.263,2039.898,1177.805z M439.153,1140.886c-0.503-6.566-0.932-13.242-1.274-19.842
			l13.133-0.682c0.337,6.492,0.759,13.06,1.253,19.52L439.153,1140.886z M2043.776,1138.232l-13.115-0.959
			c0.475-6.482,0.874-13.051,1.189-19.523l13.135,0.639C2044.665,1124.968,2044.259,1131.645,2043.776,1138.232z M437.09,1101.176
			c-0.181-6.581-0.284-13.267-0.305-19.874l13.15-0.043c0.021,6.501,0.122,13.081,0.3,19.556L437.09,1101.176z M2045.708,1098.522
			l-13.146-0.319c0.157-6.483,0.237-13.063,0.237-19.559c0.001-1.738-0.005-3.471-0.017-5.203l13.15-0.088
			c0.012,1.763,0.018,3.528,0.017,5.294C2045.949,1085.245,2045.868,1091.934,2045.708,1098.522z M450.109,1061.698l-13.147-0.275
			c0.138-6.6,0.36-13.285,0.659-19.87l13.137,0.597C450.463,1048.628,450.245,1055.206,450.109,1061.698z M2032.419,1053.892
			c-0.199-6.492-0.481-13.067-0.839-19.543l13.131-0.725c0.363,6.583,0.649,13.267,0.853,19.865L2032.419,1053.892z
			 M451.883,1022.623l-13.118-0.917c0.461-6.592,1.009-13.259,1.63-19.815l13.092,1.239
			C452.875,1009.58,452.336,1016.138,451.883,1022.623z M2030.264,1014.833c-0.517-6.472-1.12-13.025-1.794-19.477l13.078-1.367
			c0.686,6.558,1.3,13.219,1.825,19.797L2030.264,1014.833z M455.569,983.683l-13.058-1.562c0.784-6.552,1.66-13.185,2.604-19.712
			l13.015,1.883C457.201,970.713,456.339,977.237,455.569,983.683z M2026.195,975.931c-0.832-6.426-1.758-12.94-2.753-19.361
			l12.996-2.013c1.011,6.529,1.952,13.152,2.798,19.686L2026.195,975.931z M461.171,944.973l-12.964-2.205
			c1.105-6.5,2.309-13.081,3.577-19.56l12.905,2.526C463.442,932.106,462.258,938.579,461.171,944.973z M2020.212,937.281
			c-1.152-6.389-2.4-12.85-3.709-19.202l12.879-2.654c1.331,6.458,2.6,13.027,3.771,19.522L2020.212,937.281z M468.685,906.589
			l-12.839-2.847c1.425-6.428,2.954-12.941,4.544-19.357l12.764,3.163C471.59,893.86,470.086,900.266,468.685,906.589z
			 M2012.318,898.975c-1.469-6.323-3.036-12.713-4.66-18.995l12.732-3.291c1.65,6.386,3.244,12.883,4.737,19.312L2012.318,898.975z
			 M478.096,868.627l-12.681-3.481c1.748-6.368,3.6-12.797,5.502-19.109l12.59,3.796
			C481.637,856.041,479.816,862.364,478.096,868.627z M2002.529,861.108c-1.783-6.252-3.667-12.557-5.599-18.74l12.553-3.921
			c1.963,6.287,3.879,12.696,5.692,19.052L2002.529,861.108z M489.41,831.109L476.918,827c2.066-6.282,4.244-12.632,6.472-18.875
			l12.385,4.42C493.584,818.685,491.443,824.931,489.41,831.109z M1990.865,823.774c-2.09-6.148-4.284-12.351-6.524-18.436
			l12.342-4.542c2.276,6.188,4.509,12.495,6.634,18.746L1990.865,823.774z M502.602,794.15l-12.271-4.729
			c2.379-6.175,4.87-12.405,7.403-18.519l12.149,5.033C507.392,781.949,504.942,788.078,502.602,794.15z M1977.359,787.068
			c-2.38-6.001-4.872-12.066-7.407-18.025l12.102-5.147c2.577,6.058,5.11,12.224,7.53,18.326L1977.359,787.068z M517.614,757.914
			l-12.02-5.334c2.685-6.051,5.482-12.146,8.313-18.118l11.883,5.633C523.005,745.968,520.255,751.963,517.614,757.914z
			 M1962.099,751.202c-2.686-5.899-5.477-11.837-8.296-17.647l11.832-5.74c2.865,5.907,5.703,11.943,8.433,17.94L1962.099,751.202z
			 M534.405,722.486l-11.739-5.926c2.98-5.904,6.075-11.851,9.2-17.675l11.588,6.216
			C540.38,710.831,537.336,716.679,534.405,722.486z M1945.073,716.115c-2.971-5.754-6.054-11.549-9.163-17.225l11.533-6.318
			c3.16,5.769,6.295,11.66,9.314,17.51L1945.073,716.115z M552.928,687.951l-11.431-6.501c3.269-5.749,6.654-11.532,10.061-17.189
			l11.266,6.783C559.474,676.608,556.144,682.296,552.928,687.951z M1926.322,681.895c-3.262-5.618-6.629-11.256-10.008-16.759
			l11.207-6.881c3.435,5.594,6.857,11.326,10.173,17.037L1926.322,681.895z M573.132,654.389l-11.095-7.059
			c3.547-5.576,7.213-11.183,10.894-16.664l10.917,7.331C580.228,643.389,576.622,648.904,573.132,654.389z M1905.895,648.625
			c-3.524-5.436-7.166-10.904-10.824-16.252l10.854-7.425c3.72,5.438,7.422,10.997,11.005,16.523L1905.895,648.625z
			 M594.963,621.878l-10.733-7.598c3.812-5.385,7.748-10.802,11.699-16.1l10.542,7.86
			C602.585,611.252,598.713,616.581,594.963,621.878z M1883.845,616.389c-3.796-5.267-7.704-10.551-11.617-15.707l10.477-7.949
			c3.977,5.241,7.949,10.613,11.809,15.967L1883.845,616.389z M618.364,590.493l-10.346-8.117c4.075-5.194,8.272-10.409,12.473-15.5
			l10.143,8.37C626.501,580.254,622.373,585.384,618.364,590.493z M1860.228,585.263c-4.046-5.068-8.211-10.156-12.38-15.124
			l10.072-8.454c4.238,5.049,8.472,10.221,12.585,15.372L1860.228,585.263z M643.272,560.308l-9.934-8.617
			c4.32-4.981,8.767-9.981,13.215-14.863l9.72,8.858C651.897,550.489,647.523,555.408,643.272,560.308z M1835.097,555.322
			c-4.284-4.857-8.695-9.736-13.111-14.501l9.645-8.938c4.489,4.844,8.974,9.803,13.329,14.741L1835.097,555.322z M669.626,531.393
			l-9.499-9.095c4.568-4.771,9.253-9.545,13.925-14.191l9.272,9.325C678.729,522.002,674.121,526.699,669.626,531.393z
			 M1808.519,526.644c-4.522-4.647-9.17-9.305-13.813-13.845l9.195-9.401c4.719,4.615,9.443,9.35,14.041,14.074L1808.519,526.644z
			 M697.359,503.815l-9.041-9.55c4.795-4.54,9.708-9.077,14.601-13.485l8.803,9.769
			C706.909,494.886,702.077,499.349,697.359,503.815z M1780.556,499.295c-4.745-4.418-9.616-8.844-14.48-13.154l8.723-9.841
			c4.944,4.382,9.896,8.881,14.719,13.372L1780.556,499.295z M726.403,477.641l-8.562-9.981c5.007-4.295,10.135-8.584,15.239-12.749
			l8.313,10.189C736.373,469.197,731.329,473.417,726.403,477.641z M1751.274,473.344c-4.965-4.186-10.05-8.369-15.115-12.431
			l8.229-10.258c5.148,4.129,10.317,8.381,15.363,12.636L1751.274,473.344z M756.686,452.934l-8.06-10.391
			c5.203-4.036,10.533-8.066,15.841-11.979l7.803,10.585C767.047,444.999,761.804,448.964,756.686,452.934z M1720.742,448.856
			c-5.173-3.943-10.459-7.871-15.714-11.675l7.713-10.651c5.341,3.867,10.715,7.86,15.974,11.869L1720.742,448.856z
			 M788.135,429.754l-7.54-10.774c5.399-3.778,10.919-7.54,16.406-11.182l7.271,10.957
			C798.875,422.336,793.445,426.037,788.135,429.754z M1689.03,425.895c-5.354-3.679-10.83-7.343-16.275-10.89l7.178-11.019
			c5.536,3.606,11.103,7.331,16.545,11.071L1689.03,425.895z M820.672,408.159l-7-11.132c5.568-3.501,11.264-6.986,16.929-10.356
			l6.724,11.302C831.752,401.287,826.149,404.714,820.672,408.159z M1656.214,404.519c-5.533-3.412-11.185-6.802-16.799-10.075
			l6.623-11.36c5.708,3.328,11.454,6.774,17.078,10.243L1656.214,404.519z M854.22,388.202l-6.442-11.464
			c5.736-3.223,11.594-6.42,17.412-9.503l6.157,11.619C865.624,381.886,859.861,385.031,854.22,388.202z M1622.367,384.786
			c-5.702-3.138-11.518-6.245-17.285-9.234l6.053-11.675c5.862,3.039,11.775,6.198,17.572,9.388L1622.367,384.786z M888.695,369.935
			l-5.868-11.769c5.896-2.939,11.902-5.842,17.852-8.627l5.574,11.91C900.4,364.188,894.493,367.043,888.695,369.935z
			 M1587.57,366.749c-5.858-2.854-11.824-5.669-17.729-8.367l5.463-11.961c6.005,2.743,12.069,5.604,18.026,8.506L1587.57,366.749z
			 M924.011,353.403l-5.278-12.044c6.02-2.639,12.159-5.239,18.247-7.729l4.978,12.172
			C935.97,348.251,929.932,350.809,924.011,353.403z M1551.905,350.457c-5.995-2.56-12.096-5.076-18.133-7.477l4.86-12.219
			c6.139,2.441,12.342,4.999,18.437,7.602L1551.905,350.457z M960.151,338.626l-4.674-12.292c6.176-2.348,12.459-4.648,18.674-6.835
			l4.365,12.404C972.404,334.055,966.225,336.316,960.151,338.626z M1515.456,335.956c-6.106-2.254-12.328-4.463-18.492-6.565
			l4.244-12.446c6.268,2.138,12.594,4.383,18.803,6.675L1515.456,335.956z M997.045,325.64l-4.057-12.509
			c6.27-2.033,12.659-4.017,18.991-5.897l3.743,12.606C1009.496,321.689,1003.211,323.641,997.045,325.64z M1478.308,323.288
			c-6.195-1.941-12.499-3.831-18.734-5.615l3.619-12.643c6.34,1.814,12.748,3.735,19.047,5.709L1478.308,323.288z M1034.539,314.507
			l-3.428-12.695c6.367-1.719,12.847-3.383,19.26-4.944l3.111,12.777C1047.175,311.18,1040.801,312.816,1034.539,314.507z
			 M1440.705,312.525c-6.271-1.627-12.66-3.2-18.99-4.676l2.984-12.807c6.437,1.5,12.933,3.1,19.309,4.754L1440.705,312.525z
			 M1072.54,305.255l-2.792-12.851c6.445-1.4,13-2.739,19.482-3.979l2.472,12.916
			C1085.326,302.561,1078.879,303.878,1072.54,305.255z M1402.613,303.648c-6.343-1.313-12.802-2.567-19.199-3.726l2.346-12.939
			c6.503,1.178,13.071,2.453,19.52,3.789L1402.613,303.648z M1110.954,297.903l-2.15-12.974c6.506-1.078,13.119-2.091,19.654-3.009
			l1.83,13.022C1123.858,295.847,1117.354,296.842,1110.954,297.903z M1364.128,296.673c-6.403-0.997-12.918-1.929-19.361-2.77
			l1.701-13.04c6.551,0.855,13.173,1.802,19.684,2.816L1364.128,296.673z M1149.686,292.462l-1.507-13.063
			c6.544-0.755,13.198-1.439,19.778-2.035l1.185,13.097C1162.669,291.047,1156.123,291.72,1149.686,292.462z M1325.344,291.612
			c-6.449-0.68-13.001-1.29-19.475-1.812l1.057-13.107c6.581,0.531,13.242,1.15,19.797,1.842L1325.344,291.612z M1188.641,288.938
			l-0.862-13.122c6.585-0.433,13.265-0.79,19.854-1.062l0.542,13.139C1201.691,288.161,1195.12,288.512,1188.641,288.938z
			 M1286.355,288.468c-6.481-0.363-13.056-0.651-19.54-0.856l0.414-13.144c6.592,0.208,13.274,0.5,19.862,0.87L1286.355,288.468z
			 M1227.693,287.326l-0.223-13.148c6.607-0.111,13.284-0.145,19.883-0.096l-0.094,13.149
			C1240.768,287.187,1234.196,287.216,1227.693,287.326z"/>
		<path fill="#A5A5A5" d="M1236.188,928.354l-15.935-11.626l3.135-4.297l15.935,11.626L1236.188,928.354z M1204.318,905.103
			l-15.935-11.626l3.135-4.297l15.935,11.626L1204.318,905.103z M1172.448,881.851l-15.935-11.626l3.135-4.297l15.935,11.626
			L1172.448,881.851z M1140.578,858.598l-15.935-11.626l3.135-4.297l15.935,11.626L1140.578,858.598z M1108.708,835.346
			l-15.935-11.626l3.135-4.297l15.935,11.626L1108.708,835.346z M1076.837,812.094l-15.935-11.626l3.135-4.297l15.935,11.626
			L1076.837,812.094z M1044.967,788.842l-15.935-11.626l3.135-4.297l15.935,11.626L1044.967,788.842z M1013.097,765.59
			l-15.935-11.626l3.135-4.297l15.935,11.626L1013.097,765.59z M981.227,742.338l-15.936-11.626l3.135-4.297l15.936,11.626
			L981.227,742.338z M949.356,719.086l-15.935-11.626l3.135-4.297l15.935,11.626L949.356,719.086z M917.486,695.833l-15.935-11.626
			l3.135-4.297l15.935,11.626L917.486,695.833z M885.616,672.582l-15.935-11.626l3.135-4.297l15.935,11.626L885.616,672.582z
			 M853.746,649.33l-15.935-11.626l3.135-4.297l15.935,11.626L853.746,649.33z M821.875,626.078l-15.936-11.626l3.135-4.297
			l15.936,11.626L821.875,626.078z M790.005,602.825l-15.935-11.626l3.135-4.297l15.935,11.626L790.005,602.825z M758.135,579.573
			L742.2,567.947l3.135-4.297l15.935,11.626L758.135,579.573z"/>
		<path fill="#A5A5A5" d="M510.187,1288.55l-2.193-4.846l17.971-8.132l2.192,4.846L510.187,1288.55z M546.129,1272.287l-2.192-4.846
			l17.971-8.132l2.193,4.846L546.129,1272.287z M582.072,1256.023l-2.192-4.846l17.971-8.131l2.192,4.846L582.072,1256.023z
			 M618.014,1239.761l-2.192-4.846l17.972-8.132l2.192,4.846L618.014,1239.761z M653.957,1223.498l-2.192-4.846l17.972-8.132
			l2.192,4.846L653.957,1223.498z M689.9,1207.234l-2.192-4.846l17.971-8.132l2.193,4.846L689.9,1207.234z M725.843,1190.972
			l-2.192-4.846l17.971-8.132l2.192,4.846L725.843,1190.972z M761.786,1174.708l-2.192-4.846l17.971-8.131l2.192,4.846
			L761.786,1174.708z M797.728,1158.445l-2.192-4.846l17.972-8.132l2.192,4.846L797.728,1158.445z M833.671,1142.183l-2.192-4.846
			l17.972-8.132l2.192,4.846L833.671,1142.183z M869.614,1125.919l-2.192-4.846l17.971-8.131l2.192,4.846L869.614,1125.919z
			 M905.557,1109.656l-2.193-4.846l17.971-8.132l2.193,4.846L905.557,1109.656z M941.5,1093.393l-2.192-4.846l17.971-8.131
			l2.192,4.846L941.5,1093.393z M977.442,1077.13l-2.192-4.847l17.972-8.131l2.192,4.846L977.442,1077.13z M1013.385,1060.868
			l-2.193-4.846l17.971-8.132l2.192,4.846L1013.385,1060.868z M1049.328,1044.604l-2.192-4.846l17.971-8.132l2.193,4.846
			L1049.328,1044.604z M1085.271,1028.341l-2.192-4.846l17.971-8.132l2.192,4.846L1085.271,1028.341z M1121.213,1012.078
			l-2.192-4.846l17.971-8.132l2.192,4.846L1121.213,1012.078z M1157.156,995.815l-2.192-4.846l17.972-8.131l2.192,4.846
			L1157.156,995.815z M1193.099,979.552l-2.192-4.846l17.971-8.131l2.193,4.846L1193.099,979.552z"/>
		<path fill="#A5A5A5" d="M525.459,1166.25l-3.659-3.861l6.421-6.084l3.658,3.861L525.459,1166.25z M546.198,1146.598l-3.659-3.861
			l14.318-13.567l3.659,3.861L546.198,1146.598z M574.834,1119.462l-3.659-3.861l14.318-13.568l3.659,3.861L574.834,1119.462z
			 M603.47,1092.326l-3.658-3.861l14.318-13.568l3.658,3.861L603.47,1092.326z M632.106,1065.19l-3.659-3.861l14.318-13.568
			l3.659,3.861L632.106,1065.19z M660.741,1038.054l-3.659-3.861l14.319-13.568l3.659,3.861L660.741,1038.054z M689.378,1010.918
			l-3.659-3.861l14.318-13.568l3.659,3.861L689.378,1010.918z M718.014,983.783l-3.659-3.861l14.318-13.568l3.658,3.861
			L718.014,983.783z M746.65,956.646l-3.659-3.861l14.318-13.568l3.658,3.861L746.65,956.646z M775.285,929.511l-3.658-3.861
			l14.317-13.568l3.659,3.861L775.285,929.511z M803.921,902.375l-3.659-3.861l14.318-13.568l3.659,3.861L803.921,902.375z
			 M832.558,875.239l-3.659-3.861l14.318-13.568l3.659,3.861L832.558,875.239z M861.193,848.103l-3.659-3.861l14.319-13.568
			l3.659,3.861L861.193,848.103z M889.83,820.967l-3.659-3.861l14.318-13.568l3.659,3.861L889.83,820.967z M918.465,793.832
			l-3.659-3.861l14.318-13.568l3.659,3.861L918.465,793.832z M947.102,766.696l-3.659-3.861l14.318-13.568l3.658,3.861
			L947.102,766.696z M975.737,739.56l-3.659-3.861l14.317-13.568l3.659,3.861L975.737,739.56z M1004.373,712.424l-3.658-3.861
			l14.317-13.568l3.659,3.861L1004.373,712.424z M1033.009,685.288l-3.659-3.861l14.318-13.568l3.659,3.861L1033.009,685.288z
			 M1061.645,658.152l-3.659-3.861l14.318-13.568l3.659,3.861L1061.645,658.152z M1090.281,631.016l-3.659-3.861l14.318-13.568
			l3.659,3.861L1090.281,631.016z M1118.917,603.88l-3.658-3.861l14.318-13.568l3.658,3.861L1118.917,603.88z M1147.553,576.745
			l-3.659-3.861l14.318-13.568l3.658,3.861L1147.553,576.745z M1176.189,549.609l-3.659-3.861l14.318-13.569l3.659,3.861
			L1176.189,549.609z M1204.825,522.473l-3.658-3.861l14.317-13.568l3.659,3.861L1204.825,522.473z M1233.461,495.337l-3.659-3.861
			l14.318-13.568l3.659,3.861L1233.461,495.337z M1262.097,468.201l-3.658-3.861l14.317-13.568l3.658,3.861L1262.097,468.201z
			 M1290.732,441.065l-3.658-3.861l14.317-13.567l3.658,3.861L1290.732,441.065z M1319.368,413.93l-3.658-3.861l14.318-13.568
			l3.658,3.861L1319.368,413.93z M1348.004,386.793l-3.658-3.861l14.318-13.568l3.658,3.861L1348.004,386.793z M1376.64,359.658
			l-3.658-3.861l14.318-13.568l3.658,3.861L1376.64,359.658z"/>
		<path fill="#A5A5A5" d="M1862.531,1303.409l-5.27-13.223l4.941-1.969l5.27,13.223L1862.531,1303.409z M1849.96,1271.862
			l-7.302-18.324l4.941-1.969l7.302,18.324L1849.96,1271.862z M1835.356,1235.214l-7.302-18.324l4.941-1.969l7.302,18.324
			L1835.356,1235.214z M1820.753,1198.565l-7.302-18.324l4.941-1.969l7.302,18.324L1820.753,1198.565z M1806.149,1161.917
			l-7.302-18.324l4.941-1.969l7.302,18.324L1806.149,1161.917z M1791.546,1125.269l-7.302-18.324l4.941-1.969l7.302,18.324
			L1791.546,1125.269z M1776.942,1088.62l-7.302-18.325l4.941-1.969l7.302,18.325L1776.942,1088.62z M1762.339,1051.971
			l-7.302-18.324l4.941-1.969l7.302,18.324L1762.339,1051.971z M1747.735,1015.323l-7.302-18.324l4.941-1.969l7.302,18.324
			L1747.735,1015.323z M1733.132,978.674l-7.302-18.324l4.941-1.969l7.302,18.324L1733.132,978.674z M1718.528,942.026
			l-7.302-18.324l4.941-1.969l7.302,18.324L1718.528,942.026z M1703.925,905.377l-7.302-18.324l4.941-1.969l7.302,18.324
			L1703.925,905.377z M1689.321,868.729l-7.302-18.324l4.941-1.969l7.302,18.324L1689.321,868.729z M1674.718,832.081l-7.302-18.324
			l4.941-1.969l7.302,18.324L1674.718,832.081z M1660.114,795.432l-7.302-18.324l4.941-1.969l7.302,18.324L1660.114,795.432z
			 M1645.511,758.784l-7.302-18.324l4.941-1.969l7.302,18.324L1645.511,758.784z M1630.907,722.135l-7.302-18.324l4.941-1.969
			l7.302,18.324L1630.907,722.135z M1616.304,685.487l-7.302-18.324l4.941-1.969l7.302,18.324L1616.304,685.487z M1601.7,648.838
			l-7.302-18.324l4.941-1.969l7.302,18.324L1601.7,648.838z M1587.097,612.19l-7.302-18.324l4.941-1.969l7.302,18.324
			L1587.097,612.19z M1572.493,575.542l-7.302-18.324l4.941-1.969l7.302,18.324L1572.493,575.542z M1557.89,538.893l-7.302-18.324
			l4.941-1.969l7.302,18.324L1557.89,538.893z M1543.286,502.245l-7.302-18.324l4.941-1.969l7.302,18.324L1543.286,502.245z
			 M1528.683,465.596l-7.302-18.324l4.941-1.969l7.302,18.324L1528.683,465.596z"/>
		<path fill="#5896FA" d="M1858.374,1301.468l-16.8-10.338l2.787-4.529l16.8,10.338L1858.374,1301.468z M1824.774,1280.792
			l-16.799-10.338l2.787-4.529l16.799,10.338L1824.774,1280.792z M1791.177,1260.116l-16.8-10.339l2.787-4.529l16.8,10.339
			L1791.177,1260.116z M1757.577,1239.439l-16.799-10.338l2.787-4.529l16.799,10.338L1757.577,1239.439z M1723.979,1218.764
			l-16.8-10.338l2.787-4.529l16.8,10.338L1723.979,1218.764z M1690.38,1198.087l-16.799-10.338l2.787-4.529l16.799,10.338
			L1690.38,1198.087z M1656.782,1177.411l-16.8-10.338l2.787-4.529l16.8,10.338L1656.782,1177.411z M1623.183,1156.735
			l-16.799-10.338l2.787-4.529l16.799,10.338L1623.183,1156.735z M1589.585,1136.059l-16.8-10.338l2.787-4.529l16.8,10.338
			L1589.585,1136.059z M1555.985,1115.383l-16.799-10.338l2.787-4.529l16.799,10.338L1555.985,1115.383z M1522.388,1094.707
			l-16.8-10.338l2.787-4.529l16.8,10.338L1522.388,1094.707z M1488.788,1074.031l-16.799-10.338l2.787-4.53l16.799,10.338
			L1488.788,1074.031z M1455.19,1053.355l-16.8-10.338l2.787-4.53l16.8,10.338L1455.19,1053.355z M1421.591,1032.679l-16.799-10.338
			l2.787-4.53l16.799,10.338L1421.591,1032.679z M1387.993,1012.002l-16.8-10.338l2.787-4.53l16.8,10.338L1387.993,1012.002z
			 M1354.394,991.327l-16.799-10.338l2.787-4.53l16.799,10.338L1354.394,991.327z M1320.795,970.65l-16.799-10.338l2.787-4.53
			l16.799,10.338L1320.795,970.65z M1287.196,949.974l-16.799-10.338l2.787-4.53l16.799,10.338L1287.196,949.974z"/>
		<path fill="#A5A5A5" d="M1272.892,939.792l-2.201-4.843l17.957-8.163l2.201,4.843L1272.892,939.792z M1308.807,923.468
			l-2.201-4.843l17.957-8.163l2.201,4.843L1308.807,923.468z M1344.721,907.143l-2.201-4.843l17.958-8.162l2.201,4.843
			L1344.721,907.143z M1380.636,890.818l-2.201-4.843l17.957-8.163l2.201,4.843L1380.636,890.818z M1416.551,874.493l-2.201-4.843
			l17.957-8.162l2.201,4.843L1416.551,874.493z M1452.465,858.168l-2.201-4.843l17.958-8.163l2.201,4.843L1452.465,858.168z
			 M1488.38,841.843l-2.201-4.843l17.957-8.163l2.201,4.843L1488.38,841.843z M1524.295,825.518l-2.201-4.843l17.957-8.162
			l2.201,4.843L1524.295,825.518z M1560.21,809.193l-2.201-4.843l17.957-8.163l2.201,4.843L1560.21,809.193z M1596.124,792.869
			l-2.201-4.843l17.957-8.163l2.201,4.843L1596.124,792.869z M1632.039,776.543l-2.201-4.843l17.957-8.162l2.201,4.843
			L1632.039,776.543z M1667.953,760.219l-2.201-4.843l17.958-8.163l2.201,4.843L1667.953,760.219z M1703.868,743.894l-2.201-4.843
			l17.957-8.163l2.201,4.843L1703.868,743.894z M1739.783,727.569l-2.201-4.843l17.957-8.163l2.201,4.843L1739.783,727.569z
			 M1775.697,711.244l-2.201-4.843l17.958-8.163l2.201,4.843L1775.697,711.244z"/>
	</g>
	<g id="shield">
		<g>
			<g>
				<g>
					<path fill="#D9FFFF" d="M219.708,1150.165L219.708,1150.165c0.003-0.658,0.004-0.948,0.004-1.015
						C219.712,1149.272,219.708,1150.165,219.708,1150.165z"/>
					<path fill="#D9FFFF" d="M219.708,1150.165L219.708,1150.165c0.003-0.658,0.004-0.948,0.004-1.015
						C219.712,1149.272,219.708,1150.165,219.708,1150.165z"/>
					<path fill="#D9FFFF" d="M612.435,1151.921c0,0,0.004-0.893,0.005-1.015C612.439,1150.973,612.438,1151.263,612.435,1151.921
						L612.435,1151.921z"/>
					<path fill="#D9FFFF" d="M612.435,1151.921c0,0,0.004-0.893,0.005-1.015C612.439,1150.973,612.438,1151.263,612.435,1151.921
						L612.435,1151.921z"/>
					<path fill="#FFFFFF" d="M416.876,1044.063c-45.765,49.022-118.792,89.2-196.937,106.317
						c-0.023,5.219-0.152,34.135-0.748,167.412c-0.795,177.791,168.408,264.672,194.677,278.005
						c25.453-11.715,196.791-98.461,197.585-276.251c0.596-133.278,0.725-162.193,0.749-167.413
						C534.213,1134.319,462.202,1093.493,416.876,1044.063z"/>
				</g>
			</g>
			<g>
				<g>
					<path fill="#296ACC" d="M416.408,1076.196c-44.816,41.112-106.905,73.425-175.178,91.037l-0.674,150.637
						c-0.309,68.928,27.074,131.281,81.39,185.339c35.688,35.518,73.21,57.546,92.25,67.452c0.818-0.416,1.717-0.885,2.602-1.345
						v-492.769C416.669,1076.429,416.534,1076.315,416.408,1076.196z"/>
				</g>
				<g>
					<path fill="#2E77E6" d="M416.798,1076.547v492.769c19.799-10.3,55.786-31.591,90.249-65.28
						c54.794-53.569,82.734-115.677,83.041-184.604l0.674-150.64C522.842,1150.627,461.213,1117.891,416.798,1076.547z"/>
				</g>
			</g>
		</g>
		<g>
			<path fill="#FFFFFF" d="M354.35,1307.137v87.521c0,9.743,118.991,9.743,118.991,0v-87.521H354.35z M419.865,1353.614v24.806
				c0,3.304-2.688,6.048-5.992,6.048c-3.359,0-6.047-2.744-6.047-6.048v-24.862c-5.096-2.296-8.68-7.447-8.68-13.383
				c0-8.12,6.607-14.671,14.727-14.671s14.671,6.551,14.671,14.671C428.544,1346.166,425.016,1351.317,419.865,1353.614z"/>
			<path fill="#FFFFFF" d="M459.887,1303.403l-14.951-0.5l10.44-12.128c14.255-14.621,13.957-38.113-0.662-52.365
				c-14.621-14.255-38.114-13.957-52.368,0.665l-4.114,4.22l-8.625-8.409l4.114-4.219c18.891-19.378,50.024-19.773,69.401-0.882
				c19.374,18.889,19.77,50.021,0.878,69.398L459.887,1303.403z"/>
		</g>
	</g>
	<g id="Document">
		<g>
			<rect x="1301.62" y="120.565" fill="#296ACC" width="232.808" height="290.599"/>
		</g>
		<g>
			<g>
				<rect x="1331.813" y="150.571" fill="#FFFFFF" width="232.808" height="290.599"/>
				<path fill="#5896FA" d="M1568.499,445.048h-240.565V146.692h240.565V445.048z M1335.691,437.291h225.05V154.45h-225.05V437.291z
					"/>
			</g>
		</g>
		<g>
			<rect x="1360.888" y="41.035" fill="#EA5D00" width="232.808" height="290.599"/>
			<rect x="1444.786" y="79.103" fill="#FFFFFF" width="120.425" height="18.9"/>
			<rect x="1409.172" y="123.507" fill="#FFFFFF" width="156.039" height="18.9"/>
			<rect x="1409.172" y="167.911" fill="#FFFFFF" width="156.039" height="18.9"/>
			<rect x="1409.172" y="212.315" fill="#FFFFFF" width="156.039" height="18.9"/>
			<rect x="1409.172" y="256.72" fill="#FFFFFF" width="156.039" height="18.9"/>
		</g>
		<g>
			<rect x="1398.05" y="210.042" fill="#5896FA" width="232.808" height="290.599"/>
			<rect x="1474.215" y="257.752" fill="#005CEA" width="120.425" height="18.9"/>
			<rect x="1438.601" y="302.156" fill="#005CEA" width="156.039" height="18.9"/>
			<rect x="1438.601" y="346.561" fill="#005CEA" width="156.039" height="18.9"/>
			<rect x="1438.601" y="390.965" fill="#005CEA" width="156.039" height="18.9"/>
			<rect x="1438.601" y="435.369" fill="#005CEA" width="156.039" height="18.9"/>
		</g>
	</g>
	<g id="gear">
		<circle fill="#FFFFFF" cx="666.268" cy="474.674" r="91.477"/>
		<g>
			<path fill="#006B73" d="M810.595,561.662c11.862-19.671,19.278-40.926,22.418-62.379l6.814,0.998l13.456,1.979l0.174,0.015
				c3.63-24.545,2.394-49.368-3.536-73.086l-20.017,4.958c-5.371-21.458-14.832-41.904-28.318-59.923l16.593-12.333
				c-14.196-19.273-32.417-36.119-54.17-49.237l-10.688,17.724c-19.74-11.904-40.926-19.277-62.378-22.418l2.99-20.444
				c-24.545-3.632-49.408-2.329-73.085,3.535l4.958,20.019c-21.459,5.37-41.903,14.831-59.924,28.317l-12.333-16.592
				c-19.271,14.196-36.12,32.417-49.238,54.169l17.725,10.689c-11.903,19.739-19.279,40.925-22.419,62.378l-14.462-2.13
				l-5.915-0.819l-0.067-0.041c-3.631,24.543-2.329,49.408,3.534,73.084l20.02-4.958c5.37,21.458,14.897,41.943,28.383,59.963
				l-16.593,12.333c14.197,19.272,32.352,36.08,54.104,49.197l10.688-17.725c19.738,11.903,40.993,19.319,62.445,22.46
				l-2.349,15.886l-0.643,4.557c24.545,3.632,49.341,2.289,73.018-3.575l-4.956-20.018c21.458-5.371,41.943-14.897,60.03-28.344
				l12.333,16.592c19.206-14.235,36.013-32.391,49.13-54.144L810.595,561.662z M619.067,553.006
				c-43.303-26.114-57.216-82.295-31.103-125.599c26.073-43.236,82.255-57.147,125.558-31.034
				c43.236,26.073,57.148,82.253,31.075,125.489C718.484,565.167,662.304,579.08,619.067,553.006z"/>
		</g>
		<g>
			<path fill="#EA7B00" d="M468.242,549.526c-6.674-10.086-15.106-18.416-24.599-24.756l2.014-3.015l3.982-5.952l0.046-0.08
				c-10.852-7.272-22.937-12.294-35.555-14.833l-2.166,10.64c-11.418-2.294-23.279-2.416-34.896-0.074l-2.116-10.678
				c-12.373,2.396-24.501,7.254-35.655,14.635l6.014,9.088c-10.122,6.697-18.416,15.106-24.756,24.598l-9.047-6.042
				c-7.273,10.852-12.272,22.97-14.833,35.555l10.64,2.166c-2.295,11.418-2.416,23.279-0.075,34.896l-10.677,2.116
				c2.396,12.372,7.254,24.502,14.635,35.655l9.088-6.014c6.697,10.121,15.105,18.416,24.598,24.757l-4.281,6.396l-1.726,2.627
				l-0.035,0.022c10.851,7.272,22.97,12.272,35.554,14.834l2.166-10.641c11.418,2.295,23.313,2.394,34.929,0.052l2.116,10.678
				c12.373-2.396,24.468-7.232,35.622-14.612l-6.014-9.088c10.121-6.697,18.45-15.129,24.792-24.621l7.023,4.707l2.022,1.335
				c7.273-10.851,12.237-22.947,14.799-35.531l-10.64-2.167c2.294-11.418,2.394-23.313,0.086-34.952l10.677-2.116
				c-2.43-12.35-7.266-24.445-14.646-35.599L468.242,549.526z M420.848,638.651c-22.204,14.692-52.065,8.614-66.757-13.59
				c-14.669-22.169-8.59-52.029,13.614-66.722c22.169-14.67,52.029-8.591,66.698,13.578
				C449.095,594.121,443.017,623.981,420.848,638.651z"/>
		</g>
	</g>
	<g id="card">
		<path fill="#006B73" d="M2071.003,744.101h-246.086c-5.181,0-9.381-4.2-9.381-9.381V595.093c0-5.181,4.2-9.381,9.381-9.381
			h246.086c5.181,0,9.381,4.2,9.381,9.381V734.72C2080.384,739.901,2076.184,744.101,2071.003,744.101z"/>
		<rect x="1815.536" y="615.625" fill="#D1F5FF" width="264.848" height="27.331"/>
		<path fill="#D1F5FF" d="M1876.201,713.712h-38.941c-2.475,0-4.481,2.006-4.481,4.482l0,0c0,2.475,2.007,4.482,4.481,4.482h38.941
			c2.476,0,4.482-2.007,4.482-4.482l0,0C1880.684,715.719,1878.677,713.712,1876.201,713.712z"/>
		<path fill="#D1F5FF" d="M1936.085,713.712h-38.941c-2.475,0-4.481,2.006-4.481,4.482l0,0c0,2.475,2.007,4.482,4.481,4.482h38.941
			c2.476,0,4.481-2.007,4.481-4.482l0,0C1940.566,715.719,1938.561,713.712,1936.085,713.712z"/>
		<path fill="#D1F5FF" d="M1995.969,713.712h-38.941c-2.475,0-4.481,2.006-4.481,4.482l0,0c0,2.475,2.007,4.482,4.481,4.482h38.941
			c2.476,0,4.481-2.007,4.481-4.482l0,0C2000.45,715.719,1998.444,713.712,1995.969,713.712z"/>
		<path fill="#D1F5FF" d="M2055.853,713.712h-38.941c-2.475,0-4.481,2.006-4.481,4.482l0,0c0,2.475,2.007,4.482,4.481,4.482h38.941
			c2.476,0,4.481-2.007,4.481-4.482l0,0C2060.334,715.719,2058.328,713.712,2055.853,713.712z"/>
		<path fill="#D1F5FF" d="M1835.466,593.75L1835.466,593.75c-2.731,0-4.946,2.215-4.946,4.947v1.738
			c0,2.732,2.215,4.947,4.946,4.947l0,0c2.732,0,4.947-2.215,4.947-4.947v-1.738C1840.413,595.965,1838.198,593.75,1835.466,593.75z
			"/>
		<path fill="#D1F5FF" d="M1846.123,599.566L1846.123,599.566c0,3.212,2.604,5.816,5.816,5.816h20.611
			c3.212,0,5.816-2.604,5.816-5.816l0,0c0-3.211-2.604-5.815-5.816-5.815h-20.611
			C1848.728,593.75,1846.123,596.354,1846.123,599.566z"/>
		<path fill="#FFD145" d="M1843.42,657.658h26.621c4.268,0,7.727,3.459,7.727,7.726v22.952c0,4.267-3.459,7.726-7.727,7.726h-26.621
			c-4.267,0-7.726-3.459-7.726-7.726v-22.952C1835.694,661.117,1839.153,657.658,1843.42,657.658z"/>
	</g>
	<g id="folder">
		<g>
			<path fill="#1251B3" d="M1994.395,1213.962v-18.093c0-8.216-6.657-14.876-14.873-14.876h-158.357
				c-8.216,0-14.877,6.66-14.877,14.876v319.816h409.625v-301.724H1994.395z"/>
			<polygon fill="#FFFFFF" points="2232.945,1224.953 1831.272,1224.953 1806.288,1515.687 2213.915,1515.687 			"/>
			<path fill="#3383FF" d="M2215.913,1515.687h-409.625l43.466-287.117c1.271-8.398,8.49-14.606,16.984-14.606h374.878
				c10.512,0,18.558,9.356,16.984,19.749L2215.913,1515.687z"/>
			<g>
				<circle fill="#FFFFFF" cx="2032.807" cy="1371.817" r="69.262"/>
				<g>
					<g>
						<path fill="#005CEA" d="M2032.906,1369.029c6.761,0,13.005-3.294,16.993-8.323c2.946-3.641,4.683-8.322,4.683-13.525
							c0-11.963-9.712-21.848-21.676-21.848c-12.137,0-21.848,9.885-21.848,21.848c0,5.203,1.731,9.885,4.682,13.525
							C2019.729,1365.735,2025.969,1369.029,2032.906,1369.029z"/>
					</g>
					<path fill="#005CEA" d="M2071.297,1407.96c0,13.788-76.994,13.788-76.994,0l0.024-16.066c3.043-21.965,70.712-22.888,76.984,0
						L2071.297,1407.96z"/>
				</g>
			</g>
		</g>
		<g>
			<g>
				<circle fill="#FFD145" cx="2234.896" cy="1235.817" r="109.61"/>
				<path fill="#FFFFFF" d="M2234.896,1349.435c-62.653,0-113.637-50.971-113.637-113.623c0-62.64,50.983-113.61,113.637-113.61
					s113.637,50.971,113.637,113.61C2348.532,1298.464,2297.549,1349.435,2234.896,1349.435z M2234.896,1130.215
					c-58.241,0-105.596,47.368-105.596,105.597c0,58.228,47.354,105.608,105.596,105.608s105.596-47.381,105.596-105.608
					C2340.491,1177.583,2293.137,1130.215,2234.896,1130.215z"/>
			</g>
			<g>
				<path d="M2194.883,1232.978v56.705c0,6.313,77.095,6.313,77.095,0v-56.705H2194.883z M2237.33,1263.09v16.071
					c0,2.142-1.741,3.919-3.882,3.919c-2.177,0-3.918-1.777-3.918-3.919v-16.107c-3.302-1.487-5.623-4.825-5.623-8.671
					c0-5.261,4.28-9.505,9.541-9.505c5.26,0,9.506,4.244,9.506,9.505C2242.954,1258.265,2240.668,1261.603,2237.33,1263.09z"/>
				<path d="M2263.261,1230.559l-9.687-0.324l6.764-7.857c9.236-9.473,9.043-24.693-0.429-33.928
					c-9.474-9.235-24.693-9.042-33.929,0.432l-2.666,2.733l-5.588-5.447l2.665-2.734c12.24-12.555,32.411-12.811,44.966-0.57
					c12.552,12.237,12.809,32.408,0.568,44.963L2263.261,1230.559z"/>
			</g>
		</g>
	</g>
	<path fill="#A5A5A5" d="M953.253,216.485c10.761-9.165,17.586-22.814,17.586-38.06c0-27.602-22.373-49.976-49.976-49.976
		c-27.607,0-49.981,22.374-49.981,49.976c0,15.533,7.08,29.406,18.192,38.571h0.04v9.418h0.056v4.125
		c0,2.917,2.152,5.477,5.055,5.761c3.336,0.328,6.173-2.314,6.173-5.586v-3.305c0-0.55,0.446-0.996,0.996-0.996
		c0.55,0,0.996,0.446,0.996,0.996v3.129c0,2.917,2.152,5.477,5.055,5.761c3.335,0.328,6.172-2.314,6.172-5.586v-3.305
		c0-0.55,0.446-0.996,0.996-0.996c0.55,0,0.996,0.446,0.996,0.996v3.129c0,2.917,2.152,5.477,5.055,5.761
		c3.336,0.328,6.173-2.314,6.173-5.586v-3.305c0-0.55,0.446-0.996,0.996-0.996c0.55,0,0.996,0.446,0.996,0.996v3.305
		c0,3.087,2.526,5.614,5.614,5.614s5.614-2.526,5.614-5.614v-3.305c0-0.55,0.446-0.996,0.996-0.996c0.55,0,0.996,0.446,0.996,0.996
		v3.305c0,3.087,2.526,5.614,5.614,5.614s5.614-2.526,5.614-5.614v-11.816c0-0.15-0.011-0.297-0.022-0.444V216.485
		C953.253,216.486,953.253,216.486,953.253,216.485z M940.417,169.058c9.453,0,17.112,7.66,17.112,17.112
		c0,9.447-7.66,17.112-17.112,17.112s-17.113-7.665-17.113-17.112C923.305,176.718,930.965,169.058,940.417,169.058z
		 M920.225,199.884c2.357,0,5.612,8.505,4.341,9.782c-1.276,1.271-8.271,1.213-9.49,0
		C913.863,208.448,917.874,199.884,920.225,199.884z M882.154,186.17c0-9.453,7.66-17.112,17.112-17.112s17.112,7.66,17.112,17.112
		c0,9.447-7.66,17.112-17.112,17.112S882.154,195.618,882.154,186.17z"/>
	<path fill="#A5A5A5" d="M636.548,924.863c10.761-9.165,17.585-22.815,17.585-38.06c0-27.603-22.373-49.976-49.976-49.976
		c-27.607,0-49.981,22.373-49.981,49.976c0,15.533,7.08,29.405,18.192,38.571h0.04v9.418h0.057v4.125
		c0,2.917,2.152,5.477,5.055,5.761c3.335,0.328,6.172-2.314,6.172-5.586v-3.305c0-0.55,0.446-0.996,0.996-0.996
		s0.996,0.446,0.996,0.996v3.129c0,2.917,2.152,5.477,5.055,5.761c3.335,0.328,6.172-2.314,6.172-5.586v-3.305
		c0-0.55,0.446-0.996,0.996-0.996s0.996,0.446,0.996,0.996v3.129c0,2.917,2.152,5.477,5.055,5.761
		c3.335,0.328,6.172-2.314,6.172-5.586v-3.305c0-0.55,0.446-0.996,0.996-0.996s0.996,0.446,0.996,0.996v3.305
		c0,3.087,2.526,5.613,5.614,5.613s5.614-2.526,5.614-5.613v-3.305c0-0.55,0.446-0.996,0.996-0.996c0.55,0,0.996,0.446,0.996,0.996
		v3.305c0,3.087,2.526,5.613,5.613,5.613c3.088,0,5.614-2.526,5.614-5.613v-11.816c0-0.15-0.011-0.297-0.022-0.444L636.548,924.863
		C636.547,924.863,636.547,924.863,636.548,924.863z M623.712,877.435c9.453,0,17.112,7.66,17.112,17.113
		c0,9.447-7.66,17.112-17.112,17.112s-17.112-7.665-17.112-17.112C606.6,885.095,614.259,877.435,623.712,877.435z M603.52,908.261
		c2.356,0,5.612,8.505,4.341,9.782c-1.277,1.271-8.272,1.213-9.49,0C597.157,916.825,601.168,908.261,603.52,908.261z
		 M565.449,894.548c0-9.453,7.66-17.113,17.112-17.113s17.113,7.66,17.113,17.113c0,9.447-7.66,17.112-17.113,17.112
		S565.449,903.995,565.449,894.548z"/>
	<path fill="#A5A5A5" d="M1887.093,380.371c8.422-7.172,13.763-17.855,13.763-29.786c0-21.602-17.509-39.111-39.11-39.111
		c-21.606,0-39.115,17.51-39.115,39.111c0,12.156,5.54,23.013,14.237,30.186h0.031v7.371h0.044v3.229
		c0,2.282,1.684,4.286,3.956,4.509c2.61,0.256,4.83-1.811,4.83-4.372v-2.586c0-0.431,0.35-0.78,0.779-0.78
		c0.431,0,0.78,0.349,0.78,0.78v2.449c0,2.282,1.684,4.286,3.955,4.509c2.61,0.256,4.831-1.811,4.831-4.372v-2.586
		c0-0.431,0.349-0.78,0.779-0.78s0.779,0.349,0.779,0.78v2.449c0,2.282,1.685,4.286,3.956,4.509c2.61,0.256,4.831-1.811,4.831-4.372
		v-2.586c0-0.431,0.349-0.78,0.779-0.78s0.779,0.349,0.779,0.78v2.586c0,2.417,1.977,4.394,4.394,4.394
		c2.416,0,4.394-1.977,4.394-4.394v-2.586c0-0.431,0.349-0.78,0.778-0.78c0.431,0,0.78,0.349,0.78,0.78v2.586
		c0,2.417,1.977,4.394,4.393,4.394c2.417,0,4.394-1.977,4.394-4.394v-9.247c0-0.117-0.009-0.232-0.018-0.348V380.371
		C1887.093,380.371,1887.093,380.371,1887.093,380.371z M1877.048,343.254c7.397,0,13.392,5.995,13.392,13.392
		c0,7.394-5.994,13.392-13.392,13.392s-13.393-5.999-13.393-13.392C1863.655,349.249,1869.65,343.254,1877.048,343.254z
		 M1861.245,367.378c1.845,0,4.392,6.656,3.397,7.655c-0.999,0.995-6.474,0.949-7.427,0
		C1856.267,374.081,1859.405,367.378,1861.245,367.378z M1831.451,356.646c0-7.397,5.994-13.392,13.392-13.392
		s13.393,5.995,13.393,13.392c0,7.394-5.995,13.392-13.393,13.392S1831.451,364.04,1831.451,356.646z"/>
	<path fill="#A5A5A5" d="M2012.71,1746.839c8.422-7.173,13.763-17.855,13.763-29.786c0-21.602-17.51-39.11-39.111-39.11
		c-21.605,0-39.114,17.509-39.114,39.11c0,12.156,5.54,23.013,14.237,30.186h0.031v7.371h0.044v3.229
		c0,2.283,1.684,4.286,3.956,4.509c2.61,0.256,4.83-1.811,4.83-4.371v-2.587c0-0.431,0.349-0.779,0.779-0.779
		s0.779,0.349,0.779,0.779v2.449c0,2.283,1.685,4.286,3.956,4.509c2.61,0.256,4.831-1.811,4.831-4.371v-2.587
		c0-0.431,0.349-0.779,0.779-0.779s0.779,0.349,0.779,0.779v2.449c0,2.283,1.685,4.286,3.956,4.509
		c2.61,0.256,4.831-1.811,4.831-4.371v-2.587c0-0.431,0.349-0.779,0.779-0.779s0.779,0.349,0.779,0.779v2.587
		c0,2.416,1.977,4.393,4.393,4.393c2.417,0,4.394-1.977,4.394-4.393v-2.587c0-0.431,0.35-0.779,0.779-0.779
		c0.431,0,0.78,0.349,0.78,0.779v2.587c0,2.416,1.977,4.393,4.393,4.393s4.394-1.977,4.394-4.393v-9.247
		c0-0.118-0.009-0.233-0.018-0.349V1746.839L2012.71,1746.839z M2002.665,1709.722c7.397,0,13.392,5.995,13.392,13.393
		c0,7.394-5.994,13.393-13.392,13.393s-13.393-5.999-13.393-13.393C1989.272,1715.717,1995.268,1709.722,2002.665,1709.722z
		 M1986.862,1733.847c1.844,0,4.392,6.656,3.396,7.655c-0.999,0.995-6.473,0.949-7.427,0
		C1981.883,1740.549,1985.022,1733.847,1986.862,1733.847z M1957.068,1723.114c0-7.397,5.994-13.393,13.392-13.393
		s13.393,5.995,13.393,13.393c0,7.394-5.995,13.393-13.393,13.393S1957.068,1730.508,1957.068,1723.114z"/>
	<g>
		<g>
			<path fill="#FFD145" d="M1220.869,698.098l-175.024,303.15c-9.07,15.709,2.268,35.346,20.407,35.346H1416.3
				c18.14,0,29.478-19.637,20.407-35.346l-175.023-303.15C1252.613,682.389,1229.938,682.389,1220.869,698.098z"/>
		</g>
		<path d="M1416.3,1021.634h-350.052c-3.167,0-5.881-1.583-7.441-4.343c-1.561-2.668-1.572-5.79,0.012-8.549l175.037-303.143
			c3.053-5.451,11.772-5.451,14.871,0.022l175.003,303.121c1.572,2.714,1.572,5.857,0.012,8.572
			C1422.191,1020.051,1419.478,1021.634,1416.3,1021.634z M1068.679,1011.637h345.201l-172.606-298.936L1068.679,1011.637z
			 M1240.063,710.575c0,0.023,0,0.023,0,0.023V710.575z M1242.518,710.552L1242.518,710.552L1242.518,710.552z"/>
		<g>
			<path d="M1241.783,929.145L1241.783,929.145c-10.048,0-18.381-7.781-19.069-17.806l-5.868-85.516
				c-0.992-14.445,10.458-26.708,24.938-26.708l0,0c14.479,0,25.929,12.263,24.938,26.708l-5.868,85.516
				C1260.164,921.364,1251.832,929.145,1241.783,929.145z"/>
			<circle cx="1241.783" cy="963.139" r="18.861"/>
		</g>
	</g>
	<g>
		<g>
			<path fill="#FFD145" d="M1893.204,2201.3l-6.237,10.804c-0.323,0.56,0.08,1.26,0.728,1.26h12.475c0.646,0,1.051-0.7,0.728-1.26
				l-6.238-10.804C1894.336,2200.74,1893.527,2200.74,1893.204,2201.3z"/>
		</g>
		<path d="M1900.169,2212.83h-12.476c-0.112,0-0.209-0.057-0.265-0.155c-0.056-0.095-0.057-0.206,0-0.305l6.238-10.803
			c0.108-0.194,0.419-0.194,0.53,0l6.236,10.803c0.057,0.098,0.057,0.209,0.001,0.307
			C1900.379,2212.773,1900.282,2212.83,1900.169,2212.83z M1887.78,2212.474h12.303l-6.151-10.653L1887.78,2212.474z
			 M1893.889,2201.744C1893.889,2201.745,1893.889,2201.745,1893.889,2201.744L1893.889,2201.744z M1893.976,2201.743
			L1893.976,2201.743L1893.976,2201.743z"/>
		<g>
			<path d="M1893.949,2209.534L1893.949,2209.534c-0.357,0-0.655-0.277-0.68-0.635l-0.209-3.048
				c-0.035-0.515,0.373-0.952,0.889-0.952l0,0c0.517,0,0.924,0.438,0.889,0.952l-0.209,3.048
				C1894.604,2209.257,1894.308,2209.534,1893.949,2209.534z"/>
			<circle cx="1893.949" cy="2210.745" r="0.672"/>
		</g>
	</g>
	<circle fill="#FFD145" cx="431.377" cy="1698.776" r="18.797"/>
	<circle fill="#A5A5A5" cx="281.086" cy="935.548" r="35.931"/>
	<g>
		<path fill="#A5A5A5" d="M1660.594,1471.597L1660.594,1471.597c-3.438,0-6.226-2.788-6.226-6.227v-66.654
			c0-3.438,2.787-6.226,6.226-6.226l0,0c3.438,0,6.226,2.787,6.226,6.226v66.654
			C1666.819,1468.809,1664.032,1471.597,1660.594,1471.597z"/>
		<path fill="#A5A5A5" d="M1621.041,1432.043L1621.041,1432.043c0-3.438,2.787-6.226,6.226-6.226h66.654
			c3.438,0,6.226,2.787,6.226,6.226l0,0c0,3.438-2.787,6.226-6.226,6.226h-66.654
			C1623.828,1438.269,1621.041,1435.481,1621.041,1432.043z"/>
	</g>
	<g>
		<path fill="#A5A5A5" d="M1804.231,915.063L1804.231,915.063c-3.438,0-6.226-2.788-6.226-6.226v-66.654
			c0-3.438,2.787-6.226,6.226-6.226l0,0c3.438,0,6.226,2.788,6.226,6.226v66.654C1810.457,912.275,1807.67,915.063,1804.231,915.063
			z"/>
		<path fill="#A5A5A5" d="M1764.679,875.509L1764.679,875.509c0-3.438,2.787-6.226,6.226-6.226h66.654
			c3.438,0,6.226,2.788,6.226,6.226l0,0c0,3.438-2.787,6.226-6.226,6.226h-66.654
			C1767.466,881.735,1764.679,878.948,1764.679,875.509z"/>
	</g>
	<path fill="#FFFFFF" d="M1181.694,1318.569c-12.744,0-23.112-10.368-23.112-23.112s10.368-23.112,23.112-23.112
		s23.112,10.368,23.112,23.112S1194.438,1318.569,1181.694,1318.569z M1181.694,1278.71c-9.234,0-16.747,7.513-16.747,16.747
		s7.513,16.747,16.747,16.747s16.747-7.513,16.747-16.747S1190.929,1278.71,1181.694,1278.71z"/>
	<g>
		<g>
			
				<rect x="694.043" y="1356.851" transform="matrix(1 -0.0036 0.0036 1 -5.1342 2.8059)" fill="#E3EEFF" width="151.029" height="114.779"/>
			
				<rect x="701.192" y="1363.903" transform="matrix(1 -0.0036 0.0036 1 -5.1262 2.8014)" fill="#3397FF" width="136.731" height="100.676"/>
			<polygon fill="#E3EEFF" points="710.089,1457.861 802.181,1457.526 751.788,1409.263 			"/>
			<polygon fill="#E3EEFF" points="751.964,1457.709 829.341,1457.428 787.321,1417.539 			"/>
			<circle fill="#E3EEFF" cx="780.541" cy="1398.493" r="10.665"/>
		</g>
	</g>
	<g>
		<g>
			
				<rect x="1373.451" y="586.125" transform="matrix(1 -0.0036 0.0036 1 -2.3268 5.265)" fill="#E3EEFF" width="151.029" height="114.779"/>
			
				<rect x="1380.601" y="593.176" transform="matrix(1 -0.0036 0.0036 1 -2.3275 5.2667)" fill="#3397FF" width="136.73" height="100.677"/>
			<polygon fill="#E3EEFF" points="1389.498,687.134 1481.589,686.8 1431.196,638.536 			"/>
			<polygon fill="#E3EEFF" points="1431.372,686.982 1508.75,686.701 1466.729,646.813 			"/>
			<circle fill="#E3EEFF" cx="1459.95" cy="627.766" r="10.665"/>
		</g>
	</g>
</g>
<g id="shadow">
</g>
<g id="hacker">
	<path fill="#FFFFFF" d="M1185.111,1710.193c-83.465-37.949-220.68-135.299-236.468-193.098c-3.45-12.768-4.486-27.176-3.364-42.875
		c7.625,39.339,40.682,81.819,80.876,120.312C1074.177,1640.52,1173.028,1668.096,1185.111,1710.193z"/>
	<path fill="#FFFFFF" d="M1524.653,1504.501v1.553c-2.329,74.966-146.479,164.078-234.346,207.98
		C1315.676,1650.289,1501.508,1605.523,1524.653,1504.501z"/>
	<g>
		<g>
			<path fill="#F0F0F0" d="M1201.568,1926.711c-0.229,0-0.463-0.032-0.694-0.099c-1.327-0.384-2.091-1.77-1.708-3.096
				c28.453-98.569,20.314-188.132,8.158-206.521c-0.761-1.152-0.445-2.703,0.707-3.465c1.152-0.761,2.703-0.445,3.464,0.707
				c12.944,19.581,21.767,109.19-7.525,210.665C1203.653,1925.998,1202.654,1926.711,1201.568,1926.711z"/>
			<path fill="#F0F0F0" d="M1200.046,1725.029c-0.223,0-0.45-0.03-0.675-0.094c-1.33-0.372-2.106-1.751-1.734-3.081
				c0.09-0.321,2.273-7.896,8.479-10.328c3.684-1.444,7.817-0.784,12.287,1.96c1.177,0.723,1.545,2.263,0.822,3.439
				s-2.262,1.543-3.438,0.822c-3.062-1.881-5.702-2.408-7.845-1.566c-3.851,1.509-5.474,6.966-5.489,7.021
				C1202.143,1724.307,1201.139,1725.029,1200.046,1725.029z"/>
		</g>
		<g>
			<path fill="#F0F0F0" d="M1276.729,1926.711c-1.086,0-2.085-0.713-2.401-1.808c-29.292-101.476-20.469-191.084-7.525-210.665
				c0.763-1.153,2.313-1.468,3.465-0.707c1.151,0.762,1.468,2.313,0.707,3.465c-12.156,18.389-20.295,107.951,8.158,206.521
				c0.383,1.326-0.383,2.712-1.709,3.096C1277.192,1926.679,1276.959,1926.711,1276.729,1926.711z"/>
			<path fill="#F0F0F0" d="M1278.252,1725.029c-1.091,0-2.093-0.72-2.404-1.819l0,0c-0.016-0.056-1.625-5.527-5.508-7.035
				c-2.143-0.833-4.775-0.303-7.828,1.573c-1.176,0.722-2.715,0.354-3.439-0.822c-0.722-1.177-0.354-2.717,0.822-3.439
				c4.471-2.744,8.604-3.402,12.287-1.96c6.206,2.433,8.389,10.007,8.479,10.328c0.372,1.33-0.404,2.709-1.733,3.081
				C1278.701,1724.999,1278.475,1725.029,1278.252,1725.029z"/>
		</g>
	</g>
</g>
</svg>
