<?xml version="1.0" encoding="utf-8"?>
<!-- Generator: Adobe Illustrator 16.0.0, SVG Export Plug-In . SVG Version: 6.00 Build 0)  -->
<!DOCTYPE svg PUBLIC "-//W3C//DTD SVG 1.1//EN" "http://www.w3.org/Graphics/SVG/1.1/DTD/svg11.dtd">
<svg version="1.1" id="_x2018_лой_x5F_1" xmlns="http://www.w3.org/2000/svg" xmlns:xlink="http://www.w3.org/1999/xlink"
	 x="0px" y="0px" width="2045.59px" height="1683.167px" viewBox="0 0 2045.59 1683.167"
	 enable-background="new 0 0 2045.59 1683.167" xml:space="preserve">
<g opacity="0.8">
	<path fill="#D7E5FF" d="M1625.187,822.714c-6.116,16.824-13.624,32.756-22.351,47.704c-20.951,35.859-48.887,66.01-81.388,89.322
		c-75.509,54.184-175.603,71.37-269.544,37.221c-111.748-40.622-183.525-142.502-191.171-253.955
		c-1.016-14.686-0.919-29.54,0.369-44.439c2.122-25.018,7.556-50.175,16.542-74.893c7.268-19.993,16.5-38.714,27.391-55.999
		c0.12-0.204,0.249-0.389,0.37-0.592c30.239-47.758,73.189-84.634,122.591-107.74c14.012-6.563,28.546-12.01,43.471-16.278
		c7.111-2.038,14.325-3.806,21.591-5.293c50.969-10.492,105.379-7.441,157.887,11.646c6.965,2.532,13.767,5.298,20.406,8.299
		c9.384,4.215,18.433,8.88,27.145,13.964c36.688,21.392,67.393,50.101,90.929,83.518l0.015,0.005
		c14.668,20.809,26.543,43.431,35.334,67.267c4.618,12.517,8.391,25.36,11.256,38.445c1.785,8.147,3.232,16.373,4.322,24.685
		c2.621,19.969,3.162,40.342,1.517,60.817C1639.811,771.893,1634.341,797.532,1625.187,822.714z"/>
	<g>
		<path fill="#AEC3FF" d="M1302.958,566.836c-17.214,13.331-12.649,49.004-42.445,28.896s-48.505-31.036-56.938-13.493
			c-8.452,17.552,17.959,27.153,11.01,46.271c-6.95,19.119-21.089,21.138-35.991,5.439c-14.916-15.704-15.346-30.811-39.491-30.311
			c-24.146,0.499-34.45-9.431-33.273-27.556c0.201-3.189-0.125-5.951-0.794-8.405c0.12-0.204,0.249-0.389,0.37-0.592
			c30.239-47.758,73.189-84.634,122.591-107.74c14.012-6.563,28.546-12.01,43.471-16.278c7.111-2.038,14.325-3.806,21.591-5.293
			c8.421,3.417,17.445,10.361,22.232,24.285c10.511,30.629,27.556,23.421,13.08,49.081c-14.49,25.654-8.522,31.951,7.282,36.661
			c15.806,4.709,34.022,11.332,31.535,23.832C1364.699,584.131,1320.173,553.505,1302.958,566.836z"/>
		<path fill="#AEC3FF" d="M1625.187,822.714c-6.116,16.824-13.624,32.756-22.351,47.704c-20.951,35.859-48.887,66.01-81.388,89.322
			c-8.102-0.255-15.47-2.995-21.677-8.545c-29.177-26.066,9.49-53.754,29.849-67.226c20.357-13.472-17.444-17.937-36.503-44.191
			c-19.059-26.254,25.566-61.825-3.11-63.747c-28.677-1.921-63.561-3.779-69.398-34.504c-5.839-30.724,24.329-24.396,19.05-50.279
			s19.673-30.727,46.364-23.344c26.691,7.384,29.979-12.293,63.063-3.358c33.085,8.935,17.51,49.655,54.009,59.83
			c36.499,10.176,31.923,17.789,31.923,17.789c2.578,0.86,4.87,2.296,6.849,4.252
			C1639.811,771.893,1634.341,797.532,1625.187,822.714z"/>
		<path fill="#AEC3FF" d="M1640.35,685.602c-34.746,3.634-32.396-39.746-61.903-37.175c-29.745,2.591-17.018-18.555-31.741-40.404
			c-14.741-21.84-64.391-10.002-54.299-32.107c10.086-22.091,37.816-4.806,50.812-20.691c12.994-15.885,40.47-0.749,40.47-0.749
			c1.881-0.028,3.805,0.208,5.735,0.724c0,0,0.005-0.014,0.015,0.005c14.668,20.809,26.543,43.431,35.334,67.267
			c4.618,12.517,8.391,25.36,11.256,38.445C1637.813,669.063,1639.26,677.289,1640.35,685.602z"/>
		<path fill="#AEC3FF" d="M1420.146,516.669c0,0,23.595-16.705,1.408-32.228c-22.187-15.523-24.866-6.734-43.244-15.72
			c-18.379-8.985-31.268,3.079-22.803,24.451c8.464,21.372,8.8,56.602,27.781,44.789
			C1402.271,526.147,1404.318,512.719,1420.146,516.669z"/>
	</g>
</g>
<path fill="#A8D29F" d="M58.199,1683.394h101.597c5.444-4.618-3.768-15.105-13.393-15.811c-4.181-0.316-9.467,0.559-15.507,1.835
	c-1.397-18.569-9.382-102.046-39.472-98.692c-33.833,3.756,0,36.762,9.564,56.304c7.085,14.474,14.559,35.23,17.974,45.026
	c-2.747,0.595-5.59,1.179-8.495,1.713c-4.484-13.769-21.17-60.083-42.389-57.385c-24.913,3.159-14.899,21.729,2.759,32.751
	c12.955,8.106,28.863,19.627,36.422,25.192c-6.405,1.046-13.089,1.75-19.87,1.593C69.987,1675.507,61.492,1680.635,58.199,1683.394z
	"/>
<path fill="#A8D29F" d="M1675.099,1683.394h-94.368c-5.057-4.289,3.5-14.031,12.44-14.686c3.883-0.294,8.793,0.52,14.403,1.704
	c1.298-17.248,8.714-94.785,36.663-91.67c31.426,3.488,0,34.146-8.884,52.298c-6.581,13.443-13.523,32.724-16.695,41.822
	c2.552,0.553,5.193,1.095,7.891,1.591c4.166-12.789,19.664-55.808,39.373-53.302c23.141,2.936,13.839,20.184-2.563,30.421
	c-12.033,7.529-26.809,18.23-33.83,23.4c5.948,0.971,12.157,1.626,18.455,1.479
	C1664.15,1676.068,1672.04,1680.832,1675.099,1683.394z"/>
<g>
	<path fill="#FFB27D" d="M1742.493,1064.813c0,0,2.248-22.339-9.435-21.573c-11.683,0.765-14.775,6.123-13.47,10.416
		c1.305,4.293,12.666,18.495,12.666,18.495L1742.493,1064.813z"/>
	<path fill="#739AF0" d="M1924.52,1109.576c0,0-12.932,15.195-40.743,32.731c-2.634,1.665-5.388,3.342-8.295,5.028
		c-10.798,6.292-23.469,12.736-38.099,18.745c-1.61,0.664-3.504,1.394-5.627,2.155c-16.665,6.02-47.329,14.553-66.334,15.315
		c-1.654,0.065-3.223,0.065-4.681,0.011c-28.923-1.165-32.449-113.424-32.449-113.424s3.222-11.233,18.08-8.403
		c0,0,22.565,63.396,30.653,68.565c7.184,4.594,48.472-57.992,84.011-62.371C1884.961,1064.982,1924.52,1109.576,1924.52,1109.576z"
		/>
	<path fill="#1C3154" d="M1846.818,1656.996c0,0,2.136,24.712-3.088,27.283l-66.851-0.137c0,0,0-7.716,10.737-9.43
		c10.737-1.715,29.601-8.001,32.793-22.003C1823.602,1638.708,1846.818,1656.996,1846.818,1656.996z"/>
	<path fill="#2A4E96" d="M1797.74,1357.913c0.33,16.159,1.105,32.826,2.626,47.806c7.22,71.079,9.758,156.959,10.796,173.517
		c1.798,28.742,7.477,74.66,7.477,74.66s11.262,10.69,33.214,5.589c0,0,18.188-66.135,22.252-135.772
		c0.063-1.143,0.125-2.291,0.184-3.439c0.471-9.206,0.964-19.734,1.468-31.085c3.345-76.034,6.978-188.984,6.978-188.984
		l-83.888-19.697C1798.845,1280.505,1796.917,1317.63,1797.74,1357.913z"/>
	<path fill="#233862" d="M1797.74,1357.913c21.26,36.68,61.783,104.257,78.016,131.274c3.345-76.034,6.978-188.984,6.978-188.984
		l-83.888-19.697C1798.845,1280.505,1796.917,1317.63,1797.74,1357.913z"/>
	<path fill="#6385DB" d="M1831.756,1168.236c-16.665,6.02-47.329,14.553-66.334,15.315c2.906-0.544,24.066-4.735,31.893-14.184
		c8.404-10.156,22.555-37.739,33.811-26.483C1836.426,1148.185,1834.87,1158.657,1831.756,1168.236z"/>
	<path fill="#FFB27D" d="M1972.714,1345.963c0,0,5.206,20.419,4.353,24.956c-0.853,4.538-5.937,19.904-9.106,23.718
		s-3.299-16.573-5.406-19.775c-2.108-3.202-0.966,7.611-2.655,8.496s-4.506-8.19-5.761-11.408s4.505-14.417,5.036-22.446
		S1972.714,1345.963,1972.714,1345.963z"/>
	<path fill="#1C3154" d="M2013.348,1628.912c0,0,11.898,10.858,9.576,18.573c-2.321,7.716-13.059,12.858-14.51,22.288
		s-7.255,14.573-12.479,14.573s-24.903,0-24.903,0s-3.846-6.636,5.44-8.636c9.287-2,12.788-13.081,12.208-23.367
		c-0.581-10.287,0.87-24.003,0.87-24.003l19.734-4.572L2013.348,1628.912z"/>
	<path fill="#2A4E96" d="M1812.065,1301.924c0,0,78.528,168.02,120.316,241.742c41.789,73.723,54.849,94.297,54.849,94.297
		s23.941-9.43,26.118-15.859c0,0-15.98-142.325-43.966-177.021c-15.813-19.604-34.389-78.438-35.259-99.011
		c-0.871-20.574-19.217-69.68-19.217-69.68L1812.065,1301.924z"/>
	<path fill="#739AF0" d="M1797.432,1293.181c0,0,25.57,27.52,69.022,35.83c19.069,3.651,57.776,7.178,67.377-6.399
		c2.255-3.188,2.274-7.907,1.774-15.276c-1.293-19.151-6.11-56.178,15.64-130.587c2.025-6.922,3.39-13.56,4.182-19.889
		c4.748-38.065,4.232-66.803-28.794-82.154c-49.485-23.003-69.797-4.076-69.797-4.076s-26.319,12.299-38.346,48.141
		C1794.442,1190.463,1797.432,1293.181,1797.432,1293.181z"/>
	<path fill="#FFB27D" d="M1896.924,1068.385c-8.334,5.916-22.986,9.411-36.965,2.421c-1.075-0.537-0.94-7.931-0.672-15.189
		c0.268-7.125,0.94-14.115,0.94-14.115l17.608-11.558l16.802-11.023C1892.624,1056.828,1900.688,1065.698,1896.924,1068.385z"/>
	<path fill="#ED985F" d="M1891.682,1034.57c0,0-11.426,17.148-32.395,21.047c0.268-7.125,1.029-14.973,1.029-14.973l17.52-10.7
		L1891.682,1034.57z"/>
	<path fill="#FFB27D" d="M1844.458,1037.046c0,0,42.6,15.897,52.079-10.35c9.479-26.247,21.36-41.872-5.438-53.133
		c-26.798-11.26-35.729-3.136-41.059,4.854C1844.711,986.408,1833.622,1032.234,1844.458,1037.046z"/>
	<path fill="#2C3A64" d="M1923.075,976.514c0.49-0.379,1.484-0.566,3.559-0.273c0,0-1.437-1.349-3.619-1.837
		c0.135-2.937-0.386-8.285-5.053-10.482c0,0,2.36,1.928,2.106,5.028c-4.532-6.963-15.877-13.62-50.141-17.622
		c-45.157-5.273-36.127,26.09-31.041,30.62c5.086,4.531,21.413-1.911,31.97,1.06c10.557,2.969,9.536,18.87,12.754,21.715
		c3.218,2.846,2.53-1.197,7.893-2.45s4.219,6.997,1.75,12.02c-2.471,5.023,2.912,13.355,2.912,13.355s0,0,8.289-6.012
		c8.289-6.011,20.891-35.918,19.096-43.179C1923.391,977.816,1923.237,977.167,1923.075,976.514z"/>
	<path fill="#6385DB" d="M1935.606,1307.335c-1.293-19.151-6.11-56.178,15.64-130.587c2.025-6.922,3.39-13.56,4.182-19.889
		l-0.005-0.001c-16.159-5.329-45.604,6.524-45.604,6.524S1902.898,1261.742,1935.606,1307.335z"/>
	<path fill="#739AF0" d="M1935.543,1079.681c0,0,19.884,7.231,32.566,59.877c8.38,34.784,23.808,85.912,25.547,101.978
		c1.738,16.065-17.637,110.13-17.637,110.13s-2.733,1.992-9.429,0.653c-6.407-1.281-9.391-5.616-9.391-5.616
		s-4.633-62.693-3.437-92.295c0.497-12.299-56.934-90.07-87.93-100.089C1853.662,1150.384,1935.543,1079.681,1935.543,1079.681z"/>
	<path fill="#AEC3FF" d="M1657.416,1011.532c0,0,57.473-1.634,123.794,10.575l6.929-17.46l7.598-19.13
		c0,0-66.581-28.664-106.604-68.58L1657.416,1011.532z"/>
	<path fill="#F99746" d="M1690.042,916.01l-32.996,97.403l0,0c-4.825-1.429-7.464-6.611-5.781-11.354l29.04-81.84
		C1681.712,916.255,1686.19,914.319,1690.042,916.01L1690.042,916.01z"/>
	<path fill="#F99746" d="M1721.542,1084.029L1721.542,1084.029c6.415,1.282,12.714-2.918,13.996-9.334l11.361-56.846
		c1.282-6.416-2.918-12.714-9.334-13.996l0,0c-6.416-1.282-12.715,2.918-13.996,9.334l-11.361,56.846
		C1710.925,1076.448,1715.125,1082.747,1721.542,1084.029z"/>
	<path fill="#739AF0" d="M1657.416,1011.532c0,0,57.473-1.634,123.794,10.575l6.929-17.46
		C1725.822,991.921,1657.416,1011.532,1657.416,1011.532z"/>
	<path fill="#F99746" d="M1762.874,1018.596l17.957,3.159c-0.274,0.011,16.681,3.299,22.239-11.729
		c0.51-1.027,0.837-2.044,1.065-3.243c4.319-18.732-5.965-22.183-5.965-22.183l-23.111-9.006l-7.344,25.986c0,0,0,0,0.004,0.091
		L1762.874,1018.596z"/>
	<path fill="#ED7D2B" d="M1762.874,1018.596l17.957,3.159c-0.274,0.011,16.681,3.299,22.239-11.729
		c-10.159-7.391-35.354-8.445-35.354-8.445s0,0,0.004,0.091L1762.874,1018.596z"/>
	<path fill="#FFB27D" d="M1723.074,1028.982c0,0,8.785,3.501,7.175,7.369c-1.609,3.869-12.782,9.188-14.545,6.136
		C1713.942,1039.435,1717.547,1025.718,1723.074,1028.982z"/>
	<path fill="#FFB27D" d="M1742.662,1061.293c0,0,1.659-8.987,1.762-13.116c0.104-4.129,0.589-7.501-0.384-7.618
		c-0.972-0.117-1.677,0.644-2.074,1.972c-0.396,1.327-1.918,9.562-1.918,9.562l0.768,7.946L1742.662,1061.293z"/>
</g>
<g>
	<path fill="#7599EA" d="M873.737,1055.427l-49.772,591.803c0,0-5.215,35.874,21.47,35.938c43.874,0.104,218.376,0,218.376,0
		s-33.021-7.468-32.621-24.27c0.472-19.805,58.174-609.071,58.174-609.071L873.737,1055.427z"/>
	<path fill="#90AFF4" d="M1080.238,1672.667c-8.629,0.025-177.569,0.312-220.296-0.237c-18.621-0.231-21.885-16.556-22.04-27.121
		c-0.077-5.064,0.565-8.81,0.565-8.81l1.294-15.382l3.299-39.204l2.913-34.637l3.745-44.508l3.153-37.567l35.365-420.518
		l215.627-5.596c0,0-24.302,246.605-41.492,426.113c-1.919,20-3.745,39.178-5.433,57.079c-0.549,5.716-1.071,11.303-1.585,16.744
		c-1.594,16.984-3.051,32.58-4.319,46.351c-0.668,7.259-1.286,14.003-1.842,20.181c-2.194,24.208-3.479,39.667-3.497,42.606
		c-0.008,1.714,0.137,3.308,0.42,4.79C1049.656,1671.814,1076.999,1672.667,1080.238,1672.667z"/>
	<polygon fill="#AEC3FF" points="350.077,733.39 471.313,1220.371 487.913,1287.065 544.378,1513.886 1593.425,1513.886 
		1385.301,733.39 	"/>
	<polygon fill="#90AFF4" points="350.075,733.389 333.273,738.99 522.042,1530.829 544.38,1513.889 	"/>
	<polygon fill="#7599EA" points="522.042,1530.829 1564.631,1530.829 1593.421,1513.889 544.38,1513.889 	"/>
	<rect x="888.168" y="1672.667" fill="#AEC3FF" width="225.736" height="10.727"/>
	<polygon fill="#5888DD" points="1056.52,1530.824 1055.354,1539.025 843.061,1581.914 845.974,1547.277 847.363,1530.824 	"/>
	<path opacity="0.4" fill="#5888DD" d="M1080.238,1672.667c-8.629,0.025-177.569,0.312-220.296-0.237
		c-18.621-0.231-21.885-16.556-22.04-27.121l211.291-39.753c-2.194,24.208-3.479,39.667-3.497,42.606
		c-0.008,1.714,0.137,3.308,0.42,4.79C1049.656,1671.814,1076.999,1672.667,1080.238,1672.667z"/>
	<polygon fill="#AEC3FF" points="350.075,733.389 1385.3,733.389 1553.267,1360.663 506.235,1360.663 	"/>
	<polygon fill="#739AF0" points="1504.44,1333.48 535.153,1333.48 500.517,1195.499 487.117,1142.108 481.653,1120.335 
		446.054,978.536 444.208,971.154 425.39,896.2 416.972,862.664 409.79,834.055 392.954,766.992 1348.268,766.992 1366.758,834.055 
		1374.64,862.664 1383.885,896.2 1444.794,1117.144 1444.794,1117.154 1449.958,1135.872 1452.358,1144.562 1494.413,1297.098 	"/>
	<polygon fill="#607CF4" points="1366.759,834.059 409.792,834.059 392.958,766.989 1348.272,766.989 	"/>
	<g>
		<path fill="#E9F3FE" d="M432.479,797.3c-1.155-4.63,1.663-8.384,6.294-8.384c4.63,0,9.32,3.754,10.474,8.384
			c1.155,4.63-1.663,8.384-6.293,8.384S433.633,801.93,432.479,797.3z"/>
		<path fill="#E9F3FE" d="M460.336,797.3c-1.155-4.63,1.663-8.384,6.293-8.384s9.32,3.754,10.475,8.384s-1.663,8.384-6.294,8.384
			C466.18,805.684,461.491,801.93,460.336,797.3z"/>
		<path fill="#E9F3FE" d="M490.333,797.3c-1.154-4.63,1.664-8.384,6.294-8.384s9.32,3.754,10.475,8.384
			c1.154,4.63-1.664,8.384-6.294,8.384S491.488,801.93,490.333,797.3z"/>
	</g>
</g>
<path fill="#F77D48" d="M1158.237,377.083c39.177-45.998,99.59-138.396,140.262-185.714c8.37-9.739,1.413-24.769-11.43-24.769
	h-74.012l69.812-157.857c2.98-6.739-6.204-12.11-10.616-6.206L1103.454,228.46c-4.923,6.591,0.46,15.868,8.626,14.862l83.789-10.318
	l-49.85,136.935C1143.275,377.478,1153.036,383.189,1158.237,377.083z"/>
<path fill="#AEC3FF" d="M809.781,657.249c8.814-45.205,14.378-129.172,23.691-175.813c1.917-9.6-8.326-16.979-16.856-12.176
	l-49.157,27.684l-12.68-130.958c-0.542-5.591-8.65-5.723-9.372-0.151l-27.605,213.194c-0.805,6.219,6.241,10.367,11.288,6.645
	l51.792-38.194l18.111,109.596C799.991,663.108,808.61,663.25,809.781,657.249z"/>
<g>
	<path fill="#E6EFFF" d="M1546.782,1346.831l-842.232,70.959c-63.95,5.388-110.231-59.809-84.05-118.402l356.824-798.572
		c27.07-60.583,110.279-67.594,147.104-12.394l485.408,727.612C1645.452,1269.421,1610.732,1341.442,1546.782,1346.831z"/>
	<g>
		<path fill="#F77D48" d="M1549.465,1378.687l-842.231,70.96c-41.422,3.49-80.518-14.663-104.579-48.561
			c-24.062-33.896-28.302-76.79-11.344-114.741l356.824-798.573c17.534-39.24,53.571-64.823,96.399-68.431
			c42.828-3.608,82.638,15.584,106.489,51.337l485.407,727.614c23.07,34.578,26.066,77.577,8.016,115.021
			C1626.393,1350.758,1590.887,1375.198,1549.465,1378.687z M1049.902,483.057c-19.277,1.625-35.498,13.139-43.389,30.801
			l-356.824,798.573c-7.633,17.081-5.724,36.388,5.105,51.645c10.831,15.256,28.427,23.427,47.071,21.855l842.231-70.959
			c18.645-1.571,34.626-12.57,42.751-29.424c8.124-16.854,6.775-36.207-3.607-51.771l-485.408-727.613
			C1087.096,490.071,1069.178,481.433,1049.902,483.057z"/>
	</g>
	<g>
		<g>
			<path fill="#F77D48" d="M1030.167,1224.656c-0.915-10.854,0.175-21.048,3.277-30.587c3.095-9.53,7.904-17.972,14.413-25.313
				c6.509-7.334,14.57-13.316,24.196-17.939c9.618-4.614,20.665-7.456,33.137-8.507c12.464-1.05,23.918-0.104,34.345,2.821
				c10.43,2.934,19.467,7.476,27.111,13.617c7.646,6.149,13.791,13.667,18.443,22.545c4.647,8.886,7.435,18.754,8.35,29.607
				c0.914,10.854-0.189,20.971-3.299,30.34c-3.114,9.378-7.923,17.732-14.432,25.066c-6.509,7.342-14.658,13.331-24.451,17.961
				c-9.79,4.629-20.925,7.479-33.389,8.528c-12.472,1.051-23.838,0.097-34.093-2.843c-10.263-2.939-19.212-7.489-26.857-13.639
				c-7.645-6.142-13.791-13.572-18.424-22.298C1033.855,1245.3,1031.082,1235.51,1030.167,1224.656z M1160.379,1072.29
				l-121.316,10.221l-52.11-413.073l155.69-13.117L1160.379,1072.29z"/>
		</g>
	</g>
</g>
<g>
	<path fill="#FFB27D" d="M507.174,1097.62c0,0,2.641-5.939,4.351-8.752c1.71-2.813,9.017-11.053,10.261-9.187
		c1.244,1.865,6.219,14.423,3.576,17.938c-2.643,3.516,0.171,9.634-12.973,13.337L507.174,1097.62z"/>
	<path fill="#ED7D2B" d="M361.101,1060.117c0,0,67.287,56.168,93.524,50.968c20.516-4.065,52.951-14.354,52.951-14.354
		s8.56,8.143,6.139,17.902c0,0-41.322,38.882-70.763,39.133c-46.018,0.394-67.721-22.805-67.721-22.805L361.101,1060.117z"/>
	<path fill="#113C68" d="M243.093,1652.562c0,0,1.954,31.51,8.05,31.961c0.811,0.061,30.919,0.061,30.919,0.061l38.435-0.223
		c0,0-0.251-9.261-11.486-11.219s-30.04-9.854-36.845-24.703C265.006,1632.818,243.093,1652.562,243.093,1652.562z"/>
	<path fill="#2A4E96" d="M240.877,1654.75c0,0,11.684,3.908,20.806,3.908c10.175,0,19.424-2.771,19.424-2.771
		s2.2-21.272,14.305-68.144c6.347-24.567,15.41-56.155,28.304-95.406c35.651-108.479,46.493-171.939,47.482-177.949
		c0.053-0.315,0.074-0.474,0.074-0.474l-0.116-0.053l-109.605-48.124c0,0,13.547,149.509-3.736,206.896
		c-2.421,8.021-4.495,17.367-6.273,27.493C240.625,1562.459,240.877,1654.75,240.877,1654.75z"/>
	<path fill="#233862" d="M295.412,1587.743c6.347-24.567,15.41-56.155,28.304-95.406c35.651-108.479,46.493-171.939,47.482-177.949
		c-0.011-0.179-0.021-0.348-0.042-0.526l-109.605-48.124c0,0,13.547,149.509-3.736,206.896
		C255.393,1480.653,295.412,1587.743,295.412,1587.743z"/>
	<path fill="#15447C" d="M328.7,1652.562c0,0,1.954,31.51,8.05,31.961c0.811,0.061,30.919,0.061,30.919,0.061l38.435-0.223
		c0,0-0.252-9.261-11.486-11.219c-11.235-1.958-30.04-9.854-36.845-24.703C350.613,1632.818,328.7,1652.562,328.7,1652.562z"/>
	<path fill="#2A4E96" d="M390.842,1269.26c0,0,1.424,96.883-15.339,215.838s-11.081,169.449-11.081,169.449
		s-11.516,3.732-16.165,4.11c-11.841,0.965-23.982-2.775-23.982-2.775s-23.993-118.999-17.114-178.539
		s-32.854-204.308-32.854-204.308L390.842,1269.26z"/>
	<path fill="#FFB27D" d="M313.124,1042.541l21.395,14.029l19.488-5.512c3.562-5.081,4.505-14.878,4.558-23.364
		c0.052-8.424-0.765-15.56-0.765-15.56l-28.865-12.74l-10.771-4.746c0.031,0.168,0.838,8.843,0.953,10.111
		C321.128,1027.253,313.124,1042.541,313.124,1042.541z"/>
	<path fill="#F99746" d="M391.333,1296.194c-26.63,25.712-127.414,21.388-133.625-6.941c-6.201-28.328,6.773-241.153,52.263-254.522
		c9.439-2.774,59.906,13.537,59.906,13.537s7.919,20.716,13.112,47.09c1.007,5.134,3.95,59.52,6.152,110.4
		c1.027,23.797,1.896,46.833,2.34,63.698C391.886,1285.253,391.906,1295.631,391.333,1296.194z"/>
	<path fill="#FCA56B" d="M321.275,1005.157c5.856,9.901,26.403,18.566,37.289,22.537c0.052-8.424-0.765-15.56-0.765-15.56
		l-28.865-12.74C322.554,999.31,318.667,1000.736,321.275,1005.157z"/>
	<path fill="#FFB27D" d="M368.688,1010.376c0,0-46.509,14.509-55.099-14.594c-8.589-29.104-20.377-46.831,8.955-57.324
		c29.332-10.494,38.405-1.1,43.635,7.917C371.409,955.392,380.564,1005.853,368.688,1010.376z"/>
	<path fill="#163560" d="M364.353,943.572c0,0-2.966,33.866-9.97,32.396c-7.003-1.471-14.713-4.615-13.688,5.594
		c1.026,10.208-6.81,27.709-16.909,27.667c-21.66-0.09-45.193-55.669-39.264-66.208C301.63,912.612,389.08,906.474,364.353,943.572z
		"/>
	<path fill="#ED7D2B" d="M357.51,1035.464c-0.6-0.252-34.623-15.515-38.602-14.201c-3.979,1.314-8.938,13.467-8.938,13.467
		l59.909,13.544C369.879,1048.274,365.164,1038.687,357.51,1035.464z"/>
	<g>
		<path fill="#1F4D84" d="M569.328,1200.288l-190.722,179.566c-3.738,3.52-8.452,4.641-10.476,2.492l-6.438-6.838
			c-2.023-2.149-0.62-6.787,3.118-10.307l190.722-179.567c3.738-3.52,8.453-4.641,10.476-2.492l6.438,6.838
			C574.469,1192.129,573.066,1196.767,569.328,1200.288z"/>
		<path fill="#739AF0" d="M462.299,1301.056l-83.693,78.798c-3.738,3.52-8.452,4.641-10.476,2.492l-6.438-6.838
			c-2.023-2.149-0.62-6.787,3.118-10.307l83.693-78.798L462.299,1301.056z"/>
		<path fill="#1F4D84" d="M525.491,1132.49c7.324,24.129,20.881,46.729,40.569,65.253c60.13,56.568,154.741,53.676,211.309-6.443
			c55.824-59.345,53.749-152.237-4.107-209.036c-0.765-0.765-1.551-1.519-2.347-2.263c-60.119-56.567-154.72-53.697-211.288,6.433
			C521.573,1026.876,510.414,1082.92,525.491,1132.49z M568.218,994.522c32.92-34.994,79.828-48.94,123.875-41.313
			c25.669,4.442,50.354,16.198,70.744,35.383c55.383,52.104,58.034,139.234,5.93,194.618c-19.185,20.39-43.104,33.622-68.438,39.626
			c-43.513,10.299-91.186-0.755-126.18-33.685C518.765,1137.046,516.104,1049.917,568.218,994.522z"/>
		<g opacity="0.5">
			<path fill="#B3CFF9" d="M768.77,1183.21c-19.183,20.39-43.106,33.624-68.445,39.631c-43.506,10.293-91.184-0.764-126.181-33.69
				c-55.382-52.104-58.039-139.239-5.929-194.627c32.92-34.991,79.83-48.938,123.876-41.31c25.669,4.439,50.36,16.197,70.744,35.375
				C818.217,1040.694,820.875,1127.829,768.77,1183.21z"/>
		</g>
	</g>
	<path fill="#ED7D2B" d="M391.481,1269.456c-105.089-74.885-96.351-174.81-96.351-174.81c38.41,21.663,76.524,69.563,94.011,111.111
		C390.168,1229.554,391.038,1252.59,391.481,1269.456z"/>
	<g>
		<path fill="#FFB27D" d="M495.201,1235.353c7.411-1.71,12.388-7.313,13.422-8.291c0,0,3.161,0.216-0.518,6.957
			c-0.308,0.564-0.991,2.013-1.507,3.037c-0.21,0.42,0.083,0.906,0.55,0.941c4.277,0.325,8.575-1.367,16.814,0.351
			c1.137,0.237,1.467,2.96,1.424,4.12c-0.074,1.963,0.067,4.166-2.215,7.178c-1.327,1.75-5.031,3.635-13.279,6.954
			c-3.142,1.265-12.126,0.311-20.547-2.581l-6.728-3.115l2.086-12.504l1.69,0.354
			C489.079,1239.317,492.403,1236.04,495.201,1235.353z"/>
		<path fill="#F99746" d="M327.745,1048.274c0,0-94.425,17.979,27.781,154.718c19.544,21.869,125.14,50.344,125.14,50.344
			s10.709-9.111,5.311-16.491c0,0-72.705-52.796-88.702-61.189c-7.196-3.776-27.93-84.268-39.661-103.653
			C345.881,1052.617,327.745,1048.274,327.745,1048.274z"/>
	</g>
	<path fill="#FFB27D" d="M509.734,1099.278c0,0,3.089-5.902,3.692-9.016c0.603-3.113,4.491-12.194,6.094-13.793
		c0.642-0.641,2.756,0.188,3.006,2.939c0.108,1.198-0.479,3.376-1.517,5.973c-1.689,4.226-1.411,9.956-1.998,11.867
		C517.548,1102.006,509.734,1099.278,509.734,1099.278z"/>
</g>
<g>
	<g>
		<path fill="#FFB27D" d="M547.312,865c-1.606,1.839-1.812,3.895-1.018,6.091c0.001,0.009,0.006,0.022,0.016,0.03
			c1.468,4.061,6.321,8.598,11.958,13.127c0.72,0.582,1.361,1.111,1.919,1.602c0.146,0.129,0.293,0.258,0.431,0.387
			c0.113,0.1,0.223,0.204,0.332,0.299c5.257,4.85,3.277,5.959,12.721,15.799c10.768,11.211,18.184,11.415,20.294,10.395
			c1.785-0.869-1.839-6.814-5.855-13.497c-0.194-0.321-0.385-0.648-0.585-0.975c-0.535-0.888-1.066-1.79-1.597-2.683
			c-4.706-8.043-3.496-11.814-2.375-23.781c0.91-9.724,15.146-54.32,15.146-54.32l-20.641-3.563c0,0-6.229,35.514-13.08,40.98
			c-3.664,2.914-7.763,2.949-11.284,5.109c-0.249,0.15-0.493,0.305-0.733,0.463C550.961,861.788,548.922,863.156,547.312,865z"/>
		<path fill="#233862" d="M547.312,865c-1.606,1.839-1.812,3.895-1.018,6.091c0.001,0.009,0.006,0.022,0.016,0.03
			c1.798,4.058,6.529,8.57,11.978,13.086c0.712,0.592,1.34,1.135,1.899,1.643c0.146,0.129,0.293,0.258,0.431,0.387
			c0.113,0.1,0.223,0.204,0.332,0.299c5.257,4.85,3.277,5.959,12.721,15.799c10.768,11.211,18.184,11.415,20.294,10.395
			c1.785-0.869-1.839-6.814-5.855-13.497c-2.097-0.769-11.835-4.729-19.196-14.155c-6.247-7.978-10.488-18.145-14.738-24.387
			c-0.468-0.088-0.746-0.14-1.213-0.228C550.961,861.788,548.923,863.156,547.312,865z"/>
		<path fill="#FFB27D" d="M713.765,852.165c1.272,6.372,10.355,5.313,20.503,2.836c10.148-2.476,7.735,0.471,22.178-1.123
			c14.442-1.594,18.819-6.977,19.26-9.124c0.395-1.905-6.741-2.58-14.395-3.464c-0.962-0.108-1.929-0.228-2.896-0.347
			c-8.641-1.087-14.968-6.666-22.816-11.248c-7.434-4.341-18.523-22.019-18.523-22.019l-19.807,1.562
			c0,0,10.388,15.79,14.405,22.654c2.363,4.038,2.236,9.375,1.939,13.498C713.461,847.629,713.314,849.919,713.765,852.165z"/>
		<path fill="#233862" d="M734.269,855c10.148-2.476,7.735,0.471,22.178-1.123c14.442-1.594,18.819-6.977,19.26-9.124
			c0.395-1.905-6.741-2.58-14.395-3.464l-0.072,0.147c0,0-8.663,6.138-20.685,6.421c-9.798,0.235-20.175-2.576-26.941-2.469
			c-0.154,2.24-0.301,4.53,0.15,6.775C715.038,858.537,724.121,857.477,734.269,855z"/>
		<path fill="#233862" d="M637.908,725.496l-18.532,49.814l-24.194,65.043c0,0-6.56,0.631-12.841-1.178
			c-5.783-1.673-12.417-6.049-12.417-6.049s6.736-69.845,19.271-109.936c3.212-10.291,6.812-18.614,10.781-23.299
			C619.393,676.96,637.908,725.496,637.908,725.496z"/>
		<path fill="#2A4E96" d="M619.111,646.367c-10.538-3.403-38.038-0.066-67.866,5.322c-8.241,1.488-16.547-2.278-20.886-9.44l0,0
			l-75.062-5.888c0,0-24.789,54.921-11.24,89.926c1.991,5.145,6.364,8.357,13.115,8.468c0.003,0.003-0.003-0.003,0,0
			c0,0,45.359,0.079,59.866,0.083c37.33,0.013,79.013-25.633,84.404-26.71c8.824-1.762,12.348,15.887,21.166,34.421
			c8.817,18.533,82.917,82.091,82.917,82.091s11.392,0.117,16.099-1.646c5.062-1.896,6.914-4.361,6.914-4.361
			S646.462,655.2,619.111,646.367z"/>
		<path fill="#233862" d="M522.459,421.819c-5.573-3.32-11.006-3.829-14.337-3.735c-2.317,0.065-4.63-0.085-6.923-0.422
			c-28.647-4.211-45.914,37.396-46.929,49.97c-1.864,23.083-14.077,26.599-31.271,41.05c-34.476,28.976-24.38,62.664-5.539,75.187
			c11.305,7.513,31.239,0.01,31.239,0.01c0.282,0.197,54.519-30.295,81.253-45.003C570.027,533.192,538.555,431.409,522.459,421.819
			z"/>
		<path fill="#FFB27D" d="M507.553,526.339c0.118,0.076-13.153,4.602-22.024,0.669c-8.346-3.692-14.665-17.427-14.541-17.434
			c3.797-0.174,7.967-3.493,11.185-25.274l1.617,0.581l27.182,9.792c0,0-1.973,8.723-3.25,17.027
			C506.647,518.672,506.068,525.352,507.553,526.339z"/>
		<path fill="#ED975D" d="M510.972,494.672c0,0-1.086,4.707-2.672,13.498c-15.614-2.816-22.314-14.847-24.51-23.29L510.972,494.672z
			"/>
		<path fill="#FFB27D" d="M515.018,503.332c0,0-37.194-5.005-33.72-28.12c3.474-23.114,1.012-39.327,24.906-37.108
			c23.894,2.218,27.172,11.73,27.889,19.727C534.81,465.828,524.782,504.038,515.018,503.332z"/>
		<path fill="#233862" d="M532.741,445.16c0,0-23.817,20.511-40.014,22.16c-16.197,1.649-22.326-3.552-22.326-3.552
			s9.548-7.922,15.297-20.71c1.694-3.769,5.274-6.357,9.391-6.711C506.655,435.351,528.578,434.903,532.741,445.16z"/>
		<path fill="#233862" d="M517.858,443.317c0,0,7.963,7.705,10.469,13.418c2.419,5.514,3.141,18.698,1.211,23.934
			c0,0,12.419-24.127,5.396-35.855C527.488,432.379,517.858,443.317,517.858,443.317z"/>
		<path fill="#F99746" d="M538.854,581.142c-1.15,75.292-0.329,59.559-8.567,66.7c-1.985,1.719-7.564,2.743-14.907,3.225
			c-23.088,1.525-63.671-2.293-65.213-6.56c-5.32-14.765-1.559-19.35-5.994-41.954c-0.462-2.404-1.035-5.006-1.707-7.84
			c-3.699-15.525-7.302-20.807,5.849-45.742c11.926-22.586,24.313-40.917,25.427-40.255c31.438,18.677,33.979,2.988,33.979,2.988
			S539.418,544.417,538.854,581.142z"/>
		<path fill="#2A4E96" d="M619.375,775.31l-24.194,65.043c0,0-6.56,0.631-12.841-1.178c-5.783-1.673-12.417-6.049-12.417-6.049
			s6.736-69.845,19.271-109.936L619.375,775.31z"/>
		<path fill="#F99746" d="M507.722,511.7c0,0,32.353,5.497,36.147,19.429c3.794,13.932,16.272,98.491,16.272,98.491
			s-9.126,8.907-16.723,1.306c-7.596-7.601-23.886-79.121-23.886-79.121L507.722,511.7z"/>
		<path fill="#ED7D2B" d="M515.379,651.067c-23.088,1.525-63.671-2.293-65.213-6.56c-5.32-14.765-1.559-19.35-5.994-41.954
			l11.146-31.353c0,0-1.854,34.917,8.441,44.104c10.284,9.188,42.155,17.743,47.158,25.419
			C513.331,644.407,514.917,648.101,515.379,651.067z"/>
		<path fill="#FFB27D" d="M488.932,636.372c0,0,22.779-5.063,26.453-3.041c3.675,2.022,12.654,9.387,13.778,11.949
			c1.124,2.562-8.182-1.947-11.208-2.76c-1.96-0.526-7.121,1.265-9.676,2.115c-10.751,3.58-17.337,1.734-17.337,1.734
			L488.932,636.372z"/>
		<path fill="#F99746" d="M473.722,508.699c0,0-30.583,1.874-41.176,16.636c-14.911,20.781-44.506,109.357-27.566,121.178
			c19.077,13.312,86.843,3.511,86.843,3.511s2.259-10.54-0.877-15.639s-54.119-13.353-56.471-15.707
			c-2.353-2.354,29.43-45.876,29.433-52.936S473.722,508.699,473.722,508.699z"/>
		<path fill="#FFB27D" d="M516.486,639.671c0,0,4.771,6.158,6.334,6.893c1.564,0.736,2.575,0.552,2.575,0.552l-3.214-5.79
			L516.486,639.671z"/>
		<path fill="#FFB27D" d="M515.385,633.331l13.873,6.743c0,0-0.59,0.966-2.299,0.887s-6.018-1.656-6.018-1.656L515.385,633.331z"/>
	</g>
	<polygon fill="#233862" points="633.864,649.212 488.928,649.162 488.927,652.361 632.577,652.411 	"/>
	<polygon fill="#233862" points="522.818,652.373 632.577,652.411 665.623,570.317 556.033,570.279 	"/>
	<path fill="#FFFFFF" d="M604.884,611.348c0.828-2.886-0.84-5.226-3.726-5.227c-2.886-0.001-5.898,2.338-6.727,5.224
		s0.84,5.226,3.726,5.227C601.044,616.573,604.055,614.234,604.884,611.348z"/>
</g>
<g>
	<path fill="#163560" d="M1347.699,961.993c-14.787-4.91-25.022,1.287-25.022,1.287c-42.572,1.749-44.154,45.386-39.155,61.626
		c7.019,22.808-17.817,40.793,9.727,50.023c31.96,10.71,58.777-1.996,56.947,3.52
		C1451.264,1086.413,1381.327,973.16,1347.699,961.993z"/>
	<path fill="#F99746" d="M1303.542,1174.232c0,0-4.045,8.01-11.383,17.214c-8.843,11.076-55.26-15.215-51.261-17.214
		c3.998-2,27.323-69.195,32.875-77.64c5.558-8.443,24.484-12.828,24.484-12.828L1303.542,1174.232z"/>
	<path fill="#1F447F" d="M1460.182,1627.439c0,0,12.811,11.691,10.312,19.999c-2.5,8.308-14.062,13.846-15.624,23.999
		c-1.563,10.152-7.812,15.691-13.436,15.691c-5.625,0-26.815,0-26.815,0s-4.14-7.146,5.859-9.299
		c9.999-2.154,13.769-14.085,13.144-25.161s0.938-25.845,0.938-25.845l21.248-4.923L1460.182,1627.439z"/>
	<path fill="#1C3154" d="M1351.748,1632.403c0,0,4.609,49.529-1.015,52.299l-71.98-0.147c0,0,0-8.308,11.561-10.153
		c11.562-1.847,31.872-8.615,35.31-23.691S1351.748,1632.403,1351.748,1632.403z"/>
	<path fill="#F99746" d="M1407.119,1140.824c0,0,1.073,15.123,0,33.27c-0.713,12.029-12.881,28.142-14.607,32.127
		c-4.332,9.996-9.217,11.623-9.217,11.623l-37.793,9.263l-13.289,3.253l-41.905-12.516c0,0-19.086-53.274-11.423-83.264
		c7.664-29.99,19.374-50.815,19.374-50.815s28.478-6.402,78.719-2.839L1407.119,1140.824z"/>
	<path fill="#ED7D2B" d="M1410.718,1174.514c-0.713,12.029-16.48,27.721-18.207,31.706c-4.332,9.996-9.217,11.623-9.217,11.623
		l-37.793,9.263l-6.824-19.558c0,0,55.222-14.506,46.339-65.615L1410.718,1174.514z"/>
	<path fill="#233862" d="M1292.973,1225.929c0,0-20.753,64.595-22.086,86.587c-1.332,21.992,39.67,312.419,41.319,322.553
		c1.555,9.552,13.416,15.641,13.416,15.641s5.455,3.218,13.241,1.02c10.803-3.05,14.217-6.702,14.217-6.702
		s16.152-207.131,6.157-281.121c-9.996-73.991-10.114-137.977-10.114-137.977H1292.973z"/>
	<path fill="#2A4E96" d="M1380.896,1224.003c0,0,31.656,42.474,34.607,71.186c2.95,28.712,4.63,129.564,10.917,157.555
		s29.387,81.855,29.387,169.157c0,0-2.4,5.004-9.814,7.669c-2.371,0.853-5.548,1.68-8.632,2.387
		c-6.114,1.402-12.388-1.586-15.178-7.204c-15.617-31.444-65.364-132.859-67.915-153.911
		c-1.805-14.898-17.512-113.498-51.775-171.354c-8.226-13.891,5.049-69.128,5.049-69.128L1380.896,1224.003z"/>
	<path fill="#233862" d="M1289.658,1215.958c0,0,8.331,6.591,24.881,6.924c19.769,0.397,68.754-5.04,68.754-5.04
		s2.177,6.081,2.088,12.502c0,0-59.827,15.091-94.491,2.204C1290.889,1232.547,1286.418,1224.135,1289.658,1215.958z"/>
	<g>
		<path fill="#FFFFFF" d="M1309.796,1239.917c-4.974,0-9.021-4.579-9.021-10.209s4.047-10.21,9.021-10.21s9.021,4.58,9.021,10.21
			S1314.77,1239.917,1309.796,1239.917z M1309.796,1222.488c-3.325,0-6.031,3.238-6.031,7.22s2.706,7.22,6.031,7.22
			s6.03-3.238,6.03-7.22S1313.122,1222.488,1309.796,1222.488z"/>
	</g>
	<polygon fill="#B5453C" points="1353.017,1258.488 1263.098,1259.33 1218.85,1155.343 1308.77,1154.503 	"/>
	<path fill="#FFB27D" d="M1341.257,1211.498l-6.591-8.1c0,0-4.461-3.979-7.697-4.654c-3.236-0.677-10.071-4.618-10.734-3.508
		c-0.662,1.11,5.252,9.034,5.252,9.034l0.3,0.043c-6.789,5.105-23.929,0.598-26.044,2.682c-2.564,2.524,3.529,7.982,6.799,11.047
		s12.618,8.174,19.908,5.905c5.328-1.659,13.714-3.347,13.714-3.347L1341.257,1211.498z"/>
	<path fill="#FFB27D" d="M1225.614,1173.636c0,0,5.651-6.422,9.248-3.34c3.596,3.082-0.942,18.237-4.367,16.696
		S1223.645,1175.519,1225.614,1173.636z"/>
	<path fill="#F99746" d="M1376.977,1080.925c0,0,25.741,2.839,44.214,36.402c14.567,26.468,39.471,75.262,30.073,89.044
		c-4.125,6.052-43.669,27.582-119.94,15.275c0,0,1.2-9.634,7.354-14.099c0,0,64.187-20.607,64.077-24.707
		c-0.208-7.755-8.674-14.455-44.528-50.32C1348.479,1122.77,1376.977,1080.925,1376.977,1080.925z"/>
	<path fill="#FFB27D" d="M1357.167,1082.286c0.884-1.188-0.254-4.969-1.668-12.011c-1.28-6.38-3.453-16.247-3.406-27.348
		l-1.897,0.318l-31.903,5.367c0,0,0.726,8.53,0.747,16.566c0.001,0.066,0.001,0.134,0.001,0.2
		c0.039,6.979-1.883,17.525,0.471,18.904C1331.599,1091.367,1353.764,1086.853,1357.167,1082.286z"/>
	<path fill="#E8945B" d="M1318.292,1048.613c0,0,0.635,12.028,0.656,20.063c17.853-0.427,27.381-17.762,31.247-25.431
		L1318.292,1048.613z"/>
	<path fill="#FFB27D" d="M1316.366,1062.958c0,0,41.822-5.957,37.712-31.945s-1.48-44.26-28.357-41.555
		c-26.877,2.704-30.483,13.439-31.222,22.447C1293.761,1020.914,1305.38,1063.837,1316.366,1062.958z"/>
	<path fill="#163560" d="M1306.621,991.848c0,0,16.277,28.664,34.522,30.38c18.246,1.715,25.101-4.193,25.101-4.193
		s-15.146-8.538-20.905-26.737C1345.338,991.297,1312.924,975.967,1306.621,991.848z"/>
	<path fill="#163560" d="M1309.845,993.872c0,0-7.965,4.516-10.466,11.247c-2.447,6.584-4.076,15.046-1.839,24.753
		c0,0-11.905-19.349-4.103-32.61C1301.711,983.199,1309.845,993.872,1309.845,993.872z"/>
</g>
</svg>
