<svg xmlns="http://www.w3.org/2000/svg" width="40.502" height="40.252" viewBox="0 0 40.502 40.252">
  <g id="features" transform="translate(-422 -147.749)">
    <path id="Icon_awesome-hand-holding-heart" data-name="Icon awesome-hand-holding-heart" d="M39.748,23.07a2.327,2.327,0,0,0-3,0l-6.5,5.2a4.476,4.476,0,0,1-2.812.984H19.125a1.125,1.125,0,0,1,0-2.25H24.63a2.341,2.341,0,0,0,2.341-1.87A2.253,2.253,0,0,0,24.75,22.5H13.5a8.275,8.275,0,0,0-5.21,1.849L5.02,27h-3.9A1.128,1.128,0,0,0,0,28.125v6.75A1.128,1.128,0,0,0,1.125,36H26.212a4.505,4.505,0,0,0,2.813-.984l10.631-8.508A2.249,2.249,0,0,0,39.748,23.07Z" transform="translate(422 152.001)" fill="#6ab811"/>
    <path id="Icon_ionic-ios-settings" data-name="Icon ionic-ios-settings" d="M25.6,16a2.96,2.96,0,0,1,1.9-2.761,11.732,11.732,0,0,0-1.42-3.42,3,3,0,0,1-1.2.258,2.953,2.953,0,0,1-2.7-4.157A11.7,11.7,0,0,0,18.761,4.5a2.957,2.957,0,0,1-5.522,0,11.731,11.731,0,0,0-3.42,1.42,2.953,2.953,0,0,1-2.7,4.157,2.9,2.9,0,0,1-1.2-.258A11.991,11.991,0,0,0,4.5,13.245a2.959,2.959,0,0,1,.006,5.522,11.731,11.731,0,0,0,1.42,3.42,2.954,2.954,0,0,1,3.9,3.9,11.8,11.8,0,0,0,3.42,1.42,2.952,2.952,0,0,1,5.51,0,11.731,11.731,0,0,0,3.42-1.42,2.957,2.957,0,0,1,3.9-3.9,11.8,11.8,0,0,0,1.42-3.42A2.974,2.974,0,0,1,25.6,16Zm-9.547,4.786a4.792,4.792,0,1,1,4.792-4.792A4.79,4.79,0,0,1,16.054,20.786Z" transform="translate(429.002 143.249)" fill="#6ab811"/>
  </g>
</svg>
