<svg xmlns="http://www.w3.org/2000/svg" xmlns:xlink="http://www.w3.org/1999/xlink" width="672.899" height="490.564" viewBox="0 0 672.899 490.564">
  <defs>
    <filter id="Goals" x="151.069" y="99.447" width="61.228" height="51.636" filterUnits="userSpaceOnUse">
      <feOffset dy="2" input="SourceAlpha"/>
      <feGaussianBlur result="blur"/>
      <feFlood flood-opacity="0.529"/>
      <feComposite operator="in" in2="blur"/>
      <feComposite in="SourceGraphic"/>
    </filter>
    <filter id="Strategies" x="403.57" y="321.769" width="103" height="29" filterUnits="userSpaceOnUse">
      <feOffset dy="2" input="SourceAlpha"/>
      <feGaussianBlur result="blur-2"/>
      <feFlood flood-opacity="0.529"/>
      <feComposite operator="in" in2="blur-2"/>
      <feComposite in="SourceGraphic"/>
    </filter>
    <filter id="Key_Activities" x="349.285" y="9.299" width="108.368" height="25.881" filterUnits="userSpaceOnUse">
      <feOffset dy="2" input="SourceAlpha"/>
      <feGaussianBlur result="blur-3"/>
      <feFlood flood-opacity="0.529"/>
      <feComposite operator="in" in2="blur-3"/>
      <feComposite in="SourceGraphic"/>
    </filter>
    <filter id="Objectives" x="167.398" y="426.77" width="105" height="29" filterUnits="userSpaceOnUse">
      <feOffset dy="2" input="SourceAlpha"/>
      <feGaussianBlur result="blur-4"/>
      <feFlood flood-opacity="0.529"/>
      <feComposite operator="in" in2="blur-4"/>
      <feComposite in="SourceGraphic"/>
    </filter>
    <filter id="tactics" x="543.776" y="213.794" width="67.019" height="29.008" filterUnits="userSpaceOnUse">
      <feOffset dy="2" input="SourceAlpha"/>
      <feGaussianBlur result="blur-5"/>
      <feFlood flood-opacity="0.529"/>
      <feComposite operator="in" in2="blur-5"/>
      <feComposite in="SourceGraphic"/>
    </filter>
  </defs>
  <g id="hero-image" transform="translate(-300.706 -201.458)">
    <g id="Group_613" data-name="Group 613" transform="translate(300.707 204.152)">
      <path id="Path_630" data-name="Path 630" d="M2380.79,710.834a40.677,40.677,0,0,1-5.513-.377l.134-.984a39.741,39.741,0,0,0,6.52.351l.03.992Q2381.375,710.834,2380.79,710.834Zm7.823-.762-.193-.974a39.368,39.368,0,0,0,6.28-1.789l.352.929a40.439,40.439,0,0,1-6.442,1.833ZM2368.75,709a40.259,40.259,0,0,1-6.2-2.521l.449-.886a39.242,39.242,0,0,0,6.047,2.458Zm32.349-3.643-.5-.858a39.292,39.292,0,0,0,5.346-3.751l.636.762a39.85,39.85,0,0,1-5.491,3.847Zm-44.244-2.4a40.79,40.79,0,0,1-4.564-3.936l-.469-.476.712-.692.458.465a39.847,39.847,0,0,0,4.454,3.84Zm54.5-6.143-.751-.649a39.473,39.473,0,0,0,3.839-5.281l.848.515a40.286,40.286,0,0,1-3.941,5.42Zm-63.774-3.447a40.2,40.2,0,0,1-3.328-5.811l.9-.42a39.115,39.115,0,0,0,3.244,5.667Zm70.691-7.961-.923-.367a39.514,39.514,0,0,0,1.9-6.248l.97.209a40.307,40.307,0,0,1-1.954,6.411Zm-76.33-4.132a40.564,40.564,0,0,1-1.239-6.579l.987-.1a39.55,39.55,0,0,0,1.209,6.417Zm79.127-8.912-.991-.046q.041-.9.041-1.8a39.48,39.48,0,0,0-.284-4.723l.987-.121a40.61,40.61,0,0,1,.291,4.844c-.013.62-.023,1.235-.053,1.851Zm-79.513-4.3-.991-.061a40.47,40.47,0,0,1,.966-6.625l.967.224a39.351,39.351,0,0,0-.948,6.469Zm76.967-8.669a39.158,39.158,0,0,0-2.357-6.09l.894-.435a40.234,40.234,0,0,1,2.416,6.244Zm-74.028-4.007-.916-.381a39.937,39.937,0,0,1,3.08-5.942l.839.529a38.858,38.858,0,0,0-3.008,5.8Zm68.333-7.694a39.649,39.649,0,0,0-4.223-4.982l.7-.7a40.654,40.654,0,0,1,4.33,5.107Zm-61.405-3.317-.742-.661q.777-.87,1.611-1.705a40.851,40.851,0,0,1,3.237-2.91l.623.772a40.086,40.086,0,0,0-3.158,2.839q-.814.822-1.584,1.672Zm53.248-5.112a39.149,39.149,0,0,0-5.5-3.523l.465-.878a40.231,40.231,0,0,1,5.634,3.612Zm-43.113-3.053-.486-.865a40.045,40.045,0,0,1,6.092-2.778l.335.935a39.254,39.254,0,0,0-5.949,2.714Zm31.614-3.028a39.507,39.507,0,0,0-6.349-1.526l.152-.981a40.416,40.416,0,0,1,6.508,1.565Zm-19.363-1.365-.175-.978a40.655,40.655,0,0,1,6.664-.635l.011.993a39.666,39.666,0,0,0-6.509.627Z" transform="translate(-1748.215 -508.402)" fill="#9192ff"/>
      <path id="Path_631" data-name="Path 631" d="M2117.42,955.165l-.136-.985a20.3,20.3,0,0,0,6.153-1.881l.438.891A21.258,21.258,0,0,1,2117.42,955.165Zm-6.746-.131a21.25,21.25,0,0,1-6.37-2.223l.472-.873a20.23,20.23,0,0,0,6.073,2.119Zm18.712-5.735-.7-.708.191-.188a20.4,20.4,0,0,0,3.658-4.973l.88.461a21.332,21.332,0,0,1-3.838,5.214Zm-30.441-.59a21.3,21.3,0,0,1-3.823-5.564l.9-.424a20.285,20.285,0,0,0,3.643,5.3Zm36.615-11.22-.98-.162a20.544,20.544,0,0,0,.043-6.436l.982-.15a21.52,21.52,0,0,1-.045,6.748Zm-42.324-.824a21.519,21.519,0,0,1,.217-6.745l.975.187a20.565,20.565,0,0,0-.208,6.433Zm39.423-11.9a20.38,20.38,0,0,0-3.778-5.208l.7-.7a21.318,21.318,0,0,1,3.964,5.462Zm-36.033-.7-.867-.483a21.376,21.376,0,0,1,3.575-4.727q.293-.295.6-.576l.676.728q-.29.268-.571.55a20.346,20.346,0,0,0-3.409,4.5Zm27.975-7.787a20.272,20.272,0,0,0-6.016-2.276l.2-.972a21.248,21.248,0,0,1,6.311,2.387Zm-18.646-.845-.413-.9a21.332,21.332,0,0,1,6.5-1.8l.111.987a20.328,20.328,0,0,0-6.193,1.71Z" transform="translate(-1572.594 -708.877)" fill="#9192ff"/>
      <path id="Path_632" data-name="Path 632" d="M2406.33,1080.77a12.525,12.525,0,1,1,12.525-12.525,12.525,12.525,0,0,1-12.525,12.525Zm0-24.053a11.535,11.535,0,1,0,0-.007Z" transform="translate(-1786.005 -810.348)" fill="#9192ff"/>
      <path id="Path_633" data-name="Path 633" d="M1254.35,235.784a12.524,12.524,0,1,1,12.524-12.524,12.524,12.524,0,0,1-12.524,12.524Zm0-24.055a11.531,11.531,0,1,0,11.531,11.531A11.531,11.531,0,0,0,1254.35,211.729Z" transform="translate(-968.537 -210.736)" fill="#9192ff"/>
      <path id="Path_634" data-name="Path 634" d="M313.231,903.347a12.524,12.524,0,1,1,12.523-12.524,12.524,12.524,0,0,1-12.523,12.524Zm0-24.055a11.531,11.531,0,1,0,11.531,11.531,11.531,11.531,0,0,0-11.531-11.531Z" transform="translate(-300.707 -684.449)" fill="#9192ff"/>
      <path id="Path_635" data-name="Path 635" d="M2275.49,410.1l-19.426-19.426,19.426-19.426,19.426,19.426Zm-18.021-19.426,18.022,18.022,18.021-18.022-18.021-18.022Z" transform="translate(-1688.257 -324.637)" fill="#9192ff"/>
      <path id="Path_636" data-name="Path 636" d="M421.021,472.855l-4.681-4.681.7-.7,4.681,4.681Zm5.383-2.98-.7-.7,4.681-4.681.7.7Zm-14.745-6.382-4.681-4.681.7-.7,4.681,4.681Zm24.106-2.981-.7-.7,4.681-4.681.7.7Zm-33.465-6.38-4.681-4.681.7-.7L403,453.43Zm42.83-2.98-.7-.7,4.681-4.681.7.7Zm-52.191-6.382-4.681-4.681.7-.7,4.681,4.681Zm61.553-2.98-.7-.7,4.681-4.681.7.7Zm2.7-5.96-4.681-4.681.7-.7,4.681,4.681Zm-69.511-.421-.7-.7,4.681-4.681.7.7Zm60.149-8.941-4.681-4.681.7-.7,4.681,4.681Zm-50.787-.421-.7-.7,4.681-4.681.7.7Zm41.426-8.94-4.681-4.681.7-.7,4.681,4.681Zm-32.064-.421-.7-.7,4.681-4.681.7.7Zm22.7-8.941-4.681-4.681.7-.7,4.681,4.681Zm-13.34-.421-.7-.7,4.681-4.681.7.7Z" transform="translate(-361.924 -346.417)" fill="#9192ff"/>
    </g>
    <g id="Group_618" data-name="Group 618" transform="translate(403.99 262.901)">
      <path id="Path_649" data-name="Path 649" d="M826.079,449.374a22.65,22.65,0,0,0-8.295,8.182L792.507,413.05,656.385,490.36,733.7,626.493l50.574-28.723a22.741,22.741,0,0,0,2.891,12.731c7.016,12.353,24.378,15.738,38.791,7.552s20.4-24.832,13.383-37.184a22.743,22.743,0,0,0-9.453-9l39.936-22.682-25.389-44.7a22.652,22.652,0,0,0,11.276-2.933c12.353-7.016,15.739-24.378,7.552-38.791S838.431,442.358,826.079,449.374Z" transform="translate(-656.385 -413.05)" fill="#dfe0ff"/>
      <g id="Group_617" data-name="Group 617" transform="translate(9.467 28.776)" opacity="0.6">
        <path id="Path_650" data-name="Path 650" d="M1190.55,536.747c-15.387,4.411-33.271,20.4-49.68,10.726-7.562-4.457-10.657-12.816-6.13-20.663,2.952-5.118,7.34-9.575,11.68-13.877l-.448-.788c-2.741,2.845-5.455,5.715-8.051,8.689-4.159,4.765-7.813,10.738-5.966,17.3,1.649,5.857,6.943,10.206,12.557,12.093,7.264,2.44,15.17.606,22.084-2.094,8.54-3.334,16.392-8.426,25.327-10.735a31.342,31.342,0,0,1,10.143-.936q-.231-.533-.481-1.064a33.28,33.28,0,0,0-11.035,1.349Z" transform="translate(-1002.974 -512.145)" fill="#fff"/>
        <path id="Path_651" data-name="Path 651" d="M1211.25,724.112c-15.711,2.34-34.143,8.778-39.117,25.723-4.442,15.134,7.17,29.047,20.547,34.525a41.764,41.764,0,0,0,11.087,2.781l1.477-.839a42.472,42.472,0,0,1-10.439-2.194c-14.342-5.05-27.093-19.973-21.119-35.782,5.817-15.393,21.517-20.286,36.5-22.891l-.457-.8a23,23,0,0,0,7.786-1.343C1215.41,723.554,1213.3,723.806,1211.25,724.112Z" transform="translate(-1031.153 -661.975)" fill="#fff"/>
        <path id="Path_652" data-name="Path 652" d="M813.961,847.443l1.427-.811c8.076-19.686,14.076-40.261,11.662-61.736-1.493-13.284-6.287-26.785-15.471-36.737-3.9-4.223-8.744-7.838-14.4-9.247-6.19-1.544-12.476.013-17.984,2.991-12.177,6.585-20.516,20.783-34.17,24.587l.44.774c5.951-1.9,11.44-5.852,16.154-10.022,10.541-9.322,23.447-22.973,38.93-16.12,12.96,5.736,20.546,20.918,23.757,33.979C830.421,799.955,823.5,824.387,813.961,847.443Z" transform="translate(-728.756 -672.633)" fill="#fff"/>
        <path id="Path_653" data-name="Path 653" d="M752.163,556.8c-3.533,6.167-9.686,10.965-15.359,15.063a91.915,91.915,0,0,1-20.26,11.051c-9.216,3.612-20.118,5.887-27.556,12.573l.483.85c4.749-4.36,11.031-6.788,17.083-8.876,7.565-2.609,14.982-5.2,21.984-9.147A90.923,90.923,0,0,0,746.668,565c3.8-3.624,7.484-7.948,8.516-13.251a18.228,18.228,0,0,0-3.279-14.046l-1.006.571C754.641,543.7,755.961,550.175,752.163,556.8Z" transform="translate(-688.988 -530.287)" fill="#fff"/>
      </g>
      <g transform="matrix(1, 0, 0, 1, -103.28, -61.44)" filter="url(#Goals)">
        <text id="Goals-2" data-name="Goals" transform="matrix(0.88, -0.47, 0.47, 0.88, 161.39, 144.67)" fill="#fff" font-size="22" font-family="Lato-Bold, Lato" font-weight="700"><tspan x="0" y="0">Goals</tspan></text>
      </g>
    </g>
    <g id="Group_632" data-name="Group 632" transform="translate(828.121 530.814)">
      <g id="Group_625" data-name="Group 625" transform="translate(18.177)">
        <path id="Path_669" data-name="Path 669" d="M2290.97,1336.99a10.752,10.752,0,0,0-4.533,3.684,6.61,6.61,0,0,0-.893,5.644c.442,1.3,1.382,2.481,1.332,3.85a4.892,4.892,0,0,1-1.6,3.012,9.854,9.854,0,0,0-2.155,2.716,2.519,2.519,0,0,0,.7,3.117c.371.222.858.343,1.035.738.247.552-.3,1.1-.711,1.546a4.5,4.5,0,0,0,4.216,7.467l27.669-10.727c1.338-1.507.826-3.871-.008-5.707a4.838,4.838,0,0,0-.747-1.253,5.422,5.422,0,0,0-1.344-.99l-2.929-1.723a2.825,2.825,0,0,1-1.136-.981c-.563-1.04.264-2.55-.535-3.422-.555-.606-1.587-.5-2.2-1.054s-.554-1.546-.709-2.378c-.563-3.016-4.769-4.32-7.164-4.674a13.763,13.763,0,0,0-8.288,1.135Z" transform="translate(-2282.873 -1335.663)" fill="#ffa121"/>
        <path id="Path_670" data-name="Path 670" d="M2342.83,1386.19l-6.461,5.561-1.734-2.027-4.846-5.639,2.7-2.318,3.758-3.232Z" transform="translate(-2316.166 -1366.089)" fill="#ffbc96"/>
        <path id="Path_671" data-name="Path 671" d="M2334.64,1396.46l-4.845-5.64,2.7-2.317,3.76-.476A12.715,12.715,0,0,1,2334.64,1396.46Z" transform="translate(-2316.168 -1372.822)" fill="#1b1b43"/>
        <path id="Path_672" data-name="Path 672" d="M2317.47,1351.73c1.9,4.579.27,10.343-2.5,11.493-2.865,1.189-6.8-.318-10.182-6.231-2.463-4.3-.464-8.475,3.039-9.928S2315.56,1347.15,2317.47,1351.73Z" transform="translate(-2297.646 -1343.377)" fill="#ffbc96"/>
        <path id="Path_673" data-name="Path 673" d="M2312.75,1349.82a1.791,1.791,0,0,0-1.063-.524,2.591,2.591,0,0,0-1.179.5,1.078,1.078,0,0,1-1.2.068,2.44,2.44,0,0,1-.437-.593,1.566,1.566,0,0,0-1.021-.762.934.934,0,0,0-.992.682,8.535,8.535,0,0,0-.076,1.119,1.139,1.139,0,0,1-1.094,1.037c-.468-.04-.958-.453-1.367-.173-.376.258-.382.909-.3,1.425a2.105,2.105,0,0,1-.112,1.511,1,1,0,0,1-.983.313,2.179,2.179,0,0,0-1.047-.018.8.8,0,0,0-.454.98,3.93,3.93,0,0,1-.71-1.665,6.312,6.312,0,0,1-.042-1.667c.3-3.372,2.263-6.446,4.874-7.637a7.645,7.645,0,0,1,1.455-.486,8.924,8.924,0,0,1,6.685,1.151,7.048,7.048,0,0,1,2.341,2.244,6.612,6.612,0,0,1,.96,3.531,2.89,2.89,0,0,1-.942,2.366c-.322.211-1.183.478-1.53.238-.413-.285-.2-.489-.223-.987a3.864,3.864,0,0,0-1.544-2.653Z" transform="translate(-2295.476 -1341.373)" fill="#ffa121"/>
        <circle id="Ellipse_81" data-name="Ellipse 81" cx="2.468" cy="2.468" r="2.468" transform="translate(17.291 7.912)" fill="#ffbc96"/>
      </g>
      <g id="Group_628" data-name="Group 628" transform="translate(27.752 43.711)">
        <g id="Group_626" data-name="Group 626" transform="translate(0 6.698)">
          <path id="Path_674" data-name="Path 674" d="M2353.77,1754.69l.6,9.464-18.314.043,8.224-7.922-.433-5.239,9.832-.891Z" transform="translate(-2330.19 -1680.198)" fill="#1b1b43"/>
          <path id="Path_675" data-name="Path 675" d="M2354.2,1522.95l-2.555,2.82-3.019,3.336-3.217,3.548-11.518,12.723,7.8,37.071H2326.81l-9.7-28.65a23.526,23.526,0,0,1,4.131-22.573l9.969-12.1,4.82-5.852,3.574-1.681,4.925-2.33,3.615,5.11Z" transform="translate(-2315.844 -1509.258)" fill="#3335cf"/>
        </g>
        <path id="Path_676" data-name="Path 676" d="M2421.72,1558.08l-6.236,6.884c-1.792-3.442-.719-8.359,1.849-10.172Z" transform="translate(-2385.92 -1534.869)" fill="#1b1b43"/>
        <g id="Group_627" data-name="Group 627" transform="translate(22.532)">
          <path id="Path_677" data-name="Path 677" d="M2558.44,1728.33l5.578,7.669-15.44,9.85,2.7-11.1-3.171-4.19,7.828-6.02Z" transform="translate(-2503.189 -1655.327)" fill="#1b1b43"/>
          <path id="Path_678" data-name="Path 678" d="M2449.43,1555.38l-2.224,1.576-7.97,5.64-3.376,2.383-15.94-26.823c-4.9-5.415-10.42-14.616-16.232-25.42-2.065-3.853-4.17-7.917-6.3-12.088q-1.351-2.681-2.728-5.428c-.41-.794-.808-1.6-1.218-2.409l5.64-2.4,9.917-4.223,1.576,2.688,1.364,2.357Z" transform="translate(-2393.438 -1486.192)" fill="#3335cf"/>
        </g>
        <path id="Path_679" data-name="Path 679" d="M2394.41,1497.8c-2.753,2.794-10.6,10.023-14.833,11.3a21.752,21.752,0,0,1-10.839.219l4.819-5.852,3.575-1.681c-.41-.8-.808-1.6-1.218-2.41l5.64-2.4,11.492-1.536Z" transform="translate(-2353.376 -1492.758)" fill="#1b1b43" opacity="0.6"/>
      </g>
      <g id="Group_631" data-name="Group 631" transform="translate(0 19.132)">
        <g id="Group_629" data-name="Group 629" transform="translate(0.417 2.573)">
          <path id="Path_680" data-name="Path 680" d="M2227.83,1438.06s-5.958-8.164-6.068-6.289c-.079,1.342-.094,6.923.125,10.214a2.4,2.4,0,0,0,2.354,2.236l3.753.069Z" transform="translate(-2221.711 -1425.368)" fill="#d28572"/>
          <path id="Path_681" data-name="Path 681" d="M2272.88,1410.41l-12.579,14.837-22.176-3.31-.662,9.764,20.307,4.528a8.157,8.157,0,0,0,7.328-1.987l20.358-18.925Z" transform="translate(-2232.89 -1410.41)" fill="#d1d1ff"/>
        </g>
        <path id="Path_682" data-name="Path 682" d="M2358.61,1439.42a4.4,4.4,0,0,1-5.653-2.794c-.543-1.576-1.231-3.3-1.973-5.084-1.192-2.913-2.516-6.05-3.548-9.2-2.211-6.725-3.111-13.531,1.337-18.416a6.911,6.911,0,0,1,6.1-2.3c3.39.53,8.5,3.35,13.875,13.65a21.237,21.237,0,0,0,5.6,6.818c1.853,1.456,3.853,3.283,4.422,4.7C2380.16,1430.29,2366.13,1436.67,2358.61,1439.42Z" transform="translate(-2309.209 -1401.548)" fill="#d1d1ff"/>
        <path id="Path_683" data-name="Path 683" d="M2360.79,1450.58a29.928,29.928,0,0,1-5.336,15.755c-1.192-2.912-2.515-6.05-3.548-9.2Z" transform="translate(-2313.683 -1436.342)" fill="#1b1b43"/>
        <path id="Path_684" data-name="Path 684" d="M2347.03,1436.66c-.141-.467-.292-.945-.446-1.433-1.327-4.206-2.977-9.44-.819-15.613l.5.175c-2.1,6.007-.546,10.932.824,15.278.154.49.3.97.447,1.438Z" transform="translate(-2308.583 -1414.365)" fill="#9192ff"/>
        <g id="Group_630" data-name="Group 630" transform="translate(0 3.177)">
          <path id="Path_685" data-name="Path 685" d="M2226.76,1459.43s-6.289-9.157-6.4-7.281c-.079,1.341-.275,7.671.512,10.6a2.628,2.628,0,0,0,2.354,2.236l3.753.069Z" transform="translate(-2220.276 -1440.451)" fill="#ffbc96"/>
          <path id="Path_686" data-name="Path 686" d="M2278.01,1412.49l-17.708,20.521-22.176-3.31-.662,9.764,20.307,4.528a8.156,8.156,0,0,0,7.328-1.987l20.358-18.925Z" transform="translate(-2232.472 -1412.49)" fill="#d1d1ff"/>
          <path id="Path_687" data-name="Path 687" d="M2261.93,1437.33l-22.32-3.33.078-.525,22.031,3.29,15.9-18.588.4.346Z" transform="translate(-2233.996 -1416.528)" fill="#9192ff"/>
        </g>
      </g>
    </g>
    <g id="Group_634" data-name="Group 634" transform="translate(672.047 473.266)">
      <path id="Path_688" data-name="Path 688" d="M1839.36,1172.89v156.557H1682.8v-51.29a22.781,22.781,0,0,0,11.253,3.005c14.206,0,25.724-13.425,25.724-29.987s-11.518-30-25.724-30a22.65,22.65,0,0,0-11.253,3.019v-51.3h56.268a22.491,22.491,0,0,1-2.2-9.678c0-14.206,13.425-25.724,30-25.724s30,11.518,30,25.724a22.486,22.486,0,0,1-2.2,9.678h44.683Z" transform="translate(-1682.803 -1137.486)" fill="#9192ff"/>
      <g id="Group_633" data-name="Group 633" transform="translate(28.221 3.227)" opacity="0.6">
        <path id="Path_689" data-name="Path 689" d="M1808.93,1254.12c.05.35.092.7.131,1.057,12.339,3.2,27.549,11.359,38.146-.119,4.121-4.463,6.271-10.512,7.509-16.359a88.443,88.443,0,0,0,1.557-24.492c-.575-8.068-2.532-15.711-4.567-23.5-2.282-8.741-3.537-17.723,1.076-25.944,4.426-7.889,11.406-12.61,19.349-15.557q-.6-.317-1.213-.61a41.241,41.241,0,0,0-12.29,7.465,29.6,29.6,0,0,0-9.475,15.354c-1.787,8.011.672,16.118,2.744,23.814a97.135,97.135,0,0,1,3.586,27.762c-.2,8.187-1.161,16.9-4.564,24.449-3.529,7.828-10.1,13.065-18.987,12.659C1823.95,1259.74,1816.6,1256.06,1808.93,1254.12Z" transform="translate(-1800.526 -1148.598)" fill="#fff"/>
        <path id="Path_690" data-name="Path 690" d="M1908.32,1645.92c-8.952,10.164-24.06,12.706-37.053,12.33-24.176-.7-52.987-11.562-75.021,3.425-9.642,6.559-14.783,17.3-16.262,28.564H1781c1.411-10.594,6.082-20.749,14.968-27.158,21.924-15.811,51.482-4.39,75.847-3.826,11.949.277,24.694-1.744,34.125-9.661a29.333,29.333,0,0,0,2.384-2.263v-1.411Z" transform="translate(-1779.988 -1501.505)" fill="#fff"/>
        <path id="Path_691" data-name="Path 691" d="M2161.47,1259.4h-1.288c-.207.335-.42.667-.621,1.006-13.034,22.065-10.535,50.416,4.613,70.694,2.46,3.293,5.177,6.747,7.522,10.347v-2.025c-2.132-3.006-4.467-5.883-6.664-8.823a62.716,62.716,0,0,1-10.521-55.871A57.587,57.587,0,0,1,2161.47,1259.4Z" transform="translate(-2043.355 -1227.225)" fill="#fff"/>
      </g>
      <g transform="matrix(1, 0, 0, 1, -371.34, -271.81)" filter="url(#Strategies)">
        <text id="Strategies-2" data-name="Strategies" transform="translate(403.57 343.77)" fill="#fff" font-size="22" font-family="Lato-Bold, Lato" font-weight="700"><tspan x="0" y="0">Strategies </tspan></text>
      </g>
    </g>
    <g id="Group_642" data-name="Group 642" transform="translate(627.753 201.458)">
      <g id="Group_637" data-name="Group 637" transform="translate(60.408 212.988)">
        <g id="Group_635" data-name="Group 635" transform="translate(0 0.105)">
          <path id="Path_692" data-name="Path 692" d="M1718.64,1225.22l-14.784.044,7.062-6.133-.221-7.28,6.618-.639Z" transform="translate(-1703.86 -1131.086)" fill="#1b1b43"/>
          <path id="Path_693" data-name="Path 693" d="M1736.83,938.161c-.013.079-.013.146-.026.225-.516,4.5-.98,9.307-1.43,14.378s-.861,10.38-1.284,15.914c-1.192,15.7-2.343,33.1-3.879,51.118H1718.3c.437-24.586.424-47.954,2.86-69.4q.675-6.116,1.668-12.008c.172-1.033.358-2.065.543-3.1l6.17,1.311Z" transform="translate(-1714.107 -935.288)" fill="#fe5b52"/>
        </g>
        <g id="Group_636" data-name="Group 636" transform="translate(15.275)">
          <path id="Path_694" data-name="Path 694" d="M1817.64,1224.22l-14.8.043,5.9-6.574-1.545-7.5,7.062-.386Z" transform="translate(-1789.373 -1129.981)" fill="#1b1b43"/>
          <path id="Path_695" data-name="Path 695" d="M1784.44,1019.54h-12.352c-3.8-15.663-7.719-32.7-10.909-51.1v-.013q-1.41-7.944-2.582-16.232c-.649-4.607-1.258-9.294-1.774-14.06q-.119-.894-.2-1.787c-.053-.464-.106-.94-.159-1.417l16.284,1.2c.04.675.093,1.337.146,2,.344,4.832.781,9.572,1.285,14.246C1776.67,975.466,1780.85,996.939,1784.44,1019.54Z" transform="translate(-1756.462 -934.927)" fill="#fe5b52"/>
        </g>
        <path id="Path_696" data-name="Path 696" d="M1754.09,960.2a90.3,90.3,0,0,1-11.717.132c-1.3-.079-2.6-.172-3.866-.318a49.24,49.24,0,0,1-10.353-2.052q.675-6.116,1.668-12.008h22.984C1753.15,950.789,1753.58,955.529,1754.09,960.2Z" transform="translate(-1721.099 -942.754)" fill="#be443d"/>
        <rect id="Rectangle_275" data-name="Rectangle 275" width="15.645" height="0.531" transform="translate(18.349 22.841) rotate(79.642)" fill="#1b1b43"/>
      </g>
      <path id="Path_697" data-name="Path 697" d="M1619.15,743.36a20.588,20.588,0,0,1-.993-6.521h8.175l-.851,6.615-2.293.405Z" transform="translate(-1582.622 -581.372)" fill="#d28572"/>
      <g id="Group_638" data-name="Group 638" transform="translate(35.419 162.011)">
        <path id="Path_698" data-name="Path 698" d="M1627.96,759.488l-6.337-.11.649,6.456c1.725-.452,4.594-2.585,6.534-3.113Z" transform="translate(-1620.517 -759.378)" fill="#d28572"/>
        <path id="Path_699" data-name="Path 699" d="M1650.52,793.025,1630.32,787l-4.219-16.113c-1.94.528-6.568,2.064-8.294,2.516l2.517,15.649a9.762,9.762,0,0,0,1.461,3.886,8.7,8.7,0,0,0,3.773,3.154l26.173,9.177Z" transform="translate(-1617.806 -767.546)" fill="#3335cf"/>
        <path id="Path_700" data-name="Path 700" d="M1714.11,878.557l4.3,1.483-.107-2.966Z" transform="translate(-1686.145 -842.897)" fill="#1b1b43"/>
      </g>
      <path id="Path_701" data-name="Path 701" d="M1913.01,747.092a20.6,20.6,0,0,0,.992-6.521h-8.175l.851,6.615,2.293.405Z" transform="translate(-1786.77 -584.021)" fill="#d28572"/>
      <g id="Group_639" data-name="Group 639" transform="translate(91.955 163.095)">
        <path id="Path_702" data-name="Path 702" d="M1906.65,763.221l6.337-.11-.477,6.382c-1.725-.452-4.766-2.512-6.706-3.04Z" transform="translate(-1878.711 -763.111)" fill="#d28572"/>
        <path id="Path_703" data-name="Path 703" d="M1847.89,777.134l-2.516,15.649a9.777,9.777,0,0,1-1.456,3.892,8.8,8.8,0,0,1-3.773,3.151l-22.123,7.626-4.3,1.483-1.218.424.993-13.69,21.885-4.938,4.224-16.112c1.5.41,4.634,1.43,6.766,2.078C1846.97,776.883,1847.51,777.029,1847.89,777.134Z" transform="translate(-1812.5 -771.277)" fill="#3335cf"/>
        <path id="Path_704" data-name="Path 704" d="M1820.99,884.066l-4.3,1.483.108-2.965Z" transform="translate(-1815.473 -847.89)" fill="#1b1b43"/>
      </g>
      <path id="Path_705" data-name="Path 705" d="M1750.48,844.18c-7.315-1.159-18.424-1.972-25.262-.11l-.6,26.131a9.819,9.819,0,0,1-.442,2.8c-.948,3.045-1.735,5.159,1.853,6.31a44.728,44.728,0,0,0,13.035,1.7c2.791.015,10.591.5,11.878-2.742.641-1.612-.648-5.568-.709-7.544-.1-3.123.293-10.757.33-13.881C1750.57,855.955,1750.48,844.18,1750.48,844.18Z" transform="translate(-1657.3 -656.682)" fill="#3335cf"/>
      <g id="Group_640" data-name="Group 640" transform="translate(72.318 164.474)">
        <path id="Path_706" data-name="Path 706" d="M1762.68,832.221h0a4.188,4.188,0,0,1-4.188-4.188v-6.639h8.375v6.639a4.187,4.187,0,0,1-4.188,4.188Z" transform="translate(-1754.535 -805.849)" fill="#d28572"/>
        <path id="Path_707" data-name="Path 707" d="M1766.84,827.551c-2.048,5.585-6.082,4.7-8.378.042l3.661-1.055Z" transform="translate(-1754.513 -809.498)" fill="#1b1b43"/>
        <path id="Path_708" data-name="Path 708" d="M1763.8,788.9c-.023,5.515-3.611,8.19-6.313,8.19-2.523,0-6.164-2.29-6.313-8.19-.114-4.522,2.826-8.19,6.313-8.19S1763.82,784.382,1763.8,788.9Z" transform="translate(-1749.342 -776.982)" fill="#d28572"/>
        <path id="Path_709" data-name="Path 709" d="M1747.61,778.755a7.551,7.551,0,0,1,2.248-4.138,1.468,1.468,0,0,0,2.532-.411,1.442,1.442,0,0,0,2.709.217,1.251,1.251,0,0,0,2.255.179,6.171,6.171,0,0,1,2.21,4.512l1.234.636a5.716,5.716,0,0,0,.795-2.584,4.138,4.138,0,0,0-.118-1.358c-.082-.29-.42-.738-.246-1.027.311-.515.826-1.187.633-1.917-.054-.2-1.029-1.235-1.265-.935a1.25,1.25,0,0,0-.49-1.626,1.9,1.9,0,0,0-1.286-.2,1.572,1.572,0,0,0-1.373-1.616,3.617,3.617,0,0,0-2.04.676,1.721,1.721,0,0,0-1.1-1.239,1.4,1.4,0,0,0-1.455.489,1.293,1.293,0,0,0-1.427-.493,1.64,1.64,0,0,0-1,1.311,1.568,1.568,0,0,0-1.785,0,2.29,2.29,0,0,0-.893,1.849,1.841,1.841,0,0,0-1.372,1.437,2.29,2.29,0,0,0,.553,2.079,5.328,5.328,0,0,0-.323,4.83Z" transform="translate(-1745.799 -767.858)" fill="#1b1b43"/>
        <ellipse id="Ellipse_82" data-name="Ellipse 82" cx="1.619" cy="1.934" rx="1.619" ry="1.934" transform="translate(0 9.861)" fill="#d28572"/>
        <ellipse id="Ellipse_83" data-name="Ellipse 83" cx="1.697" cy="1.886" rx="1.697" ry="1.886" transform="translate(12.841 9.861)" fill="#d28572"/>
      </g>
      <g id="Group_641" data-name="Group 641">
        <path id="Path_710" data-name="Path 710" d="M1652.39,201.458V358.015h-44.683a22.486,22.486,0,0,0,2.2-9.678c0-14.206-13.438-25.724-30-25.724s-30,11.518-30,25.724a22.485,22.485,0,0,0,2.2,9.678h-56.268V306.606a22.651,22.651,0,0,0,11.253,3.019c14.206,0,25.725-13.425,25.725-30s-11.518-30-25.725-30a22.651,22.651,0,0,0-11.253,3.019V201.458Z" transform="translate(-1495.833 -201.458)" fill="#ffa121"/>
        <path id="Path_711" data-name="Path 711" d="M1652.39,246.987a62.613,62.613,0,0,0-24.112-3.74,52.1,52.1,0,0,0-28.266,10.484c-8.464,6.4-14.19,15.029-18.067,24.82-4.482,11.319-6.781,23.407-11.952,34.469a90.913,90.913,0,0,1-18.261,25.8,95.318,95.318,0,0,1-55.9,27.2V367a95.454,95.454,0,0,0,47.028-19.133c16.644-12.739,27.488-29.784,33.694-49.64,3.639-11.643,6.676-23.9,14.132-33.814A51.617,51.617,0,0,1,1619.5,245.54c11.294-2.754,22.342-1.122,32.891,2.561v-1.118Z" transform="translate(-1495.833 -231.052)" fill="#fff" opacity="0.6"/>
      </g>
      <path id="Path_712" data-name="Path 712" d="M1639.89,734.725s3.839-9.67,2.657-10.426-3.4,4.678-4.016,8.553Z" transform="translate(-1597.093 -572.423)" fill="#d28572"/>
      <path id="Path_713" data-name="Path 713" d="M1901.91,738.456s-3.839-9.67-2.658-10.426,3.4,4.678,4.016,8.553Z" transform="translate(-1781.948 -575.071)" fill="#d28572"/>
      <g transform="matrix(1, 0, 0, 1, -327.05, 0)" filter="url(#Key_Activities)">
        <text id="Key_Activities-2" data-name="Key Activities" transform="translate(349.35 27.3) rotate(1)" fill="#fff8ef" font-size="18" font-family="Lato-Bold, Lato" font-weight="700"><tspan x="0" y="0">Key activities</tspan></text>
      </g>
    </g>
    <g id="Group_644" data-name="Group 644" transform="translate(447.067 508.67)">
      <path id="Path_714" data-name="Path 714" d="M1067.13,1337.69c0,16.562-11.518,29.987-25.724,29.987a22.778,22.778,0,0,1-11.254-3.005v51.29H873.607V1259.41h58.161a22.743,22.743,0,0,0-3.773,12.5c0,14.206,13.425,25.724,30,25.724s30-11.519,30-25.724a22.744,22.744,0,0,0-3.773-12.5h45.928v51.3a22.655,22.655,0,0,1,11.254-3.019C1055.61,1307.69,1067.13,1321.11,1067.13,1337.69Z" transform="translate(-873.605 -1259.407)" fill="#d1d1ff"/>
      <g id="Group_643" data-name="Group 643">
        <path id="Path_715" data-name="Path 715" d="M943.892,1633.1c-.449-13-2.682-26.378-15.02-33.3-21.321-11.958-44.144,3.32-55.27,22.2v1.831a55.864,55.864,0,0,1,16.459-19.111c10.606-7.683,24.442-10.761,36.631-4.941,13.458,6.426,15.778,20.354,16.226,33.868.23,6.951.313,13.9.317,20.858h1C944.229,1647.37,944.139,1640.23,943.892,1633.1Z" transform="translate(-873.602 -1497.951)" fill="#9192ff"/>
        <path id="Path_716" data-name="Path 716" d="M1300.06,1320.62c6.764,6.672,16.595,2.923,23.683-1.078a98.951,98.951,0,0,0,16.607-11.843c-.1,0-.206-.009-.31-.009-.414,0-.824.019-1.233.041a97.891,97.891,0,0,1-15.565,10.954c-5.308,3-12.069,6.174-18.248,3.923-5.452-1.986-8.033-7.548-9.009-12.9-1.924-10.546.732-22.277,4.972-31.963a66.587,66.587,0,0,1,11.99-18.341h-1.308a67.489,67.489,0,0,0-16.932,38.671C1294.03,1305.57,1294.31,1314.96,1300.06,1320.62Z" transform="translate(-1172.238 -1259.407)" fill="#9192ff"/>
        <path id="Path_717" data-name="Path 717" d="M1344.65,1591.69q.56-.266,1.106-.562a42.162,42.162,0,0,0-21.2-12.178,28.722,28.722,0,0,0-29.882,11.254c-7.883,10.6-8.906,24.184-5.724,36.7a78.338,78.338,0,0,0,5.651,15.29h1.237a76.628,76.628,0,0,1-6.213-16.71c-2.877-12.331-1.475-25.695,6.686-35.784,8.076-9.986,20.7-12.8,32.614-8.42A43.728,43.728,0,0,1,1344.65,1591.69Z" transform="translate(-1167.141 -1485.632)" fill="#9192ff"/>
        <path id="Path_718" data-name="Path 718" d="M873.607,1339.07v1.136a66.363,66.363,0,0,0,29.891-34.278,65.668,65.668,0,0,0-.483-46.523h-1.073a63.626,63.626,0,0,1-28.336,79.665Z" transform="translate(-873.605 -1259.407)" fill="#9192ff"/>
      </g>
      <g transform="matrix(1, 0, 0, 1, -146.36, -307.21)" filter="url(#Objectives)">
        <text id="Objectives-2" data-name="Objectives" transform="translate(167.4 448.77)" fill="#fff" font-size="22" font-family="Lato-Bold, Lato" font-weight="700"><tspan x="0" y="0">Objectives</tspan></text>
      </g>
    </g>
    <g id="Group_663" data-name="Group 663" transform="translate(964.82 492.491) rotate(-179.026)">
      <path id="Path_714-2" data-name="Path 714" d="M1067.13,1337.69c0,16.562-11.518,29.987-25.724,29.987a22.778,22.778,0,0,1-11.254-3.005v51.29H873.607V1259.41h58.161a22.743,22.743,0,0,0-3.773,12.5c0,14.206,13.425,25.724,30,25.724s30-11.519,30-25.724a22.744,22.744,0,0,0-3.773-12.5h45.928v51.3a22.655,22.655,0,0,1,11.254-3.019C1055.61,1307.69,1067.13,1321.11,1067.13,1337.69Z" transform="translate(-873.605 -1259.407)" fill="#6ab811"/>
      <g id="Group_643-2" data-name="Group 643">
        <path id="Path_715-2" data-name="Path 715" d="M943.892,1633.1c-.449-13-2.682-26.378-15.02-33.3-21.321-11.958-44.144,3.32-55.27,22.2v1.831a55.864,55.864,0,0,1,16.459-19.111c10.606-7.683,24.442-10.761,36.631-4.941,13.458,6.426,15.778,20.354,16.226,33.868.23,6.951.313,13.9.317,20.858h1C944.229,1647.37,944.139,1640.23,943.892,1633.1Z" transform="translate(-873.602 -1497.951)" fill="#b6e287"/>
        <path id="Path_716-2" data-name="Path 716" d="M1300.06,1320.62c6.764,6.672,16.595,2.923,23.683-1.078a98.951,98.951,0,0,0,16.607-11.843c-.1,0-.206-.009-.31-.009-.414,0-.824.019-1.233.041a97.891,97.891,0,0,1-15.565,10.954c-5.308,3-12.069,6.174-18.248,3.923-5.452-1.986-8.033-7.548-9.009-12.9-1.924-10.546.732-22.277,4.972-31.963a66.587,66.587,0,0,1,11.99-18.341h-1.308a67.489,67.489,0,0,0-16.932,38.671C1294.03,1305.57,1294.31,1314.96,1300.06,1320.62Z" transform="translate(-1172.238 -1259.407)" fill="#b6e287"/>
        <path id="Path_717-2" data-name="Path 717" d="M1344.65,1591.69q.56-.266,1.106-.562a42.162,42.162,0,0,0-21.2-12.178,28.722,28.722,0,0,0-29.882,11.254c-7.883,10.6-8.906,24.184-5.724,36.7a78.338,78.338,0,0,0,5.651,15.29h1.237a76.628,76.628,0,0,1-6.213-16.71c-2.877-12.331-1.475-25.695,6.686-35.784,8.076-9.986,20.7-12.8,32.614-8.42A43.728,43.728,0,0,1,1344.65,1591.69Z" transform="translate(-1167.141 -1485.632)" fill="#b6e287"/>
        <path id="Path_718-2" data-name="Path 718" d="M873.607,1339.07v1.136a66.363,66.363,0,0,0,29.891-34.278,65.668,65.668,0,0,0-.483-46.523h-1.073a63.626,63.626,0,0,1-28.336,79.665Z" transform="translate(-873.605 -1259.407)" fill="#b6e287"/>
      </g>
      <g transform="matrix(-1, 0.02, -0.02, -1, 668.87, 279.66)" filter="url(#tactics)">
        <text id="tactics-2" data-name="tactics" transform="translate(543.78 235.8)" fill="#fff" font-size="22" font-family="Lato-Bold, Lato" font-weight="700"><tspan x="0" y="0">Tactics</tspan></text>
      </g>
    </g>
    <g id="Group_660" data-name="Group 660" transform="translate(383.252 378.901)">
      <g id="Group_616" data-name="Group 616" transform="translate(14.309 131.957)">
        <path id="Path_647" data-name="Path 647" d="M719.614,867.472,701.52,889.1l-7.11,3.413,6.4,8.888,3.579-1.93a27.619,27.619,0,0,0,9.488-9.488l8.385-15Z" transform="translate(-673.938 -867.472)" fill="#ffbc96"/>
        <path id="Path_648" data-name="Path 648" d="M623.91,963.52l10.812,7.723,17.432-6.84-7.772-10.709Z" transform="translate(-623.91 -928.656)" fill="#92d050"/>
      </g>
      <g id="Group_619" data-name="Group 619" transform="translate(11.115 142.904)">
        <path id="Path_654" data-name="Path 654" d="M670.224,940.126s2.426,2.572,2.3,3.2-2.717,1.213-2.717,1.213Z" transform="translate(-653.289 -929.975)" fill="#d28572"/>
        <rect id="Rectangle_274" data-name="Rectangle 274" width="10.049" height="11.942" transform="translate(3.466 15.193)" fill="#ffbc96"/>
        <path id="Path_655" data-name="Path 655" d="M640.934,957.492v8.262c-3.416-.556-5.922-2.846-7.577-7.149l4.1-1.112Z" transform="translate(-627.42 -942.298)" fill="#1b1b43"/>
        <path id="Path_656" data-name="Path 656" d="M634.727,920.839s4.367,15.626-4.27,15.334c-6.323-.213-9.608-6.7-9.608-6.7l4.755-8.735Z" transform="translate(-618.544 -916.22)" fill="#ffbc96"/>
        <path id="Path_657" data-name="Path 657" d="M624.29,917.6a5.506,5.506,0,0,1,1.31-5.823c4.239,1.271,7.254.279,8.686-3.639,0,0-4.2,1.058-7.133-1.65-3.106-2.863-9.22-.437-9.754,1.359-6.127,2.273-5.483,7.861-1.067,14.655,1.116-2.475,3.766-3.463,6.406-4.173Z" transform="translate(-612.911 -905.17)" fill="#1b1b43"/>
        <ellipse id="Ellipse_80" data-name="Ellipse 80" cx="2.102" cy="2.596" rx="2.102" ry="2.596" transform="translate(6.855 11.148) rotate(-27.711)" fill="#ffbc96"/>
      </g>
      <g id="Group_620" data-name="Group 620" transform="translate(0.501 203.229)">
        <path id="Path_658" data-name="Path 658" d="M598.941,1461.68H587.384l1.014-12.135h9.935Z" transform="translate(-584.183 -1351.788)" fill="#1b1b43"/>
        <path id="Path_659" data-name="Path 659" d="M579.356,1112.91c-3.264,4.947-3.751,16.108-1.986,21.625v79.658h15.667l4.413-92.677Z" transform="translate(-576.362 -1112.91)" fill="#3335cf"/>
        <path id="Path_660" data-name="Path 660" d="M634.339,1161.08a14.916,14.916,0,0,0,3.42,11.336l.331-8.606Z" transform="translate(-617.43 -1147.092)" fill="#1b1b43"/>
      </g>
      <g id="Group_621" data-name="Group 621" transform="translate(4.378 201.242)">
        <path id="Path_661" data-name="Path 661" d="M654.626,1340.75l-3.77,6.717,16.193,9.092L662.688,1346l2.493-4.626-8.654-4.757Z" transform="translate(-633.101 -1269.672)" fill="#1b1b43"/>
        <path id="Path_662" data-name="Path 662" d="M611.778,1106.07l18.37,22.672c4.468,5.792,6.231,11.662,4.137,18.536l-11.085,32.1-13.846-4.91,8.054-34.147c-8.492-7.347-17.989-19.13-27.693-31.83Z" transform="translate(-589.712 -1106.07)" fill="#3335cf"/>
      </g>
      <g id="Group_622" data-name="Group 622" transform="translate(0 165.845)">
        <path id="Path_663" data-name="Path 663" d="M608.109,1001.23a.532.532,0,0,1-.013.146c-.106,1.8-.265,3.575-.463,5.3a86,86,0,0,1-2.687,13.862,2.972,2.972,0,0,1-1.523,1.92,4.8,4.8,0,0,1-1.986.543c-3.1.225-6.17-.7-9.294-.569a39.816,39.816,0,0,0-8.473,1.761c-.6.159-1.191.3-1.8.437-.225.053-.477.093-.728.146a9.256,9.256,0,0,1-4.462-.106,2.99,2.99,0,0,1-1.734-1.377c-.98-1.747.649-4.17,1.139-5.839a61.675,61.675,0,0,0,1.562-6.712,68.6,68.6,0,0,0,.94-14.166,11.834,11.834,0,0,1,10.5-12.207c.039,0,.093-.013.132-.013a38.32,38.32,0,0,1,10.049.344,35.862,35.862,0,0,1,3.945.913h.026a29.3,29.3,0,0,1,5.124,2.012Q608.559,994.737,608.109,1001.23Z" transform="translate(-574.636 -984.172)" fill="#92d050"/>
        <path id="Path_664" data-name="Path 664" d="M680.466,1042.27v.2c-.106,1.8-.265,3.575-.463,5.3-2.264-1.213-3.091-3.7-3.381-5.681C676.608,1042.01,680.466,1042.27,680.466,1042.27Z" transform="translate(-647.006 -1025.256)" fill="#1b1b43"/>
      </g>
      <g id="Group_623" data-name="Group 623" transform="translate(24.559 143.907)">
        <path id="Path_665" data-name="Path 665" d="M719.017,967.4l12.467-1.876,12.4-12.425,5.692,5.254-11.911,13.9a11.052,11.052,0,0,1-7.41,3.818l-18.963,1.7Z" transform="translate(-696.169 -940.187)" fill="#ffbc96"/>
        <path id="Path_666" data-name="Path 666" d="M821.928,921.538l1.459-4.816s.474-5.91,1.24-5.254,1.241,5.144,1.241,5.144,3.064-7.99,4.269-7.99-.912,7.808-.912,7.808,3.283,1.022,3.5,3.356c.125,1.33-5.108,7.005-5.108,7.005l-6.348.438Z" transform="translate(-774.211 -908.623)" fill="#ffbc96"/>
        <path id="Path_667" data-name="Path 667" d="M666.419,989.111a178.508,178.508,0,0,0,18.8,3.843l-1.241,12.247-20.273-.745Z" transform="translate(-662.4 -965.739)" fill="#92d050"/>
        <path id="Path_668" data-name="Path 668" d="M681.992,990.378a179.617,179.617,0,0,1-22.783-4.757l.141-.51a179.167,179.167,0,0,0,22.715,4.743Z" transform="translate(-659.209 -962.9)" fill="#1b1b43"/>
      </g>
    </g>
  </g>
</svg>
