<svg version="1.1" id="Layer_1" xmlns="http://www.w3.org/2000/svg" xmlns:xlink="http://www.w3.org/1999/xlink" x="0px" y="0px" viewBox="0 0 600 599" style="enable-background:new 0 0 600 599;" xml:space="preserve">
<style type="text/css">
	.st0{fill:#4165BF;stroke:#4165BF;}
	.st1{fill:#1A3988;stroke:#1A3988;}
	.st2{fill:#7AC043;stroke:#7AC043;}
    .st3{clip-path:url(#SVGID_2_);}
	.st4{fill:none;stroke:#7AC043;stroke-width:44;stroke-linecap:round;stroke-linejoin:round;}

	svg  {

	    max-width: 200px;
	    margin: 0 auto;
	}

	@keyframes flip_one {

		50%, 70% {

			transform: translate(0px, 0px) rotate(0deg);
		}

		90%, 100% {

			transform: translate(15px, 10px) rotate(-75deg);
		}
	}

	.sub_three path:nth-of-type(1) {

	    transform-origin: 320px 382px;
	    transform: translate(15px, 10px) rotate(-75deg);
	    animation: flip_one 4s ease infinite;
	}

	@keyframes flip_two {

		1% {

			transform: translate(0px, 10px) rotate(70deg);
		}

		51%, 70% {

			transform: translate(0px, 0px) rotate(0deg);
		}

		90%, 100% {

			transform: translate(0px, 10px) rotate(70deg);
		}
	}

	.sub_three path:nth-of-type(2) {

	    transform-origin: 320px 382px;
        transform: translate(0px, 10px) rotate(70deg);
	    animation: flip_two 4s ease infinite;
	}

	@keyframes flip_three {

		2% {

			transform: translate(0px, 10px) rotate(25deg);
		}

		52%, 70% {

			transform: translate(0px, 0px) rotate(0deg);
		}

		90%, 100% {

			transform: translate(0px, 10px) rotate(25deg);
		}
	}

	.sub_three path:nth-of-type(3) {

	    transform-origin: 320px 382px;
        transform: translate(0px, 10px) rotate(25deg);
	    animation: flip_three 4s ease infinite;
	}

	@keyframes flip_four {

		10% {

			transform: translate(0px, 10px) rotate(60deg);
		}

		50%, 70% {

			transform: translate(0px, 0px) rotate(0deg);
		}

		90%, 100% {

			transform: translate(0px, 10px) rotate(60deg);
		}
	}

	.sub_one path:nth-of-type(1) {

	    transform-origin: 320px 352px;
	    transform: translate(0px, 10px) rotate(60deg);
	    animation: flip_four 4s ease infinite;
	}

	@keyframes flip_five {

		10% {

			transform: translate(0px, 10px) rotate(45deg);
		}

		50%, 70% {

			transform: translate(0px, 0px) rotate(0deg);
		}

		90%, 100% {

			transform: translate(0px, 10px) rotate(45deg);
		}
	}

	.sub_one path:nth-of-type(2) {

	    transform-origin: 320px 352px;
	    transform: translate(0px, 10px) rotate(45deg);
	    animation: flip_five 4s ease infinite;
	}

	@keyframes flip_six {

		10% {

			transform: translate(0px, 10px) rotate(10deg);
		}

		50%, 70% {

			transform: translate(0px, 0px) rotate(0deg);
		}

		90%, 100% {

			transform: translate(0px, 10px) rotate(10deg);
		}
	}

	.sub_one path:nth-of-type(3) {

	    transform-origin: 320px 352px;
	    transform: translate(0px, 10px) rotate(10deg);
	    animation: flip_six 4s ease infinite;
	}

	@keyframes flip_seven {

		10% {

			transform: translate(0px, 10px) rotate(-22deg);
		}

		50%, 70% {

			transform: translate(0px, 0px) rotate(0deg);
		}

		90%, 100% {

			transform: translate(0px, 10px) rotate(-22deg);
		}
	}

	.sub_one path:nth-of-type(4) {

	    transform-origin: 320px 352px;
	    transform: translate(0px, 10px) rotate(-22deg);
	    animation: flip_seven 4s ease infinite;
	}

	@keyframes flip_eight {

		10% {

			transform: translate(0px, 10px) rotate(-50deg);
		}

		50%, 70% {

			transform: translate(0px, 0px) rotate(0deg);
		}

		90%, 100% {

			transform: translate(0px, 10px) rotate(-50deg);
		}
	}

	.sub_one path:nth-of-type(5) {

	    transform-origin: 320px 352px;
	    transform: translate(0px, 10px) rotate(-50deg);
	    animation: flip_eight 4s ease infinite;
	}

	@keyframes flip_nine {

		10% {

			transform: translate(0px, 10px) rotate(55deg);
		}

		50%, 70% {

			transform: translate(0px, 0px) rotate(0deg);
		}

		90%, 100% {

			transform: translate(0px, 10px) rotate(55deg);
		}
	}

	.sub_two path:nth-of-type(1) {

	    transform-origin: 320px 352px;
	    transform: translate(0px, 10px) rotate(55deg);
	    animation: flip_nine 4s ease infinite;
	}

	@keyframes flip_ten {

		10% {

			transform: translate(0px, 10px) rotate(30deg);
		}

		50%, 70% {

			transform: translate(0px, 0px) rotate(0deg);
		}

		90%, 100% {

			transform: translate(0px, 10px) rotate(30deg);
		}
	}

	.sub_two path:nth-of-type(2) {

	    transform-origin: 320px 352px;
	    transform: translate(0px, 10px) rotate(30deg);
	    animation: flip_ten 4s ease infinite;
	}

	@keyframes flip_eleventh {

		10% {

			transform: translate(0px, 0px) rotate(0deg);
		}

		50%, 70% {

			transform: translate(0px, 0px) rotate(0deg);
		}

		90%, 100% {

			transform: translate(0px, 0px) rotate(0deg);
		}
	}

	.sub_two path:nth-of-type(3) {

	    transform-origin: 320px 352px;
	    transform: translate(0px, 0px) rotate(0deg);
	    animation: flip_eleventh 4s ease infinite;
	}

	@keyframes flip_twelve {

		10% {

			transform: translate(0px, 10px) rotate(-38deg);
		}

		50%, 70% {

			transform: translate(0px, 0px) rotate(0deg);
		}

		90%, 100% {

			transform: translate(0px, 10px) rotate(-38deg);
		}
	}

	.sub_two path:nth-of-type(4) {

	    transform-origin: 320px 352px;
	    transform: translate(0px, 10px) rotate(-38deg);
	    animation: flip_twelve 4s ease infinite;
	}

	@keyframes pulsating_effect {

        50% {

           opacity: 0.4;
        }

        100% {

           opacity: 0;
           transform: scale(1.2);
        }
    }

    .bg ellipse {

        opacity: 0;
        transform-origin: 305.5px 512.5px;
        animation: pulsating_effect 1.5s linear infinite;
    }

    @keyframes mov_one {

    	34% {

            opacity: 0;
    		transform: translateY(0px);
    	}

        42% {

            opacity: 1;
        }

        66% {

            opacity: 0;
        }

        74%, 100% {

            opacity: 0;
            transform: translateY(-400px);
        }
    }

    .bubbles circle:nth-of-type(1) {

        opacity: 0;
        animation: mov_top 4s ease infinite;
    }

    @keyframes mov_two {

    	38% {

            opacity: 0;
    		transform: translateY(0px);
    	}

        46% {

            opacity: 1;
        }

        70% {

            opacity: 0;
        }

        78%, 100% {

            opacity: 0;
            transform: translateY(-400px);
        }
    }

    .bubbles circle:nth-of-type(2) {

        opacity: 0;
        animation: mov_two 4s ease infinite;
    }

    @keyframes mov_three {

    	42% {

            opacity: 0;
    		transform: translateY(0px);
    	}

        50% {

            opacity: 1;
        }

        74% {

            opacity: 0;
        }

        82%, 100% {

            opacity: 0;
            transform: translateY(-400px);
        }
    }

    .bubbles circle:nth-of-type(3) {

        opacity: 0;
        animation: mov_three 4s ease infinite;
    }

    @keyframes mov_four {

    	46% {

            opacity: 0;
    		transform: translateY(0px);
    	}

        54% {

            opacity: 1;
        }

        78% {

            opacity: 0;
        }

        86%, 100% {

            opacity: 0;
            transform: translateY(-400px);
        }
    }

    .bubbles circle:nth-of-type(4) {

        opacity: 0;
        animation: mov_four 4s ease infinite;
    }

    @keyframes mov_five {

    	50% {

            opacity: 0;
    		transform: translateY(0px);
    	}

        58% {

            opacity: 1;
        }

        82% {

            opacity: 0;
        }

        90%, 100% {

            opacity: 0;
            transform: translateY(-400px);
        }
    }

    .bubbles circle:nth-of-type(5) {

        opacity: 0;
        animation: mov_five 4s ease infinite;
    }

    .ly {

        transform: translateY(-10px);
    }
</style>
<g class="bubbles">
    <circle class="st1" cx="198" cy="255.4" r="9.4"/>
    <circle class="st1" cx="399.1" cy="297.9" r="14.5"/>
    <circle class="st1" cx="348.4" cy="233.5" r="9.4"/>
    <circle class="st1" cx="300.5" cy="277.4" r="6"/>
    <circle class="st1" cx="257" cy="307.3" r="9.4"/>
</g>
<g class="bg">
	<ellipse class="st0" cx="305.5" cy="512.5" rx="234.6" ry="83.2"/>
</g>
<g class="feat">
<g class="sub_four">
	<ellipse class="st0" cx="305.5" cy="512.5" rx="234.6" ry="83.2"/>
	<ellipse class="st1" cx="305.5" cy="512.5" rx="191.7" ry="70.2"/>
	<path class="st0" d="M100.9,450.5c-0.9,0.8-2.8,4.5-3.4,5.3c-14.6,17.1,12.3-10-4,4.3l-22.9,13.5c-52.2,40,8.7,59.6,18.2,81.4   C62.6,553.4,28,526.5,34,496.3C38.8,471.5,75.6,450.7,100.9,450.5z"/>
	<path class="st0" d="M552.1,548.1c2.2-15.3,41.7-48.1,0.2-73.2c-14.7-8.9-14.9-0.5-17.7-17.8C600,456.7,605.5,547.9,552.1,548.1z"/>
</g>
<g class="sub_two">
	<path class="st0" d="M99.2,154.3l16.1,22.4c7.6,11.4,12.1,13.7,14.3,26c-15.3-6.5-27.8-14.9-44.3-21.7c-18.1-7.5-27.2-8-40.1-19
		l-4.6-4.3c-6.1-4.9-18.6-21.1-20.6-29.9C51.3,133.3,72.1,147.3,99.2,154.3z"/>
	<path class="st0" d="M248,143.2c10.5,24.5,5.5,57.1,13.3,84.7c-11.9-11.9-32.3-38.3-44.4-41l-1.5,8.3c-21-11.6-13.1-20.7-24.7-33.1
		c-12-32.6-36.3-94-37.1-131.2C178.8,42.4,235.9,108.9,248,143.2z"/>
	<path class="st0" d="M369.1,98c0,21.6,6.1,49,1,67.4l-19.7,43.7c-6.7,8.8,2.3,0-7,7.2l-20.5-90.5c-5.8-19.5-1.7-15.7,0.1-35.6
		c-3.5-19.2,12.2-74.7,22-88.5C360.3,22,371.8,67.8,369.1,98z"/>
	<path class="st0" d="M518.3,181.3l-51.5,39.5c-14.2,9.5-35,27.2-54.9,37.2c5.8-18.5,32.8-91.6,39.3-100.4
		c15.2-30.4,73.6-73.6,99.8-98c10.3,2.7,3.3-1,10.4,5C548.9,115.6,531.5,138.6,518.3,181.3z"/>
</g> 
<g class="sub_one">
	<path class="st1" d="M8.6,167.2c-2.5-3.8-4.2-7.6-7.4-11.3c6.6,1.7,12.7,1.8,19.2,3c30.3,5.2,62.2,17.4,92.6,32.7
		c33.9,17.3,67,39.2,93.1,65c13.6,13.6,25.1,28.3,32,43c2.7,6.3,6.8,12.7,10,19.1c-4-1.2-7.7-1.4-11.5-2.1
		c-31.4-4.9-64.4-12.6-97-27.2c-24.9-11-48.9-26.7-68.6-44.8C44.5,220.7,25.1,193.7,8.6,167.2z"/>
	<path class="st1" d="M75,101.3c-1.8-4.9-2.8-9.7-5.5-14.7c6.8,4.2,13.5,6.6,20.3,10.2c31.9,16.5,64,41.1,93.6,68.4
		c33,30.7,64,66.1,86.5,103.3c11.7,19.4,20.7,39.4,24.8,57.6c1.5,7.8,4.4,16.1,6.4,24c-4.1-2.8-8.1-4.3-12.1-6.4
		c-33.3-16.6-67.6-36.8-99.7-64.1c-24.7-20.8-47.2-46.2-64.5-72.7C101.5,171.6,86.7,135.7,75,101.3z"/>
	<path class="st1" d="M255.8,17.4c1.2-5.3,3-10.1,3.5-16c4.3,7,9.4,12.4,14,19c21.8,30.3,38.7,68,51.7,107
		c14.2,43.7,23.7,90.8,23.6,135.3c-0.1,23.3-3.2,45.7-10.1,64.3c-3.2,7.8-5.3,16.8-8.1,24.9c-2.4-4.5-5.4-7.7-8.2-11.6
		c-23-31-44.9-65.8-60.3-106.1c-11.9-30.7-19-64.6-20.2-97C239.8,94,246.7,54.2,255.8,17.4z"/>
	<path class="st1" d="M454.5,33c3.9-3.9,8.1-6.9,11.6-11.5c-0.3,8.2,1.1,15.6,1.3,23.5c1.6,37.2-4.9,78.1-15.5,117.8
		c-12.1,44.4-29.9,88.9-54.3,126.2c-12.8,19.4-27.6,36.6-43.5,48.3c-6.9,4.7-13.6,11.2-20.4,16.5c0.5-5-0.3-9.4-0.5-14.2
		c-2.2-38.5-1.4-79.6,7.7-121.7c6.8-32.2,19.5-64.4,36.2-92.2C399.4,88.5,426.8,59,454.5,33z"/>
	<path class="st1" d="M592.1,127.2c-13.5,4-25.8,13.3-37.1,21.5c-10.6,7.6-21.3,14.9-32.1,22.2c-5.1,3.4-9.5,7.7-14.2,11.5
		c-3.5,2.8-7,5.6-10.6,8.4c-7.6,6-15.2,12-22.7,18c-0.8,0.6-1.5,1.2-2.3,1.8c-1.8,1.4-3.6,2.9-5.4,4.4c-2,1.7-4,3.4-5.9,5.2
		c-2.1,1.9-4.3,3.7-6.4,5.6c-2.2,1.9-4.5,3.8-6.7,5.7c-2.3,1.9-4.6,3.8-7,5.6c-2.3,1.8-4.7,3.5-7.1,5.1c-0.9,0.6-1.8,1.2-2.8,1.8
		c-0.9,0.6-1.9,1.1-2.8,1.7c-1.5,1-2.8,2.3-4.1,3.5c-3,2.9-5.7,6-8.5,9.1c-0.5,0.6-1.1,1.3-1.6,1.9c-2,2.3-4,4.7-6,7
		c-1.9,2.3-3.8,4.7-5.7,7c-1.9,2.3-3.7,4.7-5.5,7c-1.8,2.3-3.6,4.7-5.4,7c-1.8,2.4-3.5,4.7-5.3,7.1c-1.8,2.4-3.5,4.8-5.2,7.2
		c-1.8,2.4-3.5,4.9-5.2,7.4c-1.8,2.5-3.5,5-5.3,7.5c-1.8,2.6-3.6,5.1-5.3,7.7c-1.1,1.6-2.2,3.2-3.3,4.8c5.9-2.7,13-5.8,21.7-9.3
		c1.1-0.4,4.1-1.9,5.2-2.4c5.4-2.3,4.5-2.1,10.6-4.5c11-4.3,13.8-5.9,26-6.6c14,0.4,6.5-2.8,24.9-5.9c16.1-2.6,13.7,1.5,24.9-7.7
		c-2.1-4.3-3.4-6.8-5.1-10c9-3.6,51.6-50.9,57.3-58c11.4-14.3,43.2-51.1,49.2-64.6c-6.6,16.8-30.6,47.8-41.4,61.5l-36.4,40.1
		c-1,1-7.5,7.2-7.8,7.4c-5.4,5.9-0.3-1.3-5.6,7.1c11.5-7.4,23.9-21,33.8-30.5c7.1-6.9,7.2-8.3,13.8-15.4l15.2-12.7l27.3-43.4
		c10.3-16.6,14.6-31.3,23.7-46.1C599.9,128.9,592.1,127.2,592.1,127.2z"/>
</g>
<g class="sub_three">
	<path class="st2" d="M322.8,360.5c-1.3-12-3.6-22-5.6-30.6c36.9,19.8-10.3,21.8,67.1-9.3c1.1-0.4,4.1-1.9,5.2-2.4
		c5.4-2.3,4.5-2.1,10.6-4.5c11-4.3,13.8-5.9,26-6.6c-5.3,6.6,0.3,2-6.8,6.7L399,323c-11.4,5.2-14.4,3.7-25.4,11
		C361.6,342.1,340,360.2,322.8,360.5z M544.3,315.2l-34.9,16.3l-39.8,14.6c-17.7,2-43.6,12.2-63.6,16.7
		c-16.6,3.8-59.9,5.5-71.3,13.2l-1.4-0.8l-4.8,0.5c-0.7-1-3.4-5-3.7-5.8c-2-5.8-1.1,0.6-2-9.5c17.1-0.3,38.8-18.4,50.7-26.4
		c11.1-7.4,14-5.9,25.4-11l20.3-9.2c7-4.7,1.4-0.1,6.8-6.7c14,0.4,6.5-2.8,24.9-5.9c16.1-2.6,13.7,1.5,24.9-7.7l70.3-1.8l25.6,4.7
		L544.3,315.2z"/>
	<path class="st2" d="M212.8,307.4c12.2,15.6,34.8,17.4,55,30.9c11.2,7.5,0.2,6.3,18.7,6.7c11.1,8.3,21.2,12.6,29.5,21.7l-13.6,11.9
		l-0.6-1.5h-4.3c-3.6-3.6-86-16.9-125.2-30.3c-29.2-10-93.7-33.1-111.2-48.6c17.5-9.6,45-7.8,66.1-7
		C163.4,291.3,189.7,305.7,212.8,307.4z M286.4,345c-18.5-0.3-7.5,0.8-18.7-6.7c-20.2-13.5-42.7-15.3-55-30.9
		c18.1,1.2,33.3,14,54.5,17.6l-8.9-23.4c7.3,5.7,1.9,0.2,9,8.7c3.2,3.8,5.1,6.7,7.5,10.4C280.8,329.6,282.7,334.3,286.4,345z"/>
	<path class="st2" d="M261.3,227.9l4.4,14.5c-17-13.2-19.6-29.8-38.4-36.5l5.1,24.8c-5-4.8-1.6,0.5-6.2-7.3
		c-1.3-2.3-3.7-8.4-4.5-10.6c-1.9-5-4.4-12.6-6.3-17.6l1.5-8.3C229,189.6,249.4,216,261.3,227.9z M265.7,242.4
		c15.5,4.9,47.2,71.8,51.5,87.4c2,8.7,4.3,18.6,5.6,30.6c0.9,10.1,0,3.7,2,9.5c0.3,0.8,3,4.8,3.7,5.8l-26.3,2.9l13.6-11.9
		c-8.3-9-18.4-13.4-29.5-21.7c-3.8-10.8-5.7-15.4-11.5-24.2c-2.5-3.7-4.4-6.7-7.5-10.4c-7.1-8.5-1.7-3-9-8.7
		c-4.3-20.7-26.9-49.3-25.9-70.9l-5.1-24.8C246.1,212.6,248.7,229.2,265.7,242.4z"/>
</g>
<g class="ly">
    <g>
        <defs>
            <path id="SVGID_1_" d="M300.3,468.5l-0.3-26.2l1.7-65.2l0.6,1.5l26.3-2.9l4.8-0.5c-0.4,30.8,2.7,120.7-4.1,141.2l-28.1,3.5L300.3,468.5z"/>
        </defs>
        <clipPath id="SVGID_2_">
            <use xlink:href="#SVGID_1_"  style="overflow:visible;"/>
        </clipPath>
    </g>
    <g class="st3">
    	<line class="st4 sub_six" x1="316.9" y1="569" x2="316.9" y2="313"/>
    </g>
</g>
</g>
</svg>