<svg xmlns="http://www.w3.org/2000/svg" width="570" height="394.139" viewBox="0 0 570 394.139">
  <g id="OBJECTS" transform="translate(-27.29 -48)">
    <g id="Group_239" data-name="Group 239" transform="translate(105.617 48)">
      <g id="Group_221" data-name="Group 221" transform="translate(165.028 279.971)">
        <g id="Group_220" data-name="Group 220">
          <rect id="Rectangle_59" data-name="Rectangle 59" width="99.825" height="112.447" transform="translate(0.861 0.861)" fill="#e1e1e1"/>
          <path id="Path_174" data-name="Path 174" d="M1048.932,1220.7H947.386V1106.535h101.547V1220.7Zm-99.825-1.722h98.1V1108.255h-98.1Z" transform="translate(-947.386 -1106.535)" fill="#e1e1e1"/>
        </g>
        <rect id="Rectangle_60" data-name="Rectangle 60" width="99.825" height="47.921" transform="translate(0.861 0.861)" fill="#1f3c88" opacity="0.2"/>
        <circle id="Ellipse_11" data-name="Ellipse 11" cx="26.582" cy="26.582" r="26.582" transform="translate(24.19 11.186)" fill="#fff"/>
      </g>
      <g id="Group_224" data-name="Group 224" transform="translate(0)">
        <g id="Group_222" data-name="Group 222">
          <path id="Path_175" data-name="Path 175" d="M747.754,361.9H335.5a8.817,8.817,0,0,1-8.817-8.817V60.071a8.817,8.817,0,0,1,8.817-8.817H747.752a8.817,8.817,0,0,1,8.817,8.817V353.077A8.816,8.816,0,0,1,747.754,361.9Z" transform="translate(-325.827 -50.393)" fill="#e1e1e1"/>
          <path id="Path_176" data-name="Path 176" d="M744.616,360.361H333.857a10.435,10.435,0,0,1-10.423-10.423V58.423A10.435,10.435,0,0,1,333.857,48H744.613a10.435,10.435,0,0,1,10.423,10.423V349.94A10.433,10.433,0,0,1,744.616,360.361ZM333.857,49.721a8.712,8.712,0,0,0-8.7,8.7V349.94a8.712,8.712,0,0,0,8.7,8.7H744.613a8.712,8.712,0,0,0,8.7-8.7V58.423a8.712,8.712,0,0,0-8.7-8.7H333.857Z" transform="translate(-323.434 -48)" fill="#f6f7fb"/>
        </g>
        <g id="Group_223" data-name="Group 223" transform="translate(7.804 10.954)">
          <rect id="Rectangle_61" data-name="Rectangle 61" width="414.274" height="255.103" transform="translate(0.86 0.86)" fill="#fff"/>
          <path id="Path_177" data-name="Path 177" d="M768.936,346.242h-416V89.417h416ZM354.661,344.52H767.213V91.138H354.661Z" transform="translate(-352.94 -89.417)" fill="#e1e1e1"/>
        </g>
      </g>
      <g id="Group_238" data-name="Group 238" transform="translate(43.696 34.139)">
        <g id="Group_225" data-name="Group 225" transform="translate(46.953)">
          <rect id="Rectangle_62" data-name="Rectangle 62" width="93.703" height="10.954" transform="translate(74.631)" fill="#d3dfff"/>
          <rect id="Rectangle_63" data-name="Rectangle 63" width="242.965" height="4.097" transform="translate(0 21.649)" fill="#d3dfff"/>
        </g>
        <g id="Group_226" data-name="Group 226" transform="translate(242.914 144.243)">
          <rect id="Rectangle_64" data-name="Rectangle 64" width="93.742" height="4.097" fill="#86a7ff"/>
          <rect id="Rectangle_65" data-name="Rectangle 65" width="80.72" height="4.097" transform="translate(0 10.179)" fill="#86a7ff"/>
          <rect id="Rectangle_66" data-name="Rectangle 66" width="50.914" height="4.097" transform="translate(0 20.358)" fill="#86a7ff"/>
        </g>
        <g id="Group_227" data-name="Group 227" transform="translate(242.914 183.55)">
          <rect id="Rectangle_67" data-name="Rectangle 67" width="82.452" height="4.097" fill="#d3dfff"/>
          <rect id="Rectangle_68" data-name="Rectangle 68" width="70.999" height="4.097" transform="translate(0 10.179)" fill="#d3dfff"/>
        </g>
        <g id="Group_228" data-name="Group 228" transform="translate(0.5 134.099)">
          <rect id="Rectangle_69" data-name="Rectangle 69" width="39.789" height="62.369" transform="translate(0 0.097)" fill="#d3dfff"/>
          <rect id="Rectangle_70" data-name="Rectangle 70" width="44.727" height="20.602" transform="translate(49.889)" fill="#86a7ff"/>
          <rect id="Rectangle_71" data-name="Rectangle 71" width="44.727" height="31.912" transform="translate(49.889 30.641)" fill="#d3dfff"/>
        </g>
        <g id="Group_230" data-name="Group 230" transform="translate(120.628 142.706)">
          <path id="Path_178" data-name="Path 178" d="M1033.938,771.026H951.119a6.406,6.406,0,0,1-6.4-6.4v-41.6a6.406,6.406,0,0,1,6.4-6.4h82.82a6.406,6.406,0,0,1,6.4,6.4v41.6A6.406,6.406,0,0,1,1033.938,771.026Zm-82.819-53.394a5.4,5.4,0,0,0-5.4,5.4v41.6a5.4,5.4,0,0,0,5.4,5.4h82.82a5.4,5.4,0,0,0,5.4-5.4v-41.6a5.4,5.4,0,0,0-5.4-5.4Z" transform="translate(-944.72 -716.631)" fill="#86a7ff"/>
          <path id="Path_179" data-name="Path 179" d="M979.858,787.075l-.9-.448,5.657-11.316,6.993,7.325,8.326-17.984,11.167,10.489,12.283-12.284,12.008,7.338,15.406-16.063.725.693-15.965,16.644-12.024-7.347-12.412,12.413-10.86-10.2L991.9,784.391l-7.025-7.359Z" transform="translate(-969.905 -744.213)" fill="#3a6bea"/>
          <g id="Group_229" data-name="Group 229" transform="translate(52.057 40.552)">
            <rect id="Rectangle_72" data-name="Rectangle 72" width="9.512" height="5.006" fill="#86a7ff"/>
            <rect id="Rectangle_73" data-name="Rectangle 73" width="16.52" height="1.001" transform="translate(15.769 2.002)" fill="#3a6bea"/>
          </g>
        </g>
        <g id="Group_231" data-name="Group 231" transform="translate(129.774 47.174)">
          <path id="Path_180" data-name="Path 180" d="M1162.814,389.643a38.732,38.732,0,0,0-25.036-26.607l-12.3,36.652Z" transform="translate(-1086.816 -361.026)" fill="#d3dfff"/>
          <path id="Path_181" data-name="Path 181" d="M1077.891,473.679l-17.113,34.67a38.667,38.667,0,0,0,54.449-44.716Z" transform="translate(-1039.228 -435.017)" fill="#86a7ff"/>
          <path id="Path_182" data-name="Path 182" d="M1030.262,357.448a38.662,38.662,0,0,0-29.412,71.322l17.113-34.67Z" transform="translate(-979.301 -355.438)" fill="#3a6bea"/>
        </g>
        <g id="Group_235" data-name="Group 235" transform="translate(0 48.738)">
          <g id="Group_232" data-name="Group 232" transform="translate(20.58 64.246)">
            <rect id="Rectangle_74" data-name="Rectangle 74" width="54.457" height="4.097" fill="#d3dfff"/>
          </g>
          <g id="Group_234" data-name="Group 234">
            <path id="Path_183" data-name="Path 183" d="M584.259,416.629H488.642V361.351h95.617v55.278Zm-94.616-1h93.615V362.352H489.643Z" transform="translate(-488.642 -361.351)" fill="#86a7ff"/>
            <g id="Group_233" data-name="Group 233" transform="translate(6.661 8.893)">
              <path id="Path_184" data-name="Path 184" d="M595.777,406.653c-3.173-.637-6.317,1.43-8.324,3.977a32.4,32.4,0,0,0-2.508,3.864,40.589,40.589,0,0,1-2.736,4.328c-1.968,2.579-5.022,4.734-8.221,4.247-5.188-.79-8.026-7.913-13.274-7.821-2.451.043-4.551,1.739-6.221,3.54s-3.194,3.846-5.368,4.984c-3.038,1.59-6.789,1.075-9.938-.278s-5.912-3.461-8.907-5.132a35.778,35.778,0,0,0-16.454-4.43v27.04h82.3V406.743C596.007,406.713,595.9,406.677,595.777,406.653Z" transform="translate(-513.826 -403.478)" fill="#d3dfff"/>
              <path id="Path_185" data-name="Path 185" d="M539.187,414.988c3.15,1.353,6.9,1.869,9.938.279,2.174-1.138,3.7-3.183,5.368-4.984s3.77-3.5,6.221-3.54c5.247-.092,8.085,7.031,13.274,7.821,3.2.487,6.253-1.668,8.221-4.247a40.515,40.515,0,0,0,2.736-4.328c-3.189.146-6.376.3-9.138-1.169s-4.549-4.324-7.289-5.806c-4.917-2.66-10.931-.122-15.829,2.571-2.928,1.61-6.194,3.339-9.436,2.545-3.669-.9-5.819-4.635-8.874-6.863-5.849-4.266-14.635-2.2-19.635,3.048l-.01.01a3.264,3.264,0,0,0-.907,2.26v2.841a35.778,35.778,0,0,1,16.454,4.43C533.275,411.527,536.037,413.634,539.187,414.988Z" transform="translate(-513.827 -394.973)" fill="#86a7ff"/>
            </g>
          </g>
        </g>
        <g id="Group_237" data-name="Group 237" transform="translate(241.369 48.665)">
          <path id="Path_186" data-name="Path 186" d="M1496.994,438.562H1401.23V361.075h95.764Zm-94.616-1.147h93.469V362.222h-93.469Z" transform="translate(-1401.23 -361.075)" fill="#86a7ff"/>
          <g id="Group_236" data-name="Group 236" transform="translate(15.843 15.258)">
            <rect id="Rectangle_75" data-name="Rectangle 75" width="10.012" height="33.708" transform="translate(0 17.021)" fill="#86a7ff"/>
            <rect id="Rectangle_76" data-name="Rectangle 76" width="10.012" height="17.021" fill="#d3dfff"/>
            <rect id="Rectangle_77" data-name="Rectangle 77" width="10.012" height="25.281" transform="translate(18.022)" fill="#d3dfff"/>
            <rect id="Rectangle_78" data-name="Rectangle 78" width="10.012" height="25.448" transform="translate(18.022 25.281)" fill="#86a7ff"/>
            <rect id="Rectangle_79" data-name="Rectangle 79" width="10.012" height="39.59" transform="translate(36.045 11.139)" fill="#86a7ff"/>
            <rect id="Rectangle_80" data-name="Rectangle 80" width="10.012" height="11.139" transform="translate(36.045)" fill="#d3dfff"/>
            <rect id="Rectangle_81" data-name="Rectangle 81" width="10.012" height="24.822" transform="translate(54.067 25.907)" fill="#86a7ff"/>
            <rect id="Rectangle_82" data-name="Rectangle 82" width="10.012" height="25.907" transform="translate(54.067)" fill="#d3dfff"/>
          </g>
        </g>
      </g>
    </g>
    <g id="Group_247" data-name="Group 247" transform="translate(27.29 120.313)">
      <g id="Group_242" data-name="Group 242" transform="translate(39.287 112.512)">
        <g id="Group_240" data-name="Group 240" transform="translate(13.302 120.482)">
          <path id="Path_187" data-name="Path 187" d="M278.559,1440.667l-18.741-19.506.04-14.391-22.764.677,1.879,33.22Z" transform="translate(-234.192 -1352.698)" fill="#102048"/>
          <path id="Path_188" data-name="Path 188" d="M251.94,1202.33l-25.817,3.444,1.019,18.009,24.74-.6Z" transform="translate(-226.123 -1202.33)" fill="#e28b6d"/>
          <path id="Path_189" data-name="Path 189" d="M254.714,1281.17l-24.74.6,1.883,33.3,22.764-.677Z" transform="translate(-228.955 -1260.318)" fill="#f9b384"/>
          <rect id="Rectangle_83" data-name="Rectangle 83" width="2.295" height="10.779" transform="translate(25.146 67.427) rotate(64.798)" fill="#fff"/>
        </g>
        <g id="Group_241" data-name="Group 241" transform="translate(57.669 113.6)">
          <path id="Path_190" data-name="Path 190" d="M451.587,1177.265l-24.861-.955-3.264,19.022,23.816,3.478Z" transform="translate(-415.635 -1176.31)" fill="#e28b6d"/>
          <path id="Path_191" data-name="Path 191" d="M435.366,1348.06l-15.3-25.817,1.978-9.891c-6.746-1.546-17.161-3.926-23.023-5.233l-5.155,30.04Z" transform="translate(-393.868 -1272.522)" fill="#102048"/>
          <path id="Path_192" data-name="Path 192" d="M439.846,1251.706l-23.816-3.479-2.673,15.575c5.861,1.307,16.277,3.687,23.023,5.233Z" transform="translate(-408.202 -1229.206)" fill="#f9b384"/>
          <rect id="Rectangle_84" data-name="Rectangle 84" width="2.295" height="10.19" transform="translate(25.849 48.642) rotate(71.391)" fill="#fff"/>
        </g>
        <path id="Path_193" data-name="Path 193" d="M286.088,864.23s-10.327,13-29.454,8.789S240.96,879.9,230.243,882.2s-40.538-16.442-50.486,1.147c0,0-5.921-66.608-3.224-108.764.734-11.382,2.088-20.986,4.372-27.01l45.77-.631,10.074-.138s.034.218.115.654c.172.906.517,2.754,1.09,5.393C241.694,770.211,254.821,821.695,286.088,864.23Z" transform="translate(-175.829 -746.803)"/>
        <path id="Path_194" data-name="Path 194" d="M239.91,753.234a141.414,141.414,0,0,1-61.421,21.732c.734-11.382,2.088-20.986,4.372-27.01l45.77-.631,10.189.516C238.992,748.748,239.337,750.595,239.91,753.234Z" transform="translate(-177.785 -747.187)" fill="#006ccc"/>
      </g>
      <g id="Group_245" data-name="Group 245" transform="translate(0 122.622)">
        <g id="Group_243" data-name="Group 243">
          <rect id="Rectangle_85" data-name="Rectangle 85" width="39.012" height="52.207" transform="matrix(-0.283, 0.959, -0.959, -0.283, 61.82, 15.48)" fill="#fff"/>
          <path id="Path_195" data-name="Path 195" d="M78.468,838.633,27.29,823.548l11.355-38.521,51.178,15.085ZM28.715,822.772l48.977,14.436L88.4,800.888,39.421,786.452Z" transform="translate(-27.29 -785.027)" fill="#86a7ff"/>
        </g>
        <g id="Group_244" data-name="Group 244" transform="translate(18.456 10.226)">
          <rect id="Rectangle_86" data-name="Rectangle 86" width="1.147" height="11.617" transform="matrix(0.959, 0.282, -0.282, 0.959, 33.548, 8.118)" fill="#86a7ff"/>
          <rect id="Rectangle_87" data-name="Rectangle 87" width="1.148" height="27.968" transform="matrix(0.959, 0.283, -0.283, 0.959, 26.67, 6.081)" fill="#86a7ff"/>
          <rect id="Rectangle_88" data-name="Rectangle 88" width="1.148" height="27.968" transform="matrix(0.959, 0.283, -0.283, 0.959, 19.791, 4.054)" fill="#86a7ff"/>
          <rect id="Rectangle_89" data-name="Rectangle 89" width="1.147" height="27.968" transform="matrix(0.959, 0.283, -0.283, 0.959, 12.92, 2.027)" fill="#86a7ff"/>
          <rect id="Rectangle_90" data-name="Rectangle 90" width="1.147" height="21.37" transform="matrix(0.959, 0.283, -0.283, 0.959, 6.041, 0)" fill="#86a7ff"/>
        </g>
      </g>
      <path id="Path_196" data-name="Path 196" d="M515.608,442.368s1.415-13.634,2.688-13.4,1.133,3.561,1.133,3.561,2.975-7.6,4.358-7.595-.03,3.109-.03,3.109,1.537-3.109,2.685-2.869.205,2.878.205,2.878,1.2-2.549,2.363-2.1.432,2.54.432,2.54.636-1.652,1.719-.551-4.478,17.066-4.478,17.066l-7.838,2.237Z" transform="translate(-386.453 -397.551)" fill="#f9b384"/>
      <path id="Path_197" data-name="Path 197" d="M387.2,485.045s-6.839,28.123-24.084,36.339a22.7,22.7,0,0,1-13.872,1.9l-3.087-5.5-20.241-36.006,7.068-2.478s15.88,5.921,24.486,19.116c0,0,8.032-.757,18.737-16.821Z" transform="translate(-246.933 -437.545)" fill="#001257"/>
      <path id="Path_198" data-name="Path 198" d="M419.4,591.041a22.7,22.7,0,0,1-13.872,1.9l-3.087-5.5.792-13.436S414.939,580.656,419.4,591.041Z" transform="translate(-303.22 -507.202)" fill="#102048"/>
      <path id="Path_199" data-name="Path 199" d="M150.606,828.879s-1.548,13.24-2.9,13.016-1.19-3.557-1.19-3.557-3.2,7.62-4.676,7.618.046-3.11.046-3.11-1.651,3.117-2.873,2.883-.2-2.878-.2-2.878-1.29,2.556-2.526,2.108-.449-2.539-.449-2.539-.685,1.656-1.834.559,4.849-17.092,4.849-17.092l8.359-2.274Z" transform="translate(-105.666 -690.785)" fill="#f9b384"/>
      <path id="Path_200" data-name="Path 200" d="M187.359,480.378c-33.944,4.112-43.936,51.156-40.064,95.331l12.622.765s2.1-43.219,19.506-63.873l14.534-30.024Z" transform="translate(-114.977 -438.332)" fill="#001257"/>
      <path id="Path_201" data-name="Path 201" d="M219.009,488.693l23.522,15.872s6.5,30.406,6.12,57.371c0,0-45.514,16.829-68.08-.765l17.785-57.753Z" transform="translate(-140.03 -444.448)" fill="#001257"/>
      <g id="Group_246" data-name="Group 246" transform="translate(60.122 0)">
        <path id="Path_202" data-name="Path 202" d="M286.964,351.91c2.179-7.6-5.47-16.494-20.1-8.94,0,0-14.534,2.486-11.952,27.729l15.3.574Z" transform="translate(-254.605 -335.156)" fill="#102048"/>
        <path id="Path_203" data-name="Path 203" d="M273.442,328.7c2-8.032-6.727-9.318-8.181-4.391-.194.657-4.447-1.688-5.636,2.142-1.363,4.391,3.375,7.313,8.727,6.212Z" transform="translate(-258.123 -321.408)" fill="#102048"/>
        <path id="Path_204" data-name="Path 204" d="M314.638,421.376v15.112l-6.6,9.271-7.068-8.984.379-15.685Z" transform="translate(-288.708 -394.725)" fill="#f9b384"/>
        <path id="Path_205" data-name="Path 205" d="M333.846,441.7v9.7c-4.727-2.054-6.758-8.262-6.758-8.262Z" transform="translate(-307.917 -409.881)" fill="#102048"/>
        <path id="Path_206" data-name="Path 206" d="M323.953,367.6s4.7,24.813-13.184,16.494l-5.874-6.741,3.655-13.626,9.4-2.295Z" transform="translate(-291.594 -350.85)" fill="#f9b384"/>
        <path id="Path_207" data-name="Path 207" d="M319.6,361.49s-3.749-5.833-8.434-3.012-4.446,12.717-9.323,10.231-2.056-10.135-2.056-10.135l7.171-5.45,8.032.909Z" transform="translate(-287.238 -344.735)" fill="#102048"/>
        <ellipse id="Ellipse_12" data-name="Ellipse 12" cx="3.394" cy="3.873" rx="3.394" ry="3.873" transform="matrix(0.866, -0.5, 0.5, 0.866, 8.481, 23.223)" fill="#f9b384"/>
      </g>
      <circle id="Ellipse_13" data-name="Ellipse 13" cx="2.295" cy="2.295" r="2.295" transform="translate(77.258 56.866)" fill="#102048"/>
      <path id="Path_208" data-name="Path 208" d="M201.26,656.133l-1.126-.22c.017-.085,1.687-8.6,4.495-18.124,3.787-12.849,7.735-21.329,11.733-25.206l.8.824C207.93,622.357,201.326,655.8,201.26,656.133Z" transform="translate(-154.419 -535.571)" fill="#102048"/>
      <path id="Path_209" data-name="Path 209" d="M168.466,667.657c-2.108-1.581-7.043-1.417-7.093-1.416l-.043-1.147c.22-.008,5.395-.178,7.824,1.644Z" transform="translate(-125.879 -574.188)" fill="#102048"/>
    </g>
    <g id="Group_252" data-name="Group 252" transform="translate(431.412 124.982)">
      <g id="Group_249" data-name="Group 249" transform="translate(74.125 103.104)">
        <path id="Path_210" data-name="Path 210" d="M2055.706,1401.024l-.384,21.8-4.972,13.2h26.965l-1.529-35.568Z" transform="translate(-1993.52 -1222.828)" fill="#102048"/>
        <g id="Group_248" data-name="Group 248" transform="translate(1.277 178.481)">
          <path id="Path_211" data-name="Path 211" d="M1861.538,1405.707v18.073l-21.228,14.629h42.741l-2.581-34.709Z" transform="translate(-1840.31 -1403.7)" fill="#102048"/>
          <rect id="Rectangle_91" data-name="Rectangle 91" width="8.051" height="2.295" transform="translate(21.917 19.172) rotate(37.279)" fill="#fff"/>
        </g>
        <path id="Path_212" data-name="Path 212" d="M1893.841,741.034l-.115.436-3.809,15.02-8.307,32.736a155.5,155.5,0,0,0-2.673,16.752c-4.05,37.256,1.182,84.874,3.9,105.413a8.993,8.993,0,0,1-8.927,10.166H1858.8a9.049,9.049,0,0,1-8.147-5.141c-19.265-40.343-16.132-100.594-12.266-115.338,6.116-23.327,10.327-58.128,10.327-58.128l12.84-.551Z" transform="translate(-1835.483 -737.82)"/>
        <path id="Path_213" data-name="Path 213" d="M2036.844,902.086a9.554,9.554,0,0,1-9.547,9.329h-12.943a9.532,9.532,0,0,1-9.455-8.3c-2.467-18.818-8.479-66.229-11.887-106.078-1.778-20.906-2.834-39.724-2.283-51.244.195-4.371.631-7.688,1.354-9.673l15.72-3.591,16.007-3.649s3.97,4.234,7.619,26.781C2035.227,779.188,2038.658,822.663,2036.844,902.086Z" transform="translate(-1949.56 -728.884)"/>
        <path id="Path_214" data-name="Path 214" d="M1992.7,951.451c-.71-14.694-.258-27.223,1.381-38.3a14.264,14.264,0,0,1,5.293-9.086l10.754-8.547.714.9-10.753,8.547a13.122,13.122,0,0,0-4.872,8.356c-1.627,11-2.076,23.459-1.37,38.078Z" transform="translate(-1950.876 -851.444)"/>
        <path id="Path_215" data-name="Path 215" d="M1871.277,1119.611l-.141-1.139a79.364,79.364,0,0,1,18.878-.383l-.132,1.14A78.493,78.493,0,0,0,1871.277,1119.611Z" transform="translate(-1861.706 -1014.856)"/>
        <path id="Path_216" data-name="Path 216" d="M2066.5,1109.49l-.141-1.139a79.349,79.349,0,0,1,18.878-.383l-.132,1.14A78.223,78.223,0,0,0,2066.5,1109.49Z" transform="translate(-2005.293 -1007.412)"/>
        <path id="Path_217" data-name="Path 217" d="M1899.285,1363.367a80.546,80.546,0,0,1-17.194-1.775l.274-1.114c.167.041,16.866,4.049,33.747-.226l.282,1.112A70.222,70.222,0,0,1,1899.285,1363.367Z" transform="translate(-1869.763 -1193.262)"/>
        <path id="Path_218" data-name="Path 218" d="M2056.614,1362.459c-1.55,0-3.018-.046-4.354-.116a90.505,90.505,0,0,1-11.225-1.274l.219-1.126c.189.037,19.068,3.63,31.634-1.016l.4,1.076C2068.08,1361.927,2061.875,1362.459,2056.614,1362.459Z" transform="translate(-1986.668 -1192.288)"/>
        <path id="Path_219" data-name="Path 219" d="M1964.515,755.668c-7.309-3.9-17.4-6.448-27.435-8.112-4.51-.757-9.019-1.32-13.264-1.756-13.436-1.365-24.211-1.365-24.211-1.365l9.111-10.969L1941,732.1l-.115.436,16.006-3.649S1960.865,733.121,1964.515,755.668Z" transform="translate(-1882.645 -728.886)"/>
      </g>
      <g id="Group_250" data-name="Group 250" transform="translate(89.101)">
        <rect id="Rectangle_92" data-name="Rectangle 92" width="13.275" height="22.156" transform="translate(10.301 19.963)" fill="#e28b6d"/>
        <path id="Path_220" data-name="Path 220" d="M1937.275,445.1a16.072,16.072,0,0,1-6.219,8.135v-9.673Z" transform="translate(-1920.754 -415.922)" fill="#102048"/>
        <path id="Path_221" data-name="Path 221" d="M1895.561,371.788l-.933,9.326s-4.344,5.829-1.632,5.829c2.915,0,2.448,1.166,2.448,1.166s-1.632,12.124,13.173,4.2l3.148-18.186Z" transform="translate(-1892.105 -363.132)" fill="#e28b6d"/>
        <path id="Path_222" data-name="Path 222" d="M1905.17,367.412a4.652,4.652,0,0,1,5.071,3.73c1.049,4.255,2.448,6.878,6,3.905l3.906-6.412-6.7-2.8Z" transform="translate(-1901.715 -358.756)" fill="#102048"/>
        <path id="Path_223" data-name="Path 223" d="M1905.17,347.717c0-3.031,3.594-10.259,14.922-8.335,10.827,1.839,12.532,17.02,6.936,23.956,0,0-2.856,4.488-6.7-3.73l-6.586-8.86-1.4-2.8Z" transform="translate(-1901.715 -339.061)" fill="#102048"/>
        <ellipse id="Ellipse_14" data-name="Ellipse 14" cx="3.381" cy="3.876" rx="3.381" ry="3.876" transform="matrix(0.866, 0.5, -0.5, 0.866, 15.274, 13.254)" fill="#e28b6d"/>
      </g>
      <g id="Group_251" data-name="Group 251" transform="translate(0 34.322)">
        <path id="Path_224" data-name="Path 224" d="M2015.61,480.017c25.434,8.223,45.514,42.646,21.992,43.219s-37.865-21.227-37.865-21.227Z" transform="translate(-1882.169 -477.057)" fill="#001257"/>
        <path id="Path_225" data-name="Path 225" d="M1576.122,566.96s-12.566-5.476-12.991-4.255,2.543,2.739,2.543,2.739-8.083-1.151-8.756.057,2.721,1.5,2.721,1.5-3.463-.192-3.819.926,2.4,1.594,2.4,1.594-2.81-.21-2.988,1.026,2,1.626,2,1.626-1.751-.259-1.326,1.226,17.061,4.5,17.061,4.5l5.8-5.723Z" transform="translate(-1555.226 -537.745)" fill="#e28b6d"/>
        <path id="Path_226" data-name="Path 226" d="M1751.066,548.557l-56.785,6.2a7.924,7.924,0,0,1-8.778-8.124l.712-23.43.333-10.8.012-.264a15.893,15.893,0,0,1-1.239,1.262c0,.011-.012.011-.023.023-.539.494-1.251,1.1-2.134,1.767-7.538,5.691-27.641,15.467-60.859-6.208l3.155-10.935,35.857,1.469s16.075-12.989,30.349-21.9a56.159,56.159,0,0,1,31.118-8.766,43.263,43.263,0,0,1,15.226,2.937c12.106,5,18.107,49.66,20.08,68.054A7.915,7.915,0,0,1,1751.066,548.557Z" transform="translate(-1604.562 -468.827)" fill="#001257"/>
        <path id="Path_227" data-name="Path 227" d="M1754.393,594.174a12.046,12.046,0,0,1,3.6-11l.726.889a9.372,9.372,0,0,0-1.961,2.533,11.6,11.6,0,0,0-1.229,7.411Z" transform="translate(-1701.6 -552.932)" fill="#006ccc"/>
        <path id="Path_228" data-name="Path 228" d="M1869.359,617.4s-.356,9.248-5.416,15.077l.333-10.8C1866.169,620.137,1868.338,618.336,1869.359,617.4Z" transform="translate(-1782.291 -578.101)" fill="#006ccc"/>
        <path id="Path_229" data-name="Path 229" d="M1820.223,617.157l-.225-1.125c8.3-1.661,19.489-15.575,19.6-15.716l.9.716a86.668,86.668,0,0,1-6.792,7.37C1828.438,613.475,1823.9,616.421,1820.223,617.157Z" transform="translate(-1749.969 -565.539)" fill="#006ccc"/>
      </g>
    </g>
  </g>
</svg>
