<?xml version="1.0" encoding="utf-8"?>
<!-- Generator: Adobe Illustrator 16.0.0, SVG Export Plug-In . SVG Version: 6.00 Build 0)  -->
<!DOCTYPE svg PUBLIC "-//W3C//DTD SVG 1.1//EN" "http://www.w3.org/Graphics/SVG/1.1/DTD/svg11.dtd">
<svg version="1.1" id="Layer_1" xmlns="http://www.w3.org/2000/svg" xmlns:xlink="http://www.w3.org/1999/xlink" x="0px" y="0px"
	 width="1277.344px" height="285.311px" viewBox="0 0 1277.344 285.311" enable-background="new 0 0 1277.344 285.311"
	 xml:space="preserve">
<g>
	<g>
		<defs>
			<rect id="SVGID_1_" y="0" width="475.223" height="284.989"/>
		</defs>
		<clipPath id="SVGID_2_">
			<use xlink:href="#SVGID_1_"  overflow="visible"/>
		</clipPath>
		<g clip-path="url(#SVGID_2_)">
			<path fill="#061E60" d="M146.825,201.381c-12.764,0-24.77,3.245-35.24,8.951c-9.996-28.881-37.415-49.629-69.696-49.629
				c-40.731,0-73.752,33.019-73.752,73.754c0,40.734,33.02,73.752,73.752,73.752c12.765,0,24.77-3.244,35.242-8.951
				c9.997,28.881,37.415,49.629,69.695,49.629c40.732,0,73.754-33.021,73.754-73.752
				C220.579,234.402,187.557,201.381,146.825,201.381z"/>
			<circle fill="#061E60" cx="42.9" cy="47.286" r="65.597"/>
		</g>
	</g>
</g>
<polygon fill="#EDEFF7" points="643.159,258.134 697.82,285.311 535.62,285.311 582.49,258.211 "/>
<linearGradient id="SVGID_3_" gradientUnits="userSpaceOnUse" x1="1349.3555" y1="293.9495" x2="1129.6733" y2="21.118">
	<stop  offset="0" style="stop-color:#DAE3FE"/>
	<stop  offset="1" style="stop-color:#E9EFFD"/>
</linearGradient>
<path fill="url(#SVGID_3_)" d="M1288.921,186.355c-5.046,5.313-9.821,8.738-13.593,11.445
	c-44.343,31.815-96.811,22.541-107.962,20.276c-16.467-3.345-48.296-9.809-71.308-36.87
	c-34.815-40.942-29.394-105.446-2.389-148.025c4.939-7.789,31.032-51.017,84.065-57.949c32.095-4.195,69.508,4.267,96.602,26.965
	C1331.207,49.844,1327.159,146.1,1288.921,186.355z"/>
<linearGradient id="SVGID_4_" gradientUnits="userSpaceOnUse" x1="1089.8691" y1="142.2214" x2="870.1862" y2="-130.6111">
	<stop  offset="0" style="stop-color:#DAE3FE"/>
	<stop  offset="1" style="stop-color:#E9EFFD"/>
</linearGradient>
<path fill="url(#SVGID_4_)" d="M1029.434,34.625c-5.046,5.313-9.821,8.738-13.593,11.445
	c-44.343,31.815-96.811,22.541-107.962,20.276c-16.467-3.345-48.296-9.809-71.308-36.87
	c-34.815-40.942-29.394-105.446-2.389-148.025c4.939-7.789,31.032-51.017,84.065-57.949c32.095-4.195,69.508,4.267,96.602,26.965
	C1071.72-101.885,1067.672-5.63,1029.434,34.625z"/>
<linearGradient id="SVGID_5_" gradientUnits="userSpaceOnUse" x1="944.376" y1="562.6106" x2="724.6938" y2="289.7791">
	<stop  offset="0" style="stop-color:#DAE3FE"/>
	<stop  offset="1" style="stop-color:#E9EFFD"/>
</linearGradient>
<path fill="url(#SVGID_5_)" d="M883.941,455.016c-5.046,5.313-9.821,8.738-13.593,11.445
	c-44.343,31.815-96.811,22.541-107.962,20.276c-16.467-3.345-48.296-9.809-71.308-36.87
	c-34.815-40.942-29.394-105.446-2.389-148.025c4.939-7.788,31.032-51.017,84.065-57.949c32.095-4.195,69.508,4.267,96.602,26.966
	C926.228,318.505,922.18,414.761,883.941,455.016z"/>
<g>
	<g>
		<path fill="#91B3FA" d="M1076.035,57.981c-0.243-0.111-0.411-0.354-0.413-0.633c-0.003-0.92,0.013-1.855,0.047-2.78
			c0.015-0.38,0.339-0.671,0.725-0.65c0.937,0.045,0.617,0.959,0.627,3.448c0.001,0.38-0.311,0.685-0.696,0.679
			C1076.221,58.045,1076.123,58.022,1076.035,57.981z"/>
		<path fill="#91B3FA" d="M1076.558,45.961c0.296-1.743,0.665-3.494,1.099-5.207c0.093-0.368,0.472-0.586,0.847-0.487
			c1.02,0.273,0.305,0.808-0.566,5.944c-0.063,0.374-0.423,0.621-0.804,0.552C1076.747,46.693,1076.495,46.33,1076.558,45.961z
			 M1080.306,32.537c0.652-1.651,1.382-3.306,2.145-4.863c0.408-0.837,1.654-0.186,1.262,0.616
			c-0.761,1.552-1.464,3.149-2.102,4.765c-0.139,0.353-0.544,0.522-0.903,0.378C1080.343,33.289,1080.169,32.886,1080.306,32.537z
			 M1086.736,20.182c0.975-1.471,2.021-2.922,3.111-4.313c0.563-0.716,1.672,0.141,1.112,0.854
			c-1.068,1.363-2.094,2.784-3.048,4.225C1087.41,21.707,1086.236,20.938,1086.736,20.182z M1095.627,10.398
			c-0.274-0.272-0.276-0.708-0.006-0.973c1.264-1.239,2.596-2.443,3.957-3.58c0.699-0.584,1.613,0.473,0.914,1.057
			c-1.334,1.114-2.639,2.294-3.877,3.506C1096.346,10.675,1095.901,10.67,1095.627,10.398z M1106.388,1.673
			c-0.214-0.32-0.126-0.746,0.196-0.951c1.499-0.955,3.055-1.863,4.624-2.698c0.809-0.428,1.489,0.784,0.681,1.215
			c-1.538,0.818-3.063,1.708-4.531,2.644C1107.036,2.087,1106.603,1.993,1106.388,1.673z M1119.119-4.308
			c-0.159-0.073-0.292-0.204-0.361-0.377c-0.145-0.355,0.029-0.754,0.388-0.889c1.67-0.634,3.385-1.209,5.099-1.71
			c0.367-0.108,0.761,0.1,0.876,0.465c0.115,0.365-0.089,0.748-0.457,0.856c-1.679,0.491-3.359,1.055-4.996,1.676
			C1119.483-4.219,1119.287-4.231,1119.119-4.308z M1132.618-7.908c-0.203-0.094-0.359-0.28-0.401-0.513
			c-0.068-0.375,0.184-0.729,0.563-0.791c1.77-0.284,3.572-0.501,5.361-0.647c0.384-0.032,0.728,0.25,0.766,0.629
			c0.037,0.379-0.242,0.712-0.626,0.744c-1.753,0.143-3.521,0.357-5.253,0.635C1132.885-7.828,1132.742-7.851,1132.618-7.908z
			 M1146.215-9.366c0.011-0.38,0.332-0.674,0.718-0.657c1.796,0.08,3.613,0.231,5.403,0.45c0.921,0.115,0.769,1.479-0.149,1.367
			c-1.753-0.214-3.534-0.362-5.293-0.44C1146.509-8.663,1146.204-8.985,1146.215-9.366z M1189.882,8.706
			c-3.955-3.489-4.899-3.503-4.264-4.329c0.231-0.301,0.668-0.355,0.978-0.123c1.44,1.085,2.856,2.24,4.209,3.433
			C1191.499,8.299,1190.579,9.32,1189.882,8.706z M1160.163-7.462c0.089-0.369,0.466-0.591,0.842-0.496
			c1.747,0.439,3.502,0.952,5.214,1.524c0.881,0.294,0.452,1.598-0.428,1.304c-1.68-0.561-3.398-1.063-5.11-1.494
			C1160.302-6.719,1160.074-7.097,1160.163-7.462z M1178.539,0.58c-4.569-2.622-5.508-2.452-5.059-3.394
			c0.285-0.598,1.014-0.315,0.929-0.317c1.635,0.778,3.256,1.628,4.817,2.523c0.336,0.193,0.455,0.615,0.265,0.943
			C1179.311,0.649,1178.897,0.78,1178.539,0.58z"/>
		<path fill="#91B3FA" d="M1197.796,16.952c-1.481-1.826-2.435-2.476-1.723-3.083c0.289-0.246,0.731-0.212,0.986,0.079
			c1.609,1.827,2.429,2.567,1.72,3.122C1198.567,17.237,1198.039,17.251,1197.796,16.952z"/>
	</g>
	<g>
		<path fill="#91B3FA" d="M1212.928,68.287c-0.271-0.125-0.443-0.413-0.405-0.719c0.111-0.898,0.207-1.809,0.281-2.706
			c0.031-0.379,0.369-0.655,0.754-0.618c0.384,0.039,0.671,0.375,0.64,0.754c-0.076,0.916-0.174,1.845-0.287,2.762
			c-0.048,0.376-0.396,0.64-0.779,0.586C1213.06,68.336,1212.991,68.316,1212.928,68.287z"/>
		<path fill="#91B3FA" d="M1114.704,119.25c-1.744-0.862-3.472-1.807-5.137-2.807c-0.332-0.2-0.441-0.625-0.245-0.948
			c0.556-0.912,0.889,0.003,5.991,2.526c0.348,0.172,0.493,0.586,0.325,0.925C1115.344,119.539,1114.62,119.246,1114.704,119.25z
			 M1123.039,122.016c0.338-1.012,0.893-0.182,6.379,1.193c0.377,0.094,0.608,0.471,0.52,0.838
			c-0.089,0.369-0.467,0.592-0.841,0.498c-1.878-0.471-3.766-1.027-5.61-1.653C1123.116,122.766,1122.921,122.373,1123.039,122.016z
			 M1101.771,111.011c-1.513-1.213-2.995-2.506-4.404-3.842c-0.279-0.266-0.292-0.703-0.027-0.975
			c0.749-0.767,0.867,0.196,5.303,3.754c0.302,0.243,0.352,0.677,0.111,0.97C1102.512,111.211,1102.073,111.253,1101.771,111.011z
			 M1138.216,126.17c-0.266-0.123-0.438-0.4-0.408-0.701c0.037-0.378,0.378-0.649,0.763-0.606c1.891,0.211,3.81,0.345,5.702,0.397
			c0.388,0.011,0.696,0.327,0.691,0.708c-0.004,0.38-0.32,0.681-0.705,0.669c-1.934-0.055-3.892-0.19-5.822-0.406
			C1138.359,126.223,1138.284,126.201,1138.216,126.17z M1153.329,126.199c-0.215-0.099-0.376-0.301-0.407-0.549
			c-0.049-0.377,0.223-0.717,0.606-0.758c1.879-0.203,3.773-0.488,5.63-0.847c0.378-0.073,0.749,0.171,0.83,0.544
			c0.08,0.373-0.161,0.734-0.538,0.808c-1.895,0.366-3.828,0.657-5.747,0.863C1153.571,126.276,1153.442,126.252,1153.329,126.199z
			 M1168.026,122.961c-0.166-0.076-0.303-0.216-0.37-0.4c-0.131-0.359,0.057-0.751,0.421-0.874c1.784-0.604,3.563-1.289,5.287-2.04
			c0.352-0.151,0.766,0.007,0.927,0.355c0.161,0.348,0.007,0.754-0.345,0.908c-1.76,0.764-3.574,1.464-5.396,2.08
			C1168.374,123.051,1168.187,123.035,1168.026,122.961z M1181.604,116.631c-0.12-0.055-0.227-0.145-0.302-0.264
			c-0.207-0.324-0.111-0.748,0.215-0.946c1.602-0.974,3.18-2.028,4.691-3.133c0.307-0.225,0.745-0.159,0.979,0.149
			c0.233,0.307,0.174,0.737-0.134,0.962c-1.542,1.127-3.152,2.204-4.787,3.198C1182.06,116.722,1181.811,116.727,1181.604,116.631z
			 M1193.198,107.366c-0.769-0.769,0.206-0.843,3.859-5.057c0.595-0.687,1.666,0.218,1.069,0.905
			c-1.246,1.438-2.571,2.84-3.94,4.167C1193.915,107.646,1193.473,107.641,1193.198,107.366z M1202.752,95.971
			c-0.92-0.585,0.006-0.864,2.616-5.789c0.424-0.798,1.668-0.148,1.241,0.654c-0.891,1.681-1.864,3.341-2.895,4.935
			C1203.507,96.094,1203.069,96.177,1202.752,95.971z M1209.437,82.726c-0.329-0.151-0.494-0.527-0.371-0.865
			c0.64-1.758,1.21-3.557,1.693-5.347c0.101-0.366,0.482-0.578,0.856-0.474c0.374,0.106,0.596,0.485,0.496,0.851
			c-0.495,1.827-1.076,3.662-1.729,5.456c-0.129,0.356-0.529,0.536-0.893,0.402C1209.472,82.741,1209.453,82.734,1209.437,82.726z"
			/>
		<path fill="#91B3FA" d="M1090.919,100.163c-1.524-1.899-2.308-2.674-1.573-3.195c0.764-0.542,1.104,0.407,2.663,2.352
			c0.241,0.301,0.193,0.733-0.107,0.966C1091.6,100.519,1091.16,100.464,1090.919,100.163z"/>
	</g>
	<g>
		<path fill="#061E60" d="M1099.779,83.357l10.009-0.526c2.771,3.77,6.163,7.142,10.108,9.941c-0.29,9.594-0.99,10.246,0.009,10.659
			l11.164,4.618c0.326,0.135,0.699,0.053,0.931-0.205l6.571-7.348c4.766,0.804,9.544,0.812,14.159,0.099l6.727,7.449
			c0.236,0.261,0.611,0.349,0.935,0.219l11.072-4.457c0.324-0.13,0.524-0.45,0.499-0.796l-0.708-9.872
			c3.778-2.665,7.142-5.95,9.915-9.789l10.015,0.672c0.351,0.023,0.675-0.175,0.807-0.494l4.494-10.921
			c0.131-0.319,0.04-0.688-0.226-0.92l-7.572-6.604c0.733-4.682,0.658-9.39-0.146-13.951c7.136-6.5,8.069-6.44,7.65-7.416
			c-4.815-10.696-4.438-11.551-5.533-11.494l-10.009,0.527c-2.771-3.77-6.164-7.141-10.108-9.941
			c0.29-9.588,0.99-10.246-0.008-10.66c-11.172-4.398-11.389-5.203-12.096-4.413l-6.571,7.348c-4.767-0.804-9.544-0.813-14.16-0.098
			c-6.641-7.057-6.662-8.07-7.661-7.667c-10.878,4.603-11.647,4.186-11.571,5.252l0.709,9.871c-3.779,2.665-7.143,5.95-9.915,9.789
			c-9.573-0.445-10.412-1.175-10.821-0.177c-4.252,10.883-5.09,11.126-4.27,11.841l7.573,6.604
			c-0.733,4.682-0.659,9.389,0.146,13.95c-7.111,6.478-8.071,6.435-7.65,7.416C1099.061,82.56,1098.683,83.415,1099.779,83.357z"/>
		<g>
			<path fill="#BDD0FB" d="M1133.591,56.03c0.874-6.301,6.801-10.637,13.212-9.667c6.41,0.972,10.916,6.886,10.044,13.187
				c-0.875,6.301-6.801,10.638-13.212,9.667l0,0C1137.222,68.246,1132.718,62.33,1133.591,56.03z M1143.775,68.196l0.007,0.003
				L1143.775,68.196z M1146.52,48.405c-5.204-0.788-10.122,2.687-10.85,7.939c-0.718,5.175,2.981,10.035,8.248,10.83
				c5.266,0.797,10.133-2.765,10.85-7.939C1155.486,54.052,1151.775,49.199,1146.52,48.405z"/>
		</g>
		<path fill="#BDD0FB" d="M1133.077,84.485L1133.077,84.485c-1.581-0.729-3.099-1.587-4.524-2.563
			c-0.429-0.292-0.575-0.839-0.369-1.285c0.024-0.053,0.054-0.105,0.089-0.154c0.324-0.467,0.978-0.579,1.455-0.252
			c1.641,1.121,3.412,2.078,5.265,2.845l0,0c13.962,5.775,29.844-0.333,35.969-13.626c0.156-0.339,0.307-0.684,0.451-1.032
			c5.798-14.091-1.221-30.225-15.515-36.142c-14.275-5.905-30.629,0.607-36.419,14.659c-3.442,8.366-1.37,14.29-1.767,15.148
			c-0.428,0.928-1.829,0.716-1.992-0.296c-0.888-5.527-0.189-11.371,2.297-16.767c10.729-23.282,44.875-22.33,55.109,1.514
			c3.15,7.338,3.232,15.396,0.23,22.688c-0.155,0.377-0.317,0.75-0.487,1.119c-3.11,6.752-8.621,11.983-15.633,14.806
			c-7.393,2.976-15.571,2.916-23.026-0.168C1133.828,84.822,1133.45,84.657,1133.077,84.485z"/>
	</g>
</g>
<g>
	<path fill="#061E60" d="M1220.225,40.73c1.692,1.994,3.713,3.732,6.019,5.121l0.112,5.594c0.013,0.622,0.543,0.381,6.711,2.49
		c0.571,0.184,0.507-0.349,3.869-4.636c2.682,0.22,5.338-0.01,7.876-0.64l4.037,3.879c0.45,0.43,0.653-0.115,6.507-2.984
		c0.174-0.09,0.273-0.28,0.245-0.475l-0.789-5.543c1.994-1.692,3.734-3.713,5.122-6.019c5.343-0.219,5.835,0.15,6.022-0.431
		c1.93-6.365,2.383-6.538,1.899-6.901l-4.475-3.359c0.22-2.682-0.01-5.339-0.64-7.876l3.879-4.038
		c0.431-0.448-0.114-0.653-2.984-6.506c-0.271-0.531-0.583-0.115-6.018,0.543c-1.691-1.994-3.713-3.733-6.018-5.121l-0.113-5.594
		c-0.012-0.622-0.543-0.381-6.711-2.491c-0.567-0.183-0.49,0.328-3.868,4.637c-2.683-0.221-5.339,0.01-7.877,0.64l-4.037-3.878
		c-0.143-0.137-0.354-0.167-0.529-0.078l-5.977,3.062c-0.176,0.09-0.274,0.28-0.246,0.475l0.788,5.543
		c-1.993,1.691-3.731,3.713-5.12,6.019c-5.345,0.219-5.837-0.15-6.023,0.431c-1.93,6.362-2.384,6.538-1.899,6.901l4.475,3.36
		c-0.221,2.681,0.01,5.338,0.64,7.876c-3.625,3.933-4.236,4.021-3.957,4.566l3.062,5.978
		C1214.48,41.807,1214.817,41.385,1220.225,40.73z"/>
	<g>
		<g>
			<path fill="#BDD0FB" d="M1231.928,24.386c0.251-3.865,3.582-6.791,7.447-6.541c3.863,0.25,6.79,3.581,6.54,7.446
				c-0.251,3.855-3.59,6.79-7.447,6.541l0,0C1234.612,31.582,1231.679,28.243,1231.928,24.386z M1238.536,30.79l0.006,0.003
				L1238.536,30.79z M1234.012,24.521c-0.174,2.708,1.886,5.052,4.591,5.228l0,0c4.347,0.281,6.899-4.871,4.015-8.155
				C1239.745,18.323,1234.296,20.146,1234.012,24.521z"/>
		</g>
		<g>
			<path fill="#91B3FA" d="M1203.747,35.323c-0.27-0.902-0.507-1.827-0.705-2.749c-0.081-0.376,0.158-0.747,0.533-0.827
				c0.947-0.204,0.813,0.853,1.505,3.178c0.111,0.369-0.099,0.756-0.468,0.866C1204.246,35.901,1203.857,35.693,1203.747,35.323z"/>
			<path fill="#91B3FA" d="M1202.258,23.3c0.077-1.847,0.298-3.77,0.683-5.695c0.182-0.905,1.546-0.627,1.365,0.273
				c-0.996,4.986-0.218,6.197-1.382,6.147C1202.536,24.008,1202.241,23.681,1202.258,23.3z M1206.232,9.714
				c-0.346-0.168-0.489-0.585-0.321-0.931c0.834-1.714,1.813-3.378,2.906-4.945c0.528-0.754,1.67,0.042,1.142,0.798
				c-1.053,1.507-1.993,3.107-2.796,4.757C1206.867,10,1206.148,9.712,1206.232,9.714z M1215.229-1.892
				c-0.089-0.041-0.17-0.101-0.237-0.18c-0.251-0.292-0.216-0.731,0.076-0.981c1.45-1.242,3.01-2.378,4.634-3.378
				c0.327-0.201,0.757-0.099,0.958,0.228c0.202,0.327,0.1,0.756-0.228,0.957c-1.563,0.963-3.063,2.057-4.459,3.251
				C1215.76-1.814,1215.469-1.782,1215.229-1.892z M1228.091-8.969c-0.174-0.08-0.314-0.231-0.374-0.428
				c-0.113-0.368,0.093-0.757,0.461-0.869c1.825-0.56,3.709-0.978,5.6-1.244c0.382-0.053,0.733,0.212,0.787,0.593
				c0.054,0.38-0.212,0.732-0.594,0.786c-1.817,0.255-3.63,0.658-5.385,1.195C1228.416-8.884,1228.241-8.9,1228.091-8.969z
				 M1242.311-11.018c0.044-0.382,0.389-0.657,0.771-0.614c1.902,0.216,3.797,0.581,5.633,1.087c0.886,0.24,0.521,1.587-0.371,1.342
				c-1.764-0.486-3.588-0.837-5.419-1.045C1242.533-10.293,1242.269-10.643,1242.311-11.018z"/>
			<path fill="#91B3FA" d="M1258.935-4.263c-2.103-1.45-3.03-1.6-2.559-2.413c0.193-0.333,0.612-0.451,0.952-0.252
				c0.812,0.47,1.618,0.981,2.397,1.518c0.316,0.218,0.396,0.652,0.178,0.969C1259.688-4.131,1259.259-4.043,1258.935-4.263z"/>
		</g>
		<g>
			<path fill="#91B3FA" d="M1273.952,20.331c-0.324-2.543-0.83-3.326,0.091-3.516c0.376-0.078,0.744,0.164,0.822,0.54
				c0.191,0.919,0.35,1.861,0.47,2.799c0.047,0.381-0.222,0.73-0.603,0.779C1274.352,20.982,1274.002,20.713,1273.952,20.331z"/>
			<path fill="#91B3FA" d="M1226.919,58.794c0.363-1.098,1.187,0.033,6.148,0.861c0.906,0.149,0.682,1.526-0.23,1.374
				c-1.854-0.31-3.697-0.766-5.476-1.355C1227.002,59.556,1226.796,59.164,1226.919,58.794z M1241.229,60.775
				c-0.031-0.383,0.253-0.719,0.637-0.751c5.056-0.415,5.924-1.476,6.197-0.348c0.089,0.375-0.14,0.751-0.514,0.841
				c-1.823,0.44-3.696,0.741-5.57,0.895C1241.597,61.443,1241.262,61.158,1241.229,60.775z M1255.164,56.982
				c-0.544-1.024,0.831-0.828,4.872-3.845c0.738-0.55,1.572,0.565,0.833,1.116c-1.506,1.124-3.109,2.14-4.765,3.018
				C1255.766,57.451,1255.344,57.323,1255.164,56.982z M1266.487,48.015c-0.902-0.732,0.443-1.089,2.979-5.446
				c0.463-0.796,1.668-0.097,1.205,0.7c-0.943,1.621-2.021,3.183-3.204,4.644C1267.225,48.211,1266.786,48.256,1266.487,48.015z
				 M1272.904,34.462c1.377-4.878,0.688-6.069,1.843-5.928c0.383,0.046,0.653,0.394,0.606,0.776
				c-0.228,1.869-0.601,3.73-1.109,5.531c-0.105,0.37-0.489,0.585-0.86,0.48C1273.015,35.217,1272.799,34.833,1272.904,34.462z"/>
			<path fill="#91B3FA" d="M1219.073,55.709c-0.793-0.511-1.574-1.059-2.324-1.627c-0.306-0.233-0.366-0.669-0.133-0.976
				c0.585-0.771,1.168,0.117,3.211,1.433c0.323,0.209,0.417,0.639,0.208,0.963C1219.823,55.828,1219.39,55.914,1219.073,55.709z"/>
		</g>
		<path fill="#BDD0FB" d="M1230.427,39.713c-0.573-0.328-0.689-0.977-0.417-1.448c0.29-0.499,0.934-0.668,1.428-0.381
			c0.927,0.536,1.919,0.977,2.952,1.31c0.225,0.027,5.531,2.145,11.566-0.936c11.966-6.131,10.551-23.794-2.26-27.924
			c-7.37-2.376-15.258,1.211-18.421,8.076c-3.186,6.915,0.416,10.512-1.788,11.021c-0.563,0.131-1.124-0.219-1.254-0.781
			c-0.704-3.031-0.568-6.205,0.392-9.182c2.913-9.037,12.646-14.046,21.712-11.123c9.757,3.145,14.735,14.175,10.36,23.669
			c-3.528,7.658-12.403,11.922-20.95,9.166l0,0C1232.592,40.808,1231.474,40.314,1230.427,39.713z"/>
	</g>
</g>
<g>
	<linearGradient id="SVGID_6_" gradientUnits="userSpaceOnUse" x1="1218.998" y1="269.1848" x2="1216.3033" y2="286.9702">
		<stop  offset="0" style="stop-color:#09005D"/>
		<stop  offset="1" style="stop-color:#1A0F91"/>
	</linearGradient>
	<path fill="url(#SVGID_6_)" d="M1225.216,270.546c-0.023-0.29-0.32-0.542-0.822-0.743c0.546-0.301,0.848-0.624,0.822-0.94
		c-0.077-0.957-3.11-1.494-6.773-1.198c-3.662,0.295-6.57,1.311-6.493,2.268c0.023,0.291,0.32,0.542,0.822,0.744
		c-0.546,0.301-0.848,0.623-0.822,0.939c0.023,0.291,0.32,0.542,0.822,0.744c-0.546,0.3-0.848,0.624-0.822,0.939
		c0.023,0.29,0.32,0.541,0.822,0.743c-0.546,0.301-0.848,0.624-0.822,0.94c0.035,0.423,0.647,0.764,1.637,0.987
		c-0.013,0.313-0.006,0.656,0.024,1.035c0.144,1.764,2.129,3.147,4.754,3.147c2.624,0,4.896-1.887,4.922-3.656
		c0.006-0.434-0.013-0.815-0.052-1.154c1.257-0.42,2.021-0.933,1.981-1.43c-0.023-0.29-0.32-0.541-0.822-0.742
		c0.546-0.302,0.848-0.624,0.822-0.94c-0.023-0.291-0.32-0.542-0.822-0.744C1224.939,271.185,1225.241,270.863,1225.216,270.546z"/>
	<g>
		<linearGradient id="SVGID_7_" gradientUnits="userSpaceOnUse" x1="1219.5938" y1="261.8069" x2="1214.939" y2="313.1435">
			<stop  offset="0" style="stop-color:#53D8FF"/>
			<stop  offset="1" style="stop-color:#3840F7"/>
		</linearGradient>
		<path fill="url(#SVGID_7_)" d="M1216.747,276.352c-1.087,0-2.083-0.08-2.905-0.238c-0.048-0.009-0.079-0.055-0.07-0.103
			c0.01-0.048,0.056-0.079,0.103-0.07c1.288,0.247,3.007,0.301,4.842,0.152c1.501-0.12,2.904-0.362,4.059-0.699
			c0.047-0.014,0.096,0.013,0.109,0.06s-0.014,0.096-0.06,0.109c-1.166,0.341-2.582,0.585-4.095,0.706
			C1218.048,276.324,1217.382,276.352,1216.747,276.352z"/>
		<linearGradient id="SVGID_8_" gradientUnits="userSpaceOnUse" x1="1219.7295" y1="261.8196" x2="1215.0747" y2="313.1551">
			<stop  offset="0" style="stop-color:#53D8FF"/>
			<stop  offset="1" style="stop-color:#3840F7"/>
		</linearGradient>
		<path fill="url(#SVGID_8_)" d="M1216.767,274.666c-1.414,0-2.678-0.133-3.568-0.387c-0.047-0.013-0.073-0.063-0.061-0.109
			c0.013-0.046,0.062-0.073,0.109-0.06c1.269,0.361,3.313,0.474,5.469,0.3c2.131-0.172,4.118-0.604,5.316-1.157
			c0.045-0.021,0.097-0.001,0.117,0.043c0.021,0.045,0.001,0.098-0.043,0.117c-1.216,0.561-3.227,0.999-5.377,1.173
			C1218.058,274.64,1217.396,274.666,1216.767,274.666z"/>
		<linearGradient id="SVGID_9_" gradientUnits="userSpaceOnUse" x1="1219.4727" y1="261.7961" x2="1214.8177" y2="313.1329">
			<stop  offset="0" style="stop-color:#53D8FF"/>
			<stop  offset="1" style="stop-color:#3840F7"/>
		</linearGradient>
		<path fill="url(#SVGID_9_)" d="M1216.747,272.985c-1.525,0-2.861-0.156-3.76-0.453c-0.047-0.015-0.071-0.064-0.056-0.111
			c0.015-0.046,0.064-0.071,0.11-0.056c1.251,0.413,3.371,0.548,5.674,0.362c2.131-0.172,4.118-0.604,5.316-1.157
			c0.045-0.02,0.097-0.001,0.117,0.043s0.001,0.097-0.043,0.117c-1.217,0.561-3.227,0.999-5.377,1.173
			C1218.048,272.957,1217.381,272.985,1216.747,272.985z"/>
		<linearGradient id="SVGID_10_" gradientUnits="userSpaceOnUse" x1="1219.6094" y1="261.8127" x2="1214.9563" y2="313.1303">
			<stop  offset="0" style="stop-color:#53D8FF"/>
			<stop  offset="1" style="stop-color:#3840F7"/>
		</linearGradient>
		<path fill="url(#SVGID_10_)" d="M1216.759,271.3c-1.21,0-2.312-0.098-3.167-0.288c-0.048-0.011-0.077-0.058-0.067-0.105
			c0.011-0.047,0.059-0.077,0.105-0.065c1.287,0.285,3.141,0.359,5.086,0.202c2.111-0.17,4.089-0.599,5.29-1.145
			c0.044-0.02,0.097,0,0.116,0.044s0,0.097-0.044,0.116c-1.218,0.555-3.218,0.988-5.349,1.16
			C1218.056,271.274,1217.393,271.3,1216.759,271.3z"/>
	</g>
	<linearGradient id="SVGID_11_" gradientUnits="userSpaceOnUse" x1="1221.0234" y1="225.3127" x2="1213.8438" y2="273.9756">
		<stop  offset="0" style="stop-color:#FF928E"/>
		<stop  offset="1" style="stop-color:#FE7062"/>
	</linearGradient>
	<path fill="url(#SVGID_11_)" d="M1209.49,262.049c-0.444-1.576-1.2-3.049-2.218-4.332c-2.181-2.748-5.739-8.338-6.176-15.967
		c-0.638-11.096,9.203-16.651,18.184-15.897s17.842,7.44,16.872,17.764c-0.597,6.352-4.152,11.17-6.8,13.937
		c-1.68,1.757-2.88,3.909-3.528,6.252c-0.795,2.868-2.686,6.442-7.179,6.661C1212.831,270.747,1210.417,265.327,1209.49,262.049z"/>
	<linearGradient id="SVGID_12_" gradientUnits="userSpaceOnUse" x1="1287.1992" y1="166.8079" x2="1254.89" y2="211.8811">
		<stop  offset="0" style="stop-color:#E1473D"/>
		<stop  offset="1" style="stop-color:#E9605A"/>
	</linearGradient>
	<path fill="url(#SVGID_12_)" d="M1220.131,268.253l3.143-20.438c0.064-0.422,0.273-0.705,0.464-0.634
		c0.191,0.073,0.294,0.474,0.229,0.896c-0.002,0.011-0.004,0.024-0.006,0.036l-3.578,20.247c-0.027,0.152-0.104,0.248-0.173,0.215
		C1220.142,268.543,1220.108,268.401,1220.131,268.253z"/>
	<linearGradient id="SVGID_13_" gradientUnits="userSpaceOnUse" x1="1282.7129" y1="163.595" x2="1250.4043" y2="208.6674">
		<stop  offset="0" style="stop-color:#E1473D"/>
		<stop  offset="1" style="stop-color:#E9605A"/>
	</linearGradient>
	<path fill="url(#SVGID_13_)" d="M1216.869,268.414l-3.142-20.436c-0.065-0.423-0.272-0.707-0.465-0.634
		c-0.19,0.072-0.293,0.473-0.229,0.896c0.001,0.012,0.004,0.025,0.006,0.036l3.579,20.247c0.027,0.152,0.104,0.248,0.173,0.215
		C1216.858,268.706,1216.892,268.562,1216.869,268.414z"/>
	<path fill="#FFFFFF" d="M1223.251,246.061c-0.08-0.128-0.265-0.177-0.413-0.106l-1.749,0.817l-0.607-1.73
		c-0.032-0.091-0.107-0.171-0.213-0.214c-0.201-0.083-0.441-0.01-0.537,0.165l-0.004,0.006l-1.438,2.623l-1.335-3.734l-0.002-0.006
		c-0.033-0.092-0.102-0.173-0.203-0.229c-0.223-0.122-0.52-0.063-0.66,0.13l-2.012,2.771c-0.082,0.112-0.053,0.265,0.071,0.349
		c0.132,0.09,0.324,0.068,0.428-0.047l1.771-1.976l1.596,3.554l0.001,0.002c0.025,0.057,0.073,0.107,0.14,0.138
		c0.15,0.07,0.337,0.021,0.418-0.108l1.539-2.469l0.579,1.249l0.005,0.012c0.004,0.008,0.009,0.018,0.015,0.026
		c0.079,0.128,0.265,0.176,0.412,0.107l2.076-0.972C1223.275,246.349,1223.331,246.19,1223.251,246.061z"/>
	<path fill="#FFFFFF" d="M1229.421,254.919c-0.082,0-0.166-0.025-0.236-0.079c-0.178-0.131-0.214-0.381-0.083-0.559
		c0.535-0.72,1.025-1.466,1.458-2.214c0.109-0.19,0.354-0.256,0.544-0.146c0.191,0.11,0.257,0.354,0.146,0.544
		c-0.447,0.775-0.954,1.546-1.507,2.292C1229.664,254.863,1229.544,254.919,1229.421,254.919z"/>
	<path fill="#FFFFFF" d="M1232.007,250.483c-0.054,0-0.107-0.011-0.159-0.033c-0.202-0.088-0.295-0.323-0.207-0.524
		c3.321-7.647,0.457-14.065,0.428-14.129c-0.093-0.2-0.004-0.438,0.196-0.529s0.438-0.004,0.529,0.196
		c0.125,0.275,3.039,6.809-0.422,14.779C1232.308,250.393,1232.16,250.483,1232.007,250.483z"/>
</g>
</svg>
