<svg xmlns="http://www.w3.org/2000/svg" width="357.883" height="386.451" viewBox="0 0 357.883 386.451">
  <g id="product-icon" transform="translate(-64 450.663)">
    <path id="Path_1" data-name="Path 1" d="M232.8-450c-5,1.3-155,76.4-156.8,78.5-1.9,2.3-1.8,8,.2,10.2.9,1,36.2,19.1,78.5,40.2,67.6,33.7,77.5,38.4,82.8,39,13,1.4,11,2.2,93.8-39.1,47.1-23.4,77.6-39.2,78.8-40.7a6.778,6.778,0,0,0,0-9.2c-1.2-1.5-31.8-17.3-78.9-40.8l-77-38.5-8.9-.2C240.5-450.8,234.8-450.5,232.8-450Z" fill="#fff"/>
    <path id="Path_2" data-name="Path 2" d="M66.4-320.5,64-318l.2,83.7.3,83.8,3.3,6.7c6,12.2,5.5,12,78.3,45.5,36,16.6,67.6,31.2,70.2,32.3,5.4,2.4,8.6,2.1,11.7-1,2-2,2-3.7,2-87.3,0-57.8-.4-86.4-1.1-89.1a26.054,26.054,0,0,0-5.5-8.6c-4.1-4.4-8.9-6.8-76.2-37.8-47.1-21.8-73-33.2-75.1-33.2A8.059,8.059,0,0,0,66.4-320.5Z" fill="#fff"/>
    <path id="Path_3" data-name="Path 3" d="M339.5-290c-43.7,20.2-72.5,34.1-74.9,36.1a29.084,29.084,0,0,0-6.2,8.3l-2.4,5.1V-69.8l3,3c2.5,2.5,3.6,2.9,6.1,2.4,2.7-.5,120-54.1,135.9-62.1,7.6-3.8,15.1-11.3,18.3-18.3,2.2-4.7,2.2-4.8,2.5-88.8.2-84,.2-84.1-1.9-86.7-1.6-2.1-2.9-2.7-5.7-2.6C411.6-322.9,390.2-313.5,339.5-290Z" fill="#fff"/>
  </g>
</svg>
