<svg xmlns="http://www.w3.org/2000/svg" width="473.06" height="398.071" viewBox="0 0 473.06 398.071">
  <g id="projects-strategies" transform="translate(-9.888 -12.193)">
    <g id="Group_179" data-name="Group 179" transform="translate(339.95 23.167)">
      <path id="Path_118" data-name="Path 118" d="M399.663,56.366h-8.3a32.919,32.919,0,0,0-2.245-5.413l5.873-5.873a3.738,3.738,0,0,0,0-5.28l-9.055-9.051a3.723,3.723,0,0,0-5.276,0l-5.871,5.873a33.192,33.192,0,0,0-5.421-2.251v-8.3a3.73,3.73,0,0,0-3.732-3.733h-12.8a3.731,3.731,0,0,0-3.733,3.733v8.3a33.179,33.179,0,0,0-5.419,2.251h0L337.81,30.75a3.721,3.721,0,0,0-5.275,0L323.48,39.8a3.736,3.736,0,0,0,0,5.28l5.873,5.873a32.992,32.992,0,0,0-2.245,5.413h-8.3a3.735,3.735,0,0,0-3.733,3.733V72.9a3.731,3.731,0,0,0,3.733,3.733h8.3a33.493,33.493,0,0,0,2.245,5.418l-5.873,5.873a3.736,3.736,0,0,0,0,5.28l9.055,9.051a3.731,3.731,0,0,0,5.275,0l5.873-5.873a33.645,33.645,0,0,0,5.419,2.246v8.3a3.731,3.731,0,0,0,3.733,3.733h12.8a3.73,3.73,0,0,0,3.732-3.733v-8.3a33.657,33.657,0,0,0,5.421-2.246l5.871,5.873a3.732,3.732,0,0,0,5.276,0l9.055-9.051a3.738,3.738,0,0,0,0-5.28l-5.873-5.873a33.63,33.63,0,0,0,2.245-5.418h8.3A3.73,3.73,0,0,0,403.4,72.9V60.1A3.734,3.734,0,0,0,399.663,56.366ZM359.235,83.192A16.692,16.692,0,1,1,375.927,66.5,16.692,16.692,0,0,1,359.235,83.192Z" transform="translate(-315.074 -22.34)" fill="#2f3083"/>
      <g id="Group_178" data-name="Group 178" transform="translate(14.963 14.961)">
        <g id="Group_177" data-name="Group 177">
          <path id="Path_119" data-name="Path 119" d="M358.108,94.57a29.2,29.2,0,1,1,29.2-29.2A29.231,29.231,0,0,1,358.108,94.57Zm0-55.529a26.332,26.332,0,1,0,26.331,26.332A26.361,26.361,0,0,0,358.108,39.041Z" transform="translate(-328.909 -36.173)" fill="#fff"/>
        </g>
      </g>
    </g>
    <g id="Group_182" data-name="Group 182" transform="translate(264.404 37.716)">
      <path id="Path_120" data-name="Path 120" d="M304.475,59.627h-5.814a23.209,23.209,0,0,0-1.573-3.792l4.113-4.113a2.618,2.618,0,0,0,0-3.7l-6.343-6.34a2.607,2.607,0,0,0-3.694,0L287.051,45.8a23.407,23.407,0,0,0-3.8-1.577V38.407a2.614,2.614,0,0,0-2.615-2.615h-8.967a2.612,2.612,0,0,0-2.615,2.615V44.22a23.1,23.1,0,0,0-3.8,1.577h0l-4.114-4.113a2.608,2.608,0,0,0-3.7,0l-6.343,6.34a2.618,2.618,0,0,0,0,3.7l4.114,4.113a23.115,23.115,0,0,0-1.573,3.792h-5.813a2.616,2.616,0,0,0-2.615,2.615v8.967a2.613,2.613,0,0,0,2.615,2.615h5.813a23.408,23.408,0,0,0,1.573,3.8l-4.114,4.113a2.618,2.618,0,0,0,0,3.7l6.343,6.34a2.614,2.614,0,0,0,3.7,0l4.114-4.113a23.468,23.468,0,0,0,3.8,1.574v5.813a2.612,2.612,0,0,0,2.615,2.615h8.967a2.614,2.614,0,0,0,2.615-2.615V89.233a23.591,23.591,0,0,0,3.8-1.574l4.113,4.113a2.613,2.613,0,0,0,3.694,0l6.343-6.34a2.618,2.618,0,0,0,0-3.7l-4.113-4.113a23.606,23.606,0,0,0,1.573-3.8h5.814a2.614,2.614,0,0,0,2.615-2.615V62.244A2.617,2.617,0,0,0,304.475,59.627Zm-28.32,18.791a11.693,11.693,0,1,1,11.693-11.692A11.692,11.692,0,0,1,276.154,78.419Z" transform="translate(-245.222 -35.792)" fill="#3c56a6"/>
      <g id="Group_181" data-name="Group 181" transform="translate(10.48 10.481)">
        <g id="Group_180" data-name="Group 180">
          <path id="Path_121" data-name="Path 121" d="M275.364,86.389a20.453,20.453,0,1,1,20.454-20.452A20.475,20.475,0,0,1,275.364,86.389Zm0-38.9A18.444,18.444,0,1,0,293.81,65.937,18.465,18.465,0,0,0,275.364,47.492Z" transform="translate(-254.912 -45.483)" fill="#fff"/>
        </g>
      </g>
    </g>
    <g id="Group_185" data-name="Group 185" transform="translate(338.52 323.731)">
      <path id="Path_122" data-name="Path 122" d="M396.628,333.589H388.5a32.408,32.408,0,0,0-2.2-5.3l5.754-5.753a3.663,3.663,0,0,0,0-5.173l-8.874-8.867a3.644,3.644,0,0,0-5.166,0l-5.754,5.753a32.6,32.6,0,0,0-5.308-2.205v-8.131a3.656,3.656,0,0,0-3.659-3.658H350.748a3.656,3.656,0,0,0-3.659,3.658v8.131a32.562,32.562,0,0,0-5.308,2.205h0l-5.754-5.753a3.644,3.644,0,0,0-5.166,0l-8.874,8.867a3.663,3.663,0,0,0,0,5.173l5.754,5.753a32.444,32.444,0,0,0-2.2,5.3H317.41a3.66,3.66,0,0,0-3.658,3.658v12.542a3.656,3.656,0,0,0,3.658,3.658h8.132a32.807,32.807,0,0,0,2.2,5.309l-5.754,5.753a3.663,3.663,0,0,0,0,5.173l8.874,8.867a3.653,3.653,0,0,0,5.166,0l5.754-5.753a32.97,32.97,0,0,0,5.308,2.2v8.131a3.656,3.656,0,0,0,3.659,3.659H363.29a3.657,3.657,0,0,0,3.659-3.659V375a33.027,33.027,0,0,0,5.308-2.2l5.754,5.753a3.653,3.653,0,0,0,5.166,0l8.874-8.867a3.663,3.663,0,0,0,0-5.173l-5.754-5.753a32.754,32.754,0,0,0,2.2-5.309h8.132a3.656,3.656,0,0,0,3.658-3.658V337.246A3.659,3.659,0,0,0,396.628,333.589Zm-39.609,26.283a16.354,16.354,0,1,1,16.355-16.354A16.355,16.355,0,0,1,357.019,359.871Z" transform="translate(-313.752 -300.251)" fill="#3c56a6"/>
      <g id="Group_184" data-name="Group 184" transform="translate(14.66 14.66)">
        <g id="Group_183" data-name="Group 183">
          <path id="Path_123" data-name="Path 123" d="M355.914,371.019a28.607,28.607,0,1,1,28.607-28.606A28.639,28.639,0,0,1,355.914,371.019Zm0-54.4a25.8,25.8,0,1,0,25.8,25.8A25.827,25.827,0,0,0,355.914,316.615Z" transform="translate(-327.307 -313.806)" fill="#fff"/>
        </g>
      </g>
    </g>
    <g id="Group_188" data-name="Group 188" transform="translate(48.861 63.972)">
      <path id="Path_124" data-name="Path 124" d="M114.039,87.472h-6.683a26.56,26.56,0,0,0-1.807-4.36l4.728-4.728a3.01,3.01,0,0,0,0-4.253l-7.293-7.288a3,3,0,0,0-4.247,0l-4.728,4.728a26.721,26.721,0,0,0-4.364-1.813V63.077a3,3,0,0,0-3.007-3.007H76.331a3,3,0,0,0-3.007,3.007v6.683a26.669,26.669,0,0,0-4.363,1.813h0l-4.728-4.728a3,3,0,0,0-4.247,0l-7.293,7.288a3.01,3.01,0,0,0,0,4.253l4.728,4.728a26.658,26.658,0,0,0-1.808,4.36H48.931a3.007,3.007,0,0,0-3.007,3.007v10.307a3,3,0,0,0,3.007,3.007h6.683a26.994,26.994,0,0,0,1.808,4.364l-4.728,4.728a3.01,3.01,0,0,0,0,4.253l7.293,7.288a3,3,0,0,0,4.247,0l4.729-4.728a27.039,27.039,0,0,0,4.363,1.808v6.683a3,3,0,0,0,3.007,3.007H86.64a3,3,0,0,0,3.007-3.007v-6.683A27.092,27.092,0,0,0,94.01,119.7l4.728,4.728a3,3,0,0,0,4.247,0l7.293-7.288a3.01,3.01,0,0,0,0-4.253l-4.728-4.728a26.988,26.988,0,0,0,1.807-4.364h6.683a3,3,0,0,0,3.007-3.007V90.479A3.009,3.009,0,0,0,114.039,87.472Zm-32.555,21.6A13.442,13.442,0,1,1,94.925,95.631,13.442,13.442,0,0,1,81.484,109.073Z" transform="translate(-45.924 -60.07)" fill="#04858a"/>
      <g id="Group_187" data-name="Group 187" transform="translate(12.048 12.05)">
        <g id="Group_186" data-name="Group 186">
          <path id="Path_125" data-name="Path 125" d="M80.576,118.236a23.512,23.512,0,1,1,23.512-23.512A23.539,23.539,0,0,1,80.576,118.236Zm0-44.715a21.2,21.2,0,1,0,21.2,21.2A21.227,21.227,0,0,0,80.576,73.521Z" transform="translate(-57.064 -71.212)" fill="#fff"/>
        </g>
      </g>
    </g>
    <g id="Group_192" data-name="Group 192" transform="translate(124.809 12.193)">
      <g id="Group_189" data-name="Group 189" transform="translate(21.194 42.566)">
        <path id="Path_126" data-name="Path 126" d="M150.477,102.437A14.75,14.75,0,0,1,135.744,87.7V80.925h4.843V87.7a9.89,9.89,0,1,0,19.781,0V66.284A14.75,14.75,0,0,1,175.1,51.551h5.412a14.75,14.75,0,0,1,14.733,14.733V120.86H190.4V66.284a9.9,9.9,0,0,0-9.89-9.89H175.1a9.9,9.9,0,0,0-9.89,9.89V87.7A14.75,14.75,0,0,1,150.477,102.437Z" transform="translate(-135.744 -51.551)" fill="#fff"/>
      </g>
      <g id="Group_191" data-name="Group 191">
        <path id="Path_127" data-name="Path 127" d="M163.378,35.808A23.616,23.616,0,1,0,120.062,48.83a43.815,43.815,0,0,1,7.294,24.205H152.17a43,43,0,0,1,7.191-24.054A23.482,23.482,0,0,0,163.378,35.808Z" transform="translate(-116.147 -12.193)" fill="#e5e5e5"/>
        <path id="Path_128" data-name="Path 128" d="M141.363,34.26v6.082h-5.109V34.26h-8.393v8.271h6.2V74.278h2.189V42.532h5.109V74.279h2.189V42.532h6.2V34.26Zm-7.3,6.082h-4.013V36.449h4.013Zm13.5,0h-4.013V36.449h4.013Z" transform="translate(-115.193 -10.395)" fill="#fff"/>
        <g id="Group_190" data-name="Group 190" transform="translate(11.208 60.844)">
          <rect id="Rectangle_43" data-name="Rectangle 43" width="11.677" height="5.595" transform="translate(6.569 11.798)" fill="#034e48"/>
          <path id="Path_129" data-name="Path 129" d="M146.171,82.8h-14.5a5.156,5.156,0,0,1-5.156-5.154v-9.2h24.814v9.2A5.155,5.155,0,0,1,146.171,82.8Z" transform="translate(-126.511 -68.452)" fill="#04858a"/>
        </g>
      </g>
    </g>
    <g id="Group_193" data-name="Group 193" transform="translate(269.863 127.254)">
      <path id="Path_130" data-name="Path 130" d="M367.83,146.769l-33.247,6.1,7.293,8.57L319.764,180.25l-25.717-28.713-43.777,36.951,7.287,8.635L292.95,167.25,318.7,195.994l30.5-25.953,7.294,8.57Z" transform="translate(-250.269 -116.284)" fill="#a6b4dc"/>
      <path id="Path_131" data-name="Path 131" d="M349.944,118.582l-26.485,4.856,5.81,6.826-17.614,14.988L291.17,122.38,256.3,151.815l5.806,6.877L290.3,134.9l20.509,22.9,24.3-20.673,5.809,6.826Z" transform="translate(-249.778 -118.582)" fill="#3f61ad"/>
    </g>
    <g id="Group_194" data-name="Group 194" transform="translate(351.534 176.867)">
      <path id="Path_132" data-name="Path 132" d="M408.37,164.456a2.422,2.422,0,0,0-2.422,2.422V169.3a2.421,2.421,0,1,0,4.842,0v-2.421A2.421,2.421,0,0,0,408.37,164.456Z" transform="translate(-319.251 -164.456)" fill="#fff"/>
      <path id="Path_133" data-name="Path 133" d="M408.37,219.481a2.421,2.421,0,0,0-2.422,2.42v5.191a2.421,2.421,0,1,0,4.842,0V221.9A2.42,2.42,0,0,0,408.37,219.481Z" transform="translate(-319.251 -159.971)" fill="#fff"/>
      <path id="Path_134" data-name="Path 134" d="M408.37,181.091a2.422,2.422,0,0,0-2.422,2.421V188.7a2.421,2.421,0,1,0,4.842,0v-5.189A2.421,2.421,0,0,0,408.37,181.091Z" transform="translate(-319.251 -163.1)" fill="#fff"/>
      <path id="Path_135" data-name="Path 135" d="M408.37,200.286a2.422,2.422,0,0,0-2.422,2.422v5.19a2.421,2.421,0,1,0,4.842,0v-5.19A2.421,2.421,0,0,0,408.37,200.286Z" transform="translate(-319.251 -161.535)" fill="#fff"/>
      <path id="Path_136" data-name="Path 136" d="M408.552,238.676a3.829,3.829,0,1,0-2.422,7.265h4.843V241.1A2.423,2.423,0,0,0,408.552,238.676Z" transform="translate(-319.433 -158.406)" fill="#fff"/>
      <path id="Path_137" data-name="Path 137" d="M346.7,240.915h-4.309a2.422,2.422,0,0,0,0,4.843H346.7a2.422,2.422,0,0,0,0-4.843Z" transform="translate(-324.628 -158.224)" fill="#fff"/>
      <path id="Path_138" data-name="Path 138" d="M362.637,240.915h-4.309a2.422,2.422,0,0,0,0,4.843h4.309a2.422,2.422,0,0,0,0-4.843Z" transform="translate(-323.33 -158.224)" fill="#fff"/>
      <path id="Path_139" data-name="Path 139" d="M378.57,240.915h-4.309a2.422,2.422,0,0,0,0,4.843h4.309a2.422,2.422,0,0,0,0-4.843Z" transform="translate(-322.031 -158.224)" fill="#fff"/>
      <path id="Path_140" data-name="Path 140" d="M394.5,240.915H390.2a2.422,2.422,0,1,0,0,4.843H394.5a2.422,2.422,0,0,0,0-4.843Z" transform="translate(-320.732 -158.224)" fill="#fff"/>
      <path id="Path_141" data-name="Path 141" d="M330.628,240.915h-2.423a2.422,2.422,0,0,0,0,4.843h2.423a2.422,2.422,0,0,0,0-4.843Z" transform="translate(-325.785 -158.224)" fill="#fff"/>
    </g>
    <g id="Group_201" data-name="Group 201" transform="translate(9.888 191.749)">
      <rect id="Rectangle_44" data-name="Rectangle 44" width="110.984" height="79.154" transform="matrix(0.957, -0.289, 0.289, 0.957, 0, 32.052)" fill="#3f61ad"/>
      <g id="Group_196" data-name="Group 196" transform="translate(10.697 8.144)">
        <rect id="Rectangle_45" data-name="Rectangle 45" width="96.928" height="59.675" transform="matrix(0.957, -0.289, 0.289, 0.957, 0, 35.031)" fill="#fff"/>
        <g id="Group_195" data-name="Group 195" transform="translate(66.875)">
          <circle id="Ellipse_5" data-name="Ellipse 5" cx="2.545" cy="2.545" r="2.545" transform="translate(0 5.843)" fill="#fff"/>
          <circle id="Ellipse_6" data-name="Ellipse 6" cx="2.545" cy="2.545" r="2.545" transform="translate(9.686 2.921)" fill="#fff"/>
          <circle id="Ellipse_7" data-name="Ellipse 7" cx="2.544" cy="2.544" r="2.544" transform="translate(19.373)" fill="#fff"/>
        </g>
      </g>
      <g id="Group_197" data-name="Group 197" transform="translate(33.265 25.363)">
        <rect id="Rectangle_46" data-name="Rectangle 46" width="11.308" height="20.744" transform="translate(0 44.897) rotate(-16.791)" fill="#ffd237"/>
        <rect id="Rectangle_47" data-name="Rectangle 47" width="11.308" height="29.857" transform="translate(15.9 30.58) rotate(-16.791)" fill="#ffd237"/>
        <rect id="Rectangle_48" data-name="Rectangle 48" width="11.308" height="20.593" transform="matrix(0.957, -0.289, 0.289, 0.957, 37.106, 33.851)" fill="#ffd237"/>
        <rect id="Rectangle_49" data-name="Rectangle 49" width="11.308" height="46.697" transform="matrix(0.957, -0.289, 0.289, 0.957, 48.103, 3.266)" fill="#ffd237"/>
      </g>
      <g id="Group_200" data-name="Group 200" transform="translate(18.383 38.426)">
        <g id="Group_198" data-name="Group 198">
          <circle id="Ellipse_8" data-name="Ellipse 8" cx="2.089" cy="2.089" r="2.089" transform="translate(0 6.831)" fill="#ebebeb"/>
          <rect id="Rectangle_50" data-name="Rectangle 50" width="23.383" height="1.636" transform="matrix(0.957, -0.289, 0.289, 0.957, 6.456, 6.753)" fill="#ebebeb"/>
        </g>
        <g id="Group_199" data-name="Group 199" transform="translate(1.721 5.701)">
          <circle id="Ellipse_9" data-name="Ellipse 9" cx="2.089" cy="2.089" r="2.089" transform="translate(0 6.83)" fill="#ebebeb"/>
          <rect id="Rectangle_51" data-name="Rectangle 51" width="23.383" height="1.636" transform="matrix(0.957, -0.289, 0.289, 0.957, 6.454, 6.753)" fill="#ebebeb"/>
        </g>
      </g>
    </g>
    <g id="Group_202" data-name="Group 202" transform="translate(109.759 131.883)">
      <path id="Path_142" data-name="Path 142" d="M153.921,149.731a1.2,1.2,0,0,0,.028-.141V124.1c0-.041-.019-.076-.023-.116a1.165,1.165,0,0,0-.049-.241,1.23,1.23,0,0,0-.1-.233c-.02-.035-.023-.072-.045-.106s-.054-.047-.078-.076a1.161,1.161,0,0,0-.185-.18,1.266,1.266,0,0,0-.183-.124,1.2,1.2,0,0,0-.226-.09,1.118,1.118,0,0,0-.229-.045,1.139,1.139,0,0,0-.118-.024H115.378a.988.988,0,0,0-.112.023,1.222,1.222,0,0,0-.241.048,1.154,1.154,0,0,0-.217.087,1.1,1.1,0,0,0-.189.128,1.188,1.188,0,0,0-.183.178c-.024.029-.057.045-.078.077s-.026.071-.045.106a1.24,1.24,0,0,0-.147.474,1.046,1.046,0,0,0-.024.116v8.994H103.467c-.015,0-.026.008-.041.009a1.14,1.14,0,0,0-.273.055,1.16,1.16,0,0,0-.2.053,1.188,1.188,0,0,0-.18.121,1.156,1.156,0,0,0-.211.163c-.01.01-.023.014-.032.025a1.113,1.113,0,0,0-.084.148,1.22,1.22,0,0,0-.132.231,1.239,1.239,0,0,0-.052.256,1.165,1.165,0,0,0-.035.173v25.5a1.237,1.237,0,0,0,1.236,1.236h37.337a1.235,1.235,0,0,0,1.235-1.236v-4.955a1.142,1.142,0,0,0,0-.243v-3.8h10.675a1.207,1.207,0,0,0,.514-.12,1.041,1.041,0,0,0,.117-.078,1.244,1.244,0,0,0,.3-.25c.016-.021.042-.026.057-.048a1.128,1.128,0,0,0,.059-.127,1.206,1.206,0,0,0,.109-.229A1.252,1.252,0,0,0,153.921,149.731Zm-11.88-9.667v-5.739a1.169,1.169,0,0,0-.035-.173,1.224,1.224,0,0,0-.052-.256,1.169,1.169,0,0,0-.133-.231,1.113,1.113,0,0,0-.084-.148c-.01-.011-.023-.015-.032-.025a1.216,1.216,0,0,0-.216-.168c-.015-.01-.029-.024-.044-.035l10.034-6.854v20.687ZM104.7,137.035l11.263,9.782L104.7,152.671Zm14.234,9.091s0,0,0,0l-12.161-10.563h8.579c.009,0,.016,0,.024,0s.015,0,.024,0h14.929c.011,0,.023,0,.032,0s.027,0,.041,0h7.1l-12.161,10.562,0,0-3.2,2.777Zm18.416-13.037h-6.613l-11.361-7.759h29.336Zm2.217,3.945V152.66l-11.262-5.842Zm-22.957-10.6,9.743,6.655h-9.743ZM104.7,158.592v-3.136l13.269-6.895,3.355,2.914a1.236,1.236,0,0,0,1.621,0l3.355-2.914,13.268,6.884v3.149H104.7ZM142.04,143.15l6.96,5.205h-6.96Z" transform="translate(-102.232 -122.862)" fill="#fff"/>
    </g>
    <path id="Path_143" data-name="Path 143" d="M132.86,336.988l4.951-14.321c-.251.48,14.062,6.118,14.062,6.118L140.4,316.59l-.056.107.056-.107L99.892,305.5Zm6.786-18.953.006-.013S139.648,318.029,139.646,318.034Z" transform="translate(7.336 23.908)" fill="#dcdbdb"/>
    <path id="Path_144" data-name="Path 144" d="M151.873,328.785l-8.581-17.394-43.4-5.887L140.4,316.59Z" transform="translate(7.336 23.908)" fill="#a3a2a2"/>
    <path id="Path_145" data-name="Path 145" d="M143.292,311.781l8.91-11.065-52.311,5.178Z" transform="translate(7.336 23.518)" fill="#b7b7b7"/>
    <g id="Group_205" data-name="Group 205" transform="translate(164.099 304.972)">
      <g id="Group_203" data-name="Group 203" transform="translate(0 45.177)">
        <path id="Path_146" data-name="Path 146" d="M156.606,328.567a1.454,1.454,0,0,1-1.13-.045c-1.421-.669-2.208-1.1-2.241-1.115a1.453,1.453,0,1,1,1.39-2.551c.008,0,.754.41,2.088,1.037a1.454,1.454,0,0,1,.7,1.934A1.437,1.437,0,0,1,156.606,328.567Z" transform="translate(-152.477 -324.678)" fill="#d3d3d3"/>
      </g>
      <g id="Group_204" data-name="Group 204" transform="translate(11.281)">
        <path id="Path_147" data-name="Path 147" d="M210.4,336.828q-1.067.4-2.137.751a1.453,1.453,0,0,1-.9-2.763,27.938,27.938,0,0,0,4.326-1.741,1.454,1.454,0,0,1,1.343,2.578A24.247,24.247,0,0,1,210.4,336.828Zm-11.653,2.882a1.459,1.459,0,0,1-.323.08c-1.635.215-3.322.366-5.014.447a1.453,1.453,0,0,1-.14-2.9c1.613-.077,3.22-.221,4.776-.426a1.453,1.453,0,0,1,.7,2.8Zm21.858-9.968a1.453,1.453,0,0,1-1.56-2.365,44.783,44.783,0,0,0,3.1-3.613,1.453,1.453,0,0,1,2.3,1.776,47.589,47.589,0,0,1-3.3,3.849A1.473,1.473,0,0,1,220.61,329.742Zm-36.577,10.137a1.443,1.443,0,0,1-.652.085c-1.627-.159-3.3-.379-4.967-.651a1.453,1.453,0,0,1,.468-2.867c1.608.263,3.216.474,4.781.625a1.454,1.454,0,0,1,.37,2.808Zm45.143-22.1a1.453,1.453,0,0,1-1.78-2.069c.757-1.355,1.513-2.8,2.247-4.291a1.453,1.453,0,0,1,2.608,1.285c-.756,1.536-1.536,3.026-2.319,4.426A1.445,1.445,0,0,1,229.177,317.776ZM169.566,337.1a1.442,1.442,0,0,1-.905.038c-1.584-.448-3.189-.947-4.768-1.486a1.453,1.453,0,0,1,.938-2.75c1.531.52,3.086,1.006,4.621,1.439a1.453,1.453,0,0,1,.115,2.759Zm65.85-32.68a1.454,1.454,0,0,1-1.862-1.894c.576-1.462,1.154-3,1.715-4.566a1.453,1.453,0,0,1,2.736.981c-.572,1.6-1.159,3.16-1.747,4.65A1.46,1.46,0,0,1,235.416,304.415Zm4.794-13.963a1.453,1.453,0,0,1-1.9-1.778q.714-2.383,1.348-4.7a1.452,1.452,0,1,1,2.8.769q-.642,2.343-1.366,4.764A1.453,1.453,0,0,1,240.21,290.452Z" transform="translate(-162.907 -282.906)" fill="#d3d3d3"/>
      </g>
    </g>
    <path id="Path_148" data-name="Path 148" d="M234.225,204.925s9.767,48.917,47.545,63.2c0,0,6.3-5.085,10.656-4.117s12.351,10.413,12.351,10.413h-24.7s-40.441-3.874-61.268-43.347l-1.21-14.771Z" transform="translate(16.931 15.71)" fill="#fce6e8"/>
    <path id="Path_149" data-name="Path 149" d="M213.909,166.412s24.539,31.239,27.444,39.472c0,0-15.5,12.835-20.342,17.194,0,0-18.379-36.007-15.256-46.011C208.663,167.758,213.909,166.412,213.909,166.412Z" transform="translate(15.936 12.57)" fill="#e0e0e0"/>
    <path id="Path_150" data-name="Path 150" d="M182.263,159.039s-37.132,5.166-43.589,29.7,43.831,98.48,43.831,98.48h58.2S226.5,171.631,219.395,167.11,202.928,154.842,182.263,159.039Z" transform="translate(10.451 11.871)" fill="#eaeaea"/>
    <path id="Path_151" data-name="Path 151" d="M199.367,146.206,197.974,168.9c-5.241,3.235-24.112-3-24.112-3l2.576-24.923Z" transform="translate(13.366 10.497)" fill="#fce6e8"/>
    <g id="Group_206" data-name="Group 206" transform="translate(182.598 115.048)">
      <path id="Path_152" data-name="Path 152" d="M220.193,116.985s-.686,47.347-26.638,41.168c-30.513-7.265-16.467-50.857-16.467-50.857Z" transform="translate(-169.232 -107.296)" fill="#fce6e8"/>
      <path id="Path_153" data-name="Path 153" d="M177.437,128.738s-2.1-4.682-5.489-2.745-4.2,15.207,4.843,16.24Z" transform="translate(-169.581 -105.81)" fill="#fce6e8"/>
    </g>
    <path id="Path_154" data-name="Path 154" d="M172.608,129.334s5-.808,6.7,3.794l2.664-17.194s17.007,4.844,26.3,0c0,0,7.056,9.3,12.414,10.222s13.29-21.12,0-25.478c0,0-29.62-36.325-46.519,0,0,0-11.087.727-12.539,14.046s8.675,22.5,8.675,22.5S170.024,130.626,172.608,129.334Z" transform="translate(12.357 5.897)" fill="#2f3083"/>
    <path id="Path_155" data-name="Path 155" d="M176.621,243.558s32.935,33.661,65.385,33.661h64.416s-15.015-19.616-22.279-16.832a45.845,45.845,0,0,0-12.108,6.9S225.7,258.508,196.8,224.152C196.8,224.152,182.79,224.188,176.621,243.558Z" transform="translate(13.591 17.277)" fill="#fce6e8"/>
    <path id="Path_156" data-name="Path 156" d="M138.63,187.452s.646,45.85,40.038,66.514c0,0,15.661-23.31,21.231-25.7,0,0-19.357-43.98-32.208-52.437C161.155,171.526,147.671,172.922,138.63,187.452Z" transform="translate(10.494 13.164)" fill="#e0e0e0"/>
    <path id="Path_157" data-name="Path 157" d="M235.47,273.219a6.469,6.469,0,0,0-1.454,4.6H338.471s-1.13-4.358-2.584-4.6Z" transform="translate(18.268 21.276)" fill="#2f3083"/>
    <path id="Path_158" data-name="Path 158" d="M296.638,283.824l27.2-84.273H365.17l-27.444,84.273Z" transform="translate(23.373 15.272)" fill="#3f61ad"/>
    <ellipse id="Ellipse_10" data-name="Ellipse 10" cx="3.874" cy="6.175" rx="3.874" ry="6.175" transform="translate(361.163 246.041) rotate(13.704)" fill="#fff"/>
    <path id="Path_159" data-name="Path 159" d="M398.668,288.128H92.017a10.656,10.656,0,0,1,10.656-10.656H388.012a10.657,10.657,0,0,1,10.655,10.656Z" transform="translate(6.694 21.623)" fill="#4891ce"/>
    <g id="Group_207" data-name="Group 207" transform="translate(131.218 280.691)">
      <path id="Path_160" data-name="Path 160" d="M180.486,278.86h-49.21a9.2,9.2,0,0,1-9.2-9.2h0a9.2,9.2,0,0,1,9.2-9.2h49.21Z" transform="translate(-122.074 -260.455)" fill="#f89a1c"/>
      <path id="Path_161" data-name="Path 161" d="M180.156,273.325H130.2a4.056,4.056,0,0,1-4.056-4.056h0a4.055,4.055,0,0,1,4.056-4.055h49.959Z" transform="translate(-121.743 -260.067)" fill="#fff"/>
    </g>
    <g id="Group_208" data-name="Group 208" transform="translate(131.218 262.286)">
      <path id="Path_162" data-name="Path 162" d="M180.486,261.842h-49.21a9.2,9.2,0,0,1-9.2-9.2h0a9.2,9.2,0,0,1,9.2-9.2h49.21Z" transform="translate(-122.074 -243.437)" fill="#04858a"/>
      <path id="Path_163" data-name="Path 163" d="M180.156,256.307H130.2a4.056,4.056,0,0,1-4.056-4.056h0A4.056,4.056,0,0,1,130.2,248.2h49.959Z" transform="translate(-121.743 -243.049)" fill="#fff"/>
    </g>
    <path id="Path_164" data-name="Path 164" d="M126.758,181.776l.532,1.7.531-1.7a9.056,9.056,0,0,1,3.981-5.122h0a9.05,9.05,0,0,1-3.981-5.121l-.531-1.7-.532,1.7a9.041,9.041,0,0,1-3.981,5.121h0A9.05,9.05,0,0,1,126.758,181.776Z" transform="translate(9.202 12.85)" fill="#f89a1c"/>
    <path id="Path_165" data-name="Path 165" d="M228.83,161.92l1,3.211,1-3.211a17.11,17.11,0,0,1,7.529-9.685h0a17.114,17.114,0,0,1-7.529-9.685l-1-3.211-1,3.211a17.112,17.112,0,0,1-7.528,9.685h0A17.112,17.112,0,0,1,228.83,161.92Z" transform="translate(17.232 10.364)" fill="#f89a1c"/>
    <path id="Path_166" data-name="Path 166" d="M294.33,225.326l1,3.211,1-3.211a17.12,17.12,0,0,1,7.528-9.686h0a17.118,17.118,0,0,1-7.528-9.685l-1-3.211-1,3.211a17.114,17.114,0,0,1-7.528,9.685h0A17.124,17.124,0,0,1,294.33,225.326Z" transform="translate(22.571 15.532)" fill="#f89a1c"/>
    <path id="Path_167" data-name="Path 167" d="M278.756,244.039l.659,2.1.658-2.1A11.205,11.205,0,0,1,285,237.694h0a11.225,11.225,0,0,1-4.933-6.345l-.658-2.1-.659,2.1a11.2,11.2,0,0,1-4.933,6.345h0A11.2,11.2,0,0,1,278.756,244.039Z" transform="translate(21.514 17.692)" fill="#f89a1c"/>
    <path id="Path_168" data-name="Path 168" d="M240.451,124.079l.658,2.1.658-2.1a11.212,11.212,0,0,1,4.933-6.345h0a11.221,11.221,0,0,1-4.933-6.345l-.658-2.1-.658,2.1a11.212,11.212,0,0,1-4.933,6.345h0A11.216,11.216,0,0,1,240.451,124.079Z" transform="translate(18.391 7.914)" fill="#f89a1c"/>
    <path id="Path_169" data-name="Path 169" d="M85.752,172.1l.927,2.963.927-2.963a15.791,15.791,0,0,1,6.948-8.938h0a15.787,15.787,0,0,1-6.948-8.938l-.927-2.963-.927,2.963a15.794,15.794,0,0,1-6.947,8.938h0A15.8,15.8,0,0,1,85.752,172.1Z" transform="translate(5.617 11.335)" fill="#f89a1c"/>
    <g id="Group_218" data-name="Group 218" transform="translate(403.199 118.675)">
      <g id="Group_209" data-name="Group 209">
        <rect id="Rectangle_52" data-name="Rectangle 52" width="71.68" height="87.847" fill="#3c56a6"/>
        <path id="Path_170" data-name="Path 170" d="M447.9,120.181v6.354h-8.069V110.65A9.658,9.658,0,0,1,447.9,120.181Z" transform="translate(-368.154 -110.65)" fill="#3c56a6"/>
      </g>
      <g id="Group_215" data-name="Group 215" transform="translate(8.103 25.413)">
        <g id="Group_212" data-name="Group 212">
          <g id="Group_210" data-name="Group 210">
            <rect id="Rectangle_53" data-name="Rectangle 53" width="11.35" height="11.35" fill="#ebb020"/>
          </g>
          <g id="Group_211" data-name="Group 211" transform="translate(16.97)">
            <rect id="Rectangle_54" data-name="Rectangle 54" width="38.506" height="2.829" fill="#2f3083"/>
            <rect id="Rectangle_55" data-name="Rectangle 55" width="38.506" height="2.829" transform="translate(0 8.521)" fill="#2f3083"/>
          </g>
        </g>
        <g id="Group_214" data-name="Group 214" transform="translate(0 25.67)">
          <rect id="Rectangle_56" data-name="Rectangle 56" width="11.35" height="11.35" fill="#ebb020"/>
          <g id="Group_213" data-name="Group 213" transform="translate(16.97)">
            <rect id="Rectangle_57" data-name="Rectangle 57" width="38.506" height="2.829" fill="#2f3083"/>
            <rect id="Rectangle_58" data-name="Rectangle 58" width="38.506" height="2.829" transform="translate(0 8.521)" fill="#2f3083"/>
          </g>
        </g>
      </g>
      <g id="Group_216" data-name="Group 216" transform="translate(10.028 23.045)">
        <path id="Path_171" data-name="Path 171" d="M387.546,142.354l-4.718-4.079,1.9-2.2,2.426,2.1,4.932-6.214,2.274,1.807Z" transform="translate(-382.828 -131.958)" fill="#fff"/>
      </g>
      <g id="Group_217" data-name="Group 217" transform="translate(10.028 48.069)">
        <path id="Path_172" data-name="Path 172" d="M387.546,165.491l-4.718-4.079,1.9-2.2,2.426,2.1,4.932-6.214,2.274,1.807Z" transform="translate(-382.828 -155.096)" fill="#fff"/>
      </g>
    </g>
  </g>
</svg>
