<svg xmlns="http://www.w3.org/2000/svg" width="102.7" height="89.862" viewBox="0 0 102.7 89.862">
  <path id="quote-left" d="M93.072,47.181H77.025V34.344A12.849,12.849,0,0,1,89.863,21.506h1.6a4.8,4.8,0,0,0,4.814-4.814V7.064A4.8,4.8,0,0,0,91.467,2.25h-1.6A32.085,32.085,0,0,0,57.769,34.344V82.484A9.631,9.631,0,0,0,67.4,92.113H93.072a9.631,9.631,0,0,0,9.628-9.628V56.809A9.631,9.631,0,0,0,93.072,47.181Zm-57.769,0H19.256V34.344A12.849,12.849,0,0,1,32.094,21.506h1.6a4.8,4.8,0,0,0,4.814-4.814V7.064A4.8,4.8,0,0,0,33.7,2.25h-1.6A32.085,32.085,0,0,0,0,34.344V82.484a9.631,9.631,0,0,0,9.628,9.628H35.3a9.631,9.631,0,0,0,9.628-9.628V56.809A9.631,9.631,0,0,0,35.3,47.181Z" transform="translate(0 -2.25)" fill="#f5f5f5"/>
</svg>
