<svg xmlns="http://www.w3.org/2000/svg" width="679.38" height="692.534" viewBox="0 0 679.38 692.534">
  <g id="star-bg" transform="translate(-634.414 -26.258)">
    <g id="Group_328" data-name="Group 328" transform="translate(-333.516 337.484)" opacity="0.03">
      <path id="Path_120" data-name="Path 120" d="M286.308,52.32h-4.032a16.093,16.093,0,0,0-1.09-2.629l2.852-2.852a1.815,1.815,0,0,0,0-2.565l-4.4-4.4a1.808,1.808,0,0,0-2.562,0l-2.852,2.852a16.231,16.231,0,0,0-2.632-1.093V37.605a1.812,1.812,0,0,0-1.813-1.813h-6.218a1.811,1.811,0,0,0-1.813,1.813v4.031a16.016,16.016,0,0,0-2.632,1.093h0l-2.853-2.852a1.809,1.809,0,0,0-2.562,0l-4.4,4.4a1.815,1.815,0,0,0,0,2.565l2.853,2.852a16.027,16.027,0,0,0-1.09,2.629h-4.031a1.814,1.814,0,0,0-1.813,1.813v6.218a1.812,1.812,0,0,0,1.813,1.813h4.031a16.23,16.23,0,0,0,1.09,2.632L249.3,67.648a1.815,1.815,0,0,0,0,2.565l4.4,4.4a1.813,1.813,0,0,0,2.563,0l2.853-2.852a16.272,16.272,0,0,0,2.632,1.091v4.031a1.811,1.811,0,0,0,1.813,1.813h6.218a1.812,1.812,0,0,0,1.813-1.813V72.848a16.358,16.358,0,0,0,2.632-1.091l2.852,2.852a1.812,1.812,0,0,0,2.562,0l4.4-4.4a1.815,1.815,0,0,0,0-2.565L281.186,64.8a16.367,16.367,0,0,0,1.09-2.632h4.032a1.812,1.812,0,0,0,1.813-1.813V54.134A1.814,1.814,0,0,0,286.308,52.32ZM266.671,65.35a8.108,8.108,0,1,1,8.108-8.107A8.107,8.107,0,0,1,266.671,65.35Z" transform="translate(771.294 286.73)" fill="#3c56a6"/>
      <g id="Group_181" data-name="Group 181" transform="translate(1023.783 329.79)">
        <g id="Group_180" data-name="Group 180">
          <path id="Path_121" data-name="Path 121" d="M269.094,73.847a14.182,14.182,0,1,1,14.183-14.182A14.2,14.2,0,0,1,269.094,73.847Zm0-26.971a12.789,12.789,0,1,0,12.79,12.789A12.8,12.8,0,0,0,269.094,46.876Z" transform="translate(-254.912 -45.483)" fill="#fff"/>
        </g>
      </g>
    </g>
    <g id="Group_329" data-name="Group 329" transform="translate(-1.207 -218.664)" opacity="0.02">
      <path id="Path_120-2" data-name="Path 120" d="M310.618,62.1H304.2a25.616,25.616,0,0,0-1.736-4.185l4.539-4.539a2.89,2.89,0,0,0,0-4.082l-7-7a2.877,2.877,0,0,0-4.077,0l-4.539,4.539a25.835,25.835,0,0,0-4.19-1.74V38.678a2.885,2.885,0,0,0-2.886-2.886h-9.9a2.883,2.883,0,0,0-2.886,2.886v6.416a25.493,25.493,0,0,0-4.19,1.74h0L262.8,42.295a2.879,2.879,0,0,0-4.079,0l-7,7a2.89,2.89,0,0,0,0,4.082l4.541,4.539a25.508,25.508,0,0,0-1.736,4.185h-6.416a2.887,2.887,0,0,0-2.886,2.886v9.9a2.884,2.884,0,0,0,2.886,2.886h6.416a25.831,25.831,0,0,0,1.736,4.19L251.719,86.5a2.89,2.89,0,0,0,0,4.082l7,7a2.885,2.885,0,0,0,4.079,0l4.541-4.539a25.9,25.9,0,0,0,4.19,1.737v6.416a2.883,2.883,0,0,0,2.886,2.886h9.9a2.885,2.885,0,0,0,2.886-2.886V94.774a26.038,26.038,0,0,0,4.19-1.737l4.539,4.539a2.884,2.884,0,0,0,4.078,0l7-7a2.89,2.89,0,0,0,0-4.082l-4.539-4.539a26.053,26.053,0,0,0,1.736-4.19h6.417a2.885,2.885,0,0,0,2.886-2.886v-9.9A2.888,2.888,0,0,0,310.618,62.1Zm-31.257,20.74a12.905,12.905,0,1,1,12.906-12.9A12.9,12.9,0,0,1,279.361,82.838Z" transform="translate(771.294 286.73)" fill="#3c56a6"/>
      <g id="Group_181-2" data-name="Group 181" transform="translate(1028.082 334.09)">
        <g id="Group_180-2" data-name="Group 180">
          <path id="Path_121-2" data-name="Path 121" d="M277.485,90.63a22.574,22.574,0,1,1,22.574-22.573A22.6,22.6,0,0,1,277.485,90.63Zm0-42.929a20.356,20.356,0,1,0,20.358,20.356A20.38,20.38,0,0,0,277.485,47.7Z" transform="translate(-254.912 -45.483)" fill="#fff"/>
        </g>
      </g>
    </g>
    <path id="Path_164" data-name="Path 164" d="M126.758,181.776l.532,1.7.531-1.7a9.056,9.056,0,0,1,3.981-5.122h0a9.05,9.05,0,0,1-3.981-5.121l-.531-1.7-.532,1.7a9.041,9.041,0,0,1-3.981,5.121h0A9.05,9.05,0,0,1,126.758,181.776Z" transform="translate(559.193 22.396)" fill="#1941df" opacity="0.07"/>
    <path id="Path_490" data-name="Path 490" d="M126.758,181.776l.532,1.7.531-1.7a9.056,9.056,0,0,1,3.981-5.122h0a9.05,9.05,0,0,1-3.981-5.121l-.531-1.7-.532,1.7a9.041,9.041,0,0,1-3.981,5.121h0A9.05,9.05,0,0,1,126.758,181.776Z" transform="translate(728.193 -124.604)" fill="#1941df" opacity="0.07"/>
    <path id="Path_165" data-name="Path 165" d="M228.83,161.92l1,3.211,1-3.211a17.11,17.11,0,0,1,7.529-9.685h0a17.114,17.114,0,0,1-7.529-9.685l-1-3.211-1,3.211a17.112,17.112,0,0,1-7.528,9.685h0A17.112,17.112,0,0,1,228.83,161.92Z" transform="translate(984.425 82.171)" fill="#1941df" opacity="0.07"/>
    <path id="Path_491" data-name="Path 491" d="M228.83,161.92l1,3.211,1-3.211a17.11,17.11,0,0,1,7.529-9.685h0a17.114,17.114,0,0,1-7.529-9.685l-1-3.211-1,3.211a17.112,17.112,0,0,1-7.528,9.685h0A17.112,17.112,0,0,1,228.83,161.92Z" transform="translate(1075.425 -113.081)" fill="#1941df" opacity="0.07"/>
    <path id="Path_489" data-name="Path 489" d="M294.33,225.326l1,3.211,1-3.211a17.12,17.12,0,0,1,7.528-9.686h0a17.118,17.118,0,0,1-7.528-9.685l-1-3.211-1,3.211a17.114,17.114,0,0,1-7.528,9.685h0A17.124,17.124,0,0,1,294.33,225.326Z" transform="translate(659.665 490.256)" fill="#1941df" opacity="0.07"/>
    <path id="Path_167" data-name="Path 167" d="M278.756,244.039l.659,2.1.658-2.1A11.205,11.205,0,0,1,285,237.694h0a11.225,11.225,0,0,1-4.933-6.345l-.658-2.1-.659,2.1a11.2,11.2,0,0,1-4.933,6.345h0A11.2,11.2,0,0,1,278.756,244.039Z" transform="translate(979.177 387.416)" fill="#1941df" opacity="0.07"/>
    <path id="Path_168" data-name="Path 168" d="M240.451,124.079l.658,2.1.658-2.1a11.212,11.212,0,0,1,4.933-6.345h0a11.221,11.221,0,0,1-4.933-6.345l-.658-2.1-.658,2.1a11.212,11.212,0,0,1-4.933,6.345h0A11.216,11.216,0,0,1,240.451,124.079Z" transform="translate(985.583 79.721)" fill="#1941df" opacity="0.07"/>
    <path id="Path_492" data-name="Path 492" d="M240.451,124.079l.658,2.1.658-2.1a11.212,11.212,0,0,1,4.933-6.345h0a11.221,11.221,0,0,1-4.933-6.345l-.658-2.1-.658,2.1a11.212,11.212,0,0,1-4.933,6.345h0A11.216,11.216,0,0,1,240.451,124.079Z" transform="translate(403.463 339.721)" fill="#1941df" opacity="0.07"/>
    <path id="Path_169" data-name="Path 169" d="M85.752,172.1l.927,2.963.927-2.963a15.791,15.791,0,0,1,6.948-8.938h0a15.787,15.787,0,0,1-6.948-8.938l-.927-2.963-.927,2.963a15.794,15.794,0,0,1-6.947,8.938h0A15.8,15.8,0,0,1,85.752,172.1Z" transform="translate(555.609 20.882)" fill="#1941df" opacity="0.07"/>
  </g>
</svg>
