<?xml version="1.0" encoding="utf-8"?>
<!-- Generator: Adobe Illustrator 16.0.0, SVG Export Plug-In . SVG Version: 6.00 Build 0)  -->
<!DOCTYPE svg PUBLIC "-//W3C//DTD SVG 1.1//EN" "http://www.w3.org/Graphics/SVG/1.1/DTD/svg11.dtd">
<svg version="1.1" id="Layer_1" xmlns="http://www.w3.org/2000/svg" xmlns:xlink="http://www.w3.org/1999/xlink" x="0px" y="0px"
	 width="2159.568px" height="1469.707px" viewBox="0 0 2159.568 1469.707" enable-background="new 0 0 2159.568 1469.707"
	 xml:space="preserve">
<g>
	<path fill="#B75742" d="M1663.133,1256.824c-30.459-25.478-46.081-49.058-48.904-53.525l107.141-67.683c0,0-0.148-0.25-0.459-0.714
		c0.088,0.13,9.01,13.265,26.854,27.423c22.776,18.071,49.253,29.61,78.693,34.297c37.474,5.967,76.136-6.527,101.972-18.06
		c28.799-12.854,48.111-27.257,48.292-27.396l95.003,18.36l-17.857,82.183c-37.12,28.484-96.129,56.631-150.814,67.486
		C1812.315,1337.208,1725.678,1309.141,1663.133,1256.824z"/>
</g>
<path fill="#86B1F2" d="M1818.165,365.178l25.146-13.034l24.992,13.325c2.847,1.518,6.198-0.887,5.671-4.07l-4.626-27.943
	l20.396-19.651c2.323-2.238,1.071-6.169-2.118-6.651l-28.005-4.235l-12.388-25.471c-1.411-2.901-5.535-2.925-6.98-0.041
	l-12.682,25.326l-28.052,3.91c-3.195,0.446-4.493,4.361-2.196,6.626l20.168,19.887l-4.95,27.887
	C1811.978,364.219,1815.301,366.663,1818.165,365.178z"/>
<rect x="528.167" y="876.833" fill="#F47257" width="1237.264" height="129.512"/>
<g>
	<path fill="#3C8F7C" d="M1436.336,1335.228c-279.006-147.523-582.053-238.327-893.178-267.627
		c11.527-135,23.055-270.001,34.582-405.001c359.729,33.877,710.119,138.867,1032.714,309.438
		C1552.414,1093.101,1494.375,1214.165,1436.336,1335.228z"/>
	<path fill="#96D9C9" d="M570.585,993.552c7.855-84.195,15.711-168.39,23.566-252.584c32.695,3.352,61.987-17.747,65.548-47.991
		c299.904,37.668,592.192,125.249,865.871,259.446c-12.172,27.663,2.109,61.818,31.566,77.089
		c-35.631,75.872-71.262,151.745-106.893,227.617c-27.109-14.051-59.189-2.433-71.352,25.212
		c-240.332-117.846-497.005-194.754-760.366-227.833C622.085,1024.287,600.672,996.64,570.585,993.552z"/>
	<g>
		<path fill="#50BFA5" d="M1214.407,1007.445c-25.147,72.424-102.702,109.315-174.636,87.206
			c-71.887-22.284-118.084-97.375-101.917-172.571c16.12-75.064,95.918-120.046,176.809-95.029
			C1195.581,851.98,1239.527,935.158,1214.407,1007.445z"/>
		<path fill="#3C8F7C" d="M1039.169,1069.158c2.011-8.084,4.02-16.168,6.027-24.253c-10.834-3.524-21.102-8.481-29.321-13.728
			c-6.854-4.377-9.348-13.253-5.645-20.32c0.149-0.283,0.298-0.567,0.447-0.852c4.08-7.786,14.117-10.283,21.694-5.295
			c7.714,5.076,16.783,9.621,26.877,12.444c14.692,4.111,26.182,1.458,28.842-8.725c2.511-9.656-4.182-18.237-21.958-30.029
			c-25.702-16.977-42.108-34.69-36.444-59.601c5.118-22.562,25.942-36.062,56.278-33.409c1.985-8.091,3.969-16.182,5.95-24.274
			c8.921,2.472,17.831,4.99,26.73,7.555c-1.906,7.476-3.814,14.951-5.723,22.426c9.72,3.248,17.461,6.871,23.743,10.576
			c7.687,4.535,10.393,13.995,6.19,21.126l0,0c-4.352,7.374-14.326,9.489-22.068,4.673c-5.809-3.613-13.208-7.289-22.658-9.984
			c-17.414-4.946-24.801,0.711-26.541,7.855c-2.072,8.451,5.987,16.31,26.341,30.926c28.649,19.826,37.224,37.77,30.93,60.533
			c-6.274,22.568-27.656,36.732-58.217,33.375c-2.237,8.658-4.476,17.314-6.718,25.971
			C1055.686,1073.775,1047.432,1071.444,1039.169,1069.158z"/>
		<path fill="#50BFA5" d="M895.253,919.272c-71.113-16.41-142.91-29.779-215.214-40.052c1.673-12.98,3.345-25.96,5.017-38.94
			c73.316,10.417,146.118,23.973,218.227,40.613C900.606,893.686,897.93,906.479,895.253,919.272z"/>
		<path fill="#50BFA5" d="M1449.748,1116.166c-66.178-32.363-133.512-61.826-201.826-88.336
			c4.323-12.285,8.646-24.572,12.969-36.858c69.271,26.881,137.547,56.756,204.652,89.572
			C1460.279,1092.417,1455.014,1104.292,1449.748,1116.166z"/>
	</g>
</g>
<g>
	<path fill="#3C8F7C" d="M1566.705,871.86c-287.865,60.14-561.981,180.662-807.912,355.22
		c-66.449-114.661-132.897-229.32-199.346-343.979c284.35-201.827,601.291-341.179,934.126-410.714
		C1517.95,605.544,1542.327,738.702,1566.705,871.86z"/>
	<path fill="#96D9C9" d="M737.924,1150.766c-40.95-71.932-81.899-143.865-122.849-215.798
		c25.996-18.127,35.903-53.528,21.738-79.838c242.294-160.768,506.679-277.011,783.211-344.359
		c6.376,29.734,35.882,47.806,66.104,41.215c15.826,82.979,31.652,165.958,47.479,248.937
		c-27.813,6.069-45.043,35.707-38.671,65.418c-242.838,59.143-475.007,161.222-687.778,302.4
		C793.005,1142.452,761.848,1134.087,737.924,1150.766z"/>
	<g>
		<path fill="#50BFA5" d="M1220.885,752.391c21.65,73.571-15.115,152.219-80.489,180.386
			c-65.438,27.997-141.232-2.323-171.05-72.388c-29.78-69.93,4.149-156.437,77.75-187.988
			C1120.668,640.763,1199.291,678.946,1220.885,752.391z"/>
		<path fill="#3C8F7C" d="M1125.796,912.892c-3.004-7.706-6.01-15.41-9.017-23.114c-9.955,4.088-20.286,6.675-29.267,7.731
			c-7.489,0.88-14.259-4.591-15.449-12.565c-0.047-0.32-0.095-0.641-0.142-0.962c-1.312-8.784,4.71-17.152,13.073-18.005
			c8.513-0.869,17.731-3.023,26.749-7.197c13.129-6.075,20.137-15.493,16.447-25.278c-3.509-9.273-13.213-11.841-32.883-9.911
			c-28.398,2.848-50.345-0.803-59.995-24.209c-8.749-21.191-0.872-45.167,22.993-62.35c-3.026-7.694-6.055-15.389-9.086-23.082
			c7.957-3.709,15.933-7.374,23.926-10.994c2.744,7.156,5.486,14.313,8.227,21.47c8.979-3.599,16.704-5.642,23.399-6.691
			c8.191-1.283,15.441,4.517,16.298,12.859l0,0c0.884,8.63-5.306,16.654-13.694,17.749c-6.293,0.82-13.797,2.604-22.27,6.471
			c-15.601,7.141-17.913,16.336-15.23,23.123c3.163,8.036,13.475,9.16,36.615,7.837c32.156-2.457,48.449,6.356,56.442,28.456
			c7.899,21.934-0.021,46.79-24.442,63.557c3.156,8.306,6.31,16.611,9.461,24.918
			C1140.551,906.06,1133.164,909.456,1125.796,912.892z"/>
		<path fill="#50BFA5" d="M936.339,885.249c-61.605,32.175-122.026,67.204-181.102,105.017
			c-5.973-11.383-11.945-22.766-17.918-34.149c59.903-38.341,121.17-73.86,183.638-106.486
			C926.084,861.501,931.212,873.375,936.339,885.249z"/>
		<path fill="#50BFA5" d="M1454.973,689.168c-66.82,16.354-132.883,35.75-198.029,58.116c-3.631-12.517-7.262-25.033-10.893-37.55
			c66.059-22.68,133.047-42.347,200.802-58.931C1449.56,663.592,1452.266,676.38,1454.973,689.168z"/>
	</g>
</g>
<g>
	<path fill="#3C8F7C" d="M1612.637,1123.5c-299.374-18.143-599.186,25.798-883.642,129.509
		c-39.164-128.591-78.328-257.182-117.493-385.771c328.895-119.913,675.545-170.719,1021.689-149.741
		C1626.34,852.831,1619.488,988.166,1612.637,1123.5z"/>
	<path fill="#96D9C9" d="M726.082,1173.619c-23.839-80.477-47.678-160.953-71.517-241.43c29.993-10.649,48.061-42.283,40.147-71.502
		c277.64-91.33,566.808-133.711,856.628-125.549c-0.605,30.467,24.435,55.783,55.932,57.42
		c-3.641,84.504-7.28,169.008-10.921,253.513c-28.985-1.504-52.969,22.609-53.573,53.055
		c-254.507-7.167-508.439,30.05-752.249,110.251C782.622,1180.179,753.683,1163.822,726.082,1173.619z"/>
	<g>
		<path fill="#50BFA5" d="M1297.646,916.162c4.326,76.943-50.439,143.308-121.809,153.23
			c-71.391,9.74-139.465-39.706-152.704-115.423c-13.233-75.576,40.552-150.298,120.864-161.313
			C1224.301,781.55,1293.349,839.355,1297.646,916.162z"/>
		<path fill="#3C8F7C" d="M1165.997,1046.274c-1.183-8.254-2.368-16.507-3.555-24.761c-10.82,1.316-21.664,1.08-30.813-0.278
			c-7.629-1.136-13.065-8.227-12.387-16.259c0.026-0.322,0.054-0.646,0.082-0.969c0.745-8.85,8.664-15.351,17.154-13.958
			c8.641,1.417,18.281,1.776,28.193,0.129c14.43-2.398,23.57-9.653,22.192-20.103c-1.318-9.906-10.34-14.964-30.288-18.313
			c-28.815-4.775-49.722-14.129-53.836-39.341c-3.736-22.829,9.656-43.943,37.316-54.244c-1.208-8.249-2.418-16.499-3.631-24.748
			c8.752-1.479,17.512-2.91,26.279-4.294c1.053,7.653,2.104,15.307,3.155,22.961c9.738-1.103,17.873-1.031,24.754-0.27
			c8.419,0.93,14.257,8.467,13.163,16.768l0,0c-1.135,8.585-9.139,14.711-17.711,13.545c-6.43-0.875-14.284-1.14-23.583,0.356
			c-17.13,2.773-21.563,11.06-20.484,18.339c1.265,8.616,11.225,12.438,34.473,17.295c32.45,6.15,46.548,19.002,49.323,42.51
			c2.722,23.321-10.919,45.277-39.035,55.026c1.194,8.875,2.386,17.75,3.576,26.626
			C1182.216,1043.576,1174.103,1044.903,1165.997,1046.274z"/>
		<path fill="#50BFA5" d="M984.624,969.274c-68.565,14.801-136.621,32.677-203.992,53.604c-3.27-12.601-6.539-25.2-9.809-37.802
			c68.314-21.219,137.323-39.346,206.849-54.354C979.989,943.573,982.307,956.423,984.624,969.274z"/>
		<path fill="#50BFA5" d="M1544.43,917.059c-70.05-1.894-140.058-0.644-209.848,3.725c-0.684-13.077-1.368-26.153-2.052-39.23
			c70.769-4.43,141.755-5.697,212.786-3.777C1545.021,890.871,1544.726,903.964,1544.43,917.059z"/>
	</g>
</g>
<rect x="528.167" y="876.833" fill="#F47257" width="1237.264" height="544.527"/>
<path fill="#B75742" d="M1765.431,1282.341h-306.156c-13.574,0-24.579,11.523-24.579,25.736l0,0
	c0,14.215,11.005,25.738,24.579,25.738h-39.7c-13.574,0-24.578,11.522-24.578,25.737l0,0c0,14.214,11.004,25.736,24.578,25.736
	h6.879c-13.576,0-24.58,11.523-24.58,25.737c0,3.678,0.742,7.171,2.068,10.334h361.489V1282.341z"/>
<rect x="573.762" y="903.644" fill="#B75742" width="1126.305" height="42.285"/>
<g>
	<path fill="#3C8F7C" d="M1064.393,1414.605H556.118c-22.958,0-41.569-18.61-41.569-41.568v-255.044
		c0-22.958,18.611-41.568,41.569-41.568h508.275c22.958,0,41.569,18.61,41.569,41.568v255.044
		C1105.962,1395.995,1087.351,1414.605,1064.393,1414.605z"/>
	<rect x="552.573" y="1143.675" fill="#F7CC7F" width="145.64" height="84.675"/>
	<rect x="810.255" y="1122.225" fill="#F7CC7F" width="258.266" height="15.806"/>
	<rect x="574.024" y="1302.863" fill="#F7CC7F" width="475.304" height="19.527"/>
	<rect x="574.024" y="1348.844" fill="#F7CC7F" width="475.304" height="19.527"/>
</g>
<rect x="588.067" y="1015.86" fill="#B75742" width="525.157" height="14.036"/>
<g>
	<circle fill="#FAE0B2" cx="1524.16" cy="1182.549" r="116.956"/>
	<circle fill="#F7CC7F" cx="1524.16" cy="1182.549" r="98.142"/>
	<g>
		<path fill="#FFFFFF" d="M1535.489,1251.584l-4.278-15.816c-7.231,1.612-14.605,2.163-20.895,1.837
			c-5.25-0.271-9.385-4.574-9.453-9.829l-0.01-0.634c-0.074-5.793,4.785-10.463,10.564-10.084c5.89,0.386,12.385-0.012,18.899-1.772
			c9.49-2.566,14.993-7.986,13.192-14.645c-1.711-6.326-8.119-8.881-21.564-9.712c-19.436-1.176-33.84-6.213-38.207-22.362
			c-3.962-14.65,3.254-28.93,20.121-37.242l-4.277-15.816l16.316-4.412l3.962,14.65c6.127-1.366,11.321-1.901,15.784-1.916
			c5.453-0.019,9.887,4.393,9.957,9.845l0,0c0.073,5.638-4.537,10.225-10.174,10.098c-4.226-0.096-9.311,0.292-15.187,1.881
			c-10.821,2.927-13.057,8.533-11.796,13.194c1.486,5.494,8.258,7.415,23.85,8.915c21.703,1.635,32.17,8.631,36.222,23.613
			c4.008,14.817-3.06,30.307-21.305,38.813l4.593,16.981L1535.489,1251.584z"/>
	</g>
</g>
<rect x="1170.358" y="1103.57" fill="#F48C7F" width="529.709" height="283.889"/>
<path fill="#B75742" d="M1434.695,1308.078L1434.695,1308.078c0,14.215,11.005,25.738,24.579,25.738h-39.7
	c-13.574,0-24.578,11.522-24.578,25.737l0,0c0,14.214,11.004,25.736,24.578,25.736h6.879c-3.515,0-6.854,0.778-9.878,2.169h283.492
	v-105.117h-240.793C1445.7,1282.341,1434.695,1293.865,1434.695,1308.078z"/>
<polygon fill="#466EB6" points="1397.075,350.226 1401.098,377.439 1358.026,388.749 1359.001,429.263 1328.152,442.997 
	1335.104,458.613 1376.363,440.246 1375.44,401.851 1420.247,390.085 1414.193,349.135 "/>
<g>
	<path fill="#96D9C9" d="M989.751,264.074l8.3-20.599c-9.138-4.167-17.561-9.598-24.095-15.089
		c-5.455-4.584-6.411-12.615-2.19-18.355l0.509-0.692c4.651-6.325,13.724-7.404,19.664-2.271
		c6.053,5.231,13.401,10.11,21.885,13.529c12.358,4.98,22.737,3.618,26.232-5.055c3.32-8.238-1.522-16.239-15.382-28.125
		c-20.054-17.153-31.513-34.373-23.039-55.404c7.688-19.08,27.16-28.624,52.194-23.828l8.3-20.598l21.249,8.563l-7.688,19.08
		c7.743,3.53,13.795,7.197,18.633,10.827c5.911,4.436,7.103,12.831,2.722,18.783l0,0c-4.528,6.155-13.263,7.348-19.253,2.604
		c-4.491-3.557-10.307-7.293-17.959-10.376c-14.093-5.679-21.091-1.442-23.538,4.628c-2.883,7.155,2.87,14.766,18.504,29.13
		c22.131,19.503,27.733,35.623,19.87,55.135c-7.777,19.297-28.076,30.271-54.757,24.559L1011,272.636L989.751,264.074z"/>
</g>
<polygon fill="#50BFA5" points="871.981,278.846 845.866,281.497 836.959,239.948 798.297,239.114 786.548,209.11 771.36,215.058 
	787.073,255.187 823.712,255.977 832.979,299.2 872.277,295.211 "/>
<g>
	<path fill="#FAE0B2" d="M1173.789,247.774l27.939,9.215c0,0,44.3-14.355,48.663-23.383c4.362-9.028,5.595-30.937,11.896-31.534
		c6.303-0.598,18.485,1.452,21.387,16.445c2.106,10.883-13.831,42.339-11.342,45.688c1.557,2.095,17.464,7.852,29.153,11.868
		c7.687,2.64,13.231,9.405,14.413,17.565l0.003,0.024c0.798,5.515-2.326,10.888-7.489,12.882l-8.038,3.104l2.564,8.3
		c1.909,6.179-1.476,12.819-7.577,14.865l-6.219,2.085l1.988,5.056c2.561,6.511-1.047,13.898-7.736,15.843l-5.432,1.578l0.224,1.453
		c0.931,6.042-2.853,11.855-8.716,13.392l-5.396,1.415l-74.411-24.558c-6.972-2.301-13.39-6.028-18.861-10.953l-24.713-13.042
		c-2.657-1.402-3.879-4.576-2.877-7.462l22.91-65.974C1167.229,248.461,1170.643,246.736,1173.789,247.774z"/>
</g>
<path fill="#F7CC7F" d="M731.802,543.321L737.718,514l27.508-11.75c3.134-1.338,3.372-5.688,0.404-7.361l-26.058-14.687
	l-2.674-29.792c-0.305-3.394-4.368-4.964-6.876-2.659l-22.021,20.244l-29.161-6.663c-3.321-0.759-6.071,2.62-4.653,5.718
	l12.449,27.199l-15.349,25.675c-1.748,2.924,0.616,6.583,4,6.192l29.714-3.435l19.675,22.531
	C726.917,547.778,731.128,546.66,731.802,543.321z"/>
<g>
	<path fill="#F7A491" d="M372.839,1263.523c0,0-36.664,26.433-42.438,34.318c-8.316,11.358,62.114,32.603,54.429,19.303
		c-1.769-3.06-6.838-13.352-7.059-14.363c-1.18-5.415,13.758-19.999,13.758-19.999L372.839,1263.523z"/>
	<path fill="#F7CC7F" d="M403.88,1339.369l-24.897-35.18c0,0-15.543-3.613-31.499-21.561c0,0-14.339,5.473-23.16,17.336
		c0,0,16.67,17.964,42.346,38.176c0,0,15.221,13.483,36.261,20.592C423.972,1365.841,403.88,1339.369,403.88,1339.369z"/>
	<path fill="#F8A492" d="M66.442,781.775c0,0,4.507,3.984,6.102,5.197c1.87,1.423,7.784,5.266,7.784,5.266
		s21.399,12.17,22.124,10.568c0.727-1.602,0.694-6.223-0.363-7.438s-4.14-2.469-5.198-3.683c-1.057-1.215-1.419-3.667-0.058-5.023
		c1.361-1.356,8.674,2.638,8.674,2.638s5.923,3.292,8.4,7.266c8.581,13.768,5.98,14.572,7.127,16.31
		c1.357,2.054,31.371,15.682,31.371,15.682s89.735,37.303,94.57,39.339h0.062c0.654,4.156-1.569,7.979-2.711,11.657
		c-2.146,12.817-5.961,13.67-8.871,26.031c-13.765-6.963-109.038-59.449-118.724-64.916c0,0-14.508-2.479-23.576-4.331
		s-16.97-7.591-19.455-8.499c-0.367-0.134-8.481-3.634-17.401-10.548c-7.688-5.959,2.238-3.714,2.238-3.714
		s16.158,8.565,16.576,7.206c0.323-1.047-8.762-5.217-17.334-11.724c-2.204-1.673-4.374-3.332-6.354-4.872
		c-5.201-4.04-4.292-8.282,1.801-4.894c2.152,1.197,5.679,3.271,7.995,5.095c2.502,1.972,5.416,3.001,7.763,4.347
		c4.661,2.672,8.027,4.678,8.027,4.43c0-0.321,1.28-0.427-1.006-2.273c-2.749-2.22-9.598-5.688-13.396-9.253
		c-2.153-2.023-6.903-5.986-6.903-5.986s-6.096-7.286-5.798-7.77c1.613-2.615,7.152,1.239,9.728,4.355
		c2.639,1.181,7.522,5.486,7.522,5.486s11.772,6.572,12.679,4.961c0.386-0.685-6.375-5.558-12.283-11.344
		c-5.485-5.373-10.171-11.663-9.301-12.866C59.731,776.432,66.442,781.775,66.442,781.775z"/>
	<path fill="#B75742" d="M316.761,991.854l5.803,28.68l145.789,132.607L363.997,1258.75l28.18,28.799
		c0,0,154.125-113.177,159.681-128.007c8.553-22.835-110.482-174.088-110.482-174.088L316.761,991.854z"/>
	<path fill="#F7A491" d="M215.669,1338.695c0,0-29.412,32.053-35.186,39.938c-8.317,11.359,53.792,28.126,46.105,14.826
		c-1.768-3.06-6.838-13.352-7.059-14.363c-1.181-5.415,13.758-19.999,13.758-19.999L215.669,1338.695z"/>
	<path fill="#F7CC7F" d="M259.33,1392.439l-40.48-14.793c0,0-15.299,6.954-38.628,1.256c0,0-8.23,11.561-8.746,26.335
		c0,0,76.727,9.784,98.079,3.674C290.907,1402.801,259.33,1392.439,259.33,1392.439z"/>
	<path fill="#F47458" d="M321.752,1005.145l6.547,180.947l-129.36,158.606l34.997,19.166c0,0,143.098-122.816,158.811-157.03
		c9.746-21.221,42.537-213.029,42.537-213.029L321.752,1005.145z"/>
	<path fill="#FAE0B2" d="M439.349,990.294c-11.857-26.761-10.486-218.609-56.633-263.547c-16.236,2.743-27.816,4.279-30.526,4.992
		c-2.408,19.763-5.057,92.284-6.684,158.751c-1.083,44.277,0.035,90.716-5.419,115.193
		C336.706,1020.857,450.182,1014.739,439.349,990.294z"/>
	<path fill="#466EB6" d="M314.436,741.639c-12.954,2.954-22.493,5.029-39.473,30.111c-16.255,24.011-52.348,80.991-52.348,80.991
		l-95.067-42.225l-4.445,48.151c0,0,107.549,55.906,122.723,50.866c15.174-5.039,57.835-67.4,60.991-71.608
		c0.741-0.988-3.581,66.604-3.581,77.403c0,10.799-20.618,104.828-20.618,104.828s52.315,12.877,62.526-10.514
		c31.306-71.712,7.275-277.969,7.275-277.969S323.757,739.513,314.436,741.639z"/>
	<path fill="#F7A491" d="M509.707,536.318c-3.995-3.347-5.738-11.364-6.397-16.525l-1.778-6.832
		c1.622-0.664,33.325-5.177,42.887-5.422c0.931,3.024,1.394,5.582,1.097,7.212c-1.422,7.815-11.401,58.553-11.401,58.553
		l-27.304,0.544C506.811,573.848,512.75,543.76,509.707,536.318z"/>
	<path fill="#466EB6" d="M393.414,737.977c0,0,18.733,53.306,34.15,45.626c15.416-7.681,102.026-95.975,102.882-100.242
		c0.856-4.267,6.852-112.645,6.852-112.645l-34.258-6.827l-19.699,88.75c0,0-63.377,60.589-76.224,66.563
		S393.414,737.977,393.414,737.977z"/>
	<path fill="#466EB6" d="M443.984,1003.12c10.371,0,14.198-1.432,21.105-3.511c0,0-19.747-111.31-31.229-221.686
		c-4.536-43.602-8.746-61.477-26.734-58.32c-5.202,0.907-19.292,6.278-24.408,7.142c45.204,127.898,45.361,226.344,51.76,254.893
		C437.688,995.959,440.486,1003.209,443.984,1003.12z"/>
	<path fill="#F7A491" d="M377.948,707.424l4.737,19.324c0,0,1.08,16.822-6.729,18.334c-9.417,1.824-23.412-12.269-23.412-12.269
		l-8.105-54.495L377.948,707.424z"/>
	<path fill="#F7A491" d="M377.948,707.424l4.737,19.324c0,0,1.08,16.822-6.729,18.334c-9.417,1.824-23.412-12.269-23.412-12.269
		l-8.105-54.495L377.948,707.424z"/>
	<path fill="#F47458" d="M344.52,678.569l33.429,28.855l3.539,14.435C368.709,718.785,350.492,704.724,344.52,678.569z"/>
	<path fill="#F7A491" d="M378.061,628.429c8.083-0.025,15.36,5.586,18.203,13.652c2.357,6.688,5.374,16.602,7.293,27.978
		c3.538,20.957-8.396,40.14-18.78,41.671s-35.119-5.348-40.59-35.032c-2.345-12.726-5.429-29.416,5.037-38.185
		C357.365,631.691,368.769,628.459,378.061,628.429z"/>
	<path fill="#184655" d="M347.561,699.319c0,0-36.604-32.622-38.203-58.106c-1.598-25.485,21.939-39.138,42.065-39.847
		c9.091-0.321,15.243,0.086,24.63,1.27c20.165,2.542,33.232,11.48,28.632,28c-6.175,22.18-48.025,3.468-56.581,10.352
		c-7.061,5.682,4.386,19.346-2.474,24.559c-6.447,4.899-3.163,3.239-1.028,12.556C346.737,687.419,347.561,699.319,347.561,699.319z
		"/>
	<path fill="#F7A491" d="M333.447,669.766c0.907,6.106,4.64,10.614,8.338,10.068c3.698-0.545,5.961-5.938,5.054-12.044
		s-4.64-10.614-8.338-10.069C334.802,658.267,332.54,663.659,333.447,669.766z"/>
	<path fill="#F47458" d="M511.563,512.88c0,0,5.928,3.366,11.822,11.177c0,0,15.438-9.896,14.897-13.031
		c-0.717-4.158-16.497,3.56-16.497,3.56L511.563,512.88z"/>
</g>
<rect x="234.622" y="66.961" transform="matrix(0.8887 0.4585 -0.4585 0.8887 79.4071 -124.6339)" fill="#F7CC7F" width="123.506" height="68.507"/>
<path fill="#F7A491" d="M511.447,512.554c-0.725-1.96-2.153-4.698-1.451-5.772c4.445-6.79-0.347-14.171-3.58-8.396
	c-1.877,3.353-5.162,10.742-4.885,14.574c0.202,2.781,3.022,13.383,3.022,13.383S515.559,523.666,511.447,512.554z"/>
<g>
	<path fill="#F7A491" d="M1767.084,1226.708c0,0-2.565,31.953-0.484,42.337c1.115,5.56,7.323,17.007,4.476,22.239
		s-6.103,6.54-6.103,6.54l-73.803,1.169c-4.021,0.064-1.363-2.479,1.877-4.824c5.307-3.836,9.588-6.372,26.537-14.435
		c1.104-0.526,5.129-3.042,6.58-3.915c3.68-2.209,7.375-5.688,10.557-9.171c5.299-5.802,5.764-33.94,5.764-33.94L1767.084,1226.708z
		"/>
	<path fill="#355389" d="M1709.399,801.988c0,0-31.722-15.641-25.619,18.37c6.102,34.011,52.581,416.495,52.581,416.495
		l43.533,2.415c0,0,5.561-127.521,4.341-145.835c-1.221-18.313-8.434-46.643-8.434-46.643l-3.693-113.129l-41.071-139.68
		L1709.399,801.988z"/>
	<path fill="#3C8F7C" d="M1726.174,1275.815c19.52,4.925,33.946,1.577,42.018-1.624c2.082,5.802,4.842,13.08,3.378,17.275
		c-1.792,5.139-4.128,7.423-6.381,7.48c-17.829,0.461-65.521-0.035-79.116,0.14c-1.898,0.024-2.945-2.157-1.725-3.591
		C1687.719,1291.537,1724.719,1276.689,1726.174,1275.815z"/>
	<path fill="#F7A491" d="M1683.78,572.122c0,0-26.821-51.606-30.981-70.551s-18.57-114.351-17.355-120.495
		c1.215-6.144,24-20.929,21.188-26.147s-24.516-5.233-29.485-4.785c-4.97,0.447-14.955,3.342-19.231,6.868
		s4.808,117.858,7.519,142.474c2.712,24.615,36.034,100.419,36.034,100.419L1683.78,572.122z"/>
	<g>
		<path fill="#F7A491" d="M1892.751,974.316c0,0,22.122-23.198,27.048-32.573c2.638-5.021,5.027-17.82,10.535-20.09
			c5.509-2.27,8.86-1.234,8.86-1.234l58.05,45.59c3.163,2.483-0.503,2.785-4.497,2.563c-6.538-0.362-11.461-1.091-29.701-5.508
			c-1.189-0.288-5.9-0.869-7.577-1.106c-4.25-0.603-9.311-0.229-13.977,0.471c-7.771,1.168-25.858,22.727-25.858,22.727
			L1892.751,974.316z"/>
		<path fill="#3C8F7C" d="M1955.457,961.955c-12.055-16.121-25.368-22.611-33.652-25.211c2.037-5.816,4.266-13.421,8.047-15.759
			c4.629-2.86,7.821-2.269,9.608-0.895c14.135,10.875,51.134,40.628,61.801,49.057c1.49,1.178,0.929,3.531-0.923,3.876
			C1995.227,973.973,1957.138,962.192,1955.457,961.955z"/>
		<path fill="#184655" d="M1893.271,556.406c-13.769-28.882-44.278-44.783-73.831-37.087c-10.6-14.348-27-24.386-44.062-26.804
			c-33.658-4.77-77.088,11.557-72.656,46.693c-10.635,24.576-8.028,58.438,13.214,75.04c-3.902,32.301,28.486,60.957,66.819,57.091
			c15.423,21.289,42.234,33.777,67.313,28.914c6.02-1.167,15.159-3.361,16.732-3.087c-1.965-0.22,43.723,29.7,75.231-23.579
			C1974.186,619.22,1942.524,558.444,1893.271,556.406z"/>
		<path fill="#466EB6" d="M1696.629,814.312c0,0,71.142-31.632,72.262-28.024c8.918,28.728,36.67,19.459,53.145,70.059
			c6.898,21.188,13.982,162.136,13.982,162.136s28.054-23.279,68.143-63.958c3.075-3.121,33.215,25.54,33.215,25.54
			c-79.574,107.513-113.901,113.121-127.181,107.102c-27.717-12.564-86.201-188.328-86.106-188.311
			C1717.066,885.173,1696.629,814.312,1696.629,814.312z"/>
		<path fill="#F7A491" d="M1814.573,615.754c0,0,102.83-0.131,124.846-1.401c19.927-1.149,98.958,0.862,102.048,0.505
			c3.091-0.357,23.519-34.955,26.914-31.24s-11.368,17.155-6.802,20.642c4.565,3.487,53.614-4.322,52.964-0.696
			c-1.219,6.785-29.834,5.921-29.805,9.196c0.028,3.275,29.949-1.837,31.979,3.601s-28.781,2.217-30.012,4.644
			c-1.229,2.426,28.576,6.87,25.527,11.928c-1.656,2.746-26.409-4.587-26.289-0.844c0.12,3.743,18.18,12.262,15.965,15.244
			c-2.215,2.982-14.173-9.153-24.651-9.303c-10.479-0.15-17.981-5.618-34.708-1.03c-8.26,2.265-71.312,9.974-124.59,14.526
			c-54.617,4.666-99.389,6.149-99.389,6.149L1814.573,615.754z"/>
		<path fill="#F7CC7F" d="M1662.095,688.452c-1.363-16.51,1.886-29.226,2.628-34.704c-4.994-17.149-15.618-53.738-19.438-60.927
			c0,0,17.903-34.406,36.231-34.169c0,0,18.717,42.19,33.188,49.737c0.213-0.055,5.12,2.188,7.279,2.173
			c13.973-0.1,62.797-1.581,71.911-1.744l-5.128,69.271c-35.382,69.353-25.8,105.747-12.34,119.207
			c6.332,6.331-88.289,32.032-92.646,23.063C1678.644,809.783,1664.852,721.828,1662.095,688.452z"/>
		<path fill="#F7CC7F" d="M1769.084,611.436c9.006-4.302,74.179-2.147,74.179-2.147s9.107,45.384,1.751,56.292
			c0,0-58.274,8.671-56.617,13.452L1769.084,611.436z"/>
		<path fill="#F7A491" d="M1752.001,582.272c0,0-1.145,24.751,0.015,35.06s-10.577,34.481-32.428,34.9
			c-21.849,0.419-3.206-23.191-1.291-33.336c1.916-10.146,4.209-49.858,4.209-49.858L1752.001,582.272z"/>
		<path fill="#F47458" d="M1722.506,569.038c0,0-0.533,9.218-1.299,19.906c6.89,8.222,17.48,12.42,30.359,7.416
			c0.139-7.664,0.435-14.088,0.435-14.088L1722.506,569.038z"/>
		<path fill="#F7A491" d="M1753.81,508.515c0,0,12.372,3.698,19.316,16.075c6.943,12.377,9.866,47.606-16.813,62.119
			s-44.97-9.876-43.752-32.351C1713.777,531.884,1720.652,502.252,1753.81,508.515z"/>
		
			<ellipse transform="matrix(-0.9512 0.3087 -0.3087 -0.9512 3510.7153 534.653)" fill="#F7A491" cx="1713.067" cy="545.022" rx="6.174" ry="10.6"/>
		<path fill="#184655" d="M1750.089,507.521c0,0,13.546,37.042,27.401,41.221s12.406,22.249,12.406,22.249s2.563-41.782-9.97-52.269
			C1767.395,508.234,1750.089,507.521,1750.089,507.521z"/>
		
			<ellipse transform="matrix(-0.9301 -0.3674 0.3674 -0.9301 3227.1367 1731.4839)" fill="#F7A491" cx="1778.37" cy="558.586" rx="7.512" ry="11.114"/>
	</g>
	<path fill="#F47458" d="M1604.043,365.814c0,0,30.127,1.316,33.666,1.316c3.537,0,13.83-10.644,13.83-10.644L1604.043,365.814z"/>
</g>
<path fill="#F7A491" d="M1637.709,367.13l12.438-11.18c0,0-5.871-7.015-3.432-8.363c3.967-2.191,10.76,6.286,10.153,8.345
	c-0.606,2.058-7.901,8.702-7.901,8.702L1637.709,367.13z"/>
</svg>
