<svg xmlns="http://www.w3.org/2000/svg" width="499.646" height="375.098" viewBox="0 0 499.646 375.098">
  <g id="widget" transform="translate(-34.323 -34.08)">
    <g id="Group_254" data-name="Group 254" transform="translate(74.37 34.08)">
      <g id="Group_253" data-name="Group 253" transform="translate(147.834 262.168)">
        <rect id="Rectangle_94" data-name="Rectangle 94" width="132.786" height="112.93" fill="#3a6bea"/>
        <path id="Path_232" data-name="Path 232" d="M1067.5,1364.817l-132.786-11.9V1290.48H1067.5Z" transform="translate(-934.716 -1290.48)" fill="#1f3c88" opacity="0.6"/>
      </g>
      <path id="Path_233" data-name="Path 233" d="M644.142,336.506H236.8a10.555,10.555,0,0,1-10.555-10.555V44.635A10.555,10.555,0,0,1,236.8,34.08H644.143A10.555,10.555,0,0,1,654.7,44.635V325.95A10.556,10.556,0,0,1,644.142,336.506Z" transform="translate(-226.243 -34.08)" fill="#3a6bea"/>
      <rect id="Rectangle_95" data-name="Rectangle 95" width="387.908" height="267.024" transform="translate(20.276 14.245)" fill="#fff"/>
      <path id="Path_234" data-name="Path 234" d="M492.821,428.029V621.2H323.414V420.583H485.376A7.445,7.445,0,0,1,492.821,428.029Z" transform="translate(-303.138 -339.933)" fill="#86a7ff" opacity="0.3"/>
      <path id="Path_235" data-name="Path 235" d="M1507.719,420.583V621.2H1329.81V428.029a7.446,7.446,0,0,1,7.446-7.446h170.463Z" transform="translate(-1099.533 -339.933)" fill="#86a7ff" opacity="0.3"/>
    </g>
    <g id="Group_261" data-name="Group 261" transform="translate(34.323 65.889)">
      <g id="Group_255" data-name="Group 255" transform="translate(0 21.751)">
        <path id="Path_236" data-name="Path 236" d="M37.3,490.657a9.928,9.928,0,0,0,9.928,9.928H239.931a9.928,9.928,0,0,0,9.928-9.928V293.73H37.3Z" transform="translate(-36.676 -293.109)" fill="#fff"/>
        <path id="Path_237" data-name="Path 237" d="M237.58,498.85H44.871A10.56,10.56,0,0,1,34.323,488.3V290.755h213.8V488.3A10.559,10.559,0,0,1,237.58,498.85ZM35.564,292V488.3a9.318,9.318,0,0,0,9.307,9.307H237.579a9.318,9.318,0,0,0,9.307-9.307V292Z" transform="translate(-34.323 -290.755)" fill="#3a6bea"/>
      </g>
      <g id="Group_257" data-name="Group 257" transform="translate(0 0)">
        <g id="Group_256" data-name="Group 256">
          <path id="Path_238" data-name="Path 238" d="M239.933,189.492H47.224A9.928,9.928,0,0,0,37.3,199.42v11.823H249.86V199.42A9.929,9.929,0,0,0,239.933,189.492Z" transform="translate(-36.676 -188.871)" fill="#3a6bea"/>
          <path id="Path_239" data-name="Path 239" d="M248.128,209.51H34.323V197.066a10.561,10.561,0,0,1,10.548-10.548H237.579a10.561,10.561,0,0,1,10.549,10.548V209.51ZM35.564,208.269H246.886v-11.2a9.318,9.318,0,0,0-9.307-9.307H44.871a9.318,9.318,0,0,0-9.307,9.307Z" transform="translate(-34.323 -186.518)" fill="#3a6bea"/>
        </g>
        <circle id="Ellipse_15" data-name="Ellipse 15" cx="4.343" cy="4.343" r="4.343" transform="translate(12.206 7.066)" fill="#fff"/>
      </g>
      <g id="Group_259" data-name="Group 259" transform="translate(19.416 39.745)">
        <g id="Group_258" data-name="Group 258">
          <path id="Path_240" data-name="Path 240" d="M302.344,435.937H127.373V376.99H302.345v58.947ZM128.614,434.7H301.1V378.231H128.614Z" transform="translate(-127.373 -376.99)" fill="#dadada"/>
          <rect id="Rectangle_96" data-name="Rectangle 96" width="173.731" height="1.241" transform="translate(0.62 43.279)" fill="#dadada"/>
          <rect id="Rectangle_97" data-name="Rectangle 97" width="173.731" height="1.241" transform="translate(0.62 28.853)" fill="#dadada"/>
          <rect id="Rectangle_98" data-name="Rectangle 98" width="173.731" height="1.241" transform="translate(0.62 14.427)" fill="#dadada"/>
          <rect id="Rectangle_99" data-name="Rectangle 99" width="1.241" height="57.706" transform="translate(156.357 0.62)" fill="#dadada"/>
          <rect id="Rectangle_100" data-name="Rectangle 100" width="1.241" height="57.706" transform="translate(138.984 0.62)" fill="#dadada"/>
          <rect id="Rectangle_101" data-name="Rectangle 101" width="1.241" height="57.706" transform="translate(121.611 0.62)" fill="#dadada"/>
          <rect id="Rectangle_102" data-name="Rectangle 102" width="1.241" height="57.706" transform="translate(104.238 0.62)" fill="#dadada"/>
          <rect id="Rectangle_103" data-name="Rectangle 103" width="1.241" height="57.706" transform="translate(86.865 0.62)" fill="#dadada"/>
          <rect id="Rectangle_104" data-name="Rectangle 104" width="1.241" height="57.706" transform="translate(69.492 0.62)" fill="#dadada"/>
          <rect id="Rectangle_105" data-name="Rectangle 105" width="1.241" height="57.706" transform="translate(52.119 0.62)" fill="#dadada"/>
          <rect id="Rectangle_106" data-name="Rectangle 106" width="1.241" height="57.706" transform="translate(34.746 0.62)" fill="#dadada"/>
          <rect id="Rectangle_107" data-name="Rectangle 107" width="1.241" height="57.706" transform="translate(17.373 0.62)" fill="#dadada"/>
        </g>
        <path id="Path_241" data-name="Path 241" d="M304.006,477.8c-1.2-2.425-2.553-5.173-4.695-7.043-2.508-2.19-5.625-2.6-7.939-1.036a12.442,12.442,0,0,0-1.537,1.346c-1.473,1.427-3.305,3.2-5.651,2.254a8.708,8.708,0,0,1-3.636-3.256,11.866,11.866,0,0,0-1.912-2.159c-1.759-1.431-3.943-1.319-6.873.354l-.2.114c-1.762,1.01-3.956,2.268-6-.121a7.732,7.732,0,0,1-1.466-3.911,7.591,7.591,0,0,0-1.006-3.108c-1.785-2.525-4.257-3.4-6.781-2.414-1.278.5-2.761,2.226-4.331,4.052-2.284,2.655-4.814,5.595-7.543,5.6a4.007,4.007,0,0,1-2.008-.558c-2.167-1.232-2-3.913-1.86-6.278.133-2.193.259-4.264-1.192-5.175-1.851-1.162-4.254.916-5.417,2.6-1.744,2.519-4.643,4.932-7.187,4.643-1.079-.122-2.575-.795-3.576-3.3a14.375,14.375,0,0,1-.55-6.249,18.848,18.848,0,0,0-.044-4.06c-.314-1.928-1.87-4.515-4.339-4.221-1.755.207-2.624,1.8-3.544,3.492A12.328,12.328,0,0,1,212.973,452c-1.074,1.122-2.117,1.559-3.1,1.3-1.149-.305-2.02-1.528-2.52-3.536-.024-.1-.053-.222-.086-.371-.631-2.781-1.108-3.184-1.284-3.228-.025-.006-.165.028-.409.31a4.383,4.383,0,0,0-.616,2.916,7.135,7.135,0,0,1-.379,2.847,3.941,3.941,0,0,1-3.077,2.268,5.692,5.692,0,0,1-4.985-1.635c-1.691-1.849-2.335-4.679-1.913-8.413.339-3.005.276-11.083-1.882-12.321-.541-.31-1.276-.123-2.185.557-1.321.988-2.125,3.636-2.335,5.822a33.285,33.285,0,0,1-4.23,13.282c-.721,1.256-1.762,2.734-3.432,3.011a3.278,3.278,0,0,1-2.551-.677,5.5,5.5,0,0,1-2.022-3.676,14.77,14.77,0,0,1,.146-3.5,17.34,17.34,0,0,0,.19-2.6c-.052-1.805-1.061-3.763-2.661-3.914-.828-.081-2.431,1.357-3.719,2.51-1.88,1.684-3.5,3.136-4.87,2.632-.755-.279-1.211-1.085-1.393-2.463-.031-.234-.047-.493-.063-.767-.072-1.2-.184-2.123-.891-2.275a1.23,1.23,0,0,0-1.145.2c-1.159.954-1.092,4.432-1.052,6.51a13.467,13.467,0,0,1-.063,2.352,5.055,5.055,0,0,1-2.5,3.374,2.971,2.971,0,0,1-2.638.1c-1.81-.839-2.137-3.044-2.22-4.871l-.561-12.37c-.067-1.469-.31-3.489-1.652-4.065a1.88,1.88,0,0,0-1.489.023,4.329,4.329,0,0,0-2.172,2.284,15.626,15.626,0,0,0-.689,2.247,12.162,12.162,0,0,1-1.19,3.3,4.761,4.761,0,0,1-3.386,2.231,2.81,2.81,0,0,1-2.417-.832c-1.061-1.126-.886-2.661-.731-4.015a9.115,9.115,0,0,0,.087-1.983,3.23,3.23,0,0,0-1.737-2.5,6.332,6.332,0,0,0-5.39-.141l-.533-1.121a7.557,7.557,0,0,1,6.524.176,4.405,4.405,0,0,1,2.368,3.441,10.012,10.012,0,0,1-.086,2.266c-.142,1.243-.265,2.317.4,3.023a1.555,1.555,0,0,0,1.377.449,3.512,3.512,0,0,0,2.455-1.632,11.06,11.06,0,0,0,1.054-2.97,16.824,16.824,0,0,1,.748-2.424,5.545,5.545,0,0,1,2.852-2.953,3.117,3.117,0,0,1,2.442-.012c1.982.852,2.32,3.346,2.4,5.149l.561,12.37c.067,1.477.3,3.244,1.5,3.8a1.714,1.714,0,0,0,1.554-.082,3.808,3.808,0,0,0,1.846-2.511,14.136,14.136,0,0,0,.039-2.084c-.05-2.6-.118-6.156,1.5-7.492a2.474,2.474,0,0,1,2.195-.453c1.684.363,1.795,2.2,1.868,3.413.015.252.03.489.055.679.108.818.33,1.364.594,1.462.663.246,2.368-1.279,3.611-2.392,1.694-1.517,3.3-2.95,4.664-2.821,2.37.224,3.719,2.8,3.785,5.114a18.52,18.52,0,0,1-.2,2.787,13.625,13.625,0,0,0-.145,3.21,4.284,4.284,0,0,0,1.536,2.827,2.042,2.042,0,0,0,1.6.443c1.155-.191,1.974-1.385,2.558-2.4a32.038,32.038,0,0,0,4.071-12.784c.219-2.278,1.091-5.4,2.827-6.7,1.343-1,2.535-1.219,3.546-.64,3.558,2.04,2.511,13.423,2.5,13.537-.379,3.362.158,5.864,1.6,7.436a4.4,4.4,0,0,0,3.862,1.249,2.741,2.741,0,0,0,2.144-1.535,6.173,6.173,0,0,0,.278-2.355,5.4,5.4,0,0,1,.919-3.73,1.619,1.619,0,0,1,1.648-.7c1.223.307,1.773,2.307,2.193,4.157.032.139.058.257.08.346.367,1.477.979,2.462,1.634,2.637.64.17,1.378-.426,1.885-.956a11.281,11.281,0,0,0,1.55-2.381c.982-1.8,2.1-3.848,4.488-4.131,2.98-.35,5.243,2.395,5.709,5.254a20.039,20.039,0,0,1,.058,4.331,13.472,13.472,0,0,0,.464,5.717c.621,1.556,1.483,2.407,2.563,2.529,2.029.232,4.543-1.973,6.027-4.116,1.719-2.483,4.673-4.461,7.1-2.94,2.074,1.3,1.913,3.958,1.77,6.3-.134,2.2-.26,4.274,1.235,5.124,2.616,1.487,5.351-1.693,8-4.768,1.674-1.945,3.254-3.783,4.818-4.4,3.054-1.2,6.137-.133,8.249,2.853a8.623,8.623,0,0,1,1.214,3.607,6.715,6.715,0,0,0,1.186,3.32c1.316,1.534,2.487.974,4.445-.148l.2-.115c3.387-1.934,6.092-2.012,8.272-.239a12.973,12.973,0,0,1,2.12,2.375,7.64,7.64,0,0,0,3.11,2.852c1.486.6,2.676-.4,4.323-2a13.273,13.273,0,0,1,1.706-1.484c2.795-1.885,6.5-1.441,9.449,1.13,2.328,2.033,3.743,4.9,4.991,7.428Z" transform="translate(-130.424 -418.876)" fill="#3a6bea"/>
        <circle id="Ellipse_16" data-name="Ellipse 16" cx="2.792" cy="2.792" r="2.792" transform="translate(40.878 18.098)" fill="#102048"/>
        <circle id="Ellipse_17" data-name="Ellipse 17" cx="2.792" cy="2.792" r="2.792" transform="translate(119.268 40.229)" fill="#102048"/>
      </g>
      <g id="Group_260" data-name="Group 260" transform="translate(20.192 117.405)">
        <rect id="Rectangle_108" data-name="Rectangle 108" width="12.824" height="93.912" transform="translate(0 0)" fill="#86a7ff"/>
        <rect id="Rectangle_109" data-name="Rectangle 109" width="12.824" height="81.078" transform="translate(26.766 12.932)" fill="#d3dfff"/>
        <rect id="Rectangle_110" data-name="Rectangle 110" width="12.824" height="64.883" transform="translate(53.532 29.251)" fill="#86a7ff"/>
        <rect id="Rectangle_111" data-name="Rectangle 111" width="12.824" height="54.912" transform="translate(80.298 39.27)" fill="#d3dfff"/>
        <rect id="Rectangle_112" data-name="Rectangle 112" width="12.824" height="70.42" transform="translate(107.065 23.628)" fill="#86a7ff"/>
        <rect id="Rectangle_113" data-name="Rectangle 113" width="12.824" height="44.825" transform="translate(133.831 49.312)" fill="#d3dfff"/>
        <rect id="Rectangle_114" data-name="Rectangle 114" width="12.824" height="19.809" transform="translate(160.597 74.752)" fill="#86a7ff"/>
      </g>
    </g>
    <g id="Group_270" data-name="Group 270" transform="translate(320.164 65.889)">
      <g id="Group_262" data-name="Group 262" transform="translate(0.002 21.751)">
        <path id="Path_242" data-name="Path 242" d="M1407.15,293.729V490.656a9.928,9.928,0,0,0,9.928,9.928h192.708a9.928,9.928,0,0,0,9.928-9.928V293.729Z" transform="translate(-1406.53 -293.108)" fill="#fff"/>
        <path id="Path_243" data-name="Path 243" d="M1607.434,498.85H1414.726a10.56,10.56,0,0,1-10.548-10.548V290.755h213.8V488.3A10.56,10.56,0,0,1,1607.434,498.85ZM1405.418,292V488.3a9.318,9.318,0,0,0,9.307,9.307h192.707a9.318,9.318,0,0,0,9.307-9.307V292Z" transform="translate(-1404.178 -290.755)" fill="#3a6bea"/>
      </g>
      <g id="Group_264" data-name="Group 264" transform="translate(0 0)">
        <g id="Group_263" data-name="Group 263">
          <path id="Path_244" data-name="Path 244" d="M1619.707,199.42a9.928,9.928,0,0,0-9.928-9.928H1417.072a9.928,9.928,0,0,0-9.928,9.928v11.823h212.564V199.42Z" transform="translate(-1406.523 -188.871)" fill="#3a6bea"/>
          <path id="Path_245" data-name="Path 245" d="M1617.976,209.51H1404.17V197.066a10.56,10.56,0,0,1,10.548-10.548h192.707a10.56,10.56,0,0,1,10.548,10.548V209.51Zm-212.564-1.241h211.323v-11.2a9.318,9.318,0,0,0-9.307-9.307H1414.719a9.318,9.318,0,0,0-9.307,9.307v11.2Z" transform="translate(-1404.17 -186.518)" fill="#3a6bea"/>
        </g>
        <circle id="Ellipse_18" data-name="Ellipse 18" cx="4.343" cy="4.343" r="4.343" transform="translate(13.241 7.066)" fill="#fff"/>
      </g>
      <g id="Group_266" data-name="Group 266" transform="translate(20.193 117.405)">
        <rect id="Rectangle_115" data-name="Rectangle 115" width="12.824" height="93.912" transform="translate(160.596 0)" fill="#86a7ff"/>
        <rect id="Rectangle_116" data-name="Rectangle 116" width="12.824" height="90.245" transform="translate(133.83 3.695)" fill="#d3dfff"/>
        <rect id="Rectangle_117" data-name="Rectangle 117" width="12.824" height="75.112" transform="translate(107.065 18.925)" fill="#86a7ff"/>
        <rect id="Rectangle_118" data-name="Rectangle 118" width="12.824" height="64.543" transform="translate(80.299 29.525)" fill="#d3dfff"/>
        <rect id="Rectangle_119" data-name="Rectangle 119" width="12.824" height="45.241" transform="translate(53.531 49.054)" fill="#86a7ff"/>
        <rect id="Rectangle_120" data-name="Rectangle 120" width="12.824" height="29.175" transform="translate(26.766 65.214)" fill="#d3dfff"/>
        <rect id="Rectangle_121" data-name="Rectangle 121" width="12.824" height="19.809" transform="translate(0 74.752)" fill="#86a7ff"/>
        <g id="Group_265" data-name="Group 265" transform="translate(7.269 14.568)">
          <path id="Path_246" data-name="Path 246" d="M1563.429,818.979h-23.938a3.716,3.716,0,0,0-3.716,3.716v14.625a3.716,3.716,0,0,0,3.716,3.716h15.049l4.517,7.107,4.528-7.123a3.708,3.708,0,0,0,3.56-3.7V822.695A3.717,3.717,0,0,0,1563.429,818.979Z" transform="translate(-1535.776 -818.979)" fill="#86a7ff"/>
          <path id="Path_247" data-name="Path 247" d="M1587.706,842.714l1.893,3.836,4.234.615-3.063,2.986.722,4.216-3.785-1.991-3.787,1.991.724-4.216-3.063-2.986,4.232-.615Z" transform="translate(-1572.022 -837.761)" fill="#fff"/>
        </g>
      </g>
      <g id="Group_269" data-name="Group 269" transform="translate(19.417 39.745)">
        <g id="Group_267" data-name="Group 267">
          <path id="Path_248" data-name="Path 248" d="M1672.2,435.937H1497.225V376.99H1672.2ZM1498.465,434.7h172.49V378.231h-172.49Z" transform="translate(-1497.225 -376.99)" fill="#dadada"/>
          <rect id="Rectangle_122" data-name="Rectangle 122" width="173.731" height="1.241" transform="translate(0.621 43.279)" fill="#dadada"/>
          <rect id="Rectangle_123" data-name="Rectangle 123" width="173.731" height="1.241" transform="translate(0.621 28.853)" fill="#dadada"/>
          <rect id="Rectangle_124" data-name="Rectangle 124" width="173.731" height="1.241" transform="translate(0.621 14.427)" fill="#dadada"/>
          <rect id="Rectangle_125" data-name="Rectangle 125" width="1.241" height="57.706" transform="translate(156.357 0.62)" fill="#dadada"/>
          <rect id="Rectangle_126" data-name="Rectangle 126" width="1.241" height="57.706" transform="translate(138.983 0.62)" fill="#dadada"/>
          <rect id="Rectangle_127" data-name="Rectangle 127" width="1.241" height="57.706" transform="translate(121.612 0.62)" fill="#dadada"/>
          <rect id="Rectangle_128" data-name="Rectangle 128" width="1.241" height="57.706" transform="translate(104.238 0.62)" fill="#dadada"/>
          <rect id="Rectangle_129" data-name="Rectangle 129" width="1.241" height="57.706" transform="translate(86.865 0.62)" fill="#dadada"/>
          <rect id="Rectangle_130" data-name="Rectangle 130" width="1.241" height="57.706" transform="translate(69.491 0.62)" fill="#dadada"/>
          <rect id="Rectangle_131" data-name="Rectangle 131" width="1.241" height="57.706" transform="translate(52.12 0.62)" fill="#dadada"/>
          <rect id="Rectangle_132" data-name="Rectangle 132" width="1.241" height="57.706" transform="translate(34.746 0.62)" fill="#dadada"/>
          <rect id="Rectangle_133" data-name="Rectangle 133" width="1.241" height="57.706" transform="translate(17.372 0.62)" fill="#dadada"/>
        </g>
        <g id="Group_268" data-name="Group 268" transform="translate(0.405 4.033)">
          <path id="Path_249" data-name="Path 249" d="M1513.6,450.3a5.149,5.149,0,0,1-1.018-.106c-2.764-.558-3.266-3.041-3.67-5.037-.418-2.068-.756-3.342-2.347-3.478-1.832-.156-4.958,2.174-6.493,3.8l-.9-.852c1.173-1.241,4.811-4.414,7.5-4.182,2.6.222,3.055,2.478,3.458,4.469.462,2.284.874,3.7,2.7,4.066,3.028.612,4.266-2.471,5.368-5.961l3.836-12.156a13.971,13.971,0,0,1,2.776-5.612c1.472-1.556,4.154-2.536,6.229-1.285,1.55.935,2.338,2.737,2.341,5.357,0,.473-.014.97-.029,1.5-.057,1.936-.12,4.13.584,5.659a2.722,2.722,0,0,0,1.628,1.477,1.713,1.713,0,0,0,1.466-.224c1.443-.938,1.616-2.692,1.8-4.549a11.173,11.173,0,0,1,.687-3.393,3.724,3.724,0,0,1,4.873-1.979c4.142,1.517,3.952,6.52,3.825,9.83l-.013.369c-.087,2.364.179,5.685,1.935,8.08a3.108,3.108,0,0,0,2.506,1.448,2.5,2.5,0,0,0,1.983-1.395c.9-1.5,1-3.574,1.109-5.577.032-.609.062-1.185.114-1.739l.826-8.785c.343-3.639,1.605-5.816,3.652-6.294a2.842,2.842,0,0,1,2.383.394c1.051.744,1.689,2.267,1.95,4.656a14.014,14.014,0,0,1,0,2.14c-.127,2.509-.074,4.19,1.751,4.667a3.053,3.053,0,0,0,3.027-1.461,10.552,10.552,0,0,0,1.2-4.318c.057-.433.114-.862.184-1.283.484-2.943,1.092-6.408,1.927-9.8l.011-.044c.467-1.9,1.107-4.491,3.095-5.642a3.508,3.508,0,0,1,3.426-.275c1.78.861,2.881,3.328,3.183,5.392a25.925,25.925,0,0,1,.138,4.205,17.63,17.63,0,0,0,.434,5.445c.507,1.626,2.14,3.668,4.19,3.114,2.182-.59,2.635-2.477,3.159-4.662.1-.425.208-.864.327-1.288.964-3.417,2.284-8.1,5.243-11.115a5.853,5.853,0,0,1,6.987-1.015c3.447,1.9,3.415,6.056,3.387,9.72a17.5,17.5,0,0,0,.407,5.063,4.558,4.558,0,0,0,2.9,3.307,3.682,3.682,0,0,0,3.051-.3c1.665-.987,2.668-3.275,3.05-5.087l.164-.782c.783-3.758,1.855-8.905,4.281-11.753a5.748,5.748,0,0,1,6.009-2.075,6.65,6.65,0,0,1,4.633,5.362c.055.316.1.634.153.953a12.344,12.344,0,0,0,.66,2.84,3.147,3.147,0,0,0,2.419,2.136,3.669,3.669,0,0,0,3.3-1.615,14.832,14.832,0,0,0,1.646-3c.3-.65.6-1.321.96-1.964,3.257-5.839,10.12-8.129,15.455-8.324,6.2-.227,12.2,1.724,17.5,3.446l-.384,1.18c-5.2-1.69-11.095-3.6-17.073-3.386-5,.183-11.411,2.3-14.417,7.689-.334.6-.629,1.247-.915,1.874a15.981,15.981,0,0,1-1.794,3.24,4.9,4.9,0,0,1-4.445,2.085,4.389,4.389,0,0,1-3.4-2.9,13.463,13.463,0,0,1-.738-3.123c-.047-.309-.095-.618-.149-.926a5.407,5.407,0,0,0-3.737-4.379,4.553,4.553,0,0,0-4.739,1.682c-2.22,2.606-3.255,7.574-4.011,11.2l-.164.785a8.943,8.943,0,0,1-3.632,5.9,4.877,4.877,0,0,1-4.041.422,5.791,5.791,0,0,1-3.729-4.118,18.255,18.255,0,0,1-.466-5.451c.027-3.48.055-7.079-2.745-8.624a4.607,4.607,0,0,0-5.5.8c-2.736,2.793-4.007,7.3-4.935,10.583-.113.4-.216.828-.315,1.241-.539,2.244-1.15,4.788-4.042,5.57-2.578.7-4.923-1.457-5.7-3.943a18.52,18.52,0,0,1-.49-5.84,24.613,24.613,0,0,0-.126-4c-.254-1.736-1.193-3.824-2.5-4.454a2.3,2.3,0,0,0-2.264.231c-1.532.887-2.075,3.093-2.512,4.865l-.011.044c-.825,3.347-1.427,6.783-1.908,9.7-.067.408-.122.825-.178,1.244a11.46,11.46,0,0,1-1.384,4.822,4.233,4.233,0,0,1-4.387,1.994c-2.938-.768-2.787-3.752-2.677-5.93a13.147,13.147,0,0,0,.011-1.942c-.271-2.475-.929-3.421-1.434-3.778a1.633,1.633,0,0,0-1.383-.2c-1.965.46-2.535,3.457-2.7,5.2l-.826,8.785c-.05.529-.079,1.092-.11,1.688-.108,2.053-.229,4.381-1.281,6.147a3.72,3.72,0,0,1-2.991,2,4.265,4.265,0,0,1-3.567-1.954c-1.966-2.682-2.268-6.3-2.174-8.859l.014-.37c.12-3.128.283-7.411-3.011-8.617a2.5,2.5,0,0,0-3.311,1.315,10.159,10.159,0,0,0-.587,3.012c-.194,1.971-.414,4.205-2.358,5.469a2.945,2.945,0,0,1-2.488.375,3.938,3.938,0,0,1-2.41-2.15c-.826-1.794-.758-4.142-.7-6.214.015-.517.029-1,.029-1.459,0-2.155-.588-3.6-1.741-4.3-1.517-.915-3.547-.13-4.686,1.075a13.035,13.035,0,0,0-2.495,5.133l-3.828,12.13C1518.542,446.024,1517.193,450.3,1513.6,450.3Z" transform="translate(-1499.166 -405.026)" fill="#3a6bea"/>
          <circle id="Ellipse_19" data-name="Ellipse 19" cx="2.792" cy="2.792" r="2.792" transform="translate(50.4 39.712)" fill="#102048"/>
          <circle id="Ellipse_20" data-name="Ellipse 20" cx="2.792" cy="2.792" r="2.792" transform="translate(153.715)" fill="#102048"/>
        </g>
      </g>
    </g>
  </g>
</svg>
